<svg width="24" height="24" viewBox="0 0 24 24" fill="none" xmlns="http://www.w3.org/2000/svg">
<g clip-path="url(#clip0_212_4296)">
<path d="M17.2769 21.18H20.1175C20.1175 21.1006 20.1175 21.0306 20.1175 20.9575C20.1175 18.9927 20.1175 17.028 20.1175 15.0632C20.1175 14.9901 20.1175 14.9138 20.1367 14.847C20.1782 14.7103 20.2773 14.6372 20.4274 14.6499C20.5712 14.6594 20.6511 14.7453 20.6767 14.8788C20.6927 14.9551 20.6895 15.0378 20.6895 15.1141C20.6895 17.0598 20.6895 19.0054 20.6895 20.9543V21.1959C20.9035 21.1959 21.0985 21.1959 21.2934 21.1959C21.8845 21.2023 22.2488 21.5679 22.252 22.1592C22.252 22.5789 22.252 22.9986 22.252 23.4405C22.5875 23.4405 22.9102 23.4405 23.2329 23.4405C23.348 23.4405 23.4662 23.4341 23.5812 23.4405C23.7442 23.4532 23.84 23.5613 23.8368 23.7171C23.8368 23.8697 23.7346 23.9778 23.578 23.9937C23.5173 24 23.4566 23.9937 23.3927 23.9937C15.7335 23.9937 8.07436 23.9937 0.415193 23.9937C0.373654 23.9937 0.32892 23.9937 0.287381 23.9937C0.118029 23.9809 0.00619334 23.8728 0.00619334 23.7171C0.00619334 23.5613 0.114834 23.4437 0.287381 23.4405C0.654842 23.4341 1.0223 23.4405 1.38976 23.4405C1.45687 23.4405 1.52077 23.4405 1.61344 23.4405C1.61344 23.0971 1.61344 22.7728 1.61344 22.4454C1.61344 22.3309 1.61344 22.2133 1.61344 22.0988C1.62941 21.5838 2.00965 21.2087 2.53049 21.1991C2.74458 21.1959 2.95547 21.1991 3.17914 21.1991V12.771C3.05133 12.8854 2.94588 12.9808 2.84044 13.0762C2.37073 13.5086 1.79876 13.4863 1.36101 13.0221C0.999936 12.6406 0.642061 12.2559 0.284186 11.8681C-0.118424 11.4293 -0.099252 10.8571 0.338506 10.4501C1.24917 9.60447 2.16303 8.76515 3.0705 7.91948C3.13121 7.86225 3.18234 7.75734 3.18234 7.67468C3.18873 5.86252 3.18873 4.05035 3.18873 2.23819V2.08241C2.94588 2.08241 2.71582 2.08241 2.48576 2.08241C2.27487 2.07923 2.16623 1.99975 2.15025 1.84397C2.13108 1.68501 2.22694 1.55466 2.3867 1.52605C2.44741 1.51651 2.50812 1.51969 2.56884 1.51969C4.16969 1.51969 5.77054 1.51969 7.37139 1.51969C7.41932 1.51969 7.47045 1.51969 7.51838 1.51969C7.68453 1.53558 7.79956 1.65322 7.79317 1.80582C7.78678 1.97432 7.68453 2.06652 7.52477 2.07287C7.27553 2.08241 7.0231 2.07287 6.76109 2.07287V4.49545C6.8218 4.44458 6.87292 4.40643 6.91766 4.3651C8.33318 3.05843 9.74551 1.74859 11.161 0.441929C11.6819 -0.0381342 12.1771 -0.0413134 12.698 0.441929C13.9505 1.59917 15.2031 2.75641 16.4525 3.92001C16.5196 3.98359 16.5995 4.07897 16.5995 4.15845C16.5995 4.25065 16.5324 4.3651 16.4557 4.4255C16.347 4.51452 16.2224 4.46365 16.1234 4.37146C15.8166 4.09168 15.5131 3.80873 15.2063 3.52578C14.2221 2.61652 13.238 1.71044 12.2538 0.801182C12.1164 0.674013 11.9694 0.607249 11.7873 0.677192C11.717 0.705805 11.6499 0.756673 11.5924 0.81072C9.32692 2.90265 7.06464 4.99459 4.79916 7.08652C3.46672 8.32006 2.13108 9.55042 0.798631 10.784C0.469514 11.0892 0.466319 11.2545 0.773069 11.5788C1.09899 11.9253 1.42491 12.275 1.75083 12.6216C1.99687 12.8823 2.19818 12.8918 2.46019 12.6502C5.40627 9.92557 8.34916 7.20097 11.2952 4.47637C11.3975 4.38099 11.5029 4.28562 11.6052 4.19024C11.8896 3.92954 11.9599 3.92954 12.2506 4.1966C12.8801 4.7784 13.5064 5.3602 14.1359 5.942C14.1998 5.99922 14.2637 6.05645 14.3244 6.11685C14.465 6.25356 14.4778 6.41252 14.3627 6.53651C14.2477 6.65732 14.0847 6.65732 13.9378 6.52062C13.4649 6.08506 12.9951 5.64951 12.5222 5.21395C12.3305 5.03592 12.1356 4.85788 11.9343 4.67348C11.896 4.70528 11.8608 4.72753 11.832 4.75296C9.17355 7.21051 6.51505 9.66805 3.85974 12.1288C3.79903 12.186 3.74791 12.2909 3.74791 12.3768C3.74152 15.2508 3.74471 18.1248 3.74471 20.9988C3.74471 21.0529 3.7511 21.1069 3.7543 21.1737H10.6817C10.6817 21.0974 10.6817 21.0211 10.6817 20.9448C10.6817 18.5413 10.6817 16.1378 10.6817 13.7343C10.6817 13.3814 10.8 13.1143 11.1291 12.9681C11.2249 12.9236 11.34 12.9045 11.4486 12.9045C13.1293 12.9013 14.8101 12.9013 16.4908 12.9045C16.9669 12.9045 17.2705 13.2224 17.2705 13.7089C17.2705 16.1251 17.2705 18.5413 17.2705 20.9575C17.2705 21.0306 17.2705 21.1037 17.2705 21.1864L17.2769 21.18ZM16.6921 21.1737C16.6921 21.1133 16.6985 21.0656 16.6985 21.0179C16.6985 18.589 16.6985 16.16 16.6985 13.7343C16.6985 13.5022 16.6442 13.4513 16.3982 13.4513C14.7845 13.4513 13.1741 13.4513 11.5604 13.4513C11.292 13.4513 11.2441 13.5022 11.2441 13.7756C11.2441 16.1728 11.2441 18.5699 11.2441 20.9702V21.1769H16.6889L16.6921 21.1737ZM21.6928 23.4278C21.6928 23.024 21.6928 22.6298 21.6928 22.2324C21.6928 21.8509 21.5873 21.7491 21.1975 21.7491C17.8808 21.7491 14.564 21.7491 11.2473 21.7491C8.37152 21.7491 5.49574 21.7491 2.61996 21.7491C2.29404 21.7491 2.17901 21.8636 2.17262 22.1879C2.17262 22.3723 2.17262 22.5535 2.17262 22.7379C2.17262 22.9668 2.17262 23.1957 2.17262 23.4278H21.6896H21.6928ZM3.7511 7.2582C3.80223 7.22323 3.82459 7.21051 3.84057 7.19461C4.59786 6.48246 5.35515 5.7735 6.10924 5.05817C6.15717 5.01048 6.18593 4.92146 6.18593 4.84834C6.19232 3.97723 6.18913 3.10612 6.18593 2.23501C6.18593 2.18733 6.17634 2.14282 6.16995 2.07605C6.09966 2.07605 6.03895 2.07605 5.97823 2.07605C5.30402 2.07605 4.62981 2.08241 3.9556 2.07287C3.78625 2.07287 3.74152 2.11738 3.74152 2.28588C3.74791 3.8755 3.74471 5.46829 3.74471 7.05791C3.74471 7.11195 3.74471 7.166 3.74471 7.25502L3.7511 7.2582Z" fill="#152744"/>
<path d="M20.0345 3.78645C20.2614 3.30003 20.4819 2.82633 20.7023 2.35262C20.9388 1.84394 21.172 1.33527 21.4085 0.826591C21.6801 0.244792 22.185 -0.0476975 22.8112 0.0063494C23.3353 0.0508586 23.8018 0.451442 23.952 1.00781C24.0351 1.31937 23.9999 1.62458 23.8625 1.91707C23.4311 2.8454 22.9998 3.77374 22.5684 4.70207C22.5396 4.76883 22.5077 4.83242 22.4757 4.90872C22.6515 4.99138 22.824 5.07404 22.9934 5.15352C23.5685 5.42058 23.8114 5.88156 23.7155 6.50469C23.5014 7.87812 23.2937 9.25155 23.0828 10.6218C22.9518 11.4707 22.824 12.3195 22.693 13.1684C22.6131 13.6929 22.0572 13.9854 21.5587 13.7597C20.4723 13.2669 19.3923 12.7646 18.309 12.2655C16.8424 11.5915 15.3758 10.9143 13.9091 10.2403C13.3276 9.97323 13.1997 9.38508 13.6215 8.90501C15.0754 7.2391 16.5325 5.57 17.9863 3.90726C18.4464 3.37951 18.9225 3.27778 19.5616 3.57027C19.7118 3.63703 19.862 3.70697 20.0377 3.78963L20.0345 3.78645ZM20.0665 12.4467C20.1112 12.4753 20.14 12.4975 20.1719 12.5103C20.6928 12.7519 21.2168 12.9903 21.7376 13.2288C21.9741 13.3369 22.1083 13.2574 22.1466 13.003C22.2361 12.4181 22.3224 11.8363 22.4118 11.2513C22.5556 10.3166 22.6962 9.38508 22.8464 8.45038C22.8656 8.32321 22.8304 8.26917 22.7186 8.2183C21.0059 7.43303 19.2964 6.64458 17.5869 5.85613C17.1939 5.67491 17.1907 5.67492 16.9127 5.99284C15.9605 7.08331 15.0051 8.17379 14.0561 9.26427C13.8708 9.47727 13.8995 9.6108 14.1519 9.73161C14.3437 9.82381 14.5386 9.91601 14.7335 10.005C15.0882 10.1703 15.4397 10.3325 15.8039 10.4978C15.8391 10.4279 15.8678 10.3738 15.8934 10.3198C16.0755 9.93508 16.2545 9.54722 16.4366 9.15935C16.5293 8.95906 16.6826 8.88912 16.8456 8.96542C16.9958 9.03854 17.0373 9.20068 16.951 9.39461C16.868 9.57901 16.7785 9.75705 16.6954 9.94144C16.574 10.2053 16.4526 10.466 16.328 10.7362C16.7913 10.9493 17.2322 11.1495 17.6796 11.3562C17.7051 11.3053 17.7211 11.2735 17.7371 11.2417C18.0502 10.5677 18.3634 9.89375 18.6829 9.21976C18.7692 9.03854 18.9162 8.97495 19.0663 9.03854C19.2229 9.1053 19.2772 9.26744 19.191 9.45184C19.0248 9.81745 18.8523 10.1799 18.6829 10.5455C18.5231 10.892 18.3634 11.2354 18.1972 11.5915C18.6573 11.8045 19.0983 12.0048 19.5488 12.2114C19.6127 12.0811 19.6639 11.973 19.715 11.8617C19.8748 11.5183 20.0313 11.175 20.1943 10.8348C20.2742 10.6663 20.4243 10.6091 20.5713 10.6758C20.7215 10.7426 20.7758 10.8857 20.7087 11.0574C20.6736 11.1495 20.6288 11.2354 20.5873 11.3244C20.4148 11.6932 20.2454 12.062 20.0697 12.4371L20.0665 12.4467ZM22.9678 7.71598C23.0381 7.21684 23.1148 6.75585 23.1691 6.29169C23.2043 6.00556 23.0605 5.80526 22.7985 5.68127C22.1498 5.38243 21.5012 5.0804 20.8525 4.78155C20.3253 4.53675 19.7981 4.29513 19.2708 4.05351C18.9801 3.91998 18.734 3.93906 18.5455 4.14571C18.2228 4.49542 17.916 4.85785 17.5869 5.23618C19.3827 6.06596 21.1625 6.88302 22.9742 7.71916L22.9678 7.71598ZM21.9581 4.67346C21.9773 4.64484 21.9901 4.63213 21.9996 4.61623C22.4534 3.64021 22.9135 2.66419 23.3608 1.68498C23.5526 1.26532 23.3864 0.817053 22.9902 0.632658C22.5876 0.445083 22.1402 0.62312 21.9389 1.04914C21.8175 1.30665 21.6993 1.56735 21.5779 1.82805C21.2392 2.55609 20.9036 3.28413 20.5585 4.02807C21.0315 4.24744 21.4948 4.46045 21.9613 4.67346H21.9581Z" fill="#152744"/>
<path d="M7.11293 18.678C6.66559 18.678 6.21824 18.678 5.7709 18.678C5.3587 18.678 5.13184 18.4554 5.13184 18.0485C5.13184 17.4826 5.13184 16.9135 5.13184 16.3476C5.13823 15.3048 5.88273 14.4782 6.94677 14.3765C7.93093 14.2811 8.84479 14.9614 9.0429 15.9152C9.07485 16.0742 9.09722 16.2395 9.09722 16.4016C9.10361 16.9389 9.10042 17.473 9.09722 18.0103C9.09722 18.4522 8.87355 18.6748 8.43259 18.678C7.99164 18.678 7.55069 18.678 7.10974 18.678H7.11293ZM5.7006 18.0898H6.81896V16.9485H5.7006V18.0898ZM8.52526 16.9453H7.39731C7.39731 17.3077 7.39731 17.6606 7.40051 18.0103C7.40051 18.0453 7.46122 18.1057 7.49637 18.1057C7.83507 18.1121 8.17697 18.1089 8.52526 18.1089V16.9453ZM7.41009 14.9869V16.3635H8.51887C8.58277 15.7308 7.98845 14.9932 7.41009 14.9869ZM6.82535 14.9837C6.22463 15.0155 5.62711 15.7626 5.71338 16.3571H6.82535V14.9837Z" fill="#152744"/>
<path d="M11.9186 11.0192C10.9376 11.0097 10.0781 10.2212 10.1196 9.14981C10.1611 8.06887 11.1038 7.2995 12.1614 7.43303C12.4682 7.47118 12.7398 7.57927 12.989 7.75413C13.1871 7.89402 13.235 8.04662 13.1328 8.19922C13.0305 8.34865 12.8676 8.355 12.6695 8.21512C11.9825 7.73505 11.0622 8.00847 10.7683 8.77784C10.5765 9.27698 10.7203 9.82699 11.1293 10.1703C11.5255 10.5042 12.1039 10.555 12.5544 10.2975C12.596 10.2721 12.6375 10.2435 12.6791 10.2212C12.826 10.1417 12.9858 10.1735 13.0689 10.3007C13.1552 10.4342 13.1296 10.5805 12.9858 10.6854C12.6695 10.9143 12.3116 11.0224 11.9186 11.0224V11.0192Z" fill="#152744"/>
<path d="M14.4043 17.4572C14.4043 16.9644 14.8197 16.5606 15.3086 16.567C15.8007 16.5733 16.2065 16.9866 16.2001 17.473C16.1937 17.9658 15.7847 18.3632 15.2926 18.3569C14.7941 18.3505 14.4011 17.9531 14.4043 17.454V17.4572ZM15.2958 17.1392C15.1041 17.1392 14.9699 17.2728 14.9667 17.4572C14.9667 17.6447 15.1105 17.7942 15.3022 17.7942C15.4907 17.7942 15.6345 17.6415 15.6313 17.4508C15.6281 17.2664 15.4875 17.1361 15.299 17.1361L15.2958 17.1392Z" fill="#152744"/>
</g>
<defs>
<clipPath id="clip0_212_4296">
<rect width="24" height="24" fill="white"/>
</clipPath>
</defs>
</svg>
