<svg width="227" height="272" viewBox="0 0 227 272" fill="none" xmlns="http://www.w3.org/2000/svg">
<g clip-path="url(#clip0_218_1756)">
<path d="M193.751 222.282C238.076 178.224 238.076 106.792 193.751 62.7337C149.427 18.6755 77.5626 18.6755 33.2381 62.7337C-11.0864 106.792 -11.0864 178.224 33.2381 222.282C77.5626 266.341 149.427 266.341 193.751 222.282Z" fill="#C3E9FD"/>
<path d="M174.394 85.8112C168.578 96.8217 169.451 110.02 166.562 122.118C165.124 128.106 162.493 134.191 157.428 137.748C153.604 140.424 148.822 141.353 144.174 141.878C135.138 142.917 126.016 142.672 116.918 142.44L116.549 142.33C119.229 132.456 115.222 121.201 119.856 112.073C122.389 107.075 127.208 103.543 132.36 101.27C137.499 98.9847 143.056 97.7871 148.465 96.2595C157.452 93.7055 166.169 90.1983 174.394 85.8112Z" fill="#46CDCF"/>
<path d="M159.591 194.841C152.313 196.417 137.228 198.788 112.48 198.788C87.7316 198.788 73.249 197.322 66.3274 196.356C62.885 195.867 61.3237 195.501 61.3237 195.501C58.4714 186.678 62.6883 175.459 62.6883 175.459C62.6883 177.904 84.9777 179.883 112.48 179.883C139.982 179.883 162.259 177.904 162.259 175.459C166.931 180.384 164.89 193.472 164.89 193.472C164.89 193.472 163.193 194.059 159.591 194.841Z" fill="#ECB841"/>
<path d="M162.001 46.4128C163.156 57.3989 162.628 69.277 156.235 78.3078C154.108 81.314 151.391 83.8925 148.526 86.2144C143.252 90.4793 137.363 93.9743 131.105 96.5772C124.823 99.1924 117.68 101.258 113.611 106.561L113.414 106.427C115.184 96.675 113.414 86.691 112.357 76.8414C111.324 66.9918 111.152 56.5312 115.774 47.757C120.114 39.5205 128.106 33.8625 136.146 29.121C144.199 24.3673 152.731 20.1147 159.284 13.4668C158.251 24.4651 160.845 35.4267 162.001 46.4128Z" fill="#46CDCF"/>
<path d="M159.591 194.841L149.559 253.841C149.055 256.822 146.904 259.242 144.015 260.195C118.246 268.639 91.5676 263.055 80.6627 260.036C77.5768 259.181 75.2901 256.59 74.8106 253.437L66.3276 196.356C73.2493 197.322 87.7564 198.788 112.48 198.788C137.204 198.788 152.313 196.417 159.591 194.841Z" fill="#ECB841"/>
<path d="M112.48 171.048C139.97 171.048 162.259 173.028 162.259 175.459C162.259 177.891 139.97 179.883 112.48 179.883C84.9901 179.883 62.6885 177.903 62.6885 175.459C62.6885 173.015 84.9778 171.048 112.48 171.048Z" fill="#282A40"/>
<path d="M100.886 66.5275C103.714 79.6277 103.333 93.18 102.939 106.586L102.595 106.781C100.308 102.553 95.5383 100.036 90.8542 98.5692C87.965 97.6649 84.9653 97.005 82.3097 95.5508C75.7938 91.9824 72.8063 84.4792 69.3885 77.9046C68.2083 75.6439 66.8928 73.3831 64.938 71.7089C61.7661 68.996 57.3648 68.2261 53.1848 67.9817C49.0047 67.7251 44.7141 67.8717 40.743 66.5764C34.3132 64.4745 29.5676 58.8165 26.9735 52.6085C24.3795 46.4006 23.6418 39.6061 22.9165 32.9216C22.2526 26.7259 21.5887 20.518 20.9248 14.3223C24.4041 17.8295 29.5676 19.1004 34.5099 19.3693C39.4522 19.6259 44.4313 19.0271 49.3613 19.467C56.9591 20.1514 64.1143 23.292 70.9007 26.7381C74.3308 28.4856 77.724 30.3309 80.8221 32.6039C91.6656 40.596 98.0586 53.4151 100.886 66.5275Z" fill="#46CDCF"/>
<path d="M29.1866 93.351C29.7276 93.0211 30.2931 92.7278 30.8709 92.459C35.4936 90.3204 40.8169 90.296 45.9067 90.7481C53.1726 91.3958 60.8319 93.2288 65.8356 98.508C67.815 100.61 69.2534 103.127 70.8148 105.547C76.6668 114.614 84.3876 122.497 93.3377 128.558C94.2844 129.218 95.2433 129.841 96.2269 130.44V131.124C85.2113 130.867 74.7612 138.737 63.8317 137.063C57.1928 136.049 51.6112 131.637 46.8411 126.932C42.071 122.215 37.6942 116.973 31.9528 113.502C26.0024 109.897 19.0193 108.455 12.1592 107.221C18.7735 103.995 22.9166 97.0416 29.1866 93.351Z" fill="#46CDCF"/>
<path d="M81.9658 114.456C84.9779 119.71 88.9981 124.305 93.3379 128.558C84.3877 122.497 76.667 114.614 70.815 105.547C69.2536 103.127 67.8152 100.61 65.8358 98.5081C60.8321 93.2289 53.1728 91.3958 45.9069 90.7482C40.8171 90.296 35.4937 90.3205 30.8711 92.459C30.2933 92.7279 29.7278 93.0211 29.1868 93.3511C26.1256 89.2084 25.6953 82.805 22.3267 78.5645C30.5761 78.2468 38.8378 77.9168 47.0995 77.5991C49.9025 77.4891 52.7548 77.3914 55.5087 77.9535C63.1926 79.5421 68.8725 86.1167 72.4501 93.07C76.0154 100.023 78.0808 107.673 81.9658 114.456Z" fill="#46CDCF"/>
<path d="M112.48 199.399C87.4612 199.399 72.7697 197.871 66.2415 196.955C65.9095 196.906 65.6759 196.601 65.7128 196.271C65.762 195.941 66.0693 195.708 66.4013 195.745C72.8926 196.649 87.5227 198.177 112.468 198.177C137.413 198.177 152.67 195.708 159.444 194.242C159.776 194.169 160.108 194.376 160.181 194.706C160.255 195.036 160.046 195.366 159.714 195.427C152.879 196.906 137.658 199.387 112.468 199.387L112.48 199.399Z" fill="#282A40"/>
<path d="M112.48 180.494C111.976 180.494 62.0737 180.433 62.0737 175.459C62.0737 170.486 111.976 170.437 112.48 170.437C112.984 170.437 162.874 170.498 162.874 175.459C162.874 180.421 112.984 180.494 112.48 180.494ZM63.34 175.459C64.7662 177.048 82.7157 179.272 112.48 179.272C142.244 179.272 160.181 177.048 161.608 175.459C160.169 173.883 142.22 171.659 112.48 171.659C82.7403 171.659 64.7785 173.883 63.34 175.459Z" fill="#282A40"/>
<path d="M96.2144 131.735C95.8702 131.735 95.5997 131.454 95.612 131.112V130.77C94.7268 130.22 93.8539 129.645 92.9933 129.047C84.0186 122.973 76.1626 114.944 70.3105 105.865C70.0155 105.413 69.7327 104.948 69.4377 104.496C68.2205 102.565 66.9665 100.586 65.3929 98.9114C61.3358 94.6342 54.9428 92.1535 45.8574 91.347C41.5052 90.9559 35.8991 90.7971 31.1412 92.9967C30.5265 93.2778 29.9979 93.5589 29.5184 93.8521C29.2234 94.0354 28.8545 93.9377 28.6701 93.6566C28.4857 93.3633 28.5841 92.9967 28.8668 92.8134C29.3832 92.4957 29.9487 92.1902 30.6126 91.8847C35.6409 89.5628 41.4561 89.7217 45.968 90.1127C55.3608 90.9559 62.012 93.5466 66.2903 98.0559C67.9378 99.8034 69.2287 101.844 70.4704 103.824C70.7531 104.276 71.0482 104.728 71.331 105.18C77.1092 114.126 84.83 122.02 93.6818 128.02C94.6285 128.68 95.5628 129.291 96.5464 129.89C96.7308 130 96.8414 130.208 96.8414 130.428V131.112C96.8291 131.442 96.5464 131.711 96.2144 131.711V131.735Z" fill="#282A40"/>
<path d="M108.497 180.519C108.165 180.519 107.894 180.25 107.882 179.92C107.489 159.341 105.964 138.554 103.333 118.146C101.637 104.924 99.399 90.8337 94.5182 77.2814C89.2809 62.727 81.7445 51.0321 72.1059 42.539C61.0042 32.7627 47.0872 27.6302 33.9447 28.4612C33.6005 28.4612 33.3177 28.229 33.2931 27.8868C33.2685 27.5447 33.5267 27.2636 33.871 27.2392C47.3577 26.3837 61.5944 31.6262 72.9296 41.6225C82.7281 50.25 90.3751 62.1037 95.6862 76.8659C100.592 90.5282 102.854 104.704 104.563 117.987C107.194 138.444 108.718 159.28 109.111 179.895C109.111 180.238 108.853 180.506 108.509 180.519H108.497Z" fill="#282A40"/>
<path d="M106.246 138.175C106.246 138.175 106.185 138.175 106.16 138.175C105.828 138.126 105.595 137.821 105.632 137.479C110.291 104.655 125.29 73.1386 147.862 48.7469C148.096 48.5025 148.477 48.478 148.735 48.7102C148.981 48.9424 149.006 49.3212 148.772 49.5778C126.372 73.7985 111.484 105.083 106.861 137.662C106.812 137.967 106.554 138.187 106.259 138.187L106.246 138.175Z" fill="#282A40"/>
<path d="M106.075 138.456C105.89 138.456 105.693 138.371 105.583 138.212C101.477 132.664 94.014 130.501 87.9775 129.242C87.08 129.059 86.1826 128.876 85.2851 128.705C79.3593 127.531 73.2245 126.309 68.2453 122.79C65.3193 120.725 62.9711 117.975 60.709 115.323C59.0493 113.38 57.3281 111.364 55.4102 109.653C47.6771 102.785 36.0345 100.769 26.4328 104.655C26.1131 104.789 25.7566 104.631 25.6336 104.325C25.5107 104.007 25.6582 103.653 25.9656 103.531C35.9976 99.4735 48.1566 101.575 56.2339 108.749C58.2133 110.508 59.959 112.562 61.6556 114.541C63.8686 117.144 66.1676 119.833 68.9707 121.812C73.7408 125.185 79.7404 126.37 85.5433 127.519C86.453 127.702 87.3505 127.874 88.248 128.069C94.5057 129.377 102.239 131.625 106.591 137.503C106.788 137.772 106.738 138.163 106.456 138.359C106.345 138.444 106.222 138.481 106.087 138.481L106.075 138.456Z" fill="#282A40"/>
<path d="M81.5352 245.506C81.2648 245.506 81.0189 245.323 80.9451 245.054C77.1216 231.306 74.0481 217.18 71.8105 203.077C71.7614 202.747 71.9827 202.43 72.3269 202.381C72.6588 202.332 72.9785 202.552 73.0277 202.894C75.2529 216.947 78.3142 231.025 82.1377 244.736C82.2237 245.066 82.0393 245.396 81.7074 245.482C81.6582 245.494 81.5967 245.506 81.5475 245.506H81.5352Z" fill="#282A40"/>
<path d="M83.7361 242.793C83.4411 242.793 83.1952 242.586 83.1337 242.292L80.7363 229.815C80.6749 229.485 80.8962 229.168 81.2281 229.107C81.56 229.046 81.8797 229.266 81.9412 229.595L84.3385 242.072C84.4 242.402 84.1787 242.72 83.8468 242.793C83.8099 242.793 83.773 242.793 83.7361 242.793Z" fill="#282A40"/>
<path d="M108.091 162.164C108.091 162.164 107.968 162.164 107.906 162.139C107.587 162.041 107.402 161.699 107.501 161.369C114.853 138.187 132.396 118.06 154.428 107.514C154.735 107.368 155.104 107.502 155.251 107.795C155.399 108.101 155.276 108.468 154.969 108.614C133.232 119.014 115.934 138.872 108.681 161.736C108.595 161.993 108.361 162.164 108.091 162.164Z" fill="#282A40"/>
<path d="M125.745 127.666C125.438 127.666 125.168 127.434 125.131 127.116C124.467 120.15 125.278 112.965 127.491 106.317C127.602 105.999 127.946 105.816 128.266 105.926C128.585 106.036 128.757 106.378 128.659 106.696C126.508 113.173 125.708 120.187 126.36 126.994C126.397 127.336 126.139 127.629 125.807 127.666C125.782 127.666 125.77 127.666 125.745 127.666Z" fill="#282A40"/>
<path d="M128.364 131.503C128.044 131.503 127.774 131.258 127.749 130.928C127.725 130.586 127.983 130.305 128.327 130.281L156.874 128.594C157.218 128.558 157.501 128.827 157.526 129.169C157.55 129.511 157.292 129.792 156.948 129.816L128.401 131.503C128.401 131.503 128.376 131.503 128.364 131.503Z" fill="#282A40"/>
<path d="M140.695 117.279C140.523 117.279 140.35 117.205 140.24 117.083C140.105 116.936 140.055 116.729 140.105 116.521L144.321 99.5469C144.408 99.2169 144.739 99.0214 145.059 99.0947C145.391 99.1802 145.588 99.5102 145.514 99.8401L141.518 115.934C147.174 115.201 152.927 114.908 158.644 115.054C158.988 115.054 159.247 115.348 159.247 115.678C159.247 116.02 158.952 116.276 158.62 116.276C152.682 116.118 146.682 116.448 140.805 117.266C140.781 117.266 140.744 117.266 140.719 117.266L140.695 117.279Z" fill="#282A40"/>
<path d="M121.467 88.0597C121.368 88.0597 121.27 88.0352 121.184 87.9864C121.024 87.9008 120.913 87.7664 120.877 87.5953C117.742 74.7762 116.119 61.5904 116.045 48.4047C116.045 48.0625 116.315 47.7937 116.66 47.7937C116.992 47.7937 117.274 48.0625 117.274 48.4047C117.348 61.2605 118.909 74.1285 121.909 86.6299C131.855 82.7927 141.506 78.039 150.604 72.5032C150.899 72.3321 151.268 72.4177 151.452 72.7109C151.624 73.0042 151.538 73.3708 151.243 73.5541C141.887 79.2488 131.941 84.1125 121.7 88.023C121.626 88.0475 121.553 88.0597 121.479 88.0597H121.467Z" fill="#282A40"/>
<path d="M134.695 66.0264C134.572 66.0264 134.449 65.9898 134.351 65.9165C134.191 65.8065 134.093 65.6232 134.081 65.4276L133.466 40.4371C133.466 40.0949 133.724 39.8138 134.068 39.8138C134.351 39.8138 134.695 40.0705 134.695 40.4126L135.298 64.56L152.116 58.5843C152.436 58.4743 152.792 58.6331 152.903 58.9509C153.014 59.2686 152.854 59.623 152.534 59.733L134.917 65.9898C134.855 66.0142 134.781 66.0264 134.708 66.0264H134.695Z" fill="#282A40"/>
<path d="M42.1324 48.9913C41.8496 48.9913 41.5914 48.7958 41.5299 48.5147C41.4562 48.1848 41.6652 47.8548 41.9971 47.7815C53.3938 45.3008 65.4667 44.9586 77.011 46.755L70.4336 31.2963C70.2984 30.9908 70.4459 30.6242 70.7655 30.502C71.0852 30.3676 71.4417 30.5142 71.577 30.8319L78.5846 47.3172C78.6707 47.5249 78.6338 47.7571 78.4986 47.9282C78.3634 48.0993 78.1298 48.1848 77.9085 48.1481C66.1921 46.1684 53.861 46.4617 42.2676 48.9791C42.2184 48.9791 42.1815 48.9913 42.1324 48.9913Z" fill="#282A40"/>
<path d="M93.9277 75.6927C93.8171 75.6927 93.7064 75.656 93.608 75.5949C86.2069 71.0123 78.1788 67.5906 69.745 65.4276C69.4131 65.342 69.2164 65.0121 69.3024 64.6821C69.3885 64.3522 69.7204 64.1567 70.0524 64.2422C78.2403 66.3441 86.0471 69.6192 93.2884 73.9696L92.686 53.5128C92.686 53.1706 92.9442 52.8895 93.2884 52.8895C93.5958 52.914 93.9154 53.1462 93.9154 53.4883L94.5547 75.0694C94.5547 75.2894 94.4441 75.5094 94.2474 75.6193C94.149 75.6682 94.0506 75.7049 93.94 75.7049L93.9277 75.6927Z" fill="#282A40"/>
<path d="M59.9345 114.724C59.9345 114.724 59.8116 114.724 59.7624 114.7C53.2342 112.781 46.2757 112.537 39.6245 113.979C39.2926 114.052 38.9606 113.845 38.8869 113.515C38.8131 113.185 39.0221 112.855 39.3541 112.794C45.8454 111.388 52.6195 111.535 59.0248 113.234L54.3653 97.3104C54.2669 96.9805 54.4636 96.6505 54.7833 96.5528C55.1152 96.455 55.4472 96.6505 55.5455 96.9682L60.5124 113.955C60.5738 114.174 60.5124 114.407 60.3525 114.553C60.2296 114.663 60.0821 114.737 59.9222 114.737L59.9345 114.724Z" fill="#282A40"/>
<path d="M78.2894 223.498C79.4451 230.769 75.9904 264.558 75.9904 264.558C75.9904 264.558 74.761 270.13 48.3162 270.13C21.8714 270.13 22.941 264.79 22.941 264.79C22.941 264.79 21.5763 213.954 22.941 208.943C24.3056 203.945 32.6042 200.768 32.6042 200.768V200.572H57.4385V200.646C57.4385 200.646 77.1461 216.239 78.2894 223.498ZM72.4989 235.779C72.8431 229.62 71.1219 225.538 69.0565 222.911C67.1632 220.504 62.5037 221.237 62.0119 224.035L57.6352 245.885C57.3279 247.608 58.9138 249.172 61.1145 249.307H61.3603C62.0242 249.356 62.6881 249.27 63.3028 249.038C65.8108 248.085 71.8719 247.058 72.5112 235.767L72.4989 235.779Z" fill="#46CDCF"/>
<path d="M57.328 195.635V195.758H55.0905V195.538H50.7998V185.664C52.2505 185.847 53.4799 186.042 54.5004 186.25C55.0413 186.348 55.5331 186.47 55.9511 186.568C56.197 188.658 56.4428 190.747 56.6764 192.825C56.7871 193.778 56.8977 194.768 57.328 195.635Z" fill="#ECB841"/>
<path d="M55.0901 195.758V200.572H34.0425V195.758H36.4521H37.325H43.9024H50.7995H54.5984H55.0901Z" fill="white"/>
<path d="M55.0905 195.538V195.758H54.5987H50.7998V195.538H55.0905Z" fill="white"/>
<path d="M50.7994 195.538V195.758H43.9023V195.635V195.538H50.7994Z" fill="white"/>
<path d="M50.7994 185.664V195.538H43.9023V185.26C46.5825 185.272 48.8815 185.444 50.7994 185.664Z" fill="#ECB841"/>
<path d="M43.9026 195.635V195.758H37.3252V195.538H43.9026V195.635Z" fill="white"/>
<path d="M43.9026 185.272V195.55H37.3252V185.554C38.862 185.382 40.7676 185.272 43.0912 185.272C43.3739 185.272 43.6321 185.272 43.9026 185.272Z" fill="#ECB841"/>
<path d="M37.325 195.538V195.758H36.4521H34.0425V195.538H37.325Z" fill="white"/>
<path d="M37.3253 185.541V195.537H34.0427V195.757H31.8052C32.1494 192.678 32.4076 189.586 32.5551 186.494C33.0715 186.311 33.7722 186.103 34.682 185.932C35.4074 185.773 36.2803 185.639 37.313 185.541H37.3253Z" fill="#ECB841"/>
<path d="M55.0904 196.369C54.9059 196.369 54.7338 196.283 54.6232 196.149H50.812C50.4677 196.149 50.1973 195.88 50.1973 195.538V185.664C50.1973 185.321 50.4677 185.052 50.812 185.052C51.1562 185.052 51.4267 185.321 51.4267 185.664V194.927H55.1026C55.4469 194.927 55.7174 195.195 55.7174 195.538V195.758C55.7174 196.1 55.4469 196.369 55.1026 196.369H55.0904Z" fill="#282A40"/>
<path d="M55.0901 201.183H34.0424C33.6982 201.183 33.4277 200.914 33.4277 200.572V195.758C33.4277 195.415 33.6982 195.146 34.0424 195.146H55.0901C55.4343 195.146 55.7048 195.415 55.7048 195.758V200.572C55.7048 200.914 55.4343 201.183 55.0901 201.183ZM34.6572 199.961H54.4754V196.369H34.6572V199.961Z" fill="#282A40"/>
<path d="M55.0904 194.927H50.7998C50.4603 194.927 50.1851 195.2 50.1851 195.538V195.758C50.1851 196.095 50.4603 196.369 50.7998 196.369H55.0904C55.4299 196.369 55.7052 196.095 55.7052 195.758V195.538C55.7052 195.2 55.4299 194.927 55.0904 194.927Z" fill="#282A40"/>
<path d="M50.7998 196.369H43.9028C43.5586 196.369 43.2881 196.1 43.2881 195.758V195.635C43.2881 195.293 43.5586 194.927 43.9028 194.927H50.7998C51.1441 194.927 51.4145 195.195 51.4145 195.538V195.758C51.4145 196.1 51.1441 196.369 50.7998 196.369Z" fill="#282A40"/>
<path d="M50.7998 196.148H43.9028C43.5586 196.148 43.2881 195.88 43.2881 195.537V185.26C43.2881 185.101 43.3496 184.942 43.4725 184.832C43.5831 184.722 43.7307 184.637 43.9151 184.649C46.3493 184.661 48.6975 184.796 50.8859 185.052C51.1933 185.089 51.4268 185.346 51.4268 185.663V195.537C51.4268 195.88 51.1564 196.148 50.8121 196.148H50.7998ZM44.5175 194.926H50.1851V186.213C48.3902 186.018 46.4846 185.908 44.5175 185.883V194.926Z" fill="#282A40"/>
<path d="M43.9026 194.927H37.3252C36.9857 194.927 36.7104 195.2 36.7104 195.538V195.758C36.7104 196.095 36.9857 196.369 37.3252 196.369H43.9026C44.242 196.369 44.5173 196.095 44.5173 195.758V195.538C44.5173 195.2 44.242 194.927 43.9026 194.927Z" fill="#282A40"/>
<path d="M43.9026 196.149H37.3252C36.9809 196.149 36.7104 195.88 36.7104 195.537V185.541C36.7104 185.236 36.944 184.967 37.2514 184.93C38.9357 184.747 40.8905 184.649 43.0788 184.637C43.3616 184.637 43.6321 184.637 43.9148 184.637C44.2468 184.637 44.5173 184.918 44.5173 185.248V195.525C44.5173 195.867 44.2468 196.136 43.9026 196.136V196.149ZM37.9399 194.926H43.2878V185.871H43.0911C41.1855 185.871 39.4521 185.957 37.9399 186.091V194.926Z" fill="#282A40"/>
<path d="M37.325 194.927H34.0424C33.7029 194.927 33.4277 195.2 33.4277 195.538V195.758C33.4277 196.095 33.7029 196.369 34.0424 196.369H37.325C37.6645 196.369 37.9397 196.095 37.9397 195.758V195.538C37.9397 195.2 37.6645 194.927 37.325 194.927Z" fill="#282A40"/>
<path d="M34.0424 196.368C33.6982 196.368 33.4277 196.1 33.4277 195.757V195.537C33.4277 195.195 33.6982 194.926 34.0424 194.926H36.7103V186.226C36.0341 186.311 35.3948 186.409 34.8293 186.531C34.4973 186.604 34.1654 186.397 34.1039 186.067C34.0301 185.737 34.2392 185.407 34.5711 185.346C35.3702 185.175 36.28 185.04 37.2758 184.942C37.4479 184.942 37.6201 184.979 37.743 185.101C37.8659 185.211 37.9397 185.382 37.9397 185.553V195.55C37.9397 195.892 37.6692 196.161 37.325 196.161H34.5096C34.399 196.295 34.2269 196.381 34.0424 196.381V196.368Z" fill="#282A40"/>
<path d="M46.3984 206.255C41.5545 206.255 36.7106 205.351 32.174 203.542C31.8544 203.42 31.7068 203.065 31.8298 202.748C31.9527 202.43 32.3092 202.283 32.6289 202.405C40.5464 205.546 49.3982 205.876 57.5369 203.334C57.8689 203.236 58.2008 203.407 58.3115 203.737C58.4098 204.055 58.2377 204.397 57.9057 204.507C54.1683 205.68 50.2834 206.255 46.3984 206.255Z" fill="#282A40"/>
<path d="M63.7209 251.849C62.9709 251.849 62.2333 251.763 61.5079 251.592C61.176 251.507 60.9793 251.177 61.053 250.859C61.1391 250.529 61.471 250.333 61.7907 250.407C65.2331 251.25 69.3147 249.71 71.9334 246.57C74.1341 243.93 75.4496 240.19 75.7446 235.73C76.0397 231.257 75.2283 227.604 73.3349 224.878C71.4048 222.092 67.5075 219.868 63.8069 221.017C63.4873 221.115 63.1431 220.943 63.0324 220.614C62.9341 220.296 63.1062 219.954 63.4381 219.844C67.2124 218.683 71.7982 220.504 74.3431 224.182C76.3962 227.139 77.2814 231.05 76.9617 235.803C76.6544 240.52 75.2405 244.504 72.8678 247.339C70.495 250.187 67.0157 251.836 63.6963 251.836L63.7209 251.849Z" fill="#282A40"/>
<path d="M47.0743 267.014C39.5748 267.014 32.0876 266.22 24.7603 264.619C24.4284 264.546 24.2194 264.216 24.2931 263.886C24.3669 263.556 24.6988 263.348 25.0308 263.421C40.9395 266.904 57.6842 266.538 73.433 262.395C73.765 262.309 74.0969 262.505 74.183 262.835C74.269 263.165 74.0723 263.495 73.7527 263.58C65.0607 265.878 56.0613 267.026 47.0743 267.026V267.014Z" fill="#282A40"/>
<path d="M210.231 252.496C211.928 252.851 211.24 254.989 211.24 254.989C211.24 254.989 207.023 258.154 193.29 258.154C179.557 258.154 175.181 256.407 175.181 254.452C175.181 252.496 176.361 252.643 176.361 252.643C176.361 252.643 180.184 255.368 192.798 255.368C205.412 255.368 210.244 252.496 210.244 252.496H210.231Z" fill="#46CDCF"/>
<path d="M209.654 187.411L210.231 252.496C210.231 252.496 205.4 255.368 192.786 255.368C180.172 255.368 176.349 252.643 176.349 252.643V187.411C176.349 187.264 176.349 187.13 176.361 186.983L178.058 187.032C187.561 189.831 197.913 189.684 207.342 186.617L209.531 186.385C209.629 187.008 209.641 187.411 209.641 187.411H209.654Z" fill="#ECB841"/>
<path d="M209.543 186.385L207.354 186.617C197.937 189.684 187.585 189.831 178.07 187.032L176.373 186.983C176.594 181.545 181.192 178.894 181.192 178.894L181.242 178.71C182.631 179.15 185.864 179.7 193.302 179.7C200.74 179.7 203.949 179.187 205.596 178.759L205.633 178.894C208.399 180.507 209.285 184.49 209.555 186.385H209.543Z" fill="#46CDCF"/>
<path d="M184.118 176.339C184.413 176.376 184.721 176.401 185.052 176.437C186.22 176.547 187.585 176.645 189.11 176.706C190.388 176.767 191.79 176.804 193.29 176.804C193.474 176.804 193.658 176.804 193.831 176.804C195.257 176.804 196.621 176.767 197.863 176.706C199.265 176.645 200.543 176.559 201.662 176.462C201.711 176.462 201.773 176.462 201.822 176.449C202.695 176.376 203.469 176.303 204.145 176.229C204.662 176.181 205.129 176.119 205.51 176.071C205.559 176.071 205.621 176.071 205.682 176.071C206.408 176.071 207.01 176.645 207.01 177.39C207.01 177.965 206.641 178.478 206.1 178.649C205.953 178.698 205.768 178.747 205.572 178.796C203.912 179.223 200.445 179.737 193.277 179.737C186.11 179.737 182.618 179.187 181.217 178.747C181.18 178.747 181.131 178.722 181.094 178.71C180.553 178.527 180.196 178.026 180.196 177.464V177.427C180.196 176.62 180.909 176.009 181.708 176.107C181.991 176.144 182.311 176.181 182.667 176.217C183.098 176.266 183.577 176.327 184.106 176.376L184.118 176.339Z" fill="white"/>
<path d="M205.769 165.463L204.748 173.407H202.756V173.309C202.683 169.936 203.371 168.897 203.47 165.512V165.463H205.769Z" fill="#46CDCF"/>
<path d="M204.146 165.402V165.451H182.853V158.999H184.623C184.623 160.294 185.434 161.357 186.43 161.357C187.426 161.357 188.237 160.294 188.237 158.999C188.237 157.777 187.524 156.763 186.615 156.653L186.811 154.697C189.024 154.917 191.815 155.65 194.274 157.642C197.421 160.196 200.519 160.807 202.376 160.905C203.47 160.954 204.134 160.856 204.134 160.856V165.402H204.146Z" fill="#46CDCF"/>
<path d="M201.626 173.407H198.859V173.37C198.65 169.96 198.589 168.873 198.663 165.463H203.457V165.512C203.359 168.897 202.671 169.924 202.744 173.309V173.407H201.613H201.626Z" fill="#46CDCF"/>
<path d="M201.625 175.875L201.675 176.437C200.544 176.535 199.265 176.62 197.876 176.682C196.622 176.743 195.269 176.779 193.843 176.779C193.659 176.779 193.487 176.779 193.302 176.779C191.815 176.779 190.413 176.743 189.122 176.682C187.598 176.62 186.233 176.523 185.065 176.413C184.733 176.376 184.426 176.352 184.131 176.315V173.382H201.638V175.851L201.625 175.875Z" fill="white"/>
<path d="M198.871 173.37V173.407H193.695C194.089 169.985 194.494 168.885 194.876 165.463H198.674C198.601 168.873 198.662 169.96 198.871 173.37Z" fill="#46CDCF"/>
<path d="M190.548 165.463H194.863C194.47 168.885 194.077 169.985 193.683 173.407H189.811C189.872 170.034 190.118 168.995 190.548 165.647V165.463Z" fill="#46CDCF"/>
<path d="M190.548 165.463V165.647C190.118 168.995 189.872 170.034 189.81 173.407H185.458V173.321C185.126 169.96 184.966 168.897 185.003 165.512V165.463H190.548Z" fill="#46CDCF"/>
<path d="M186.615 156.665C187.537 156.775 188.238 157.789 188.238 159.011C188.238 160.306 187.426 161.369 186.43 161.369C185.434 161.369 184.623 160.306 184.623 159.011C184.623 157.716 185.434 156.64 186.43 156.64C186.492 156.64 186.553 156.64 186.615 156.652V156.665Z" fill="white"/>
<path d="M186.811 154.709L186.615 156.665C186.553 156.665 186.492 156.652 186.43 156.652C185.422 156.652 184.623 157.716 184.623 159.023H182.853V154.783C182.853 154.783 184.107 154.551 185.938 154.648C186.221 154.661 186.516 154.685 186.811 154.722V154.709Z" fill="#46CDCF"/>
<path d="M184.118 173.407H182.114L181.463 165.463H184.991V165.512C184.954 168.897 185.114 169.96 185.446 173.321V173.407H184.106H184.118Z" fill="#46CDCF"/>
<path d="M193.29 180.311C185.828 180.311 182.521 179.761 181.045 179.297C181.033 179.297 180.947 179.272 180.873 179.248C180.123 179.003 179.595 178.27 179.595 177.427C179.595 176.828 179.841 176.29 180.259 175.924C180.677 175.557 181.242 175.386 181.795 175.472C182.066 175.508 182.386 175.545 182.73 175.582C183.16 175.643 183.64 175.692 184.168 175.74L185.09 175.838C186.418 175.96 187.77 176.058 189.123 176.107C190.401 176.168 191.84 176.168 193.303 176.205C193.475 176.205 193.635 176.205 193.795 176.205C195.147 176.205 196.499 176.168 197.827 176.107C199.192 176.046 200.458 175.96 201.601 175.863L201.761 175.85C202.622 175.777 203.396 175.704 204.072 175.63C204.589 175.582 205.044 175.521 205.425 175.472C205.499 175.472 205.597 175.459 205.683 175.459C206.753 175.459 207.625 176.327 207.625 177.39C207.625 178.233 207.085 178.967 206.298 179.235C206.126 179.284 205.941 179.345 205.72 179.394C204.036 179.822 200.507 180.348 193.278 180.348L193.29 180.311ZM181.537 176.669C181.365 176.669 181.205 176.73 181.07 176.84C180.91 176.975 180.824 177.17 180.824 177.378C180.824 177.72 181.009 178.001 181.304 178.087C182.804 178.563 185.988 179.089 193.29 179.089C200.593 179.089 203.814 178.588 205.437 178.172C205.634 178.123 205.794 178.075 205.929 178.038C206.212 177.94 206.408 177.671 206.408 177.366C206.408 176.975 206.089 176.657 205.695 176.657C205.216 176.718 204.749 176.767 204.22 176.828C203.544 176.901 202.757 176.987 201.884 177.048L201.675 176.449L201.724 177.06C200.556 177.17 199.265 177.244 197.888 177.305C196.536 177.378 195.171 177.402 193.819 177.402C193.659 177.402 193.475 177.402 193.278 177.402C191.778 177.402 190.364 177.366 189.074 177.305C187.709 177.256 186.332 177.158 184.992 177.036L184.058 176.938C183.517 176.889 183.037 176.828 182.607 176.779C182.25 176.743 181.931 176.706 181.648 176.657C181.611 176.657 181.586 176.657 181.549 176.657L181.537 176.669Z" fill="#282A40"/>
<path d="M203.801 174.005H202.756C202.412 174.005 202.141 173.736 202.141 173.394C202.092 171.427 202.289 170.266 202.486 169.032C202.645 168.03 202.818 166.991 202.854 165.476C202.854 165.146 203.137 164.84 203.469 164.84H204.145C204.49 164.84 204.76 165.109 204.76 165.451C204.76 165.793 204.49 166.062 204.145 166.062H204.059C203.998 167.382 203.85 168.311 203.703 169.227C203.531 170.29 203.371 171.292 203.371 172.783H203.813C204.158 172.783 204.428 173.052 204.428 173.394C204.428 173.736 204.158 174.005 203.813 174.005H203.801Z" fill="#282A40"/>
<path d="M202.757 174.005H198.872C198.527 174.005 198.257 173.736 198.257 173.394C198.048 170.058 197.986 168.934 198.06 165.439C198.06 165.109 198.343 164.84 198.675 164.84H203.47C203.814 164.84 204.084 165.109 204.084 165.451C204.035 167.113 203.863 168.188 203.703 169.227C203.519 170.4 203.334 171.512 203.384 173.284C203.384 173.443 203.322 173.663 203.211 173.773C203.101 173.895 202.941 174.005 202.769 174.005H202.757ZM199.449 172.783H202.142C202.142 171.17 202.314 170.131 202.486 169.032C202.621 168.164 202.769 167.272 202.83 166.062H199.277C199.228 168.873 199.277 170.07 199.449 172.783Z" fill="#282A40"/>
<path d="M193.29 177.402C191.79 177.402 190.376 177.366 189.085 177.305C187.721 177.256 186.344 177.158 185.004 177.036L184.057 176.938C183.75 176.901 183.504 176.645 183.504 176.327V173.394C183.504 173.052 183.774 172.783 184.119 172.783H201.626C201.97 172.783 202.24 173.052 202.24 173.394L202.289 176.388C202.314 176.718 202.068 177.011 201.736 177.048C200.568 177.158 199.277 177.231 197.9 177.293C196.548 177.366 195.183 177.39 193.831 177.39C193.671 177.39 193.487 177.39 193.29 177.39V177.402ZM184.733 175.777L185.114 175.814C186.442 175.936 187.795 176.034 189.147 176.083C190.426 176.144 191.864 176.144 193.327 176.18C193.499 176.18 193.659 176.18 193.819 176.18C195.171 176.18 196.523 176.144 197.851 176.083C198.97 176.034 200.04 175.973 201.023 175.887V174.017H184.746V175.789L184.733 175.777Z" fill="#282A40"/>
<path d="M198.871 174.005H193.695C193.523 174.005 193.351 173.932 193.241 173.798C193.118 173.663 193.068 173.492 193.093 173.321C193.29 171.61 193.486 170.461 193.683 169.349C193.88 168.188 194.077 167.089 194.273 165.378C194.31 165.072 194.568 164.84 194.888 164.84H198.687C198.847 164.84 199.007 164.901 199.13 165.023C199.24 165.146 199.314 165.304 199.302 165.463C199.228 168.909 199.302 170.022 199.498 173.321C199.498 173.321 199.498 173.345 199.498 173.358V173.394C199.498 173.736 199.228 174.005 198.884 174.005H198.871ZM194.384 172.783H198.22C198.06 170.095 197.998 168.873 198.048 166.062H195.417C195.245 167.516 195.06 168.555 194.888 169.557C194.728 170.498 194.556 171.464 194.384 172.783Z" fill="#282A40"/>
<path d="M193.683 174.005H189.81C189.651 174.005 189.491 173.944 189.368 173.822C189.257 173.7 189.183 173.541 189.196 173.382C189.245 170.694 189.417 169.459 189.687 167.431C189.761 166.881 189.847 166.27 189.933 165.561V165.451C189.933 165.109 190.204 164.84 190.548 164.84H194.863C195.035 164.84 195.208 164.913 195.318 165.048C195.429 165.182 195.49 165.353 195.466 165.524C195.269 167.26 195.06 168.433 194.863 169.557C194.667 170.657 194.47 171.781 194.285 173.468C194.249 173.773 193.99 174.005 193.671 174.005H193.683ZM190.437 172.783H193.142C193.314 171.366 193.499 170.339 193.671 169.349C193.843 168.347 194.015 167.394 194.175 166.062H191.114C191.04 166.661 190.966 167.138 190.917 167.59C190.671 169.423 190.511 170.584 190.45 172.783H190.437Z" fill="#282A40"/>
<path d="M189.811 174.005H185.458C185.114 174.005 184.844 173.736 184.844 173.394L184.745 172.307C184.487 169.716 184.364 168.531 184.389 165.5C184.389 165.17 184.672 164.852 185.004 164.852H190.548C190.892 164.852 191.163 165.121 191.163 165.463V165.647C191.065 166.441 190.979 167.052 190.905 167.602C190.634 169.594 190.474 170.791 190.425 173.407C190.425 173.736 190.143 174.005 189.811 174.005ZM186.024 172.783H189.208C189.27 170.498 189.429 169.313 189.688 167.431C189.749 167.015 189.811 166.563 189.872 166.062H185.606C185.606 168.641 185.717 169.814 185.962 172.184L186.024 172.783Z" fill="#282A40"/>
<path d="M186.43 161.98C185.09 161.98 184.008 160.648 184.008 159.011C184.008 157.263 185.262 155.858 186.7 156.054C187.93 156.212 188.864 157.483 188.864 159.011C188.864 160.648 187.77 161.98 186.442 161.98H186.43ZM186.43 157.251C185.778 157.251 185.237 158.058 185.237 159.011C185.237 159.964 185.79 160.758 186.43 160.758C187.069 160.758 187.622 159.964 187.622 159.011C187.622 158.119 187.131 157.337 186.528 157.263C186.491 157.263 186.454 157.263 186.43 157.263V157.251Z" fill="#282A40"/>
<path d="M185.459 174.005H183.541C183.196 174.005 182.926 173.736 182.926 173.394C182.926 173.052 183.196 172.783 183.541 172.783H184.782L184.733 172.307C184.487 169.887 184.364 168.689 184.377 166.062H182.828C182.483 166.062 182.213 165.793 182.213 165.451C182.213 165.109 182.483 164.84 182.828 164.84H184.991C185.336 164.84 185.606 165.109 185.606 165.451C185.581 168.47 185.692 169.63 185.95 172.184L186.061 173.248C186.061 173.248 186.061 173.37 186.061 173.394C186.061 173.736 185.79 174.005 185.446 174.005H185.459Z" fill="#282A40"/>
<path d="M178.525 248.341C178.181 248.341 177.91 248.073 177.91 247.73V189.806C177.91 189.464 178.181 189.195 178.525 189.195C178.869 189.195 179.14 189.464 179.14 189.806V247.73C179.14 248.073 178.869 248.341 178.525 248.341Z" fill="#282A40"/>
<path d="M182.275 247.608C181.931 247.608 181.66 247.339 181.66 246.997V228.361C181.66 228.019 181.931 227.75 182.275 227.75C182.619 227.75 182.89 228.019 182.89 228.361V246.997C182.89 247.339 182.619 247.608 182.275 247.608Z" fill="#282A40"/>
<path d="M187.364 218.817C187.462 229.559 187.327 251.555 187.266 261.063C187.266 261.491 187.266 261.882 187.266 262.248C187.241 264.741 185.852 267.051 183.59 268.163C180.405 269.715 174.762 271.401 165.284 271.401C155.141 271.401 148.121 269.764 144.015 268.383C141.31 267.466 139.515 264.937 139.49 262.102C139.49 260.88 139.466 259.45 139.453 257.837C139.392 245.653 139.257 224.011 139.429 216.336C139.453 215.261 139.49 214.455 139.527 213.978C139.835 210.263 144.113 205.595 146.412 203.334C147.334 202.454 147.85 201.232 147.85 199.961C147.85 199.411 147.752 198.886 147.58 198.397C146.437 195.134 141.998 182.376 142.158 179.394C142.318 176.681 151.01 168.115 154.612 164.693H173.066C177.037 168.506 184.499 176.009 184.622 178.527C184.782 181.509 180.356 194.267 179.213 197.529C179.029 198.03 178.942 198.556 178.942 199.094C178.942 200.364 179.447 201.587 180.369 202.491C182.668 204.739 186.946 209.395 187.253 213.122C187.327 213.966 187.364 216.006 187.401 218.817H187.364ZM177.393 237.319C177.393 225.221 171.05 215.408 163.23 215.408C155.411 215.408 149.068 225.208 149.068 237.319C149.068 249.429 155.411 259.23 163.23 259.23C171.05 259.23 177.393 249.429 177.393 237.319Z" fill="white"/>
<path d="M185.175 141.487L182.876 151.275L171.271 151.984H157.624C157.624 151.984 156.8 148.489 152.645 145.141C152.645 145.141 152.62 145.116 152.608 145.116C150.346 143.308 146.006 142.245 142.527 141.658C139.576 141.157 137.228 140.986 137.228 140.986V132.762L174.443 129.755C174.443 129.755 183.565 139.703 185.175 141.487Z" fill="white"/>
<path d="M173.041 164.693H169.242V155.491C170.558 155.65 171.689 155.834 172.611 156.029C173.115 156.127 173.545 156.225 173.926 156.322C174.148 158.229 174.369 160.135 174.59 162.029C174.689 162.897 174.799 163.801 175.18 164.596V164.706H173.041V164.693Z" fill="#ECB841"/>
<path d="M163.23 259.23C171.052 259.23 177.393 249.42 177.393 237.319C177.393 225.218 171.052 215.408 163.23 215.408C155.408 215.408 149.067 225.218 149.067 237.319C149.067 249.42 155.408 259.23 163.23 259.23Z" fill="#ECB841"/>
<path d="M171.271 151.984L172.599 156.029C171.677 155.846 170.546 155.65 169.23 155.491C167.472 155.284 165.382 155.137 162.936 155.125C162.69 155.125 162.444 155.125 162.186 155.125C160.059 155.125 158.338 155.223 156.924 155.394C155.977 155.491 155.19 155.614 154.526 155.748L155.719 151.996H171.259L171.271 151.984Z" fill="#ECB841"/>
<path d="M169.23 155.491V164.693H162.936V155.125C165.382 155.125 167.472 155.284 169.23 155.491Z" fill="#ECB841"/>
<path d="M162.935 164.583V164.693H156.936V155.381C158.337 155.223 160.071 155.125 162.197 155.113C162.456 155.113 162.702 155.113 162.947 155.113V164.571L162.935 164.583Z" fill="#ECB841"/>
<path d="M154.587 164.693H151.907C152.215 161.883 152.46 159.06 152.596 156.237C153.063 156.066 153.714 155.895 154.538 155.736C155.202 155.589 155.989 155.467 156.936 155.381V164.693H154.587Z" fill="#ECB841"/>
<path d="M142.527 141.646C146.006 142.232 150.346 143.296 152.608 145.104C150.776 149.002 145.355 160.196 142.613 162.934C139.257 166.258 137.818 163.386 137.818 163.386C141.248 156.799 142.269 145.801 142.527 141.634V141.646Z" fill="#ECB841"/>
<path d="M137.228 133.324H131.782V140.24H137.228V133.324Z" fill="#ECB841"/>
<path d="M165.259 272C155.03 272 147.936 270.338 143.793 268.945C140.855 267.943 138.875 265.193 138.851 262.089V261.332C138.839 260.293 138.826 259.108 138.814 257.824V255.564C138.728 242.806 138.63 223.534 138.789 216.312C138.814 215.212 138.851 214.393 138.888 213.917C139.207 210.043 143.449 205.35 145.945 202.894C146.744 202.136 147.199 201.061 147.199 199.949C147.199 199.485 147.125 199.02 146.965 198.592C144.395 191.248 141.371 181.961 141.506 179.345C141.678 176.486 149.51 168.653 154.157 164.229C154.268 164.119 154.428 164.058 154.587 164.058H173.041C173.201 164.058 173.348 164.119 173.471 164.229C178.758 169.313 185.089 175.899 185.225 178.478C185.372 181.289 181.88 191.737 179.778 197.713C179.618 198.153 179.545 198.593 179.545 199.081C179.545 200.206 179.987 201.257 180.786 202.039C183.294 204.495 187.536 209.2 187.843 213.049C187.917 213.819 187.954 215.481 187.991 218.793C188.064 226.345 188.028 240.948 187.892 261.051C187.892 261.478 187.892 261.869 187.892 262.224C187.868 265.01 186.331 267.478 183.872 268.688C180.774 270.191 175.045 271.988 165.296 271.988L165.259 272ZM154.833 165.304C147.58 172.209 142.846 177.745 142.736 179.431C142.637 181.289 144.604 188.132 148.121 198.201C148.33 198.764 148.428 199.362 148.428 199.973C148.428 201.415 147.838 202.809 146.805 203.786C144.9 205.668 140.4 210.434 140.117 214.027C140.08 214.491 140.056 215.285 140.019 216.349C139.859 223.559 139.97 242.818 140.031 255.564V257.824C140.056 259.108 140.068 260.281 140.08 261.332V262.089C140.105 264.668 141.752 266.965 144.186 267.796C148.244 269.153 155.19 270.778 165.246 270.778C174.762 270.778 180.307 269.055 183.282 267.601C185.323 266.599 186.601 264.546 186.614 262.236C186.614 261.869 186.614 261.478 186.614 261.051C186.749 240.973 186.786 226.369 186.712 218.817C186.688 216.544 186.651 214.088 186.577 213.171C186.368 210.63 183.934 206.902 179.877 202.918C178.844 201.904 178.266 200.536 178.266 199.094C178.266 198.458 178.364 197.884 178.573 197.309C182.04 187.435 184.044 180.421 183.946 178.551C183.86 176.938 179.581 171.867 172.746 165.292H154.784L154.833 165.304Z" fill="#282A40"/>
<path d="M157.624 152.595C157.341 152.595 157.095 152.4 157.022 152.131C157.022 152.094 156.173 148.782 152.251 145.617C150.481 144.2 147.088 143.051 142.416 142.257C139.527 141.756 137.203 141.585 137.179 141.585C136.859 141.56 136.613 141.291 136.613 140.974V132.749C136.613 132.432 136.859 132.163 137.179 132.138L174.393 129.132C174.59 129.12 174.774 129.193 174.897 129.328C174.983 129.425 184.044 139.299 185.63 141.071C185.765 141.218 185.815 141.426 185.765 141.621L183.466 151.41C183.405 151.679 183.171 151.862 182.901 151.886L171.295 152.595H157.612H157.624ZM158.079 151.373H171.271L182.385 150.689L184.499 141.658C182.63 139.593 175.488 131.796 174.184 130.379L137.83 133.324V140.399C138.703 140.485 140.498 140.668 142.613 141.035C147.555 141.878 151.047 143.076 152.977 144.628C156.432 147.414 157.686 150.261 158.067 151.373H158.079Z" fill="#282A40"/>
<path d="M172.599 156.64C172.599 156.64 172.513 156.64 172.476 156.64C171.468 156.432 170.349 156.261 169.156 156.115C167.189 155.883 165.099 155.76 162.935 155.76C162.677 155.76 162.419 155.748 162.198 155.76C160.182 155.76 158.436 155.858 157.01 156.017C156.124 156.103 155.338 156.225 154.674 156.359C154.489 156.396 154.305 156.359 154.157 156.237C154.01 156.127 153.924 155.944 153.924 155.76C153.924 155.699 153.924 155.626 153.948 155.565L155.141 151.825C155.227 151.569 155.461 151.398 155.731 151.398H171.271C171.541 151.398 171.775 151.569 171.861 151.813L173.189 155.858C173.263 156.066 173.213 156.298 173.066 156.457C172.943 156.591 172.783 156.665 172.611 156.665L172.599 156.64ZM162.186 154.502C162.456 154.502 162.702 154.502 162.96 154.502C165.148 154.502 167.288 154.636 169.304 154.868C170.14 154.966 170.939 155.088 171.689 155.223L170.816 152.583H156.161L155.411 154.942C155.866 154.868 156.346 154.807 156.862 154.758C158.325 154.587 160.12 154.502 162.173 154.489L162.186 154.502Z" fill="#282A40"/>
<path d="M169.23 165.304H162.935C162.591 165.304 162.32 165.035 162.32 164.693V155.125C162.32 154.966 162.382 154.807 162.505 154.697C162.615 154.587 162.787 154.477 162.935 154.514C165.148 154.514 167.287 154.648 169.303 154.88C169.611 154.917 169.844 155.174 169.844 155.491V164.693C169.844 165.035 169.574 165.304 169.23 165.304ZM163.55 164.082H168.615V156.041C167.004 155.87 165.296 155.772 163.55 155.748V164.095V164.082Z" fill="#282A40"/>
<path d="M162.936 165.304H156.936C156.592 165.304 156.321 165.035 156.321 164.693V155.381C156.321 155.076 156.555 154.807 156.862 154.77C158.338 154.599 160.132 154.514 162.186 154.501C162.456 154.501 162.702 154.501 162.96 154.501C163.292 154.514 163.55 154.783 163.55 155.112V164.681C163.55 165.023 163.28 165.292 162.936 165.292V165.304ZM157.551 164.082H162.321V155.723C162.321 155.723 162.235 155.723 162.186 155.723C160.428 155.723 158.866 155.797 157.538 155.919V164.07L157.551 164.082Z" fill="#282A40"/>
<path d="M139.982 163.312C139.896 163.312 139.81 163.3 139.724 163.251C139.416 163.105 139.281 162.75 139.429 162.445C142.219 156.432 144.727 150.2 146.866 143.919C146.977 143.601 147.321 143.43 147.641 143.54C147.961 143.65 148.133 143.992 148.022 144.31C145.858 150.628 143.35 156.897 140.535 162.946C140.437 163.166 140.203 163.3 139.982 163.3V163.312Z" fill="#282A40"/>
<path d="M157.674 180.213C152.891 180.213 148.109 179.92 143.339 179.333C143.007 179.297 142.761 178.991 142.81 178.649C142.847 178.319 143.167 178.075 143.498 178.124C156.149 179.688 168.898 179.15 181.377 176.535C181.709 176.462 182.041 176.682 182.102 177.011C182.176 177.341 181.955 177.671 181.623 177.732C173.718 179.382 165.702 180.213 157.674 180.213Z" fill="#282A40"/>
<path d="M163.255 204.312C158.768 204.312 154.293 203.896 149.941 203.041C149.609 202.98 149.387 202.65 149.449 202.32C149.51 201.99 149.83 201.77 150.174 201.831C158.559 203.456 167.435 203.493 175.832 201.929C176.176 201.868 176.484 202.088 176.545 202.418C176.607 202.748 176.385 203.065 176.053 203.126C171.861 203.908 167.558 204.299 163.243 204.299L163.255 204.312Z" fill="#282A40"/>
<path d="M214.251 39.3983C215.099 40.1071 215.493 41.0725 215.493 42.0257C215.493 43.3577 214.731 44.6653 213.317 45.2274C211.952 45.7651 211.141 47.0727 211.141 48.4169C211.141 49.0401 211.313 49.6756 211.682 50.25C212.05 50.8365 212.223 51.4598 212.223 52.0708C212.223 53.7816 210.907 55.3825 208.989 55.5047C207.133 55.6391 205.768 57.1667 205.768 58.9264C205.768 59.2075 205.805 59.4885 205.879 59.7696C205.952 60.0629 205.989 60.3562 205.989 60.625C205.989 62.7758 203.936 64.5111 201.686 63.9367C201.404 63.8634 201.121 63.8267 200.838 63.8267C199.068 63.8267 197.531 65.1832 197.396 67.0285C197.273 68.9348 195.662 70.2424 193.941 70.2424C193.326 70.2424 192.687 70.0713 192.097 69.7047C191.519 69.3503 190.892 69.1792 190.265 69.1792C188.9 69.1792 187.597 69.9736 187.056 71.3422C186.491 72.7476 185.163 73.5052 183.835 73.5052C182.876 73.5052 181.905 73.1142 181.192 72.271C180.504 71.44 179.52 71.0367 178.536 71.0367C177.553 71.0367 176.582 71.44 175.881 72.271C175.168 73.1142 174.197 73.5052 173.238 73.5052C171.898 73.5052 170.582 72.7476 170.017 71.3422C169.476 69.9736 168.16 69.1792 166.808 69.1792C166.181 69.1792 165.554 69.3503 164.976 69.7047C164.386 70.0713 163.759 70.2424 163.132 70.2424C161.411 70.2424 159.8 68.9348 159.677 67.0285C159.542 65.1832 158.005 63.8267 156.235 63.8267C155.952 63.8267 155.669 63.8634 155.386 63.9367C155.091 64.01 154.796 64.0467 154.526 64.0467C152.362 64.0467 150.616 62.0059 151.194 59.7696C151.268 59.4885 151.305 59.2075 151.305 58.9264C151.305 57.1667 149.94 55.6391 148.084 55.5047C146.154 55.3825 144.85 53.7816 144.85 52.0708C144.85 51.4598 145.022 50.8365 145.391 50.25C145.76 49.6756 145.932 49.0401 145.932 48.4169C145.932 47.0727 145.121 45.7773 143.756 45.2274C142.355 44.6653 141.58 43.3455 141.58 42.0257C141.58 41.0725 141.973 40.1071 142.822 39.3983C143.645 38.714 144.064 37.7363 144.064 36.7587C144.064 35.7811 143.645 34.8157 142.822 34.1191C141.973 33.4104 141.58 32.4449 141.58 31.4918C141.58 30.1597 142.342 28.8522 143.756 28.29C145.121 27.7523 145.932 26.4448 145.932 25.1005C145.932 24.4773 145.76 23.8418 145.391 23.2675C145.022 22.6809 144.85 22.0577 144.85 21.4467C144.85 19.7358 146.166 18.1349 148.084 18.0127C149.94 17.8783 151.305 16.3508 151.305 14.5911C151.305 14.31 151.268 14.0289 151.194 13.7479C151.12 13.4546 151.083 13.1613 151.083 12.8924C151.083 10.7417 153.137 9.00637 155.386 9.58072C155.669 9.65404 155.952 9.6907 156.235 9.6907C158.005 9.6907 159.542 8.33425 159.677 6.47676C159.8 4.57039 161.411 3.26281 163.132 3.26281C163.747 3.26281 164.374 3.4339 164.964 3.80051C165.541 4.16712 166.181 4.32598 166.808 4.32598C168.16 4.32598 169.463 3.53166 170.017 2.1752C170.582 0.769867 171.91 0.012207 173.238 0.012207C174.209 0.012207 175.18 0.403257 175.881 1.24646C176.569 2.07744 177.553 2.48071 178.536 2.48071C179.52 2.48071 180.491 2.06522 181.192 1.24646C182.864 -0.745453 186.085 -0.24442 187.056 2.1752C187.597 3.53166 188.913 4.32598 190.265 4.32598C190.892 4.32598 191.531 4.16712 192.109 3.80051C192.699 3.4339 193.326 3.26281 193.941 3.26281C195.662 3.26281 197.273 4.57039 197.396 6.47676C197.531 8.33425 199.068 9.6907 200.838 9.6907C201.121 9.6907 201.404 9.65404 201.686 9.58072C201.981 9.5074 202.277 9.47074 202.547 9.47074C204.711 9.47074 206.457 11.5115 205.879 13.7479C205.805 14.0289 205.768 14.31 205.768 14.5911C205.768 16.3508 207.133 17.8783 208.989 18.0127C210.919 18.1349 212.223 19.7358 212.223 21.4467C212.223 22.0577 212.05 22.6809 211.682 23.2675C211.313 23.8418 211.141 24.4773 211.141 25.1005C211.141 26.4448 211.952 27.7401 213.317 28.29C214.718 28.8522 215.493 30.172 215.493 31.4918C215.493 32.4449 215.099 33.4226 214.251 34.1191C213.427 34.8035 213.009 35.7811 213.009 36.7587C213.009 37.7363 213.427 38.714 214.251 39.3983Z" fill="#ECB841"/>
<path d="M178.524 67.8227C161.287 67.8227 147.26 53.8793 147.26 36.7465C147.26 19.6136 161.287 5.67017 178.524 5.67017C195.76 5.67017 209.788 19.6136 209.788 36.7465C209.788 53.8793 195.76 67.8227 178.524 67.8227ZM178.524 6.8922C161.964 6.8922 148.489 20.2857 148.489 36.7465C148.489 53.2072 161.964 66.6007 178.524 66.6007C195.084 66.6007 208.559 53.2072 208.559 36.7465C208.559 20.2857 195.084 6.8922 178.524 6.8922Z" fill="#282A40"/>
<path d="M180.144 27.7704L171.844 19.125L158.793 32.7261H175.387L180.144 27.7704Z" fill="#282A40"/>
<path d="M184.235 23.5187L173.962 19.2454L180.909 26.7669L184.235 23.5187Z" fill="#282A40"/>
<path d="M193.065 44.0177L189.999 42.6035C189.042 42.1836 187.927 42.6159 187.503 43.5699L187.329 43.959L193.858 46.8953L194.031 46.5063C194.452 45.5522 194.019 44.4407 193.062 44.0177H193.065Z" fill="#282A40"/>
<path d="M164.157 34.1125C164.318 35.6101 165.783 46.2069 175.183 47.1424V37.5615H170.546L173.857 34.1125H164.157Z" fill="#282A40"/>
<path d="M193.356 42.8845L193.552 42.974C193.96 43.1531 194.301 43.4217 194.58 43.7398V40.4823L193.36 42.8876L193.356 42.8845Z" fill="#282A40"/>
<path d="M186.196 43.6348L186.223 43.6132L186.391 43.2334C186.865 42.1651 187.868 41.3715 189.036 41.3005C189.531 41.2696 190.011 41.3561 190.463 41.5537L190.482 41.563L192.244 37.5645H176.864V47.2134C177.242 47.2041 177.645 47.1794 178.06 47.1362C181.055 46.8212 183.87 45.5522 186.196 43.6379V43.6348Z" fill="#282A40"/>
<path d="M194.331 32.8343L185.721 24.0314L173.854 36.1627H192.863L194.331 32.8343Z" fill="#282A40"/>
<path d="M198.172 28.9962C197.732 28.8047 197.311 28.8294 197.178 29.2401L191.033 43.1747L191.755 43.4927L198.664 29.8947C198.878 29.5211 198.612 29.1907 198.175 28.9993L198.172 28.9962Z" fill="#282A40"/>
<path d="M187.198 40.8929C186.195 40.8929 185.38 40.0808 185.38 39.0804C185.38 40.0808 184.566 40.8929 183.562 40.8929C184.566 40.8929 185.38 41.7049 185.38 42.7053C185.38 41.7049 186.195 40.8929 187.198 40.8929Z" fill="#282A40"/>
<path d="M181.887 39.5035C181.116 39.5035 180.493 38.8798 180.493 38.114C180.493 38.8828 179.868 39.5035 179.1 39.5035C179.871 39.5035 180.493 40.1272 180.493 40.8929C180.493 40.1241 181.119 39.5035 181.887 39.5035Z" fill="#282A40"/>
<path d="M187.214 34.2081C186.706 34.2081 186.298 33.7975 186.298 33.2942C186.298 33.8006 185.886 34.2081 185.381 34.2081C185.889 34.2081 186.298 34.6188 186.298 35.1221C186.298 34.6157 186.709 34.2081 187.214 34.2081Z" fill="#282A40"/>
<path d="M193.507 47.5931L186.3 45.0303C184.105 46.8397 181.946 47.7073 179.131 48.1519C178.316 48.2816 177.545 48.3496 176.867 48.3619C164.181 48.6244 162.992 34.0414 162.992 34.0414C162.983 41.8995 167.529 51.5051 177.818 52.7371C181.324 53.157 186.071 53.0613 190.516 50.1867C192.25 49.0628 193.219 48.0778 193.51 47.5931H193.507Z" fill="#282A40"/>
</g>
<defs>
<clipPath id="clip0_218_1756">
<rect width="227" height="272" fill="white"/>
</clipPath>
</defs>
</svg>
