<svg width="175" height="160" viewBox="0 0 175 160" fill="none" xmlns="http://www.w3.org/2000/svg">
<g clip-path="url(#clip0_212_5300)">
<path d="M87.19 28L60.39 0L18.25 44.05H71.83L87.19 28Z" fill="white"/>
<path d="M100.4 14.2299L67.23 0.389893L89.66 24.7499L100.4 14.2299Z" fill="white"/>
<path d="M128.91 80.6199L119.01 76.0399C115.92 74.6799 112.32 76.0799 110.95 79.1699L110.39 80.4299L131.47 89.9399L132.03 88.6799C133.39 85.5899 131.99 81.9899 128.9 80.6199H128.91Z" fill="white"/>
<path d="M35.5698 48.54C36.0898 53.39 40.8198 87.71 71.1698 90.74V59.71H56.1998L66.8898 48.54H35.5698Z" fill="white"/>
<path d="M129.85 76.9499L130.48 77.2399C131.8 77.8199 132.9 78.6899 133.8 79.7199V69.1699L129.86 76.9599L129.85 76.9499Z" fill="white"/>
<path d="M106.73 79.38L106.82 79.31L107.36 78.08C108.89 74.62 112.13 72.05 115.9 71.82C117.5 71.72 119.05 72 120.51 72.64L120.57 72.67L126.26 59.72H76.6001V90.97C77.8201 90.94 79.1201 90.86 80.4601 90.72C90.1301 89.7 99.2201 85.59 106.73 79.39V79.38Z" fill="white"/>
<path d="M133 44.3999L105.2 15.8899L66.8799 55.1799H128.26L133 44.3999Z" fill="white"/>
<path d="M145.4 31.9701C143.98 31.3501 142.62 31.4301 142.19 32.7601L122.35 77.8901L124.68 78.9201L146.99 34.8801C147.68 33.6701 146.82 32.6001 145.41 31.9801L145.4 31.9701Z" fill="white"/>
<path d="M109.97 70.4999C106.73 70.4999 104.1 67.8699 104.1 64.6299C104.1 67.8699 101.47 70.4999 98.23 70.4999C101.47 70.4999 104.1 73.1299 104.1 76.3699C104.1 73.1299 106.73 70.4999 109.97 70.4999Z" fill="white"/>
<path d="M92.8198 66C90.3298 66 88.3198 63.98 88.3198 61.5C88.3198 63.99 86.2998 66 83.8198 66C86.3098 66 88.3198 68.02 88.3198 70.5C88.3198 68.01 90.3398 66 92.8198 66Z" fill="white"/>
<path d="M110.02 48.8499C108.38 48.8499 107.06 47.5199 107.06 45.8899C107.06 47.5299 105.73 48.8499 104.1 48.8499C105.74 48.8499 107.06 50.1799 107.06 51.8099C107.06 50.1699 108.39 48.8499 110.02 48.8499Z" fill="white"/>
<path d="M130.34 92.2001L107.07 83.9001C99.9801 89.7601 93.0101 92.5701 83.9201 94.0101C81.2901 94.4301 78.8001 94.6501 76.6101 94.6901C35.6501 95.5401 31.8101 48.3101 31.8101 48.3101C31.7801 73.7601 46.4601 104.87 79.6801 108.86C91.0001 110.22 106.33 109.91 120.68 100.6C126.28 96.9601 129.41 93.7701 130.35 92.2001H130.34Z" fill="white"/>
<path d="M3.98 119.98V128.98H10.7V119.98H14.64V141.72H10.7V132.92H3.98V141.72H0V119.98H3.98Z" fill="white"/>
<path d="M37.0702 122.65C39.1902 124.77 40.4302 127.56 40.4302 130.76C40.4302 133.96 39.1902 136.75 37.0702 138.87C34.9502 140.99 32.1602 142.23 28.9602 142.23C25.7602 142.23 22.9702 140.99 20.8502 138.87C18.7302 136.75 17.4902 133.96 17.4902 130.76C17.4902 127.56 18.7302 124.77 20.8502 122.65C22.9702 120.53 25.7502 119.29 28.9602 119.29C32.1702 119.29 34.9502 120.53 37.0702 122.65ZM28.9602 123.23C26.9102 123.23 25.0602 124.08 23.6702 125.47C22.2802 126.86 21.4302 128.71 21.4302 130.76C21.4302 132.81 22.2802 134.7 23.6702 136.09C25.0202 137.44 26.9102 138.29 28.9602 138.29C31.0102 138.29 32.9002 137.48 34.2902 136.09C35.6802 134.7 36.4902 132.88 36.4902 130.76C36.4902 128.64 35.6402 126.82 34.2902 125.47C32.9402 124.12 31.0802 123.23 28.9602 123.23Z" fill="white"/>
<path d="M47.3399 119.98V132.61C47.3399 133.85 47.2999 135.08 47.7299 135.97C48.0399 136.63 48.4999 137.17 49.1199 137.55C49.6999 137.94 50.3599 138.13 51.0499 138.13C51.6699 138.13 52.2899 137.98 52.8699 137.63C53.4499 137.32 53.9099 136.86 54.2599 136.28C54.8399 135.35 54.7599 134.08 54.7599 132.8V119.98H58.7399V132.8C58.7399 134.62 58.7399 136.43 57.6599 138.28C56.9299 139.48 55.9999 140.4 54.8399 141.06C53.7199 141.72 52.4499 142.06 51.0599 142.06C49.5499 142.06 48.1999 141.67 46.9699 140.86C45.6999 140.05 44.8099 139.01 44.1499 137.65C43.2999 135.91 43.3799 134.21 43.3799 132.55C43.4199 132.24 43.4199 131.93 43.4199 131.66V119.96H47.3599L47.3399 119.98Z" fill="white"/>
<path d="M71.0501 125.27C70.7801 124.81 70.3901 124.5 69.9301 124.23C69.3101 123.96 68.7301 123.84 68.1501 123.92C67.6501 124 67.2201 124.23 66.8801 124.58C66.5301 124.93 66.3401 125.35 66.3001 125.85C66.2601 126.2 66.3001 126.55 66.4501 126.82C66.5701 127.09 66.8001 127.4 67.1501 127.71C67.4201 127.9 67.7301 128.06 68.0001 128.17C68.4201 128.33 68.7701 128.44 69.2001 128.56C69.7401 128.71 70.2801 128.83 70.8201 129.06C71.4401 129.29 72.0601 129.64 72.6301 130.14C73.5201 130.84 74.1701 131.65 74.6001 132.61C75.0601 133.65 75.2201 134.62 75.1401 135.66C74.9901 137.17 74.4101 138.48 73.3601 139.6C72.3901 140.64 71.0801 141.34 69.5001 141.53C68.1101 141.72 66.6001 141.53 65.2501 140.87C64.0101 140.29 62.8601 139.33 62.1601 137.97C61.9301 137.55 61.8101 137.24 61.6601 136.81C61.5401 136.46 61.4701 136.04 61.3901 135.54L65.2901 135C65.3301 135.27 65.4101 135.46 65.4501 135.58C65.4901 135.7 65.5301 135.89 65.6401 136.08C65.9901 136.66 66.4101 137.08 66.9501 137.32C67.6101 137.63 68.3401 137.74 69.0001 137.63C69.6201 137.51 70.0801 137.28 70.5101 136.86C70.9001 136.47 71.1301 135.97 71.2101 135.35C71.2101 134.93 71.1701 134.58 71.0201 134.23C70.8701 133.88 70.6301 133.5 70.1701 133.23C69.9401 132.96 69.6301 132.84 69.3601 132.73C68.9401 132.58 68.5901 132.46 68.1601 132.34C67.5801 132.22 67.0401 132.03 66.5401 131.84C65.8801 131.61 65.3001 131.22 64.6901 130.76C63.8401 130.06 63.3001 129.33 62.8701 128.44C62.4501 127.47 62.2501 126.51 62.3301 125.54C62.4501 124.19 63.0601 122.87 64.0301 121.83C64.9601 120.9 66.1501 120.21 67.6601 120.01C69.0101 119.82 70.4001 120.05 71.6401 120.63C72.8401 121.21 73.8001 122.1 74.5401 123.37L71.0601 125.26L71.0501 125.27Z" fill="white"/>
<path d="M81.7901 128.98H87.6601V132.92H81.7901V137.75H89.6701V141.73H77.8501V119.95H89.6701V123.89H81.7901V128.99V128.98Z" fill="white"/>
<path d="M99.9002 125.27C99.6302 124.81 99.2402 124.5 98.7802 124.23C98.1602 123.96 97.5802 123.84 97.0002 123.92C96.5002 124 96.0702 124.23 95.7202 124.58C95.3702 124.93 95.1802 125.35 95.1402 125.85C95.1002 126.2 95.1402 126.55 95.2902 126.82C95.4102 127.09 95.6402 127.4 95.9902 127.71C96.2602 127.9 96.5702 128.06 96.8402 128.17C97.2602 128.33 97.6102 128.44 98.0402 128.56C98.5802 128.71 99.1202 128.83 99.6602 129.06C100.28 129.29 100.9 129.64 101.48 130.14C102.37 130.84 103.02 131.65 103.45 132.61C103.91 133.65 104.07 134.62 103.99 135.66C103.83 137.17 103.26 138.48 102.21 139.6C101.24 140.64 99.9302 141.34 98.3502 141.53C96.9602 141.72 95.4502 141.53 94.1002 140.87C92.8602 140.29 91.7102 139.33 91.0102 137.97C90.7802 137.55 90.6602 137.24 90.5102 136.81C90.3902 136.46 90.3202 136.04 90.2402 135.54L94.1402 135C94.1802 135.27 94.2602 135.46 94.2902 135.58C94.3302 135.7 94.3702 135.89 94.4802 136.08C94.8302 136.66 95.2502 137.08 95.7902 137.32C96.4502 137.63 97.1802 137.74 97.8402 137.63C98.4602 137.51 98.9202 137.28 99.3502 136.86C99.7402 136.47 99.9702 135.97 100.05 135.35C100.05 134.93 100.01 134.58 99.8602 134.23C99.7102 133.88 99.4702 133.5 99.0102 133.23C98.7802 132.96 98.4702 132.84 98.2002 132.73C97.7802 132.58 97.4302 132.46 97.0002 132.34C96.4202 132.22 95.8802 132.03 95.3802 131.84C94.7202 131.61 94.1402 131.22 93.5302 130.76C92.6802 130.06 92.1402 129.33 91.7202 128.44C91.3002 127.47 91.1002 126.51 91.1802 125.54C91.3002 124.19 91.9102 122.87 92.8802 121.83C93.8102 120.9 95.0002 120.21 96.5102 120.01C97.8602 119.82 99.2502 120.05 100.49 120.63C101.69 121.21 102.65 122.1 103.39 123.37L99.9102 125.26L99.9002 125.27Z" fill="white"/>
<path d="M110.63 120.18V128.68L116.62 120.18H121.45L113.8 131.07L121.99 141.73H117.01L111.41 134.47L110.64 135.55V141.73H106.7V120.18H110.64H110.63Z" fill="white"/>
<path d="M128.48 119.98V141.72H124.54V119.98H128.48Z" fill="white"/>
<path d="M135.31 119.98V120.02H137.16C139.13 120.02 140.91 120.75 142.22 122.1C143.53 123.49 144.34 125.19 144.34 127.16C144.34 129.13 143.57 130.87 142.22 132.22C140.87 133.57 139.13 134.34 137.16 134.34H135.31V141.72H131.37V119.98H135.31ZM135.31 123.96V130.37H137.16C138.05 130.37 138.82 130.06 139.44 129.44C140.06 128.82 140.37 128.05 140.37 127.16C140.37 126.27 140.06 125.54 139.44 124.88C138.82 124.26 138.05 123.95 137.16 123.95H135.31V123.96Z" fill="white"/>
<path d="M150.64 128.98H156.51V132.92H150.64V137.75H158.52V141.73H146.7V119.95H158.52V123.89H150.64V128.99V128.98Z" fill="white"/>
<path d="M175.01 141.73H170.41L166.01 134.35H165.43V141.73H161.49V119.99H165.43V120.03H167.28C169.25 120.03 171.03 120.76 172.34 122.11C173.65 123.5 174.46 125.2 174.46 127.17C174.46 129.14 173.69 130.96 172.34 132.23C171.68 132.89 170.99 133.35 170.22 133.7L175.01 141.73ZM165.43 130.38H167.28C168.17 130.38 168.94 130.07 169.56 129.45C170.18 128.83 170.49 128.06 170.49 127.17C170.49 126.28 170.18 125.55 169.56 124.89C168.94 124.27 168.17 123.96 167.28 123.96H165.43V130.37V130.38Z" fill="white"/>
<path d="M33.78 157.88H32.69L29.45 151.55V157.88H28.54V150.54H29.92L32.87 156.35V150.54H33.78V157.88Z" fill="white"/>
<path d="M39.7301 155.13C39.7301 156.06 39.5101 156.77 39.0601 157.28C38.6101 157.78 38.0201 158.04 37.2801 158.04C36.5401 158.04 35.9101 157.78 35.4701 157.26C35.0301 156.74 34.8101 156.03 34.8101 155.14C34.8101 154.25 35.0401 153.51 35.4901 153C35.9401 152.49 36.5401 152.24 37.2801 152.24C38.0201 152.24 38.6201 152.49 39.0601 153C39.5001 153.51 39.7301 154.22 39.7301 155.15V155.13ZM38.7701 155.13C38.7701 154.42 38.6401 153.89 38.3801 153.54C38.1201 153.19 37.7501 153.02 37.2701 153.02C36.7901 153.02 36.4201 153.19 36.1501 153.54C35.8901 153.89 35.7601 154.42 35.7601 155.13C35.7601 155.84 35.8901 156.34 36.1501 156.7C36.4101 157.06 36.7801 157.24 37.2701 157.24C37.7601 157.24 38.1201 157.07 38.3801 156.71C38.6401 156.36 38.7701 155.83 38.7701 155.13Z" fill="white"/>
<path d="M42.1698 158.01C41.7998 158.01 41.4598 157.96 41.1398 157.86C40.8198 157.76 40.5598 157.66 40.3398 157.54V156.5H40.3898C40.4698 156.56 40.5598 156.63 40.6698 156.71C40.7798 156.79 40.9198 156.86 41.0998 156.95C41.2598 157.02 41.4298 157.09 41.6198 157.14C41.8098 157.2 41.9998 157.22 42.2098 157.22C42.3598 157.22 42.5198 157.2 42.6798 157.17C42.8498 157.14 42.9698 157.09 43.0598 157.04C43.1798 156.96 43.2598 156.88 43.3098 156.8C43.3598 156.71 43.3898 156.59 43.3898 156.42C43.3898 156.2 43.3298 156.03 43.2098 155.92C43.0898 155.81 42.8798 155.71 42.5698 155.64C42.4498 155.61 42.2998 155.58 42.1098 155.54C41.9198 155.5 41.7398 155.46 41.5798 155.41C41.1598 155.29 40.8498 155.1 40.6598 154.85C40.4698 154.6 40.3698 154.29 40.3698 153.93C40.3698 153.43 40.5598 153.03 40.9298 152.72C41.2998 152.41 41.7998 152.25 42.4198 152.25C42.7298 152.25 43.0298 152.29 43.3398 152.36C43.6498 152.44 43.9098 152.53 44.1198 152.65V153.64H44.0698C43.8298 153.45 43.5698 153.31 43.2798 153.2C42.9898 153.09 42.6998 153.04 42.3998 153.04C42.0998 153.04 41.8398 153.1 41.6298 153.23C41.4198 153.36 41.3098 153.55 41.3098 153.81C41.3098 154.04 41.3698 154.21 41.4998 154.33C41.6298 154.45 41.8298 154.54 42.0998 154.61C42.2398 154.65 42.3898 154.68 42.5598 154.72C42.7298 154.76 42.9098 154.8 43.0898 154.84C43.4998 154.94 43.7998 155.11 44.0098 155.35C44.2198 155.59 44.3198 155.91 44.3198 156.32C44.3198 156.56 44.2698 156.78 44.1798 156.99C44.0898 157.2 43.9498 157.38 43.7698 157.53C43.5698 157.69 43.3498 157.82 43.0998 157.9C42.8498 157.98 42.5398 158.03 42.1698 158.03V158.01Z" fill="white"/>
<path d="M49.71 155.13C49.71 156.06 49.49 156.77 49.04 157.28C48.59 157.78 48 158.04 47.26 158.04C46.52 158.04 45.89 157.78 45.45 157.26C45.01 156.74 44.79 156.03 44.79 155.14C44.79 154.25 45.02 153.51 45.47 153C45.92 152.49 46.52 152.24 47.26 152.24C48 152.24 48.6 152.49 49.04 153C49.49 153.51 49.71 154.22 49.71 155.15V155.13ZM48.75 155.13C48.75 154.42 48.62 153.89 48.36 153.54C48.1 153.19 47.73 153.02 47.25 153.02C46.77 153.02 46.39 153.19 46.13 153.54C45.87 153.89 45.74 154.42 45.74 155.13C45.74 155.84 45.87 156.34 46.13 156.7C46.39 157.06 46.76 157.24 47.25 157.24C47.74 157.24 48.09 157.07 48.36 156.71C48.62 156.36 48.75 155.83 48.75 155.13Z" fill="white"/>
<path d="M52.3301 157.99C51.8201 157.99 51.4301 157.85 51.1501 157.56C50.8701 157.27 50.7301 156.82 50.7301 156.2V153.15H50.1001V152.38H50.7301V150.8H51.6601V152.38H53.3701V153.15H51.6601V155.77C51.6601 156.05 51.6601 156.26 51.6701 156.42C51.6801 156.58 51.7201 156.71 51.7801 156.84C51.8401 156.96 51.9301 157.04 52.0501 157.1C52.1701 157.16 52.3401 157.19 52.5601 157.19C52.7101 157.19 52.8601 157.17 53.0001 157.12C53.1401 157.08 53.2401 157.04 53.3001 157.01H53.3501V157.84C53.1801 157.89 53.0001 157.93 52.8201 157.96C52.6401 157.99 52.4801 158 52.3201 158L52.3301 157.99Z" fill="white"/>
<path d="M56.96 153.37H56.91C56.84 153.35 56.77 153.34 56.69 153.33C56.61 153.32 56.52 153.33 56.41 153.33C56.16 153.33 55.91 153.38 55.67 153.49C55.43 153.6 55.19 153.76 54.97 153.97V157.88H54.04V152.38H54.97V153.2C55.31 152.9 55.6 152.69 55.85 152.57C56.1 152.45 56.35 152.39 56.58 152.39C56.67 152.39 56.75 152.39 56.79 152.39C56.83 152.39 56.89 152.4 56.95 152.41V153.38L56.96 153.37Z" fill="white"/>
<path d="M62.15 155.13C62.15 156.06 61.93 156.77 61.48 157.28C61.03 157.78 60.44 158.04 59.7 158.04C58.96 158.04 58.33 157.78 57.89 157.26C57.45 156.74 57.23 156.03 57.23 155.14C57.23 154.25 57.46 153.51 57.91 153C58.36 152.49 58.96 152.24 59.7 152.24C60.44 152.24 61.04 152.49 61.48 153C61.92 153.51 62.15 154.22 62.15 155.15V155.13ZM61.19 155.13C61.19 154.42 61.06 153.89 60.8 153.54C60.54 153.19 60.17 153.02 59.69 153.02C59.21 153.02 58.84 153.19 58.57 153.54C58.31 153.89 58.18 154.42 58.18 155.13C58.18 155.84 58.31 156.34 58.57 156.7C58.83 157.06 59.2 157.24 59.69 157.24C60.18 157.24 60.54 157.07 60.8 156.71C61.06 156.36 61.19 155.83 61.19 155.13Z" fill="white"/>
<path d="M64.5903 158.01C64.2203 158.01 63.8803 157.96 63.5603 157.86C63.2403 157.76 62.9703 157.66 62.7603 157.54V156.5H62.8103C62.8903 156.56 62.9803 156.63 63.0903 156.71C63.2003 156.79 63.3403 156.86 63.5203 156.95C63.6803 157.02 63.8503 157.09 64.0403 157.14C64.2303 157.2 64.4303 157.22 64.6303 157.22C64.7803 157.22 64.9403 157.2 65.1003 157.17C65.2603 157.14 65.3903 157.09 65.4703 157.04C65.5903 156.96 65.6703 156.88 65.7203 156.8C65.7703 156.71 65.8003 156.59 65.8003 156.42C65.8003 156.2 65.7403 156.03 65.6203 155.92C65.5003 155.81 65.2903 155.71 64.9803 155.64C64.8603 155.61 64.7103 155.58 64.5203 155.54C64.3303 155.5 64.1503 155.46 63.9903 155.41C63.5703 155.29 63.2603 155.1 63.0703 154.85C62.8803 154.6 62.7803 154.29 62.7803 153.93C62.7803 153.43 62.9703 153.03 63.3403 152.72C63.7203 152.41 64.2103 152.25 64.8303 152.25C65.1303 152.25 65.4403 152.29 65.7503 152.36C66.0603 152.44 66.3203 152.53 66.5303 152.65V153.64H66.4803C66.2403 153.45 65.9803 153.31 65.6903 153.2C65.4003 153.09 65.1103 153.04 64.8103 153.04C64.5103 153.04 64.2503 153.1 64.0403 153.23C63.8303 153.36 63.7203 153.55 63.7203 153.81C63.7203 154.04 63.7803 154.21 63.9103 154.33C64.0403 154.45 64.2403 154.54 64.5103 154.61C64.6503 154.65 64.8003 154.68 64.9703 154.72C65.1403 154.76 65.3203 154.8 65.5103 154.84C65.9203 154.94 66.2203 155.11 66.4303 155.35C66.6403 155.59 66.7403 155.91 66.7403 156.32C66.7403 156.56 66.6903 156.78 66.6003 156.99C66.5103 157.2 66.3703 157.38 66.1903 157.53C65.9903 157.69 65.7703 157.82 65.5203 157.9C65.2703 157.98 64.9603 158.03 64.5903 158.03V158.01Z" fill="white"/>
<path d="M71.7103 157.88H70.7803V150.21H71.7103V157.88Z" fill="white"/>
<path d="M77.6002 155.13C77.6002 156.06 77.3802 156.77 76.9302 157.28C76.4802 157.78 75.8902 158.04 75.1502 158.04C74.4102 158.04 73.7802 157.78 73.3402 157.26C72.9002 156.74 72.6802 156.03 72.6802 155.14C72.6802 154.25 72.9102 153.51 73.3602 153C73.8102 152.49 74.4102 152.24 75.1502 152.24C75.8902 152.24 76.4902 152.49 76.9302 153C77.3802 153.51 77.6002 154.22 77.6002 155.15V155.13ZM76.6402 155.13C76.6402 154.42 76.5102 153.89 76.2502 153.54C75.9902 153.19 75.6202 153.02 75.1402 153.02C74.6602 153.02 74.2802 153.19 74.0202 153.54C73.7602 153.89 73.6302 154.42 73.6302 155.13C73.6302 155.84 73.7602 156.34 74.0202 156.7C74.2802 157.06 74.6502 157.24 75.1402 157.24C75.6302 157.24 75.9802 157.07 76.2502 156.71C76.5102 156.36 76.6402 155.83 76.6402 155.13Z" fill="white"/>
<path d="M86.0299 157.88H85.0999V154.75C85.0999 154.5 85.0899 154.26 85.0599 154.04C85.0399 153.82 84.9899 153.65 84.9199 153.52C84.8399 153.38 84.7399 153.28 84.5999 153.21C84.4599 153.14 84.2799 153.11 84.0499 153.11C83.8199 153.11 83.5799 153.17 83.3399 153.29C83.0899 153.41 82.8599 153.57 82.6199 153.77V157.88H81.6899V150.21H82.6199V152.98C82.8999 152.73 83.1699 152.54 83.4399 152.41C83.7099 152.28 83.9899 152.21 84.2899 152.21C84.8299 152.21 85.2599 152.39 85.5599 152.74C85.8599 153.09 86.0199 153.61 86.0199 154.29V157.86L86.0299 157.88Z" fill="white"/>
<path d="M90.4099 157.3C90.3299 157.36 90.2299 157.43 90.1099 157.53C89.9799 157.63 89.8599 157.71 89.7399 157.77C89.5799 157.85 89.4199 157.92 89.2599 157.97C89.1099 158.02 88.8899 158.04 88.6199 158.04C88.3899 158.04 88.1799 158 87.9699 157.91C87.7699 157.83 87.5899 157.7 87.4299 157.55C87.2799 157.4 87.1599 157.21 87.0699 156.99C86.9799 156.77 86.9399 156.53 86.9399 156.29C86.9399 155.91 87.0199 155.58 87.1799 155.32C87.3399 155.06 87.5999 154.84 87.9399 154.68C88.2499 154.54 88.6099 154.44 89.0299 154.39C89.4499 154.34 89.8999 154.3 90.3899 154.27V154.09C90.3899 153.87 90.3599 153.7 90.2899 153.57C90.2199 153.44 90.1299 153.33 90.0099 153.26C89.8899 153.18 89.7499 153.14 89.5799 153.11C89.4099 153.09 89.2299 153.07 89.0499 153.07C88.8399 153.07 88.5899 153.1 88.2999 153.17C88.0099 153.24 87.7199 153.33 87.4299 153.45H87.3799V152.51C87.5499 152.46 87.7999 152.41 88.1099 152.35C88.4299 152.29 88.7399 152.26 89.0599 152.26C89.4399 152.26 89.7599 152.29 90.0199 152.35C90.2799 152.41 90.5099 152.52 90.7199 152.67C90.9199 152.82 91.0699 153.02 91.1699 153.26C91.2699 153.5 91.3199 153.79 91.3199 154.14V157.91H90.3999V157.32L90.4099 157.3ZM90.4099 156.53V155C90.1899 155.02 89.9099 155.05 89.5699 155.08C89.2299 155.11 88.9599 155.16 88.7499 155.23C88.4999 155.31 88.2999 155.42 88.1399 155.58C87.9799 155.74 87.8999 155.95 87.8999 156.23C87.8999 156.55 87.9899 156.78 88.1699 156.94C88.3499 157.1 88.6099 157.18 88.9499 157.18C89.2399 157.18 89.5099 157.12 89.7399 156.99C89.9799 156.86 90.1999 156.71 90.4099 156.52V156.53Z" fill="white"/>
<path d="M94.82 158.01C94.44 158.01 94.1 157.95 93.78 157.84C93.46 157.73 93.19 157.55 92.97 157.31C92.74 157.07 92.57 156.77 92.44 156.42C92.32 156.06 92.25 155.64 92.25 155.15C92.25 154.66 92.31 154.25 92.44 153.9C92.57 153.55 92.74 153.25 92.96 153.01C93.18 152.77 93.45 152.59 93.77 152.46C94.09 152.33 94.44 152.27 94.81 152.27C95.11 152.27 95.4 152.31 95.69 152.4C95.97 152.49 96.22 152.58 96.44 152.7V153.74H96.39C96.32 153.68 96.24 153.62 96.14 153.55C96.04 153.48 95.91 153.4 95.76 153.33C95.63 153.26 95.48 153.21 95.31 153.16C95.14 153.11 94.97 153.09 94.81 153.09C94.33 153.09 93.94 153.27 93.65 153.63C93.36 153.99 93.21 154.51 93.21 155.17C93.21 155.83 93.35 156.33 93.63 156.69C93.91 157.05 94.3 157.23 94.8 157.23C95.1 157.23 95.39 157.17 95.66 157.04C95.93 156.91 96.17 156.75 96.39 156.56H96.44V157.6C96.35 157.64 96.23 157.69 96.1 157.76C95.96 157.82 95.84 157.87 95.72 157.9C95.56 157.95 95.42 157.98 95.3 158.01C95.18 158.04 95.01 158.05 94.82 158.05V158.01Z" fill="white"/>
<path d="M99.6802 158.01C98.8002 158.01 98.1202 157.76 97.6402 157.27C97.1602 156.77 96.9102 156.07 96.9102 155.16C96.9102 154.25 97.1402 153.55 97.6102 153.02C98.0802 152.49 98.6901 152.22 99.4501 152.22C99.7901 152.22 100.09 152.27 100.36 152.37C100.63 152.47 100.85 152.62 101.05 152.83C101.25 153.04 101.4 153.3 101.5 153.6C101.6 153.9 101.66 154.28 101.66 154.72V155.22H97.8502C97.8502 155.86 98.0102 156.35 98.3302 156.69C98.6502 157.03 99.1002 157.2 99.6702 157.2C99.8702 157.2 100.07 157.18 100.27 157.13C100.47 157.08 100.64 157.02 100.8 156.95C100.97 156.87 101.11 156.8 101.22 156.73C101.34 156.66 101.43 156.59 101.51 156.53H101.56V157.54C101.45 157.58 101.32 157.64 101.16 157.7C101 157.76 100.85 157.81 100.73 157.85C100.55 157.9 100.39 157.94 100.24 157.96C100.09 157.99 99.9102 158 99.6902 158L99.6802 158.01ZM100.76 154.52C100.76 154.27 100.72 154.06 100.67 153.87C100.62 153.68 100.54 153.54 100.44 153.41C100.33 153.27 100.19 153.17 100.02 153.09C99.8501 153.02 99.6402 152.98 99.3902 152.98C99.1402 152.98 98.9302 153.02 98.7602 153.09C98.5902 153.16 98.4302 153.27 98.2902 153.41C98.1502 153.55 98.0502 153.71 97.9702 153.89C97.8902 154.07 97.8502 154.27 97.8302 154.5H100.74L100.76 154.52Z" fill="white"/>
<path d="M108.85 157.88V154.7C108.85 154.45 108.85 154.21 108.82 154C108.8 153.78 108.76 153.62 108.7 153.5C108.63 153.37 108.54 153.27 108.42 153.21C108.3 153.15 108.13 153.12 107.93 153.12C107.74 153.12 107.53 153.18 107.32 153.29C107.1 153.41 106.88 153.58 106.64 153.79C106.64 153.85 106.64 153.91 106.65 153.99C106.66 154.07 106.65 154.16 106.65 154.26V157.88H105.72V154.7C105.72 154.45 105.72 154.21 105.69 154C105.67 153.78 105.63 153.62 105.57 153.5C105.5 153.37 105.41 153.27 105.29 153.21C105.17 153.15 105 153.12 104.8 153.12C104.6 153.12 104.39 153.18 104.17 153.31C103.95 153.44 103.74 153.59 103.53 153.79V157.9H102.6V152.4H103.53V153.01C103.77 152.77 104.01 152.58 104.25 152.45C104.49 152.32 104.75 152.25 105.04 152.25C105.37 152.25 105.65 152.32 105.91 152.47C106.16 152.62 106.35 152.86 106.48 153.2C106.76 152.89 107.03 152.65 107.3 152.49C107.57 152.33 107.85 152.25 108.17 152.25C108.41 152.25 108.62 152.29 108.82 152.36C109.01 152.43 109.18 152.55 109.33 152.72C109.48 152.89 109.59 153.1 109.67 153.35C109.75 153.6 109.79 153.91 109.79 154.29V157.91H108.86L108.85 157.88Z" fill="white"/>
<path d="M115.61 155.13C115.61 156.06 115.39 156.77 114.94 157.28C114.49 157.78 113.9 158.04 113.16 158.04C112.42 158.04 111.79 157.78 111.35 157.26C110.91 156.74 110.69 156.03 110.69 155.14C110.69 154.25 110.92 153.51 111.37 153C111.82 152.49 112.42 152.24 113.16 152.24C113.9 152.24 114.5 152.49 114.94 153C115.39 153.51 115.61 154.22 115.61 155.15V155.13ZM114.65 155.13C114.65 154.42 114.52 153.89 114.26 153.54C114 153.19 113.63 153.02 113.15 153.02C112.67 153.02 112.29 153.19 112.03 153.54C111.77 153.89 111.64 154.42 111.64 155.13C111.64 155.84 111.77 156.34 112.03 156.7C112.29 157.06 112.66 157.24 113.15 157.24C113.64 157.24 113.99 157.07 114.26 156.71C114.52 156.36 114.65 155.83 114.65 155.13Z" fill="white"/>
<path d="M118.05 158.01C117.68 158.01 117.34 157.96 117.02 157.86C116.7 157.76 116.43 157.66 116.22 157.54V156.5H116.27C116.35 156.56 116.44 156.63 116.55 156.71C116.66 156.79 116.8 156.86 116.98 156.95C117.14 157.02 117.31 157.09 117.5 157.14C117.69 157.2 117.88 157.22 118.09 157.22C118.24 157.22 118.4 157.2 118.56 157.17C118.73 157.14 118.85 157.09 118.94 157.04C119.05 156.96 119.14 156.88 119.19 156.8C119.24 156.71 119.27 156.59 119.27 156.42C119.27 156.2 119.21 156.03 119.09 155.92C118.97 155.81 118.76 155.71 118.45 155.64C118.33 155.61 118.18 155.58 117.99 155.54C117.8 155.5 117.62 155.46 117.46 155.41C117.04 155.29 116.73 155.1 116.54 154.85C116.35 154.6 116.25 154.29 116.25 153.93C116.25 153.43 116.44 153.03 116.81 152.72C117.18 152.41 117.68 152.25 118.3 152.25C118.61 152.25 118.91 152.29 119.22 152.36C119.53 152.44 119.79 152.53 120 152.65V153.64H119.95C119.71 153.45 119.45 153.31 119.16 153.2C118.87 153.09 118.58 153.04 118.28 153.04C117.98 153.04 117.72 153.1 117.51 153.23C117.3 153.36 117.19 153.55 117.19 153.81C117.19 154.04 117.25 154.21 117.38 154.33C117.51 154.45 117.71 154.54 117.98 154.61C118.12 154.65 118.27 154.68 118.44 154.72C118.61 154.76 118.79 154.8 118.97 154.84C119.38 154.94 119.68 155.11 119.89 155.35C120.1 155.59 120.2 155.91 120.2 156.32C120.2 156.56 120.15 156.78 120.06 156.99C119.97 157.2 119.83 157.38 119.65 157.53C119.45 157.69 119.23 157.82 118.98 157.9C118.73 157.98 118.42 158.03 118.05 158.03V158.01Z" fill="white"/>
<path d="M128.83 154.98C128.83 155.9 128.61 156.63 128.17 157.17C127.73 157.71 127.18 157.99 126.51 157.99C126.24 157.99 126 157.96 125.79 157.9C125.58 157.84 125.36 157.74 125.14 157.61V159.92H124.21V152.38H125.14V152.96C125.37 152.75 125.63 152.58 125.91 152.44C126.19 152.3 126.5 152.23 126.83 152.23C127.46 152.23 127.95 152.48 128.31 152.98C128.66 153.48 128.84 154.15 128.84 154.99L128.83 154.98ZM127.87 155.08C127.87 154.45 127.77 153.96 127.57 153.62C127.37 153.28 127.04 153.1 126.59 153.1C126.33 153.1 126.07 153.16 125.83 153.27C125.58 153.39 125.35 153.54 125.13 153.72V156.84C125.37 156.96 125.58 157.04 125.75 157.08C125.92 157.12 126.12 157.14 126.34 157.14C126.82 157.14 127.19 156.96 127.46 156.61C127.73 156.26 127.86 155.74 127.86 155.07L127.87 155.08Z" fill="white"/>
<path d="M134.32 155.13C134.32 156.06 134.1 156.77 133.65 157.28C133.2 157.78 132.61 158.04 131.87 158.04C131.13 158.04 130.5 157.78 130.06 157.26C129.62 156.74 129.4 156.03 129.4 155.14C129.4 154.25 129.63 153.51 130.08 153C130.53 152.49 131.13 152.24 131.87 152.24C132.61 152.24 133.21 152.49 133.65 153C134.1 153.51 134.32 154.22 134.32 155.15V155.13ZM133.36 155.13C133.36 154.42 133.23 153.89 132.97 153.54C132.71 153.19 132.34 153.02 131.86 153.02C131.38 153.02 131 153.19 130.74 153.54C130.48 153.89 130.35 154.42 130.35 155.13C130.35 155.84 130.48 156.34 130.74 156.7C131 157.06 131.37 157.24 131.86 157.24C132.35 157.24 132.7 157.07 132.97 156.71C133.23 156.36 133.36 155.83 133.36 155.13Z" fill="white"/>
<path d="M138.19 153.37H138.14C138.07 153.35 138 153.34 137.92 153.33C137.84 153.32 137.75 153.33 137.64 153.33C137.39 153.33 137.14 153.38 136.9 153.49C136.65 153.6 136.42 153.76 136.2 153.97V157.88H135.27V152.38H136.2V153.2C136.54 152.9 136.83 152.69 137.08 152.57C137.33 152.45 137.58 152.39 137.81 152.39C137.91 152.39 137.98 152.39 138.02 152.39C138.06 152.39 138.12 152.4 138.18 152.41V153.38L138.19 153.37Z" fill="white"/>
<path d="M143.73 157.99C143.22 157.99 142.83 157.85 142.55 157.56C142.27 157.27 142.13 156.82 142.13 156.2V153.15H141.5V152.38H142.13V150.8H143.06V152.38H144.77V153.15H143.06V155.77C143.06 156.05 143.06 156.26 143.07 156.42C143.08 156.58 143.12 156.71 143.18 156.84C143.24 156.96 143.33 157.04 143.45 157.1C143.57 157.16 143.74 157.19 143.96 157.19C144.11 157.19 144.26 157.17 144.4 157.12C144.54 157.08 144.64 157.04 144.71 157.01H144.76V157.84C144.59 157.89 144.41 157.93 144.23 157.96C144.05 157.99 143.89 158 143.73 158V157.99Z" fill="white"/>
<path d="M146.45 151.46H145.4V150.5H146.45V151.46ZM146.39 157.89H145.46V152.39H146.39V157.89Z" fill="white"/>
</g>
<defs>
<clipPath id="clip0_212_5300">
<rect width="175.01" height="159.91" fill="white"/>
</clipPath>
</defs>
</svg>
