<svg width="393" height="307" viewBox="0 0 393 307" fill="none" xmlns="http://www.w3.org/2000/svg">
<g clip-path="url(#clip0_222_3457)">
<path d="M395 119.719C383.857 115.759 369.626 116.153 358.999 120.72C348.372 125.286 341.749 133.849 342.249 142.382C333.56 139.094 322.219 141.017 314.44 145.226C306.66 149.435 301.66 155.511 296.858 161.424C285.945 153.93 265.487 154.512 255.532 162.597C248.782 154.504 235.074 149.329 221.385 149.71C207.697 150.092 194.661 156.014 188.914 164.456C184.894 158.214 175.761 153.63 165.793 152.854C155.825 152.078 145.4 155.141 139.406 160.604C139.422 153.07 132.347 145.746 122.169 142.752C111.99 139.758 99.2817 141.264 91.2004 146.425C90.8919 137.908 82.1612 129.821 70.294 127.058C58.4236 124.296 44.2252 127.047 36.2867 133.644C37.8484 126.946 31.0528 119.824 21.4129 118.054C11.7731 116.283 0.616958 120.113 -3.00001 126.432L-3.00003 307L395 307L395 119.719Z" fill="#C3E9FD"/>
<g clip-path="url(#clip1_222_3457)">
<path d="M311.79 217.98C311.19 217.98 310.57 217.92 309.96 217.81C304.53 216.8 300.94 211.56 301.95 206.14C302.44 203.51 303.92 201.23 306.13 199.72C308.33 198.21 311 197.64 313.62 198.13C316.25 198.62 318.53 200.1 320.04 202.31C321.55 204.51 322.11 207.18 321.62 209.81C320.73 214.62 316.51 217.98 311.78 217.99L311.79 217.98ZM311.79 198.96C307.54 198.96 303.74 201.99 302.94 206.32C302.03 211.2 305.26 215.92 310.15 216.83C315.03 217.74 319.75 214.5 320.66 209.62C321.1 207.25 320.59 204.86 319.24 202.87C317.88 200.88 315.83 199.55 313.46 199.11C312.9 199.01 312.35 198.96 311.81 198.96L311.79 198.96Z" fill="#282A40"/>
<path d="M305.36 209.77C305.13 209.77 304.92 209.61 304.87 209.38C304.42 207.35 304.9 205.14 306.14 203.48C307.38 201.81 309.36 200.73 311.43 200.58C311.7 200.56 311.95 200.77 311.97 201.04C311.99 201.32 311.78 201.56 311.51 201.58C309.72 201.71 308.02 202.65 306.95 204.09C305.88 205.53 305.47 207.43 305.85 209.18C305.91 209.45 305.74 209.72 305.47 209.78C305.43 209.78 305.4 209.79 305.36 209.79L305.36 209.77Z" fill="#282A40"/>
<path d="M319.94 194.66C319.66 194.66 319.37 194.63 319.09 194.58C316.59 194.11 314.94 191.7 315.4 189.2C315.63 187.99 316.31 186.93 317.33 186.24C318.34 185.55 319.57 185.29 320.77 185.52C323.26 185.98 324.92 188.39 324.45 190.89C324.23 192.1 323.54 193.15 322.53 193.85C321.75 194.39 320.85 194.66 319.93 194.66L319.94 194.66ZM316.39 189.39C316.03 191.34 317.32 193.23 319.28 193.6C320.23 193.78 321.18 193.57 321.98 193.02C322.77 192.47 323.31 191.65 323.49 190.7C323.85 188.75 322.56 186.86 320.61 186.5C319.67 186.32 318.71 186.52 317.91 187.07C317.11 187.62 316.57 188.44 316.4 189.39L316.39 189.39Z" fill="#282A40"/>
<path d="M303.66 190.55C303.33 190.55 303.01 190.52 302.68 190.46C301.3 190.2 300.1 189.42 299.3 188.26C298.5 187.1 298.2 185.69 298.46 184.31C299 181.45 301.76 179.56 304.62 180.09C306 180.35 307.21 181.13 308 182.29C308.8 183.45 309.09 184.85 308.84 186.23C308.59 187.61 307.8 188.81 306.64 189.61C305.75 190.22 304.72 190.54 303.66 190.54L303.66 190.55ZM303.64 181C301.62 181 299.82 182.44 299.44 184.49C299.23 185.61 299.47 186.75 300.12 187.69C300.77 188.63 301.74 189.26 302.86 189.47C303.99 189.68 305.13 189.44 306.07 188.79C307.01 188.14 307.64 187.17 307.85 186.05C308.06 184.93 307.82 183.8 307.17 182.85C306.52 181.91 305.55 181.27 304.43 181.07C304.17 181.02 303.9 181 303.65 181L303.64 181Z" fill="#282A40"/>
<path d="M287.61 222.61C287.33 222.61 287.05 222.58 286.77 222.53C284.27 222.06 282.62 219.65 283.08 217.15C283.31 215.94 283.99 214.88 285.01 214.19C286.02 213.5 287.25 213.24 288.46 213.47C289.67 213.69 290.72 214.38 291.41 215.39C292.11 216.4 292.37 217.63 292.14 218.84C291.73 221.06 289.79 222.61 287.61 222.61ZM287.6 214.39C286.88 214.39 286.18 214.61 285.58 215.02C284.78 215.57 284.25 216.39 284.07 217.34C283.71 219.29 285 221.18 286.96 221.55C288.91 221.91 290.8 220.62 291.17 218.66C291.35 217.71 291.14 216.76 290.6 215.96C290.06 215.17 289.23 214.63 288.29 214.46C288.07 214.42 287.84 214.4 287.62 214.4L287.6 214.39Z" fill="#282A40"/>
</g>
</g>
<g clip-path="url(#clip2_222_3457)">
<path d="M240.787 85.7995C242.097 86.5829 243.054 89.1868 243.054 89.1868L246.337 89.4262L246.69 83.9644L244.487 81.0775C243.616 82.3396 241.859 83.1157 241.859 83.1157C241.766 84.24 241.348 85.1322 240.779 85.7922L240.787 85.7995ZM257.496 78.7129C257.741 78.0674 261.693 67.7095 262.96 67.3324C264.27 66.9407 264.983 69.6752 264.868 71.7134C264.745 73.7589 261.621 81.6868 261.225 82.9417C260.836 84.2038 260.815 87.6854 260.815 87.6854C260.815 87.6854 265.58 101.322 266.531 104.209C267.481 107.088 268.856 121.805 268.856 121.805C268.568 121.943 268.258 122.066 267.92 122.175C263.089 123.851 253.932 123.3 250.145 122.988C249.087 122.893 248.439 122.828 248.439 122.828L251.801 108.3C251.801 108.3 251.65 107.183 252.161 106.08C252.161 106.08 250.34 102.417 246.618 99.3561C242.896 96.2879 237.828 92.5379 237.497 91.0655C237.165 89.593 237.439 86.9238 237.439 86.9238C236.842 85.9663 237.324 82.4774 237.439 81.52C237.561 80.5625 241.816 76.1452 243.4 75.6375C244.977 75.1225 248.763 79.2424 248.763 79.2424C248.763 79.2424 247.928 72.2429 246.676 67.4049C245.43 62.5669 246.74 60.9494 248.439 61.4063C250.138 61.856 252.996 76.0582 252.996 76.0582C252.996 76.0582 253.947 69.7187 254.242 66.9624C254.544 64.1989 254.299 60.0282 256.329 60.4416C258.352 60.8623 258.799 68.5799 258.64 71.2492C258.482 73.7951 257.561 78.2995 257.474 78.7274L257.496 78.7129Z" fill="#ECB841"/>
<path d="M247.95 130.553C248.727 127.318 249.743 124.192 250.153 122.98C253.932 123.299 263.097 123.844 267.927 122.168C268.1 125.359 269.288 148.483 268.143 155.12C266.92 162.272 260.606 163.44 256.099 161.547C251.6 159.654 234.171 149.985 234.171 149.985C237 148.055 241.766 144.32 244.156 139.721C245.869 136.406 246.935 133.048 247.568 130.451L247.943 130.546L247.95 130.553Z" fill="white"/>
<path d="M237.497 242.792L261.506 338H225.777L194.641 256.835C206.951 257.045 217.728 255.587 222.084 253.694C228.059 251.09 233.955 246.121 237.504 242.792H237.497Z" fill="#152744"/>
<path d="M248.454 125.853C248.454 125.853 248.252 127.717 247.576 130.459C246.942 133.048 245.869 136.414 244.163 139.728C241.78 144.327 237.007 148.063 234.178 149.992C232.817 150.92 231.91 151.435 231.91 151.435L225.777 147.562L223.271 157.449C222.033 153.684 218.83 143.856 216.627 136.929C214.251 129.443 214.769 107.386 214.964 101.242C217.714 102.004 222.4 103.367 224.949 104.557C228.707 106.305 248.468 125.853 248.468 125.853H248.454Z" fill="#46CDCF"/>
<path d="M177.91 100.038C178.191 99.2254 178.356 98.783 178.356 98.783L180.833 98.2607C179.58 100.241 177.363 107.784 177.917 110.338L177.017 124.866C177.017 124.866 199.608 128.428 209.168 124.866L212.257 102.417C212.487 101.771 212.667 101.177 212.782 100.669C212.782 100.669 213.654 100.886 214.957 101.249C214.762 107.4 214.251 129.458 216.62 136.936C218.822 143.863 222.026 153.691 223.264 157.456C223.588 158.435 223.775 159.008 223.775 159.008L222.616 171.085L240.852 239.455C240.852 239.455 239.577 240.841 237.497 242.792C233.955 246.114 228.052 251.09 222.076 253.694C217.721 255.594 206.944 257.045 194.633 256.834C181.538 256.624 166.694 254.55 155.938 249.175C154.815 248.616 153.728 248.014 152.699 247.383C152.699 247.383 156.457 205.85 159.135 192.968C160.186 187.956 161.309 182.255 162.295 177.17L173.483 226.174L173.195 226.24L172.424 228.597L173.958 231.578L173.778 234.494L175.779 243.278C179.134 244.322 183.468 241.494 183.468 241.494L181.61 233.362L180.127 230.236L180.466 226.972L177.744 225.188L177.449 225.253L164.196 167.226C164.721 164.448 165.045 162.707 165.045 162.707C165.045 162.707 162.662 154.344 163.073 147.475C163.13 147.279 163.145 147.083 163.109 146.895C163.109 146.88 163.109 146.873 163.109 146.866C163.137 146.438 163.195 146.01 163.26 145.596C164.217 139.235 175.534 106.863 177.924 100.052L177.91 100.038Z" fill="#ECB841"/>
<path d="M217.303 33.9159C224.358 26.5247 231.853 37.2669 230.859 44.6727C231.327 53.1011 226.187 58.0262 220.161 58.0987C220.053 56.2491 219.794 54.6969 219.535 53.5436C219.211 52.0784 218.901 51.2515 218.901 51.2515C218.16 49.032 217.109 47.1823 215.827 45.6446C213.214 42.4966 209.65 40.676 205.835 39.7984C206.296 32.8569 210.032 27.4096 217.303 33.9159Z" fill="#282A40"/>
<path d="M220.162 58.1059C220.349 61.0871 220.14 64.8443 218.916 68.986C218.851 68.8917 218.787 68.7902 218.722 68.7032C218.585 68.5146 218.448 68.3405 218.283 68.1737C217.887 67.7602 217.44 67.4121 216.922 67.1654C216.742 67.0784 216.548 67.0059 216.346 66.9551C216.144 66.8971 215.957 66.8535 215.748 66.8318C215.468 66.8028 215.18 66.7955 214.899 66.8173C214.654 66.839 214.424 66.8753 214.193 66.9478C213.963 67.0131 213.74 67.1002 213.531 67.209C213.214 67.3685 212.926 67.5789 212.682 67.8327C210.781 67.9851 208.953 67.8618 207.21 67.5426C206.793 67.4628 206.39 67.3758 205.979 67.2742C205.879 67.2452 205.771 67.2162 205.663 67.1872C205.367 67.1074 205.072 67.0276 204.784 66.9406C204.655 66.8971 204.532 66.8535 204.403 66.8173C204.266 66.781 204.129 66.7302 203.992 66.6795C203.2 66.4038 202.423 66.0919 201.667 65.7365C201.357 65.5915 201.048 65.4464 200.746 65.2868C200.501 65.1635 200.256 65.0329 200.018 64.9024C199.73 64.7501 199.443 64.5832 199.162 64.4091C198.924 64.2713 198.687 64.1335 198.456 63.9812C198.118 63.7708 197.787 63.5532 197.463 63.3356C195.015 61.6601 192.942 59.7597 191.293 58.0117C191.077 57.7795 190.861 57.5547 190.66 57.3226C189.94 56.5247 189.313 55.7776 188.795 55.1175C188.651 54.929 188.514 54.7476 188.378 54.5808C188.104 54.2326 187.874 53.9135 187.686 53.6379C187.535 53.4275 187.413 53.2462 187.298 53.0938C187.002 52.6732 186.851 52.4338 186.851 52.4338C179.379 57.3951 179.062 66.6867 179.062 66.6867C179.062 66.6867 179.062 66.6577 179.04 66.6142C178.954 66.3458 178.659 65.3666 178.652 65.3666C178.515 65.0547 176.348 60.0136 176.708 54.0803C176.96 49.8733 181.524 45.7969 184.353 43.6644C184.353 43.6644 184.382 43.6354 184.396 43.6209C187.643 40.56 197.355 37.869 205.821 39.8201C209.636 40.6978 213.2 42.5184 215.813 45.6664C217.095 47.2041 218.146 49.0537 218.887 51.2732C218.887 51.2732 219.204 52.1001 219.521 53.5653C219.78 54.7186 220.032 56.2708 220.147 58.1205L220.162 58.1059Z" fill="#282A40"/>
<path d="M219.859 71.4378C220.377 74.1796 219.405 77.1897 217.361 79.0828C215.64 80.6931 213.207 81.4692 210.882 81.2371C210.745 81.5708 210.601 81.8972 210.442 82.2163C210.291 82.5355 210.126 82.8546 209.946 83.1593C209.708 83.5945 209.406 84.1602 209.075 84.7695C208.758 85.3498 208.412 85.9736 208.074 86.5176C207.793 86.9818 207.505 87.4025 207.246 87.7071C202.207 93.6332 194.504 96.063 190.386 95.3667C189.349 95.1926 188.334 94.6777 187.348 93.9306C187.038 93.6912 186.729 93.4156 186.419 93.1327C186.196 92.9223 185.965 92.6975 185.75 92.4654C181.934 88.5123 178.594 81.9915 178.075 78.7782C177.37 74.3246 179.033 66.665 179.033 66.665C179.033 66.665 179.35 57.3734 186.822 52.4121C186.822 52.4121 186.973 52.6515 187.269 53.0722C187.369 53.2317 187.499 53.4131 187.657 53.6162C187.852 53.8918 188.082 54.211 188.348 54.5591C188.485 54.7259 188.622 54.9073 188.766 55.0959C189.284 55.7559 189.911 56.503 190.631 57.3009C190.839 57.5258 191.048 57.7579 191.264 57.99C192.913 59.738 194.986 61.6457 197.434 63.314C197.758 63.5316 198.089 63.7564 198.427 63.9595C198.658 64.1118 198.895 64.2497 199.133 64.3875C199.413 64.5615 199.701 64.7211 199.989 64.8807C200.227 65.0113 200.472 65.1418 200.716 65.2651C201.019 65.4175 201.328 65.5698 201.638 65.7148C202.394 66.063 203.171 66.3749 203.963 66.6578C204.1 66.7086 204.237 66.7521 204.374 66.7956C204.503 66.8319 204.626 66.8754 204.755 66.9189C205.043 67.0132 205.338 67.093 205.633 67.1655C205.734 67.1945 205.842 67.2163 205.95 67.2526C206.353 67.3469 206.764 67.4411 207.181 67.5209C208.916 67.8473 210.745 67.9706 212.645 67.8183C212.89 67.5572 213.178 67.3541 213.495 67.1873C213.704 67.0857 213.927 66.9914 214.157 66.9262C214.388 66.8609 214.625 66.8246 214.863 66.7956C215.143 66.7666 215.431 66.7738 215.712 66.8101C215.921 66.8391 216.115 66.8754 216.31 66.9334C216.511 66.9842 216.706 67.064 216.886 67.1438C217.404 67.3904 217.858 67.7385 218.246 68.152C218.397 68.3188 218.549 68.4929 218.685 68.6815C218.75 68.7758 218.815 68.8701 218.88 68.9644C219.355 69.7042 219.672 70.5529 219.83 71.4233L219.859 71.4378Z" fill="white"/>
<path d="M215.748 66.8174C215.957 66.8391 216.144 66.8827 216.346 66.9407C216.151 66.8827 215.957 66.8464 215.748 66.8174Z" fill="white"/>
<path d="M214.899 66.8101C214.661 66.8391 214.424 66.8753 214.193 66.9406C214.424 66.8681 214.654 66.8318 214.899 66.8101Z" fill="white"/>
<path d="M209.521 94.2424C211.162 95.1926 213.56 97.2163 212.782 100.662C212.667 101.177 212.487 101.764 212.256 102.41C210.183 108.22 204.078 118.679 204.078 118.679C203.603 113.058 195.886 109.881 195.886 109.881C201.487 107.719 209.686 97.7821 209.686 97.7821L209.528 94.2424H209.521Z" fill="#3DBEC0"/>
<path d="M212.674 67.8182C210.774 67.9705 208.945 67.8472 207.21 67.5281C208.952 67.8472 210.781 67.9705 212.681 67.8182H212.674Z" fill="white"/>
<path d="M212.249 102.417L209.161 124.866C199.601 128.428 177.01 124.866 177.01 124.866L177.91 110.338C178.471 112.891 181.538 115.981 181.538 115.981C181.538 115.981 183.856 109.242 187.067 109.134L189.349 118.077L195.879 109.881C195.879 109.881 203.596 113.065 204.071 118.679C204.071 118.679 210.176 108.227 212.249 102.41V102.417Z" fill="#46CDCF"/>
<path d="M209.521 94.2425L209.679 97.7821C209.679 97.7821 201.487 107.727 195.879 109.881L189.349 118.077L187.067 109.134C187.067 109.134 187.117 109.134 187.146 109.134C187.146 109.134 187.067 108.945 186.937 108.619C186.275 106.972 184.245 101.844 184.043 100.669L184.835 98.1738C205.122 102.04 209.161 86.4958 209.161 86.4958L209.514 94.2497L209.521 94.2425Z" fill="white"/>
<path d="M209.089 84.7768L209.168 86.4886C209.168 86.4886 205.129 102.04 184.842 98.1666L185.778 95.2362L186.44 93.14C186.75 93.4228 187.06 93.6985 187.369 93.9378C188.355 94.6922 189.371 95.1999 190.407 95.374C194.525 96.0703 202.228 93.6404 207.267 87.7144C207.534 87.4025 207.815 86.9891 208.095 86.5249C208.434 85.9736 208.786 85.3498 209.096 84.7695L209.089 84.7768Z" fill="#282A40"/>
<path d="M204.77 66.9333C205.057 67.0204 205.353 67.1002 205.648 67.18C205.353 67.1074 205.057 67.0276 204.77 66.9333Z" fill="white"/>
<path d="M197.456 63.3357C197.78 63.5533 198.103 63.7709 198.449 63.9812C198.118 63.7709 197.78 63.5533 197.456 63.3357Z" fill="white"/>
<path d="M194.633 256.834L185.865 338H150.531C150.078 320.294 155.938 249.175 155.938 249.175C166.693 254.55 181.538 256.624 194.633 256.834Z" fill="#152744"/>
<path d="M187.29 53.0867C187.398 53.239 187.528 53.4203 187.679 53.6307C187.528 53.4276 187.398 53.2462 187.29 53.0867Z" fill="white"/>
<path d="M187.146 109.126C187.146 109.126 187.096 109.126 187.067 109.126L186.938 108.611C187.067 108.938 187.146 109.126 187.146 109.126Z" fill="white"/>
<path d="M186.944 108.619L187.074 109.134C183.863 109.235 181.545 115.981 181.545 115.981C181.545 115.981 178.478 112.891 177.917 110.338C177.355 107.785 179.58 100.248 180.832 98.2608C182.085 96.2806 185.771 95.2434 185.771 95.2434L184.835 98.1738L184.043 100.669C184.245 101.851 186.275 106.972 186.937 108.619H186.944Z" fill="#3DBEC0"/>
<path d="M181.596 233.355L183.453 241.486C183.453 241.486 179.126 244.315 175.764 243.271L173.763 234.487L173.943 231.571L172.41 228.59L173.18 226.232L173.468 226.167L177.427 225.246L177.723 225.181L180.444 226.965L180.106 230.229L181.589 233.355H181.596Z" fill="white"/>
<path d="M177.435 225.246L173.475 226.167L162.295 177.163L159.646 165.565L155.384 146.924L159.221 145.488L163.101 162.461L164.181 167.219L177.435 225.246Z" fill="#282A40"/>
<path d="M159.494 101.728C165.268 99.2544 177.586 100.023 177.91 100.045C175.519 106.849 164.202 139.228 163.245 145.589C163.18 146.003 163.13 146.43 163.094 146.858C162.842 145.364 162.086 144.414 162.086 144.414C162.086 144.414 163.785 143.29 163.022 142.165C162.259 141.041 160.92 141.085 160.92 141.085C160.92 141.085 161.301 138.43 159.89 138.198C159.89 138.198 160.207 137.168 159.444 136.305C159.444 136.305 162.28 136.58 161.992 134.731C161.704 132.881 159.689 131.416 156.895 131.169C156.593 131.14 156.269 131.111 155.931 131.075L151.381 111.179C154.066 106.798 157.068 102.758 159.487 101.728H159.494Z" fill="#46CDCF"/>
<path d="M171.452 75.7679L172.28 75.5793L173.41 80.5117L151.741 85.5383L135.493 89.3028L113.823 94.3221L112.7 89.3826L113.607 89.1722L136.119 83.957L171.452 75.7679Z" fill="white"/>
<path d="M171.452 75.7607V75.768L136.119 83.9571L171.452 75.7607Z" fill="white"/>
<path d="M171.452 75.7607L136.119 83.9498L113.608 89.1649L113.579 89.0271C112.053 83.0648 110.526 77.1098 109.007 71.1475C109.482 71.4521 109.958 71.7423 110.44 72.0397C111.549 71.5755 112.657 71.1112 113.766 70.647C114.018 71.0387 114.623 70.676 114.824 70.2626C115.033 69.8564 115.256 69.3051 115.702 69.3197C116.091 69.3342 116.307 69.7404 116.458 70.0958C118.107 74.0851 119.748 78.0818 121.39 82.0711C120.504 77.7626 119.604 73.4541 118.705 69.1383C119.338 69.3704 119.871 69.8782 120.152 70.4874C120.166 69.9072 120.483 69.3487 120.965 69.0368C121.239 69.1818 121.512 69.3342 121.779 69.4937C121.57 68.4565 123.082 67.7819 123.981 68.3259C124.881 68.8844 125.198 70.0232 125.385 71.0605C125.58 72.105 125.752 73.2365 126.508 73.9691C126.66 71.5392 126.804 69.1093 126.955 66.6722C127.235 67.0784 127.531 67.47 127.811 67.8762C129.222 67.0566 130.641 66.2297 132.052 65.4028C134.895 69.8274 136.306 75.0136 137.674 80.0982C137.199 75.34 136.717 70.5817 136.242 65.8308C136.371 65.9976 136.493 66.1644 136.623 66.3313C136.839 66.0484 137.069 65.7582 137.285 65.4826C139.208 64.9821 141.13 64.4889 143.059 63.9884C144.794 68.0285 146.529 72.0687 148.271 76.1088C147.818 71.8003 147.357 67.4773 146.896 63.1615C147.076 63.3719 147.249 63.575 147.429 63.7853C147.753 63.4299 148.077 63.0672 148.401 62.7046C148.797 63.0382 149.186 63.3719 149.581 63.6983C150.006 63.2921 150.431 62.8786 150.848 62.4652C151.057 62.7916 151.259 63.1035 151.468 63.4081C152.706 62.1533 154.412 61.3917 156.161 61.3337C157.508 65.3158 158.854 69.3051 160.2 73.2945C159.919 68.8192 159.624 64.3511 159.351 59.883C159.696 60.2747 160.042 60.6591 160.387 61.0508C160.718 60.6228 161.071 60.1949 161.402 59.7669C161.561 59.9338 161.734 60.1078 161.885 60.2747C162.273 59.8975 162.669 59.5203 163.058 59.1504C163.555 59.6944 164.577 59.5348 164.88 58.8748C166.247 62.9149 167.298 67.0566 168.04 71.2563C167.838 66.9043 167.651 62.5595 167.45 58.2002C169.264 63.9304 170.603 69.8056 171.46 75.7534L171.452 75.7607Z" fill="#ECB841"/>
<path d="M165.031 162.7C165.031 162.7 164.707 164.434 164.181 167.219L163.101 162.461C163.721 161.779 164.095 161.307 164.095 161.307L160.927 149.818C160.927 149.818 162.734 148.73 163.065 147.475C162.655 154.344 165.038 162.707 165.038 162.707L165.031 162.7Z" fill="white"/>
<path d="M160.92 149.818L164.088 161.307C164.088 161.307 163.713 161.779 163.094 162.461L159.214 145.488L162.079 144.414C162.079 144.414 162.835 145.357 163.087 146.858C163.087 146.873 163.087 146.88 163.087 146.887C163.065 147.083 163.058 147.279 163.051 147.468C162.72 148.723 160.913 149.811 160.913 149.811L160.92 149.818Z" fill="#ECB841"/>
<path d="M150.215 130.56C150.675 130.56 151.165 130.589 151.662 130.618C153.109 130.712 154.635 130.923 155.938 131.075C156.276 131.111 156.6 131.148 156.903 131.169C159.696 131.416 161.704 132.881 162 134.731C162.288 136.58 159.451 136.305 159.451 136.305C160.207 137.168 159.897 138.198 159.897 138.198C161.309 138.423 160.927 141.085 160.927 141.085C160.927 141.085 162.273 141.041 163.029 142.166C163.785 143.29 162.093 144.414 162.093 144.414L159.228 145.488L155.391 146.924L159.646 165.565C158.328 166.486 156.888 167.168 155.564 167.066C151.791 166.791 144.657 160.531 144.657 160.531L147.832 148.998C147.832 148.998 147.817 148.969 147.796 148.904C147.393 147.932 144.139 140.098 143.764 137.61C143.368 134.956 145.442 131.822 147.522 130.945C148.206 130.662 149.156 130.553 150.222 130.56H150.215Z" fill="#ECB841"/>
<path d="M163.094 146.887C163.123 147.083 163.116 147.279 163.058 147.468C163.058 147.272 163.08 147.076 163.094 146.887Z" fill="white"/>
<path d="M151.388 111.179L155.938 131.075C154.635 130.923 153.109 130.72 151.662 130.618L148.408 116.365L145.14 102.047L149.099 101.126L151.388 111.172V111.179Z" fill="#282A40"/>
<path d="M151.741 85.5383L152.267 87.8231L147.609 88.9039L140.662 90.5142L136.018 91.5877L135.493 89.3028L151.741 85.5383Z" fill="white"/>
<path d="M148.408 116.365L151.662 130.618C151.165 130.589 150.676 130.56 150.215 130.56C146.702 128.645 144.384 124.322 144.384 124.322C144.384 124.322 146.047 120.71 148.401 116.365H148.408Z" fill="#46CDCF"/>
<path d="M147.609 88.9038L150.337 100.843L149.099 101.133L145.139 102.047L143.39 102.46L140.662 90.5141L147.609 88.9038Z" fill="white"/>
<path d="M260.051 162.729C258.698 162.729 257.301 162.453 255.969 161.888C251.506 160.009 234.178 150.405 234.005 150.311C233.897 150.253 233.825 150.137 233.818 150.014C233.818 149.89 233.868 149.767 233.976 149.695C236.64 147.874 241.463 144.138 243.839 139.562C245.617 136.123 246.661 132.671 247.223 130.372C247.273 130.176 247.46 130.06 247.655 130.103H247.676C248.526 126.658 249.598 123.481 249.807 122.857C249.872 122.668 250.073 122.567 250.261 122.632C250.448 122.697 250.549 122.901 250.484 123.096C250.268 123.735 249.145 127.086 248.288 130.633C248.245 130.828 248.05 130.945 247.856 130.901H247.827C247.237 133.222 246.193 136.559 244.473 139.895C242.162 144.349 237.648 147.997 234.855 149.963C237.77 151.573 252.24 159.545 256.236 161.227C258.828 162.315 261.779 162.25 263.946 161.053C265.983 159.922 267.315 157.855 267.79 155.077C268.964 148.222 267.625 123.263 267.567 122.204C267.553 122.001 267.711 121.834 267.906 121.82C268.1 121.805 268.273 121.965 268.287 122.161C268.431 124.823 269.669 148.374 268.503 155.2C267.992 158.21 266.538 160.451 264.299 161.692C263.039 162.388 261.57 162.743 260.051 162.743V162.729Z" fill="#282A40"/>
<path d="M191.883 95.8598C191.336 95.8598 190.818 95.8236 190.336 95.7365C189.292 95.5624 188.219 95.0547 187.139 94.2278C186.858 94.0102 186.556 93.7491 186.189 93.4082C185.959 93.1978 185.728 92.9585 185.505 92.7191C181.704 88.7733 178.263 82.1364 177.737 78.8434C177.024 74.3753 178.63 66.9115 178.702 66.5924C178.702 66.5924 178.702 66.5924 178.702 66.5851C178.752 65.6857 179.465 56.8873 186.65 52.1146C186.729 52.0638 186.83 52.0421 186.923 52.0638C187.017 52.0856 187.103 52.1436 187.154 52.2234C187.154 52.2234 187.305 52.4628 187.586 52.8689C187.694 53.0358 187.816 53.2099 187.96 53.3984C188.161 53.6886 188.385 54.0005 188.651 54.3414C188.788 54.5082 188.925 54.6896 189.069 54.8854C189.63 55.5962 190.256 56.3361 190.912 57.0614C191.113 57.2863 191.329 57.5111 191.545 57.7432C193.467 59.7887 195.526 61.5658 197.657 63.0165C197.974 63.2341 198.305 63.4517 198.636 63.6547C198.867 63.8071 199.104 63.9449 199.334 64.0754C199.622 64.2495 199.896 64.4091 200.184 64.5614C200.422 64.692 200.659 64.8153 200.904 64.9386C201.206 65.0909 201.509 65.2432 201.811 65.3811C202.516 65.7075 203.287 66.0194 204.1 66.3095C204.237 66.3603 204.367 66.4038 204.489 66.4401C204.626 66.4836 204.755 66.5198 204.892 66.5706C205.159 66.6577 205.447 66.7374 205.734 66.81C205.886 66.8462 205.979 66.8753 206.073 66.897C206.447 66.9841 206.85 67.0784 207.261 67.1509C209.01 67.4773 210.767 67.5788 212.502 67.4555C212.746 67.2234 213.034 67.0203 213.351 66.8535C213.617 66.7229 213.855 66.6286 214.078 66.5706C214.093 66.5706 214.1 66.5706 214.114 66.5634C214.33 66.5053 214.568 66.4618 214.849 66.4328C215.151 66.4038 215.46 66.411 215.777 66.4473C216.022 66.4763 216.238 66.5198 216.44 66.5851C216.62 66.6286 216.828 66.7084 217.059 66.8172C217.591 67.0711 218.088 67.4338 218.534 67.9052C218.7 68.0866 218.858 68.2752 219.002 68.471C219.067 68.5653 219.139 68.6668 219.204 68.7684C219.686 69.5227 220.039 70.4149 220.212 71.3579C220.759 74.2229 219.737 77.3564 217.606 79.3366C215.9 80.9323 213.481 81.7665 211.112 81.6069C211.004 81.8608 210.889 82.1146 210.767 82.3613C210.608 82.6877 210.443 83.0141 210.256 83.3332C210.112 83.5943 209.946 83.9062 209.759 84.2544L209.392 84.9362C209.003 85.6616 208.686 86.2128 208.398 86.6698C208.398 86.6843 208.384 86.6988 208.377 86.706C208.053 87.2355 207.772 87.6345 207.513 87.9391C203.136 93.089 196.419 95.8453 191.869 95.8453L191.883 95.8598ZM179.386 66.8172C179.227 67.5571 177.788 74.6074 178.443 78.7346C178.954 81.9261 182.301 88.3743 186.016 92.2259C186.232 92.458 186.455 92.6756 186.671 92.8787C187.024 93.2051 187.312 93.4517 187.571 93.6548C188.557 94.4091 189.522 94.8661 190.451 95.0257C194.705 95.7438 202.236 93.0673 206.98 87.4894C207.203 87.2283 207.462 86.8511 207.757 86.3796C207.757 86.3651 207.772 86.3506 207.779 86.3361C208.06 85.8792 208.377 85.3352 208.773 84.6098L209.14 83.928C209.327 83.5798 209.5 83.2607 209.644 82.9923C209.824 82.6804 209.982 82.3685 210.133 82.0639C210.284 81.752 210.428 81.4328 210.558 81.1064C210.615 80.9614 210.767 80.8671 210.925 80.8816C213.171 81.1064 215.496 80.3376 217.123 78.8216C219.074 77.0083 220.01 74.1359 219.514 71.5102C219.355 70.6543 219.046 69.8564 218.614 69.1818C218.556 69.0875 218.491 68.9932 218.426 68.9062C218.304 68.7321 218.16 68.5653 218.016 68.413C217.635 68.014 217.21 67.6949 216.764 67.4845C216.576 67.3975 216.404 67.3322 216.252 67.296C216.072 67.2452 215.9 67.2089 215.698 67.1799C215.432 67.1509 215.18 67.1436 214.928 67.1654C214.683 67.1944 214.474 67.2307 214.287 67.2814C214.273 67.2814 214.265 67.2814 214.251 67.2887C214.071 67.3395 213.884 67.412 213.675 67.5136C213.387 67.6586 213.135 67.8472 212.926 68.0648C212.869 68.1301 212.775 68.1736 212.689 68.1809C210.853 68.3259 208.981 68.2244 207.131 67.8762C206.706 67.7964 206.296 67.7021 205.886 67.6079C205.785 67.5788 205.706 67.5571 205.626 67.5353C205.267 67.4483 204.964 67.3612 204.669 67.2669C204.532 67.2162 204.417 67.1799 204.295 67.1436C204.158 67.1001 204.007 67.0566 203.856 66.9986C203.028 66.7084 202.236 66.3893 201.509 66.0484C201.199 65.9033 200.882 65.751 200.573 65.5914C200.328 65.4681 200.083 65.3375 199.838 65.207C199.543 65.0474 199.255 64.8806 198.967 64.7065C198.737 64.5759 198.492 64.4309 198.255 64.2785C197.923 64.0682 197.578 63.8506 197.254 63.6257C195.08 62.1388 192.985 60.3327 191.027 58.251C190.804 58.0189 190.595 57.7868 190.386 57.5619C189.716 56.822 189.083 56.075 188.507 55.3424C188.363 55.1538 188.226 54.9724 188.089 54.8056C187.809 54.4429 187.578 54.1238 187.377 53.8409C187.226 53.6451 187.089 53.4565 186.981 53.2824C186.887 53.1446 186.801 53.0285 186.736 52.9342C179.796 57.7722 179.407 66.5996 179.407 66.6939C179.407 66.7374 179.393 66.781 179.379 66.8245L179.386 66.8172Z" fill="#282A40"/>
<path d="M218.714 69.0659C218.607 69.0659 218.491 69.0151 218.419 68.9136C218.29 68.7395 218.153 68.5727 218.009 68.4131C217.872 68.2681 217.887 68.0359 218.031 67.9054C218.175 67.7676 218.398 67.7748 218.535 67.9199C218.7 68.094 218.851 68.2826 219.002 68.4929C219.046 68.5582 219.067 68.6307 219.067 68.7033C219.067 68.8121 219.017 68.9281 218.916 69.0006C218.851 69.0442 218.779 69.0659 218.707 69.0659H218.714Z" fill="#282A40"/>
<path d="M216.346 67.3033C216.346 67.3033 216.281 67.3033 216.245 67.2888C216.202 67.2743 216.166 67.267 216.122 67.2525C215.993 67.2163 215.856 67.1945 215.698 67.1727C215.503 67.151 215.367 66.9697 215.381 66.7738C215.403 66.578 215.582 66.4402 215.77 66.4547C215.935 66.4692 216.101 66.4982 216.295 66.549C216.346 66.5635 216.389 66.578 216.439 66.5925C216.626 66.6505 216.734 66.8536 216.684 67.0422C216.641 67.2018 216.497 67.3033 216.338 67.3033H216.346Z" fill="#282A40"/>
<path d="M214.186 67.2961C214.028 67.2961 213.884 67.1946 213.841 67.035C213.783 66.8464 213.891 66.6433 214.078 66.5853C214.323 66.5127 214.575 66.462 214.863 66.4402C215.043 66.4257 215.23 66.5708 215.252 66.7666C215.273 66.9625 215.129 67.1365 214.935 67.1583C214.683 67.1873 214.474 67.2236 214.287 67.2743C214.258 67.2816 214.222 67.2889 214.193 67.2889L214.186 67.2961Z" fill="#282A40"/>
<path d="M213.516 67.5571C213.387 67.5571 213.257 67.4846 213.192 67.3613C213.106 67.1872 213.171 66.9696 213.344 66.8753C213.56 66.7593 213.804 66.665 214.078 66.5852C214.272 66.5344 214.467 66.6432 214.524 66.839C214.531 66.8681 214.539 66.9043 214.539 66.9333C214.539 67.0929 214.438 67.238 214.272 67.2815C214.085 67.3323 213.891 67.4121 213.668 67.5209C213.617 67.5426 213.567 67.5571 213.509 67.5571H213.516Z" fill="#282A40"/>
<path d="M204.078 119.042C204.078 119.042 204.028 119.042 203.999 119.034C203.848 118.998 203.733 118.868 203.718 118.708C203.265 113.377 195.821 110.243 195.742 110.214C195.605 110.156 195.519 110.026 195.519 109.873C195.519 109.721 195.612 109.59 195.749 109.54C200.889 107.56 208.405 98.7321 209.312 97.6514L209.161 94.2568C209.161 94.1262 209.218 94.0029 209.334 93.9304C209.442 93.8578 209.586 93.8578 209.701 93.9304C211.342 94.8806 213.97 97.0348 213.135 100.749C213.02 101.256 212.84 101.858 212.595 102.54C210.536 108.321 204.453 118.766 204.388 118.868C204.323 118.984 204.201 119.049 204.078 119.049V119.042ZM196.771 109.888C198.621 110.795 203.272 113.442 204.273 117.62C205.777 114.987 210.226 107.03 211.918 102.286C212.148 101.633 212.321 101.06 212.436 100.582C213.063 97.8182 211.529 96.0121 209.917 94.9096L210.046 97.7602C210.046 97.8472 210.018 97.9415 209.967 98.0068C209.643 98.3985 202.336 107.211 196.778 109.881L196.771 109.888Z" fill="#282A40"/>
<path d="M211.069 68.2463C209.759 68.2463 208.441 68.123 207.131 67.8836C206.937 67.8474 206.807 67.6588 206.843 67.4629C206.879 67.2671 207.066 67.1365 207.26 67.1728C209.067 67.4992 210.874 67.6007 212.645 67.4629C212.804 67.4629 212.941 67.5355 212.998 67.6733C213.063 67.8111 213.034 67.9707 212.926 68.0795C212.869 68.1448 212.782 68.181 212.703 68.1883C212.163 68.2318 211.623 68.2536 211.076 68.2536L211.069 68.2463Z" fill="#282A40"/>
<path d="M209.168 125.229C209.168 125.229 209.132 125.229 209.118 125.229C208.924 125.2 208.787 125.019 208.808 124.823L211.501 105.239C208.924 111.078 204.439 118.781 204.388 118.868C204.309 119.005 204.143 119.071 204 119.035C203.848 118.998 203.733 118.868 203.719 118.708C203.316 113.928 197.29 110.918 195.987 110.323L189.63 118.302C189.544 118.411 189.407 118.454 189.27 118.432C189.141 118.403 189.033 118.302 188.997 118.171L186.786 109.525C184 110.004 181.898 116.032 181.869 116.097C181.826 116.213 181.733 116.307 181.61 116.329C181.488 116.358 181.366 116.322 181.272 116.235C181.171 116.133 179.227 114.16 178.155 112.035L177.356 124.888C177.341 125.084 177.183 125.236 176.974 125.229C176.772 125.214 176.621 125.048 176.636 124.844L177.536 110.316C177.55 110.135 177.687 109.99 177.867 109.975C178.061 109.961 178.205 110.084 178.248 110.258C178.659 112.144 180.559 114.4 181.387 115.306C182.035 113.645 184.152 108.865 187.038 108.771C187.204 108.771 187.355 108.88 187.398 109.047L189.501 117.286L195.577 109.656C195.677 109.533 195.843 109.489 195.994 109.547C196.296 109.67 203.02 112.499 204.244 117.627C205.749 114.994 210.198 107.037 211.89 102.294C211.954 102.12 212.134 102.018 212.314 102.062C212.494 102.105 212.61 102.279 212.588 102.46L209.5 124.91C209.478 125.091 209.32 125.222 209.147 125.222L209.168 125.229Z" fill="#282A40"/>
<path d="M189.357 118.44C189.357 118.44 189.306 118.44 189.277 118.433C189.148 118.404 189.04 118.302 189.004 118.171L186.722 109.228C186.707 109.163 186.707 109.105 186.722 109.039L186.606 108.749C186.16 107.639 183.907 102.011 183.691 100.727C183.684 100.669 183.691 100.611 183.705 100.553L184.497 98.0577C184.555 97.8837 184.727 97.7821 184.907 97.8111C204.611 101.568 208.657 87.0181 208.823 86.3943C208.866 86.2202 209.032 86.1041 209.212 86.1259C209.392 86.1477 209.528 86.2927 209.536 86.4668L209.888 94.2207L210.047 97.7604C210.047 97.8474 210.018 97.9417 209.968 98.007C209.629 98.4132 201.732 107.944 196.109 110.178L189.644 118.302C189.572 118.389 189.472 118.44 189.364 118.44H189.357ZM187.478 109.271L189.522 117.286L195.598 109.656C195.641 109.605 195.692 109.569 195.749 109.547C200.889 107.567 208.405 98.7396 209.312 97.6588L208.888 88.2512C207.124 92.1897 201.17 101.518 185.087 98.5872L184.418 100.691C184.641 101.764 186.081 105.521 187.276 108.481L187.485 108.989C187.521 109.083 187.521 109.184 187.485 109.271H187.478Z" fill="#282A40"/>
<path d="M190.94 99.1456C189.068 99.1456 187.017 98.957 184.771 98.529C184.67 98.5073 184.583 98.4492 184.526 98.355C184.475 98.2679 184.461 98.1591 184.49 98.0576L186.088 93.0382C186.124 92.9222 186.218 92.8279 186.34 92.7988C186.462 92.7698 186.585 92.7988 186.678 92.8786C187.031 93.205 187.319 93.4517 187.578 93.6547C188.564 94.4091 189.529 94.8661 190.458 95.0256C194.712 95.7437 202.243 93.0672 206.987 87.4894C207.21 87.2282 207.469 86.8511 207.764 86.3796C207.764 86.3651 207.779 86.3506 207.786 86.3361C208.067 85.8791 208.384 85.3351 208.78 84.6098C208.859 84.4647 209.017 84.3922 209.175 84.4284C209.334 84.4647 209.449 84.6025 209.456 84.7621L209.535 86.4739C209.535 86.5102 209.535 86.5464 209.521 86.5827C209.485 86.7205 206.058 99.1456 190.955 99.1456H190.94ZM185.303 97.8907C204.287 101.307 208.492 87.5764 208.801 86.4521L208.787 86.0677C208.657 86.2926 208.528 86.5029 208.412 86.6915C208.412 86.706 208.398 86.7205 208.391 86.7278C208.067 87.2573 207.786 87.6562 207.527 87.9608C202.624 93.7273 194.777 96.4908 190.335 95.7437C189.292 95.5696 188.219 95.0619 187.139 94.235C186.973 94.1045 186.793 93.9594 186.606 93.7926L185.303 97.8907Z" fill="#282A40"/>
<path d="M205.655 67.5427C205.655 67.5427 205.598 67.5427 205.569 67.5354C205.266 67.4629 204.964 67.3758 204.662 67.2815C204.475 67.2235 204.367 67.0204 204.424 66.8318C204.482 66.6432 204.683 66.5344 204.871 66.5852C205.159 66.6723 205.446 66.752 205.742 66.8318C205.936 66.8826 206.051 67.0784 206.001 67.267C205.958 67.4339 205.814 67.5427 205.648 67.5427H205.655Z" fill="#282A40"/>
<path d="M198.449 64.3439C198.384 64.3439 198.319 64.3294 198.261 64.2931C197.923 64.0828 197.585 63.8579 197.254 63.6331C197.153 63.5606 197.095 63.4518 197.095 63.3357C197.095 63.2632 197.117 63.1979 197.16 63.1326C197.275 62.9658 197.498 62.9223 197.657 63.0383C197.974 63.2559 198.297 63.4663 198.636 63.6766C198.801 63.7854 198.859 64.003 198.751 64.1771C198.686 64.2859 198.564 64.3512 198.449 64.3512V64.3439Z" fill="#282A40"/>
<path d="M187.672 53.9933C187.564 53.9933 187.456 53.9426 187.384 53.8555C187.218 53.6452 187.089 53.4566 186.981 53.2825C186.873 53.1157 186.923 52.8981 187.082 52.7893C187.247 52.6805 187.463 52.7167 187.578 52.8836L187.96 53.4276C188.075 53.5872 188.039 53.812 187.881 53.9281C187.816 53.9788 187.744 54.0006 187.665 54.0006L187.672 53.9933Z" fill="#282A40"/>
<path d="M187.046 109.503C186.887 109.503 186.765 109.387 186.722 109.228L186.592 108.713C186.549 108.531 186.65 108.336 186.83 108.278C187.01 108.22 187.204 108.314 187.276 108.488L187.477 108.996C187.521 109.105 187.506 109.235 187.441 109.337C187.377 109.438 187.261 109.496 187.139 109.496V109.134L187.125 109.496C187.125 109.496 187.067 109.503 187.038 109.503H187.046Z" fill="#282A40"/>
<path d="M181.545 116.343C181.452 116.343 181.358 116.307 181.293 116.235C181.164 116.104 178.147 113.036 177.571 110.41C176.974 107.697 179.277 100.045 180.53 98.0648C181.84 95.9904 185.519 94.9314 185.677 94.8879C185.807 94.8516 185.944 94.8879 186.037 94.9822C186.131 95.0764 186.16 95.2143 186.124 95.3448L184.425 100.683C184.648 101.757 186.088 105.514 187.283 108.473C187.283 108.488 187.297 108.502 187.297 108.524L187.427 109.039C187.456 109.148 187.427 109.257 187.362 109.344C187.297 109.431 187.196 109.482 187.088 109.489C184.166 109.583 181.912 116.024 181.891 116.09C181.848 116.206 181.754 116.3 181.632 116.322C181.603 116.322 181.574 116.329 181.552 116.329L181.545 116.343ZM185.217 95.809C184.13 96.2007 181.992 97.1074 181.142 98.4565C179.839 100.516 177.751 107.879 178.277 110.258C178.687 112.144 180.588 114.399 181.416 115.306C182.035 113.732 183.964 109.344 186.628 108.822L186.606 108.727C186.138 107.56 183.914 102.003 183.698 100.727C183.691 100.669 183.698 100.611 183.712 100.553L185.224 95.8018L185.217 95.809Z" fill="#282A40"/>
<path d="M177.398 243.865C176.815 243.865 176.225 243.793 175.663 243.619C175.541 243.583 175.447 243.481 175.419 243.35L173.417 234.567C173.417 234.567 173.41 234.494 173.41 234.465L173.583 231.651L172.1 228.757C172.057 228.67 172.05 228.568 172.078 228.474L172.849 226.116C172.885 225.993 172.985 225.906 173.115 225.877L177.658 224.825C177.751 224.804 177.852 224.825 177.931 224.876L180.652 226.66C180.768 226.733 180.825 226.864 180.811 227.001L180.48 230.164L181.919 233.196C181.919 233.196 181.941 233.246 181.948 233.268L183.806 241.399C183.842 241.552 183.777 241.704 183.647 241.784C183.496 241.885 180.429 243.858 177.391 243.858L177.398 243.865ZM176.074 242.981C178.795 243.684 182.171 241.835 183.05 241.312L181.257 233.471L179.789 230.381C179.76 230.323 179.745 230.251 179.753 230.186L180.069 227.139L177.658 225.558L177.506 225.594L173.461 226.537L172.798 228.554L174.26 231.397C174.288 231.455 174.303 231.52 174.296 231.585L174.116 234.451L176.059 242.973L176.074 242.981Z" fill="#282A40"/>
<path d="M113.823 94.6849C113.758 94.6849 113.686 94.6631 113.629 94.6269C113.55 94.5761 113.492 94.4963 113.47 94.402L112.347 89.4552C112.326 89.3609 112.347 89.2594 112.391 89.1796C112.441 89.0998 112.52 89.0418 112.614 89.02L113.521 88.8097L172.193 75.2168C172.287 75.195 172.388 75.2168 172.467 75.2603C172.546 75.3111 172.604 75.3909 172.625 75.4852L173.748 80.4247C173.792 80.6206 173.669 80.8164 173.482 80.8599L113.902 94.6777C113.902 94.6777 113.845 94.6849 113.823 94.6849ZM113.132 89.651L114.097 93.887L172.978 80.2361L172.013 76.0074L171.538 76.1162L113.132 89.651Z" fill="#282A40"/>
<path d="M136.119 84.3198C135.953 84.3198 135.809 84.2037 135.766 84.0369C135.723 83.841 135.845 83.6452 136.032 83.6017L171.366 75.4126C171.474 75.3908 171.582 75.4126 171.668 75.4851C171.754 75.5504 171.805 75.6592 171.805 75.768C171.805 75.9421 171.69 76.0872 171.524 76.1307L136.191 84.3125C136.191 84.3125 136.133 84.3198 136.112 84.3198H136.119Z" fill="#282A40"/>
<path d="M136.018 91.9503C135.954 91.9503 135.882 91.9285 135.824 91.8922C135.745 91.8415 135.687 91.7617 135.666 91.6674L135.147 89.3826C135.104 89.1867 135.227 88.9909 135.414 88.9474L151.662 85.1829C151.756 85.1611 151.856 85.1829 151.936 85.2264C152.015 85.2772 152.072 85.3569 152.094 85.4512L152.612 87.7361C152.634 87.8303 152.612 87.9319 152.569 88.0117C152.519 88.0915 152.44 88.1495 152.346 88.1713L136.098 91.9358C136.098 91.9358 136.04 91.943 136.018 91.943V91.9503ZM135.932 89.5712L136.292 91.1524L151.835 87.5475L151.475 85.9662L135.925 89.5712H135.932Z" fill="#282A40"/>
<path d="M143.39 102.823C143.326 102.823 143.261 102.801 143.203 102.765C143.124 102.714 143.066 102.635 143.045 102.54L140.316 90.594C140.273 90.3981 140.395 90.2023 140.583 90.1588L147.53 88.5413C147.623 88.5195 147.717 88.5413 147.803 88.5848C147.883 88.6355 147.94 88.7153 147.962 88.8096L150.69 100.756C150.712 100.85 150.69 100.952 150.647 101.032C150.597 101.111 150.517 101.169 150.424 101.191L143.477 102.801C143.477 102.801 143.426 102.809 143.398 102.809L143.39 102.823ZM141.094 90.7898L143.657 102.025L149.898 100.575L147.335 89.3391L141.087 90.7898H141.094Z" fill="#282A40"/>
<path d="M194.965 252.49C191.25 252.49 187.348 252.221 183.23 251.685C173.879 250.459 164.628 248.007 155.679 245.628C155.485 245.577 155.37 245.381 155.42 245.186C155.47 244.99 155.665 244.874 155.859 244.924C164.786 247.296 174.008 249.748 183.317 250.967C193.834 252.337 202.941 251.946 211.148 249.77C219.535 247.543 228.109 243.046 236.655 236.394C236.813 236.271 237.036 236.3 237.159 236.46C237.281 236.619 237.252 236.844 237.094 236.967C228.476 243.677 219.809 248.218 211.335 250.466C206.253 251.815 200.832 252.49 194.957 252.49H194.965Z" fill="#282A40"/>
<path d="M205.101 170.12C205.101 170.12 205.086 170.12 205.072 170.12C194.475 169.395 183.784 168.154 173.295 166.435C173.101 166.406 172.964 166.218 173 166.022C173.029 165.826 173.223 165.688 173.41 165.725C183.871 167.436 194.54 168.669 205.122 169.395C205.324 169.409 205.468 169.583 205.453 169.779C205.439 169.968 205.281 170.12 205.093 170.12H205.101Z" fill="#282A40"/>
<path d="M115.731 86.6553C115.58 86.6553 115.436 86.5538 115.386 86.4015L111.361 73.7225C111.304 73.5339 111.405 73.3308 111.592 73.2656C111.779 73.2075 111.981 73.3091 112.045 73.4977L116.077 86.1766C116.134 86.3652 116.034 86.5683 115.846 86.6336C115.81 86.6481 115.774 86.6481 115.738 86.6481L115.731 86.6553Z" fill="#282A40"/>
<path d="M119.129 85.9155C118.985 85.9155 118.841 85.8212 118.791 85.6762C117.257 81.4184 115.515 77.1752 113.622 73.0698C113.535 72.8884 113.622 72.6708 113.795 72.591C113.975 72.504 114.191 72.591 114.27 72.7651C116.17 76.8923 117.92 81.15 119.46 85.4295C119.525 85.6181 119.431 85.8285 119.244 85.8938C119.201 85.9083 119.165 85.9155 119.122 85.9155H119.129Z" fill="#282A40"/>
<path d="M125.004 85.4512C124.845 85.4512 124.701 85.3424 124.658 85.1829L121.224 72.0542C121.174 71.8584 121.289 71.6625 121.483 71.6118C121.678 71.561 121.872 71.677 121.923 71.8729L125.357 85.0015C125.407 85.1974 125.292 85.3932 125.097 85.444C125.069 85.4512 125.04 85.4585 125.004 85.4585V85.4512Z" fill="#282A40"/>
<path d="M129.201 85.1829C129.035 85.1829 128.884 85.0669 128.848 84.8928C128.222 81.7375 127.423 78.5678 126.487 75.4851C126.429 75.2965 126.537 75.0934 126.724 75.0354C126.919 74.9774 127.113 75.0862 127.171 75.2748C128.114 78.3865 128.913 81.5707 129.546 84.755C129.582 84.9508 129.46 85.1394 129.266 85.1829C129.244 85.1829 129.215 85.1829 129.194 85.1829H129.201Z" fill="#282A40"/>
<path d="M133.484 83.4927C133.318 83.4927 133.167 83.3767 133.131 83.2026C132.131 78.205 130.72 73.2582 128.92 68.4854C128.848 68.2968 128.941 68.0865 129.129 68.014C129.316 67.9414 129.525 68.0357 129.589 68.2243C131.396 73.0333 132.822 78.0236 133.83 83.0503C133.866 83.2461 133.743 83.4347 133.549 83.4782C133.527 83.4782 133.498 83.4782 133.477 83.4782L133.484 83.4927Z" fill="#282A40"/>
<path d="M137.149 83.3622C137.005 83.3622 136.868 83.2752 136.81 83.1228L131.483 68.6958C131.411 68.5072 131.512 68.2969 131.692 68.2316C131.879 68.1591 132.088 68.2606 132.152 68.442L137.48 82.869C137.552 83.0576 137.451 83.2679 137.271 83.3332C137.228 83.3477 137.185 83.3549 137.149 83.3549V83.3622Z" fill="#282A40"/>
<path d="M142.181 82.1726C142.015 82.1726 141.871 82.0566 141.828 81.8897C140.69 76.8921 139.308 71.8945 137.732 67.0275C137.674 66.8389 137.775 66.6286 137.962 66.5705C138.149 66.5053 138.351 66.6141 138.415 66.8027C139.999 71.6842 141.381 76.7108 142.526 81.7301C142.569 81.926 142.447 82.1218 142.26 82.1654C142.231 82.1654 142.202 82.1726 142.181 82.1726Z" fill="#282A40"/>
<path d="M147.047 80.2434C146.896 80.2434 146.752 80.1418 146.702 79.9895C145.312 75.4561 143.599 70.9663 141.605 66.665C141.518 66.4837 141.605 66.2661 141.777 66.1863C141.957 66.1065 142.173 66.1863 142.253 66.3604C144.254 70.6979 145.982 75.2095 147.378 79.7792C147.436 79.9678 147.328 80.1709 147.141 80.2289C147.105 80.2434 147.069 80.2434 147.033 80.2434H147.047Z" fill="#282A40"/>
<path d="M152.994 78.5024C152.835 78.5024 152.691 78.4008 152.648 78.2413C151.439 74.0996 150.071 69.9434 148.588 65.896C148.516 65.7074 148.617 65.497 148.804 65.4318C148.991 65.3665 149.2 65.4608 149.265 65.6494C150.755 69.7113 152.123 73.882 153.339 78.0382C153.397 78.2267 153.289 78.4298 153.094 78.4879C153.058 78.4951 153.03 78.5024 152.994 78.5024Z" fill="#282A40"/>
<path d="M155.809 78.3356C155.65 78.3356 155.513 78.2341 155.463 78.0745L151.655 65.1272C151.597 64.9386 151.705 64.7355 151.899 64.6775C152.087 64.6194 152.288 64.7282 152.346 64.9241L156.154 77.8714C156.212 78.06 156.104 78.2631 155.909 78.3211C155.873 78.3283 155.837 78.3356 155.809 78.3356Z" fill="#282A40"/>
<path d="M159.422 77.9658C159.257 77.9658 159.113 77.857 159.07 77.6902C158.062 73.563 156.787 69.4504 155.268 65.4827C155.196 65.2942 155.29 65.0838 155.477 65.0113C155.664 64.9387 155.873 65.033 155.945 65.2216C157.471 69.2182 158.76 73.3527 159.775 77.5161C159.825 77.712 159.703 77.9078 159.509 77.9513C159.48 77.9586 159.451 77.9586 159.422 77.9586V77.9658Z" fill="#282A40"/>
<path d="M165.657 76.1524C165.498 76.1524 165.354 76.0436 165.311 75.8841C164.08 71.4232 162.597 66.9769 160.891 62.6756C160.819 62.487 160.905 62.2767 161.093 62.2042C161.28 62.1316 161.489 62.2187 161.561 62.4073C163.274 66.7303 164.771 71.1984 166.002 75.6882C166.053 75.8841 165.945 76.0799 165.75 76.1379C165.722 76.1452 165.686 76.1524 165.657 76.1524Z" fill="#282A40"/>
<path d="M249.195 148.106C249.059 148.106 248.929 148.026 248.864 147.896C248.85 147.859 247.23 144.269 246.517 140.548C245.797 136.783 247.532 130.705 247.604 130.451C247.662 130.263 247.856 130.154 248.051 130.205C248.245 130.263 248.353 130.466 248.296 130.654C248.274 130.712 246.532 136.82 247.223 140.41C247.921 144.044 249.505 147.562 249.519 147.591C249.599 147.772 249.519 147.99 249.339 148.07C249.289 148.091 249.239 148.099 249.188 148.099L249.195 148.106Z" fill="#282A40"/>
<path d="M258.065 121.232C254.969 121.232 251.881 121 248.799 120.536C248.605 120.507 248.468 120.318 248.497 120.122C248.526 119.927 248.706 119.789 248.907 119.818C255.423 120.804 262.017 120.732 268.51 119.607C268.705 119.571 268.892 119.709 268.928 119.905C268.964 120.101 268.827 120.289 268.633 120.325C265.127 120.935 261.599 121.239 258.065 121.239V121.232Z" fill="#282A40"/>
<path d="M237.713 87.2791C237.547 87.2791 237.447 87.2791 237.425 87.2718C237.223 87.2573 237.079 87.0832 237.094 86.8801C237.108 86.6843 237.281 86.5247 237.475 86.5465C237.497 86.5465 239.505 86.677 240.513 85.56C241.543 84.414 241.5 83.1519 241.5 83.1446C241.5 82.9996 241.572 82.869 241.701 82.8037C242.522 82.3975 243.911 81.5271 244.156 80.9468C244.206 80.8308 244.314 80.7438 244.444 80.7292C244.574 80.7147 244.696 80.7655 244.775 80.8671L246.978 83.7539C247.101 83.9135 247.072 84.1383 246.913 84.2617C246.755 84.385 246.532 84.3559 246.409 84.1964L244.516 81.7157C243.897 82.4338 242.709 83.1011 242.227 83.3622C242.191 83.8482 242.011 84.9942 241.06 86.0532C240.06 87.1703 238.39 87.2863 237.72 87.2863L237.713 87.2791Z" fill="#282A40"/>
<path d="M247.158 82.9562C247.093 82.9562 247.028 82.9344 246.963 82.8981C246.798 82.7893 246.747 82.5645 246.855 82.3977C246.935 82.2744 248.799 79.402 253.615 79.0611C258.345 78.7202 260.102 79.4673 260.174 79.4963C260.354 79.5761 260.44 79.7864 260.361 79.975C260.282 80.1564 260.073 80.2434 259.886 80.1636C259.871 80.1636 258.172 79.4673 253.659 79.7864C249.224 80.1056 247.475 82.7676 247.453 82.7966C247.381 82.9054 247.266 82.9634 247.151 82.9634L247.158 82.9562Z" fill="#282A40"/>
<path d="M248.763 81.324C248.583 81.324 248.425 81.1862 248.403 80.9976L247.77 74.6654C247.748 74.4695 247.892 74.2882 248.094 74.2664C248.274 74.2519 248.468 74.3897 248.49 74.5928L249.123 80.925C249.145 81.1209 249.001 81.3022 248.799 81.324C248.785 81.324 248.778 81.324 248.763 81.324Z" fill="#282A40"/>
<path d="M252.795 79.8734C252.795 79.8734 252.773 79.8734 252.759 79.8734C252.565 79.8516 252.421 79.6776 252.435 79.4745L253.033 73.4542C253.054 73.2511 253.22 73.1132 253.429 73.1278C253.623 73.1495 253.767 73.3236 253.753 73.5267L253.155 79.547C253.133 79.7356 252.982 79.8734 252.795 79.8734Z" fill="#282A40"/>
<path d="M249.483 89.1286C249.433 89.1286 249.383 89.1213 249.332 89.0996C249.152 89.0198 249.073 88.8022 249.152 88.6209C250.369 85.9153 252.255 83.5507 254.616 81.7737C254.775 81.6503 254.998 81.6866 255.12 81.8462C255.235 82.0058 255.207 82.2306 255.048 82.3539C252.788 84.0585 250.974 86.3288 249.807 88.9183C249.75 89.0488 249.62 89.1286 249.476 89.1286H249.483Z" fill="#282A40"/>
<path d="M244.523 93.9739C244.48 93.9739 244.437 93.9739 244.401 93.9521C244.213 93.8796 244.12 93.6765 244.185 93.4879C244.595 92.3709 245.178 91.3264 245.92 90.3979C246.049 90.2384 246.272 90.2166 246.423 90.3399C246.582 90.4632 246.603 90.6953 246.481 90.8477C245.79 91.7181 245.243 92.6828 244.854 93.7273C244.804 93.8723 244.66 93.9666 244.516 93.9666L244.523 93.9739Z" fill="#282A40"/>
<path d="M252.953 106.181C252.802 106.181 252.658 106.08 252.607 105.928C252.55 105.739 252.651 105.536 252.845 105.471L258.863 103.548C259.051 103.49 259.252 103.592 259.317 103.788C259.375 103.976 259.274 104.18 259.079 104.245L253.061 106.167C253.061 106.167 252.989 106.181 252.953 106.181Z" fill="#282A40"/>
<path d="M252.831 108.466C252.644 108.466 252.478 108.314 252.471 108.125C252.464 107.922 252.615 107.755 252.809 107.741L260.196 107.342C260.39 107.342 260.563 107.487 260.577 107.683C260.584 107.886 260.433 108.053 260.239 108.067L252.853 108.466C252.853 108.466 252.838 108.466 252.831 108.466Z" fill="#282A40"/>
<path d="M240.895 92.3056C240.815 92.3056 240.736 92.2766 240.664 92.2258C240.513 92.1025 240.484 91.8704 240.614 91.7181L242.514 89.3753C242.637 89.2229 242.867 89.1939 243.018 89.3245C243.17 89.4478 243.198 89.6799 243.069 89.8322L241.168 92.1751C241.096 92.2621 240.995 92.3056 240.887 92.3056H240.895Z" fill="#282A40"/>
<path d="M151.662 151.892C151.662 151.892 151.648 151.892 151.64 151.892C148.343 151.668 147.523 149.223 147.487 149.114L145.262 143.515C145.19 143.326 145.276 143.116 145.464 143.043C145.644 142.971 145.86 143.058 145.932 143.246L148.163 148.868C148.199 148.977 148.89 150.978 151.684 151.167C151.885 151.182 152.029 151.356 152.022 151.552C152.008 151.74 151.849 151.892 151.662 151.892Z" fill="#282A40"/>
<path d="M150.316 154.409C150.236 154.409 150.157 154.38 150.092 154.329C149.12 153.553 148.415 152.414 148.156 151.189C148.113 150.993 148.242 150.797 148.437 150.761C148.631 150.724 148.825 150.848 148.861 151.044C149.084 152.103 149.696 153.096 150.539 153.764C150.697 153.887 150.719 154.119 150.596 154.271C150.524 154.358 150.416 154.409 150.316 154.409Z" fill="#282A40"/>
<path d="M156.428 165.275C154.779 165.275 153.023 164.833 151.324 163.955C148.861 162.686 146.838 160.763 144.888 158.899C144.744 158.761 144.736 158.529 144.873 158.384C145.01 158.239 145.24 158.232 145.384 158.37C147.299 160.19 149.279 162.076 151.655 163.302C154.254 164.644 156.989 164.912 159.163 164.042C159.343 163.969 159.559 164.056 159.631 164.245C159.703 164.434 159.617 164.644 159.43 164.716C158.501 165.086 157.493 165.268 156.428 165.268V165.275Z" fill="#282A40"/>
<path d="M153.714 147.838C153.555 147.838 153.411 147.729 153.368 147.569C153.318 147.373 153.426 147.178 153.62 147.12C156.248 146.387 158.775 145.459 161.129 144.371C161.604 144.153 162.021 143.943 162.345 143.631C162.677 143.312 162.842 142.905 162.799 142.55C162.749 142.209 162.482 141.868 162.108 141.687C161.532 141.404 160.819 141.476 160.085 141.585C156.356 142.129 153.145 142.927 150.265 144.015C150.078 144.088 149.869 143.993 149.805 143.805C149.733 143.616 149.826 143.406 150.013 143.341C152.943 142.231 156.205 141.426 159.984 140.867C160.805 140.751 161.661 140.664 162.425 141.034C163.015 141.324 163.432 141.861 163.512 142.448C163.591 143.029 163.346 143.667 162.849 144.153C162.446 144.545 161.949 144.791 161.438 145.031C159.041 146.14 156.478 147.076 153.822 147.823C153.793 147.83 153.757 147.838 153.728 147.838H153.714Z" fill="#282A40"/>
<path d="M160.589 149.593C160.502 149.593 160.416 149.564 160.351 149.506C159.746 148.969 159.35 148.208 159.257 147.403C159.163 146.597 159.372 145.763 159.833 145.096C159.948 144.929 160.171 144.893 160.337 145.009C160.502 145.125 160.538 145.35 160.423 145.517C160.063 146.032 159.898 146.692 159.969 147.316C160.041 147.947 160.358 148.541 160.826 148.962C160.977 149.093 160.992 149.325 160.855 149.47C160.783 149.55 160.682 149.593 160.589 149.593Z" fill="#282A40"/>
<path d="M160.985 140.693C160.797 140.693 160.639 140.548 160.625 140.359C160.596 140.004 160.574 139.634 160.466 139.3C160.358 138.974 160.178 138.72 159.955 138.59C159.609 138.386 159.149 138.43 158.63 138.503C155.463 138.938 152.194 139.387 149.149 140.49C148.962 140.555 148.753 140.461 148.688 140.272C148.624 140.084 148.717 139.873 148.904 139.808C152.022 138.677 155.333 138.227 158.537 137.784C159.041 137.712 159.739 137.618 160.322 137.966C160.697 138.183 160.992 138.582 161.15 139.076C161.287 139.489 161.316 139.924 161.344 140.301C161.359 140.504 161.208 140.679 161.013 140.693C161.006 140.693 160.992 140.693 160.985 140.693Z" fill="#282A40"/>
<path d="M160.085 138.082C159.89 138.082 159.732 137.922 159.725 137.727C159.71 137.117 159.667 136.544 159.343 136.189C159.019 135.841 158.45 135.754 157.932 135.696C154.585 135.333 151.403 135.449 148.473 136.051C148.278 136.087 148.091 135.964 148.048 135.768C148.012 135.572 148.134 135.384 148.329 135.34C151.331 134.724 154.585 134.6 158.011 134.977C158.652 135.05 159.379 135.166 159.869 135.696C160.365 136.232 160.423 136.987 160.445 137.705C160.445 137.908 160.293 138.067 160.092 138.075H160.085V138.082Z" fill="#282A40"/>
<path d="M160.596 136.624C160.359 136.624 160.128 136.566 159.934 136.45C159.761 136.348 159.704 136.131 159.804 135.957C159.905 135.783 160.128 135.725 160.294 135.826C160.517 135.957 160.863 135.913 161.093 135.717C161.323 135.521 161.467 135.188 161.467 134.825C161.467 134.491 161.366 134.136 161.158 133.752C160.683 132.881 159.833 132.221 158.883 131.975C158.688 131.924 158.573 131.728 158.624 131.532C158.674 131.336 158.861 131.22 159.063 131.271C160.207 131.561 161.23 132.359 161.791 133.403C162.058 133.889 162.187 134.375 162.187 134.825C162.187 135.398 161.95 135.935 161.554 136.269C161.28 136.501 160.935 136.624 160.589 136.624H160.596Z" fill="#282A40"/>
<path d="M176.83 175.016C176.672 175.016 176.52 174.907 176.477 174.741C176.427 174.545 176.549 174.349 176.736 174.298C183 172.717 189.428 171.542 195.828 170.787C196.023 170.766 196.203 170.903 196.224 171.107C196.246 171.302 196.102 171.484 195.908 171.506C189.536 172.253 183.144 173.428 176.902 175.002C176.873 175.002 176.844 175.009 176.816 175.009L176.83 175.016Z" fill="#282A40"/>
<path d="M213.077 175.379C212.933 175.379 212.804 175.292 212.746 175.154C212.674 174.973 212.76 174.755 212.94 174.683L221.075 171.339C221.255 171.266 221.471 171.353 221.543 171.535C221.615 171.716 221.529 171.934 221.349 172.006L213.214 175.35C213.171 175.372 213.128 175.379 213.077 175.379Z" fill="#282A40"/>
<path d="M215.712 178.715C215.612 178.715 215.518 178.679 215.446 178.599C215.309 178.454 215.324 178.222 215.468 178.084C217.383 176.329 219.456 174.726 221.63 173.319C221.796 173.21 222.019 173.261 222.127 173.428C222.235 173.595 222.184 173.819 222.019 173.928C219.873 175.314 217.836 176.895 215.95 178.621C215.878 178.686 215.792 178.715 215.705 178.715H215.712Z" fill="#282A40"/>
<path d="M225.366 146.133C225.215 146.133 225.078 146.039 225.028 145.887L221.025 133.81C220.96 133.621 221.061 133.411 221.255 133.353C221.443 133.287 221.644 133.389 221.709 133.585L225.712 145.662C225.776 145.85 225.676 146.053 225.481 146.119C225.445 146.133 225.402 146.14 225.366 146.14V146.133Z" fill="#282A40"/>
<path d="M223.574 145.785C223.473 145.785 223.372 145.742 223.3 145.655C221.572 143.595 220.032 141.353 218.736 138.996C218.642 138.822 218.7 138.597 218.88 138.503C219.053 138.408 219.268 138.466 219.369 138.648C220.644 140.969 222.155 143.167 223.854 145.19C223.984 145.343 223.962 145.575 223.811 145.705C223.746 145.763 223.66 145.792 223.581 145.792L223.574 145.785Z" fill="#282A40"/>
<path d="M162.036 139.453C162.036 139.453 161.978 139.453 161.949 139.445C161.755 139.395 161.64 139.206 161.683 139.01C163.691 130.611 166.096 122.197 168.832 114.015C168.896 113.826 169.098 113.725 169.285 113.783C169.472 113.848 169.573 114.051 169.508 114.24C166.78 122.4 164.383 130.792 162.381 139.17C162.338 139.337 162.194 139.445 162.028 139.445L162.036 139.453Z" fill="#282A40"/>
<path d="M161.957 132.439C161.762 132.439 161.604 132.286 161.597 132.091L161.115 120.471C161.107 120.268 161.258 120.101 161.46 120.093C161.647 120.079 161.827 120.239 161.834 120.442L162.317 132.062C162.324 132.265 162.173 132.431 161.971 132.439H161.957Z" fill="#282A40"/>
<path d="M188.96 69.9434C188.802 69.9434 188.658 69.8346 188.615 69.675C188.6 69.617 188.139 68.1011 185.569 67.9052C182.942 67.7094 181.97 68.8337 181.963 68.8409C181.833 68.9932 181.61 69.015 181.459 68.8917C181.307 68.7684 181.279 68.5435 181.401 68.3839C181.444 68.3259 182.574 66.9478 185.62 67.1799C188.73 67.412 189.284 69.3994 189.306 69.4865C189.356 69.6823 189.241 69.8781 189.046 69.9289C189.018 69.9362 188.982 69.9434 188.953 69.9434H188.96Z" fill="#282A40"/>
<path d="M181.279 66.2515C181.164 66.2515 181.048 66.1935 180.984 66.092C180.868 65.9251 180.912 65.7003 181.077 65.5915C182.215 64.8081 183.604 64.3439 184.986 64.2859C186.354 64.2351 187.787 64.5833 188.982 65.2796C189.155 65.3811 189.212 65.5987 189.111 65.7728C189.011 65.9469 188.795 66.0049 188.622 65.9034C187.542 65.2723 186.261 64.9532 185.015 65.004C183.77 65.0547 182.51 65.4682 181.48 66.179C181.416 66.2225 181.351 66.2443 181.279 66.2443V66.2515Z" fill="#282A40"/>
<path d="M203.862 70.6471C203.74 70.6471 203.618 70.5818 203.553 70.4657C203.538 70.444 202.747 69.1964 200.126 69.0005C197.542 68.8047 196.879 70.2336 196.85 70.2989C196.771 70.4802 196.555 70.56 196.375 70.4802C196.195 70.4004 196.109 70.1901 196.188 70.0088C196.224 69.929 197.074 68.0431 200.176 68.2825C203.222 68.5146 204.136 70.0378 204.172 70.1031C204.273 70.2771 204.215 70.4947 204.042 70.5963C203.985 70.6326 203.927 70.6471 203.862 70.6471Z" fill="#282A40"/>
<path d="M204.661 68.0214C204.575 68.0214 204.489 67.9924 204.417 67.9271C203.502 67.0712 202.322 66.4691 201.098 66.237C199.874 66.0049 198.557 66.1282 197.398 66.5852C197.218 66.6577 197.002 66.5707 196.93 66.3821C196.858 66.1935 196.951 65.9832 197.131 65.9106C198.42 65.4029 199.874 65.2651 201.235 65.5262C202.595 65.7873 203.898 66.4546 204.906 67.4048C205.05 67.5426 205.057 67.7675 204.928 67.9198C204.856 67.9996 204.762 68.0359 204.661 68.0359V68.0214Z" fill="#282A40"/>
<path d="M200.176 69.1892C199.687 69.871 199.838 70.814 200.515 71.3072C201.192 71.8004 202.127 71.6481 202.617 70.9663C203.106 70.2845 202.955 69.3415 202.279 68.8483C201.602 68.3551 200.666 68.5074 200.176 69.1892Z" fill="#282A40"/>
<path d="M185.137 68.1228C184.648 68.8046 184.799 69.7476 185.476 70.2408C186.152 70.734 187.088 70.5817 187.578 69.8999C188.067 69.2181 187.916 68.2751 187.24 67.7819C186.563 67.2887 185.627 67.441 185.137 68.1228Z" fill="#282A40"/>
<path d="M186.556 76.6747C186.542 78.0094 184.871 79.0684 182.834 79.0394C180.797 79.0103 179.162 77.9078 179.177 76.5732C179.191 75.2386 180.861 74.1796 182.892 74.2086C184.929 74.2376 186.563 75.3401 186.549 76.6747H186.556Z" fill="#C3E9FD"/>
<path d="M204.769 77.2404C204.755 78.575 203.085 79.634 201.055 79.605C199.017 79.576 197.383 78.4735 197.398 77.1389C197.412 75.8042 199.082 74.7453 201.112 74.7743C203.15 74.8033 204.784 75.9058 204.769 77.2404Z" fill="#C3E9FD"/>
<path d="M193.121 80.7946C191.25 80.7946 189.407 79.9242 188.226 78.4445C188.068 78.2414 187.909 78.0093 187.866 77.7264C187.772 77.1317 188.19 76.6529 188.463 76.341C190.753 73.7081 192.214 70.3425 192.574 66.8608C192.596 66.665 192.776 66.5199 192.97 66.5344C193.164 66.5562 193.308 66.7303 193.294 66.9334C192.92 70.5601 191.401 74.0707 189.011 76.8198C188.766 77.1026 188.55 77.3783 188.586 77.6104C188.607 77.7337 188.701 77.8643 188.802 77.9948C189.997 79.5035 192.07 80.3086 193.964 80.004C194.151 79.9677 194.345 80.1056 194.374 80.3014C194.403 80.4972 194.273 80.6858 194.072 80.7148C193.755 80.7656 193.438 80.7874 193.128 80.7874L193.121 80.7946Z" fill="#282A40"/>
<path d="M191.883 85.1539C191.545 85.1539 191.207 85.1322 190.868 85.0959C190.674 85.0741 190.53 84.8928 190.551 84.697C190.573 84.5011 190.76 84.3488 190.947 84.3778C193.532 84.6752 196.275 83.7033 198.096 81.8246C198.24 81.6796 198.463 81.6796 198.607 81.8246C198.751 81.9624 198.751 82.1945 198.607 82.3396C196.872 84.1239 194.36 85.1612 191.876 85.1612L191.883 85.1539Z" fill="#282A40"/>
<path d="M213.473 77.1751C213.473 77.1751 213.452 77.1751 213.437 77.1751C213.236 77.1534 213.092 76.9793 213.113 76.7762C213.344 74.3971 214.539 72.1703 216.389 70.6761C216.54 70.5528 216.771 70.5745 216.893 70.7341C217.015 70.8864 216.994 71.1186 216.835 71.2419C215.136 72.62 214.042 74.6655 213.826 76.856C213.805 77.0446 213.653 77.1824 213.466 77.1824L213.473 77.1751Z" fill="#282A40"/>
</g>
<defs>
<clipPath id="clip0_222_3457">
<rect width="398" height="211.341" fill="white" transform="translate(395 307) rotate(-180)"/>
</clipPath>
<clipPath id="clip1_222_3457">
<rect width="41.54" height="42.61" fill="white" transform="translate(283 180)"/>
</clipPath>
<clipPath id="clip2_222_3457">
<rect width="160" height="307" fill="white" transform="translate(109)"/>
</clipPath>
</defs>
</svg>
