<svg width="393" height="307" viewBox="0 0 393 307" fill="none" xmlns="http://www.w3.org/2000/svg">
<g clip-path="url(#clip0_222_2835)">
<path d="M395 132.242C383.857 128.547 369.626 128.915 358.999 133.176C348.372 137.437 341.749 145.428 342.249 153.39C333.56 150.322 322.219 152.116 314.44 156.043C306.66 159.971 301.66 165.641 296.858 171.159C285.945 164.166 265.487 164.709 255.532 172.253C248.782 164.701 235.074 159.872 221.385 160.228C207.697 160.584 194.661 166.11 188.914 173.988C184.894 168.163 175.761 163.886 165.793 163.162C155.825 162.438 145.4 165.295 139.406 170.394C139.422 163.364 132.347 156.529 122.169 153.735C111.99 150.941 99.2817 152.346 91.2004 157.163C90.8919 149.215 82.1612 141.669 70.294 139.091C58.4236 136.513 44.2252 139.081 36.2867 145.236C37.8484 138.986 31.0528 132.341 21.4129 130.689C11.7731 129.037 0.616959 132.61 -3.00001 138.507L-3.00003 307L395 307L395 132.242Z" fill="#C3E9FD"/>
</g>
<g clip-path="url(#clip1_222_2835)">
<path d="M281.467 208.709C281.545 212.408 279.613 223.694 272.925 225.845C266.225 227.997 261.598 227.133 256.961 220.865C254.159 217.077 248.123 208.527 243.781 202.343V202.335C241.388 198.937 239.518 196.265 238.988 195.491C240.346 194.945 242.667 193.968 244.99 192.835V192.827C247.078 191.807 249.167 190.659 250.548 189.567C251.375 188.916 252.21 188.126 253.01 187.27L260.238 187.336C265.953 187.099 272.965 181.811 275.854 179.424C275.854 179.424 281.386 205.011 281.465 208.711L281.467 208.709Z" fill="white"/>
<path d="M277.195 178.273C277.195 178.273 276.699 178.721 275.856 179.422C272.967 181.809 265.955 187.099 260.24 187.334L253.012 187.268C255.856 184.246 258.232 180.562 258.232 180.562L240.563 164.647C239.849 148.185 242.642 131.969 243.286 128.507C243.286 128.507 262.276 141.538 265.26 143.843C268.245 146.149 277.197 178.273 277.197 178.273H277.195Z" fill="white"/>
<path d="M245.398 251.295L258.229 307H208.191L202.815 293.79V293.692C214.246 293.334 224.476 292.03 228.826 290.865C237.534 288.518 244.624 271.527 244.624 271.527C244.624 271.527 245.198 258.596 245.39 251.293H245.398V251.295Z" fill="#152744"/>
<path d="M238.988 195.49C238.248 195.791 237.796 195.962 237.796 195.962L234.412 184.017C234.412 184.017 226.669 180.895 224.913 179.421C224.452 179.031 223.642 178.281 222.712 177.377C220.102 174.866 216.473 171.217 216.473 171.217C216.473 171.217 211.914 166.63 211.498 163.85C211.071 161.079 214.699 161.365 214.699 161.365C213.149 159.842 213.315 158.594 213.889 157.714C214.246 157.453 214.584 157.2 214.907 156.963C214.786 156.963 214.671 156.963 214.55 156.955C215.045 156.508 215.543 156.263 215.543 156.263C214.063 154.168 215.97 151.902 215.97 151.902C215.97 151.902 211.855 150.598 212.342 148.39C212.82 146.182 216.873 144.486 220.563 144.707C221.373 144.757 222.537 145.131 223.868 145.701C226.478 146.81 229.749 148.659 232.331 150.288C233.923 151.289 235.254 152.203 236.01 152.814C236.272 153.025 236.463 153.189 236.584 153.32C237.915 154.761 240.559 164.647 240.559 164.647L258.227 180.562C258.227 180.562 255.853 184.246 253.007 187.268C252.206 188.124 251.373 188.914 250.546 189.565C249.162 190.656 247.075 191.807 244.988 192.825V192.833C242.665 193.965 240.342 194.943 238.986 195.488L238.988 195.49Z" fill="#ECB841"/>
<path d="M243.826 60.1871C245.097 60.9855 246.419 61.9471 247.6 63.088C251.471 66.8031 253.333 73.1184 251.001 77.9027C249.122 81.7572 246.765 87.3557 245.921 89.3765C244.72 89.8006 243.452 91.1206 243.311 91.258C243.86 89.7508 244.198 88.7733 244.198 88.7733C244.198 88.7733 245.511 84.2598 245.458 78.1874C245.415 72.1249 242.353 69.7457 240.308 69.469C238.272 69.1922 235.758 69.7298 229.887 68.1968C224.015 66.6657 222.161 64.9853 220.257 64.2367C218.361 63.4862 214.429 64.0416 211.045 69.2082C207.653 74.3827 206.287 78.8802 206.287 78.8802C206.287 78.8802 206.034 79.8916 205.66 81.4466C205.66 81.4466 205.311 79.5731 204.467 78.5696C204.867 76.4433 205.938 70.5023 206.459 66.2815C207.103 61.0572 212.174 56.5517 217.549 55.2476C218.907 54.9131 220.289 54.7339 221.594 54.6364C222.03 53.5772 222.612 52.5737 223.343 51.6619C224.909 52.3388 226.735 52.2651 228.476 52.2233C230.982 52.1576 233.522 52.2074 235.949 52.7927C238.376 53.3801 240.708 54.5527 242.229 56.4183C243.107 57.5013 243.683 58.8313 243.821 60.1832L243.826 60.1871Z" fill="#282A40"/>
<path d="M245.921 89.3766C246.208 89.2711 246.495 89.2213 246.756 89.2472C248.199 89.3866 248.852 90.7066 247.67 94.4058C246.486 98.105 243.26 100.395 242.076 100.827C240.884 101.259 239.806 100.444 239.806 100.444C241.12 97.2668 242.467 93.6233 243.311 91.268V91.2601C243.449 91.1207 244.72 89.8007 245.921 89.3786V89.3766Z" fill="white"/>
<path d="M145.332 275.415C143.323 273.11 142.331 271.529 142.331 271.529L159.259 208.937L162.165 173.14C162.165 173.14 162.66 172.553 163.487 171.509C167.393 166.62 178.728 151.797 181.024 141.806C183.33 131.758 186.131 118.827 187.026 114.696C187.209 113.839 187.313 113.36 187.313 113.36H191.419L191.253 114.696L187.147 148.074C187.147 148.074 194.403 154.3 205.528 156.231C208.433 156.737 211.538 156.94 214.548 156.956C214.312 157.167 214.07 157.412 213.887 157.714C211.052 159.825 207.477 162.48 203.917 165.138C197.923 169.636 191.999 174.118 189.834 175.896C184.866 179.987 183.7 189.121 183.7 189.121C183.7 189.121 192.773 199.813 207.77 204.034C207.77 204.034 212.981 199.65 216.722 194.646C217.054 194.206 217.4 193.555 217.774 192.739C219.287 189.438 221.088 183.433 222.707 177.379C223.638 178.283 224.448 179.033 224.909 179.424C226.667 180.899 234.408 184.019 234.408 184.019L237.791 195.964C237.791 195.964 238.244 195.793 238.984 195.493C239.515 196.267 241.385 198.939 243.776 202.337V202.345L241.715 218.52C241.715 218.52 245.107 222.749 244.299 225.47C243.49 228.184 242.204 236.194 242.204 236.194C242.204 236.194 245.405 242.909 245.458 247.22C245.466 248.068 245.441 249.509 245.388 251.293C245.196 258.594 244.622 271.527 244.622 271.527C244.622 271.527 237.532 288.518 228.824 290.865C224.476 292.03 214.244 293.334 202.813 293.692C199.03 293.814 195.124 293.832 191.251 293.7C183.37 293.448 175.644 292.609 169.495 290.865C157.325 287.393 149.321 279.987 145.33 275.415H145.332Z" fill="#46CDCF"/>
<path d="M245.46 78.1894C245.513 84.2599 244.2 88.7753 244.2 88.7753C244.2 88.7753 243.859 89.7529 243.313 91.2601V91.268C242.469 93.6233 241.122 97.2648 239.808 100.444C238.869 102.694 237.955 104.707 237.232 105.872C236.501 107.062 234.971 108.348 233.135 109.587C229.011 112.374 223.358 114.893 221.766 115.323C219.46 115.95 215.938 115.128 215.938 115.128C215.938 115.128 212.467 114.126 210.831 112.472C209.987 111.616 207.855 108.675 206.002 105.416C204.261 102.368 202.775 99.0427 202.818 96.8925C202.843 95.5486 203.166 93.3804 203.608 91.0012C204.235 87.6445 205.088 83.8796 205.662 81.4506C206.036 79.8937 206.289 78.8843 206.289 78.8843C206.289 78.8843 207.655 74.3867 211.047 69.2122C214.431 64.0457 218.363 63.4922 220.259 64.2408C222.163 64.9914 224.017 66.6698 229.889 68.2008C235.762 69.7318 238.276 69.1943 240.31 69.473C242.355 69.7498 245.417 72.129 245.46 78.1914V78.1894Z" fill="white"/>
<path d="M243.415 127.832C243.415 127.832 243.373 128.069 243.286 128.509C242.642 131.973 239.849 148.187 240.563 164.649C240.563 164.649 237.919 154.764 236.589 153.322C236.467 153.193 236.276 153.029 236.015 152.816C236.816 152.147 238.816 150.242 239.216 147.805C239.216 147.805 237.424 145.808 234.423 143.413L239.556 126.496L239.809 125.656C239.809 125.656 242.818 126.136 243.42 127.832H243.415Z" fill="#5F9AE9"/>
<path d="M239.554 126.496L234.421 143.413C231.653 141.189 227.862 138.629 223.502 136.992C226.99 134.94 234.786 129.992 236.004 126.179C236.004 126.179 235.97 125.747 235.917 125.055L236.004 125.047L239.545 126.498H239.554V126.496Z" fill="white"/>
<path d="M234.421 143.411C237.422 145.806 239.213 147.803 239.213 147.803C238.814 150.24 236.812 152.147 236.013 152.814C235.256 152.203 233.925 151.291 232.333 150.288C229.749 148.657 226.478 146.808 223.87 145.701C223.845 145.448 223.791 145.229 223.713 145.04C223.443 144.478 222.433 143.214 221.494 142.089C220.754 141.209 220.051 140.419 219.781 140.118L221.859 137.175L222.295 136.556C222.703 136.686 223.105 136.833 223.504 136.988C227.864 138.627 231.655 141.185 234.423 143.409L234.421 143.411Z" fill="white"/>
<path d="M235.917 125.053C235.97 125.745 236.004 126.177 236.004 126.177C234.786 129.99 226.992 134.938 223.502 136.99C223.103 136.835 222.701 136.69 222.293 136.558L222.641 136.061L221.755 135.507C220.99 130.137 216.476 126.177 216.476 126.177L229.073 121.646L231.866 113.358C231.866 113.358 233.266 113.822 234.31 115.558C235.128 116.91 235.702 122.606 235.919 125.051L235.917 125.053Z" fill="white"/>
<path d="M233.133 109.587L231.862 113.36L229.069 121.648L216.472 126.179L209.398 137.954L208.189 125.12L201.577 115.904L202.367 114.03C223.585 126.514 233.128 109.589 233.128 109.589L233.133 109.587Z" fill="white"/>
<path d="M221.764 115.323C223.356 114.891 229.009 112.372 233.133 109.587C233.133 109.587 223.59 126.512 202.372 114.029L204.563 108.822L205.998 105.416C207.851 108.675 209.983 111.618 210.826 112.472C212.461 114.126 215.934 115.128 215.934 115.128C215.934 115.128 219.458 115.95 221.762 115.323H221.764Z" fill="#282A40"/>
<path d="M223.713 145.042C223.791 145.229 223.842 145.45 223.87 145.703C222.539 145.131 221.373 144.757 220.565 144.709C216.877 144.488 212.822 146.184 212.344 148.392C211.857 150.6 215.972 151.904 215.972 151.904C215.972 151.904 214.068 154.17 215.545 156.265C215.545 156.265 215.05 156.51 214.552 156.958C211.543 156.942 208.437 156.737 205.532 156.233C194.405 154.302 187.151 148.076 187.151 148.076L191.258 114.698H194.571C194.571 114.698 192.597 122.586 198.278 133.122C198.278 133.122 201.706 125.65 208.195 125.12L209.404 137.954L216.478 126.179C216.478 126.179 220.992 130.139 221.757 135.509L218.495 133.496C218.495 133.496 218.008 133.789 217.415 134.302C216.85 134.808 216.172 135.509 215.77 136.339C215.526 136.819 215.379 137.341 215.387 137.888L219.373 140.707L219.781 140.12C220.051 140.421 220.754 141.211 221.494 142.091C222.433 143.216 223.443 144.478 223.713 145.042Z" fill="white"/>
<path d="M222.641 136.062L222.293 136.56L221.857 137.179L219.778 140.122L219.37 140.709L215.385 137.89C215.377 137.345 215.523 136.823 215.768 136.341C216.167 135.511 216.847 134.81 217.413 134.304C218.004 133.791 218.492 133.498 218.492 133.498L221.755 135.511L222.641 136.064V136.062Z" fill="white"/>
<path d="M222.712 177.377C221.094 183.431 219.292 189.438 217.779 192.737C217.405 193.551 217.056 194.204 216.727 194.644C212.986 199.648 207.774 204.032 207.774 204.032C192.777 199.811 183.704 189.119 183.704 189.119C183.704 189.119 184.869 179.985 189.838 175.894C192.004 174.118 197.927 169.636 203.921 165.136C207.479 162.481 211.054 159.823 213.891 157.712C213.317 158.592 213.152 159.839 214.701 161.364C214.701 161.364 211.073 161.079 211.5 163.848C211.917 166.628 216.476 171.215 216.476 171.215C216.476 171.215 220.104 174.866 222.714 177.375L222.712 177.377Z" fill="white"/>
<path d="M214.552 156.956C214.673 156.964 214.788 156.964 214.909 156.964C214.588 157.2 214.248 157.453 213.891 157.714C214.074 157.413 214.318 157.169 214.552 156.956Z" fill="white"/>
<path d="M201.581 115.902L208.193 125.118C201.704 125.648 198.276 133.12 198.276 133.12C192.594 122.584 194.569 114.696 194.569 114.696C194.569 114.696 199.362 110.164 201.172 109.587C202.99 108.999 204.322 108.731 204.322 108.731L204.567 108.82L202.375 114.027L201.585 115.9L201.581 115.902Z" fill="white"/>
<path d="M204.469 78.5716C205.313 79.573 205.662 81.4485 205.662 81.4485C205.088 83.8775 204.235 87.6424 203.608 90.9991H203.6C203.6 90.9991 202.233 91.1704 201.451 90.2247C200.669 89.279 199.173 85.7589 200.208 82.0179C201.234 78.2849 202.522 77.4706 203.827 78.05C204.072 78.1555 204.288 78.3426 204.471 78.5716H204.469Z" fill="white"/>
<path d="M191.255 293.702L189.002 307.002H136.163L145.332 275.417C149.325 279.989 157.327 287.397 169.498 290.867C175.649 292.611 183.372 293.45 191.253 293.702H191.255Z" fill="#152744"/>
<path d="M147.019 145.074C146.575 141.032 145.863 133.257 146.445 128.744C147.064 123.87 150.76 117.947 152.422 115.502C152.909 114.777 153.213 114.361 153.213 114.361L164.497 114.027L187.02 114.696H187.028C186.131 118.827 183.332 131.76 181.026 141.806C178.728 151.797 167.394 166.62 163.489 171.509L162.08 157.583L147.334 147.69C147.334 147.69 147.196 146.67 147.021 145.074H147.019Z" fill="white"/>
<path d="M145.635 90.7125C145.287 90.7125 144.949 90.7045 144.617 90.6886C144.382 90.6807 144.148 90.6647 143.912 90.6488C143.4 90.609 142.894 90.5512 142.39 90.4776C142.137 90.4457 141.886 90.4039 141.633 90.3561C141.389 90.3243 141.138 90.2745 140.894 90.2168C140.503 90.1351 140.12 90.0455 139.737 89.948C139.737 89.948 139.737 89.9559 139.729 89.948C139.538 89.8982 139.355 89.8504 139.164 89.7927C138.981 89.7429 138.79 89.6872 138.607 89.6294C138.415 89.5717 138.233 89.5159 138.05 89.4582C134.371 88.2676 131.212 86.4598 129.03 85.0005H129.021C128.804 84.8531 128.594 84.7158 128.403 84.5764H128.394C128.177 84.4131 127.967 84.2658 127.767 84.1205H127.759C127.663 84.0468 127.567 83.9731 127.48 83.9094H127.472C126.42 83.119 125.827 82.5894 125.827 82.5894L139.91 62.0627C139.91 62.0627 143.98 52.5857 150.148 51.421C150.148 51.421 161.952 36.2798 164.014 37.0702C165.997 37.8367 158.934 50.1906 158.473 50.9969C159.021 50.2145 168.19 37.1757 170.539 38.203C172.871 39.2224 171.313 41.7071 171.191 41.8943C171.408 41.6733 174.479 38.5534 176.341 39.8655C178.254 41.2094 167.546 54.72 167.242 55.1122C167.625 54.7777 179.77 44.2735 181.989 45.6671C184.18 47.0289 169.714 61.6067 168.809 62.5266C169.279 62.2259 173.202 59.7472 176.909 59.576C180.858 59.3808 183.119 61.0094 183.119 62.5584C183.119 64.1074 175.742 64.856 172.637 67.6513C169.532 70.4466 166.713 71.0498 161.276 72.109C155.831 73.1682 151.359 78.0003 151.359 78.0003L148.42 90.5094C148.184 90.5413 147.959 90.5672 147.733 90.599C147.48 90.6229 147.23 90.6488 146.977 90.6647C146.524 90.6966 146.08 90.7145 145.638 90.7145L145.635 90.7125Z" fill="#ECB841"/>
<path d="M151.361 78.0002L148.499 90.5094C148.246 90.5413 147.986 90.5751 147.733 90.599C147.959 90.5672 148.186 90.5413 148.42 90.5094L151.359 78.0002H151.361Z" fill="white"/>
<path d="M152.422 115.502C150.76 117.947 147.064 123.87 146.445 128.744C145.863 133.257 146.575 141.032 147.019 145.074C143.531 143.272 117.903 129.916 115.164 125.345C112.224 120.432 111.414 115.486 111.535 114.923C111.64 114.433 123.984 90.6389 127.472 83.9075H127.48C127.567 83.9732 127.663 84.0468 127.759 84.1185H127.767C127.967 84.2658 128.175 84.4112 128.394 84.5744H128.403C128.594 84.7138 128.802 84.8512 129.021 84.9985L129.03 85.0065C131.066 86.3763 133.946 88.0467 137.321 89.2193C137.582 89.3089 137.844 89.3985 138.112 89.4802C138.373 89.5697 138.643 89.6514 138.913 89.725C139.183 89.8067 139.453 89.8803 139.731 89.946C139.74 89.954 139.74 89.946 139.74 89.946C140.122 90.0516 140.505 90.1332 140.896 90.2148C141.14 90.2726 141.391 90.3203 141.636 90.3542C141.888 90.404 142.139 90.4438 142.392 90.4756C142.896 90.5493 143.402 90.605 143.914 90.6469C144.15 90.6628 144.384 90.6787 144.62 90.6867C144.951 90.7026 145.289 90.7106 145.638 90.7106L139.914 109.258C139.914 109.258 149.257 113.798 152.424 115.5L152.422 115.502Z" fill="white"/>
<path d="M141.636 90.354C141.889 90.4038 142.139 90.4436 142.392 90.4754C142.139 90.4436 141.889 90.4018 141.636 90.354Z" fill="white"/>
<path d="M139.738 89.948C140.12 90.0456 140.503 90.1351 140.894 90.2168C140.503 90.1351 140.12 90.0535 139.738 89.948Z" fill="white"/>
<path d="M139.164 89.7927C139.355 89.8505 139.538 89.8983 139.729 89.948C139.451 89.8823 139.181 89.8087 138.911 89.7271C138.998 89.7509 139.077 89.7768 139.164 89.7927Z" fill="white"/>
<path d="M139.164 89.7927C139.077 89.7767 138.998 89.7528 138.911 89.727C138.807 89.6951 138.703 89.6692 138.607 89.6294C138.79 89.6871 138.981 89.7429 139.164 89.7927Z" fill="white"/>
<path d="M138.607 89.6295C138.703 89.6693 138.807 89.6952 138.911 89.7271C138.641 89.6534 138.371 89.5718 138.11 89.4822C138.267 89.5399 138.431 89.5877 138.605 89.6295H138.607Z" fill="white"/>
<path d="M138.607 89.6295C138.433 89.5897 138.267 89.5399 138.112 89.4821C138.086 89.4821 138.069 89.4742 138.05 89.4583C138.233 89.516 138.416 89.5717 138.607 89.6295Z" fill="white"/>
<path d="M138.05 89.4581C138.067 89.474 138.084 89.482 138.112 89.482C137.842 89.4004 137.581 89.3108 137.321 89.2212C137.566 89.3028 137.8 89.3845 138.052 89.4581H138.05Z" fill="white"/>
<path d="M138.05 89.4582C137.797 89.3846 137.563 89.3029 137.319 89.2213C133.944 88.0486 131.064 86.3782 129.028 85.0085V85.0005C131.211 86.4599 134.369 88.2676 138.048 89.4582H138.05Z" fill="white"/>
<path d="M129.031 85.0005V85.0099L129.021 85.0005H129.031Z" fill="white"/>
<path d="M267.077 227.404C262.895 227.404 259.677 225.413 256.523 221.152C253.32 216.82 246.233 206.747 243.337 202.618C243.324 202.6 243.311 202.578 243.3 202.559C240.924 199.184 239.069 196.53 238.539 195.759C238.454 195.636 238.433 195.485 238.478 195.343C238.522 195.204 238.633 195.09 238.775 195.031C239.713 194.654 242.148 193.653 244.669 192.425C244.693 192.409 244.716 192.395 244.741 192.383C247.192 191.186 249.028 190.111 250.204 189.183C250.971 188.58 251.779 187.823 252.61 186.937C252.803 186.73 253.139 186.71 253.36 186.892C253.581 187.073 253.602 187.387 253.409 187.594C252.544 188.518 251.696 189.309 250.888 189.946C249.668 190.909 247.789 192.014 245.307 193.229C245.283 193.245 245.26 193.261 245.235 193.273C243.071 194.328 240.962 195.222 239.774 195.712C240.556 196.838 242.204 199.192 244.225 202.059C244.238 202.079 244.25 202.099 244.261 202.121C247.179 206.278 254.214 216.274 257.398 220.581C261.636 226.305 265.796 227.603 272.752 225.371C279.143 223.314 281.012 212.284 280.935 208.715C280.867 205.479 276.474 184.823 275.517 180.363C272.404 182.938 266.948 187.308 261.473 187.535C261.188 187.547 260.931 187.332 260.918 187.059C260.905 186.784 261.133 186.551 261.426 186.539C266.733 186.32 272.212 181.775 275.156 179.334L275.505 179.045C275.647 178.928 275.843 178.89 276.025 178.948C276.206 179.004 276.34 179.147 276.378 179.32C276.603 180.367 281.921 204.995 282 208.697C282.083 212.609 280.127 224.053 273.099 226.315C270.865 227.031 268.884 227.402 267.082 227.402L267.077 227.404Z" fill="#282A40"/>
<path d="M253.011 187.766C252.886 187.766 252.761 187.724 252.661 187.642C252.44 187.461 252.418 187.146 252.614 186.939C254.899 184.512 256.901 181.616 257.553 180.642L240.195 165.005C239.985 164.814 239.976 164.499 240.18 164.3C240.382 164.103 240.72 164.093 240.933 164.286L258.601 180.202C258.78 180.363 258.816 180.618 258.688 180.819C258.665 180.857 256.257 184.574 253.413 187.596C253.309 187.708 253.162 187.764 253.014 187.764L253.011 187.766Z" fill="#282A40"/>
<path d="M275.855 179.919C275.709 179.919 275.562 179.864 275.458 179.752C275.262 179.545 275.283 179.232 275.502 179.049C276.004 178.633 276.38 178.307 276.601 178.113C273.011 165.26 266.999 145.834 264.922 144.227C261.985 141.956 243.162 129.038 242.973 128.909C242.737 128.746 242.684 128.435 242.858 128.212C243.03 127.991 243.364 127.941 243.6 128.105C244.376 128.638 262.637 141.169 265.598 143.459C268.627 145.8 276.788 174.842 277.709 178.145C277.757 178.319 277.702 178.504 277.564 178.629C277.564 178.629 277.062 179.083 276.208 179.792C276.106 179.875 275.981 179.917 275.855 179.917V179.919Z" fill="#282A40"/>
<path d="M243.313 91.7417C243.222 91.7417 243.133 91.7198 243.052 91.676C242.837 91.5546 242.729 91.3236 242.809 91.1006C243.356 89.5975 243.694 88.6219 243.694 88.6219C243.7 88.6 244.98 84.1184 244.929 78.1933C244.886 72.1806 241.838 70.1797 240.233 69.9627C239.675 69.885 239.052 69.8751 238.331 69.8611C236.493 69.8273 233.974 69.7795 229.747 68.6785C225.526 67.5775 223.345 66.3988 221.753 65.5388C221.124 65.1983 220.58 64.9056 220.055 64.6986C218.563 64.1112 214.856 64.3482 211.502 69.4709C208.199 74.51 206.822 78.9558 206.803 79.0195C206.803 79.0195 206.552 80.023 206.182 81.558C206.127 81.7909 205.946 81.9641 205.651 81.9462C205.398 81.9402 205.183 81.767 205.141 81.5341C205.139 81.5162 204.805 79.7701 204.057 78.8801C203.963 78.7687 203.925 78.6253 203.951 78.4859C204.461 75.7683 205.455 70.1259 205.938 66.2276C206.565 61.1308 211.504 56.2052 217.424 54.7697C218.571 54.487 219.819 54.2899 221.23 54.1704C221.674 53.161 222.244 52.2193 222.926 51.3671C223.077 51.18 223.347 51.1163 223.572 51.2138C224.967 51.8151 226.646 51.7733 228.265 51.7355L228.469 51.7315C230.788 51.6737 233.509 51.6936 236.089 52.3168C238.057 52.7927 240.797 53.8399 242.659 56.1235C243.556 57.2305 244.142 58.5664 244.329 59.9063C245.736 60.8063 246.967 61.7599 247.985 62.7435C252.255 66.8428 253.762 73.4488 251.488 78.1116C249.74 81.6934 247.562 86.8221 246.418 89.5596C246.363 89.691 246.253 89.7946 246.11 89.8443C245.456 90.0753 244.586 90.7064 243.728 91.5765C243.621 91.684 243.468 91.7437 243.315 91.7437L243.313 91.7417ZM218.75 63.4901C219.445 63.4901 220.031 63.6095 220.465 63.7807C221.052 64.0117 221.621 64.3203 222.282 64.6767C223.825 65.5109 225.94 66.6537 230.032 67.7208C234.129 68.79 236.569 68.8338 238.353 68.8676C239.109 68.8816 239.764 68.8935 240.389 68.9791C243.058 69.3415 245.951 72.3777 245.993 78.1873C246.044 84.2557 244.767 88.7195 244.714 88.9066C244.71 88.9166 244.625 89.1634 244.474 89.5935C244.805 89.3605 245.158 89.1515 245.511 89.0002C246.678 86.2109 248.805 81.2175 250.52 77.6975C252.62 73.3891 251.203 67.2589 247.222 63.4383C246.204 62.4548 244.963 61.5011 243.53 60.6032C243.398 60.5215 243.311 60.3862 243.296 60.2368C243.169 58.9965 242.642 57.7501 241.811 56.7248C240.134 54.6681 237.628 53.7165 235.821 53.2804C233.368 52.6871 230.739 52.6672 228.495 52.725L228.291 52.7289C226.69 52.7668 225.041 52.8086 223.532 52.275C222.952 53.0535 222.469 53.9056 222.095 54.8175C222.021 54.9966 221.844 55.1201 221.643 55.134C220.159 55.2455 218.867 55.4406 217.691 55.7313C212.172 57.0692 207.572 61.6305 206.992 66.3411C206.52 70.1657 205.557 75.6468 205.035 78.4501C205.26 78.7567 205.447 79.1131 205.6 79.4655C205.71 79.0195 205.772 78.7687 205.772 78.7687C205.836 78.5596 207.202 74.1238 210.595 68.9493C213.417 64.6388 216.597 63.4901 218.75 63.4901Z" fill="#282A40"/>
<path d="M241.352 101.45C240.308 101.45 239.515 100.86 239.473 100.829C239.245 100.657 239.209 100.343 239.392 100.128C239.575 99.9147 239.911 99.8788 240.14 100.054C240.146 100.056 241.001 100.677 241.885 100.361C242.89 99.9923 246.008 97.866 247.162 94.2603C247.998 91.6482 247.798 90.5731 247.481 90.1311C247.318 89.9002 247.069 89.7767 246.703 89.7409C246.538 89.7289 246.334 89.7588 246.117 89.8384C245.454 90.0734 244.586 90.7045 243.726 91.5726C243.628 91.686 243.479 91.7597 243.311 91.7597C243.018 91.7597 242.78 91.5407 242.78 91.2659V91.258C242.78 91.1326 242.831 91.0091 242.924 90.9175C243.515 90.3202 244.633 89.2989 245.734 88.9087C246.104 88.7713 246.472 88.7175 246.81 88.7494C247.496 88.8151 248.019 89.0938 248.363 89.5776C249.016 90.4935 248.954 92.1181 248.178 94.547C246.937 98.4314 243.6 100.803 242.268 101.288C241.949 101.404 241.641 101.45 241.349 101.45H241.352Z" fill="#282A40"/>
<path d="M219.67 116.055C217.749 116.055 215.914 115.633 215.806 115.609C215.63 115.56 212.15 114.54 210.439 112.808C209.487 111.842 207.287 108.735 205.532 105.647C204.025 103.005 202.235 99.3392 202.286 96.8784C202.31 95.6341 202.58 93.6252 203.085 90.9095C203.136 90.6388 203.411 90.4496 203.7 90.5054C203.989 90.5512 204.182 90.81 204.131 91.0808C203.634 93.7447 203.37 95.7018 203.347 96.8963C203.311 98.6484 204.42 101.589 206.469 105.177C208.342 108.47 210.431 111.331 211.219 112.129C212.737 113.664 216.059 114.638 216.093 114.648C216.099 114.648 219.479 115.426 221.617 114.841C223.241 114.399 228.869 111.85 232.824 109.179C234.82 107.833 236.148 106.634 236.771 105.619C237.394 104.613 238.225 102.859 239.313 100.257C239.421 100.002 239.73 99.8748 240.002 99.9744C240.276 100.074 240.41 100.363 240.303 100.619C239.196 103.269 238.342 105.065 237.693 106.114C236.994 107.251 235.566 108.555 233.447 109.983C229.338 112.762 223.644 115.325 221.914 115.795C221.224 115.982 220.441 116.049 219.672 116.049L219.67 116.055Z" fill="#282A40"/>
<path d="M243.311 91.7618C243.018 91.7618 242.78 91.5428 242.78 91.2681C242.78 91.2143 242.788 91.1506 242.807 91.1008C243.353 89.5977 243.691 88.6221 243.691 88.6221C243.698 88.6002 244.977 84.1186 244.926 78.1935C244.884 72.1808 241.836 70.1799 240.231 69.9629C239.672 69.8852 239.049 69.8753 238.329 69.8613C236.49 69.8275 233.972 69.7797 229.744 68.6787C225.523 67.5777 223.343 66.399 221.751 65.539C221.122 65.1985 220.578 64.9058 220.053 64.6988C218.561 64.1114 214.854 64.3484 211.5 69.4711C208.197 74.5102 206.82 78.956 206.801 79.0197C206.801 79.0197 206.55 80.0232 206.18 81.5582C206.114 81.827 205.829 81.9962 205.544 81.9345C205.258 81.8747 205.079 81.608 205.143 81.3412C205.517 79.7822 205.77 78.7689 205.77 78.7689C205.834 78.5598 207.2 74.124 210.592 68.9495C214.327 63.2513 218.682 63.0781 220.465 63.7809C221.052 64.0119 221.621 64.3205 222.282 64.6769C223.825 65.5111 225.94 66.6539 230.031 67.721C234.129 68.7902 236.569 68.834 238.352 68.8678C239.109 68.8818 239.764 68.8937 240.389 68.9793C243.058 69.3417 245.951 72.3779 245.993 78.1875C246.044 84.2559 244.767 88.7197 244.714 88.9068C244.707 88.9287 244.367 89.9023 243.823 91.4074C243.757 91.6125 243.553 91.7638 243.315 91.7638L243.311 91.7618Z" fill="#282A40"/>
<path d="M236.012 153.314C235.866 153.314 235.721 153.258 235.615 153.149C235.419 152.944 235.439 152.629 235.657 152.446C236.253 151.95 238.174 150.196 238.646 147.954C238.146 147.423 236.503 145.733 234.074 143.793C231.634 141.83 227.787 139.14 223.305 137.454C223.039 137.351 222.773 137.253 222.508 137.161L220.442 140.088C220.788 140.478 221.341 141.106 221.91 141.786C223.205 143.335 223.953 144.333 224.195 144.841C224.301 145.093 224.365 145.36 224.395 145.657C224.423 145.93 224.21 146.175 223.917 146.2C223.63 146.22 223.364 146.027 223.336 145.752C223.315 145.547 223.275 145.37 223.213 145.227C223.109 145.01 222.675 144.321 221.071 142.404C220.337 141.53 219.636 140.743 219.368 140.445C219.217 140.275 219.203 140.032 219.332 139.849L221.847 136.289C221.978 136.1 222.231 136.019 222.461 136.092C222.879 136.226 223.292 136.377 223.702 136.536C228.316 138.27 232.265 141.03 234.763 143.041C237.762 145.434 239.543 147.407 239.617 147.491C239.715 147.6 239.759 147.743 239.736 147.887C239.309 150.491 237.234 152.466 236.363 153.195C236.261 153.278 236.136 153.32 236.01 153.32L236.012 153.314Z" fill="#282A40"/>
<path d="M223.502 137.488C223.434 137.488 223.364 137.476 223.3 137.45C222.909 137.299 222.52 137.158 222.123 137.03C221.968 136.98 221.844 136.865 221.791 136.719C221.738 136.574 221.759 136.415 221.848 136.285L221.908 136.202L221.46 135.921C221.332 135.841 221.247 135.714 221.228 135.573C220.499 130.448 216.155 126.578 216.112 126.54C215.978 126.422 215.919 126.249 215.955 126.082C215.991 125.915 216.114 125.773 216.286 125.712L228.643 121.268L231.36 113.208C231.402 113.079 231.5 112.973 231.63 112.914C231.759 112.852 231.908 112.846 232.044 112.89C232.11 112.912 233.645 113.439 234.773 115.317C235.562 116.621 236.121 121.309 236.448 125.013C236.448 125.015 236.448 125.017 236.448 125.019L236.535 126.14C236.539 126.201 236.535 126.263 236.514 126.321C235.281 130.179 228.012 134.926 223.787 137.412C223.7 137.462 223.602 137.488 223.504 137.488H223.502ZM223.105 136.305C223.219 136.347 223.334 136.389 223.451 136.433C226.841 134.422 234.229 129.703 235.468 126.118L235.387 125.09C234.947 120.145 234.371 116.673 233.846 115.803C233.292 114.879 232.624 114.351 232.178 114.076L229.579 121.793C229.53 121.939 229.413 122.054 229.262 122.108L217.419 126.369C218.673 127.639 221.557 130.958 222.246 135.214L222.935 135.644C223.166 135.79 223.239 136.076 223.102 136.301L223.105 136.305Z" fill="#282A40"/>
<path d="M209.402 138.45C209.366 138.45 209.328 138.446 209.29 138.44C209.062 138.394 208.892 138.215 208.873 137.996L207.677 125.289L201.141 116.181C201.043 116.045 201.024 115.872 201.088 115.721L201.878 113.847C201.936 113.71 202.057 113.602 202.208 113.557C202.359 113.511 202.522 113.531 202.656 113.608C209.53 117.654 215.862 118.992 221.473 117.586C228.997 115.703 232.629 109.419 232.665 109.356C232.795 109.127 233.086 109.031 233.339 109.129C233.592 109.228 233.724 109.491 233.641 109.738L229.579 121.799C229.53 121.945 229.413 122.06 229.262 122.114L216.846 126.582L209.866 138.199C209.77 138.358 209.592 138.452 209.402 138.452V138.45ZM202.178 115.842L208.633 124.841C208.682 124.911 208.714 124.993 208.72 125.076L209.779 136.309L216.01 125.936C216.07 125.835 216.168 125.757 216.282 125.715L228.64 121.272L231.59 112.517C229.711 114.616 226.482 117.359 221.76 118.546C216 119.993 209.566 118.721 202.633 114.767L202.178 115.844V115.842Z" fill="#282A40"/>
<path d="M214.552 157.453H214.55C211.194 157.435 208.127 157.189 205.434 156.719C194.286 154.783 187.092 148.697 186.79 148.44C186.573 148.255 186.558 147.941 186.758 147.736C186.958 147.532 187.291 147.518 187.508 147.704C187.58 147.765 194.792 153.858 205.627 155.739C208.256 156.195 211.26 156.438 214.554 156.456C214.847 156.456 215.083 156.681 215.083 156.956C215.083 157.23 214.843 157.451 214.552 157.451V157.453Z" fill="#282A40"/>
<path d="M223.868 146.2C223.598 146.2 223.366 146.007 223.339 145.75C223.317 145.545 223.277 145.368 223.215 145.225C223.111 145.008 222.678 144.319 221.073 142.402C220.612 141.852 220.165 141.339 219.83 140.958L219.815 140.98C219.734 141.096 219.607 141.175 219.462 141.197C219.32 141.221 219.169 141.187 219.05 141.106L215.065 138.286C214.933 138.193 214.856 138.049 214.854 137.896C214.846 137.309 214.99 136.714 215.288 136.128C215.634 135.407 216.212 134.689 217.045 133.944C217.67 133.403 218.18 133.092 218.204 133.078C218.378 132.971 218.608 132.971 218.784 133.078L221.007 134.45C220.119 130.878 217.638 128.065 216.588 127L209.864 138.195C209.749 138.386 209.515 138.481 209.288 138.438C209.06 138.392 208.89 138.213 208.871 137.994L207.711 125.672C201.953 126.52 198.794 133.245 198.763 133.315C198.68 133.492 198.497 133.61 198.291 133.616C198.095 133.616 197.893 133.516 197.8 133.343C192.93 124.31 193.583 117.262 193.929 115.191H191.254C190.96 115.191 190.722 114.968 190.722 114.694C190.722 114.419 190.96 114.196 191.254 114.196H194.567C194.729 114.196 194.882 114.265 194.984 114.385C195.084 114.504 195.122 114.66 195.086 114.807C195.067 114.883 193.341 122.205 198.276 131.987C199.46 129.902 202.767 125.058 208.146 124.62C208.437 124.605 208.697 124.8 208.722 125.072L209.781 136.305L216.012 125.932C216.093 125.799 216.233 125.708 216.395 125.684C216.557 125.662 216.72 125.709 216.839 125.811C217.028 125.978 221.502 129.956 222.282 135.439C222.31 135.632 222.214 135.824 222.038 135.927C221.862 136.031 221.636 136.029 221.464 135.921L218.506 134.095C218.321 134.225 218.061 134.418 217.777 134.665C217.05 135.316 216.55 135.931 216.255 136.54C216.066 136.915 215.957 137.283 215.927 137.641L219.239 139.985L219.337 139.843C219.428 139.712 219.581 139.628 219.751 139.618C219.921 139.6 220.083 139.676 220.191 139.796C220.461 140.098 221.171 140.895 221.915 141.781C223.209 143.329 223.957 144.327 224.2 144.835C224.306 145.087 224.37 145.354 224.399 145.651C224.427 145.924 224.214 146.169 223.921 146.194C223.904 146.194 223.887 146.194 223.87 146.194L223.868 146.2Z" fill="#282A40"/>
<path d="M219.37 141.205C219.256 141.205 219.143 141.169 219.049 141.105L215.064 138.286C214.933 138.193 214.856 138.049 214.854 137.896C214.845 137.309 214.99 136.713 215.287 136.128C215.634 135.407 216.212 134.689 217.045 133.944C217.67 133.402 218.18 133.092 218.204 133.078C218.378 132.97 218.607 132.97 218.784 133.078L222.937 135.648C223.179 135.8 223.247 136.106 223.086 136.335L219.817 140.98C219.736 141.096 219.608 141.175 219.464 141.197C219.434 141.201 219.402 141.205 219.372 141.205H219.37ZM215.925 137.645L219.236 139.989L221.908 136.202L218.503 134.097C218.318 134.227 218.059 134.42 217.774 134.667C217.047 135.318 216.548 135.933 216.252 136.542C216.063 136.917 215.955 137.285 215.925 137.643V137.645Z" fill="#282A40"/>
<path d="M207.774 204.529C207.723 204.529 207.672 204.523 207.621 204.508C192.637 200.291 183.379 189.536 183.287 189.428C183.198 189.325 183.16 189.191 183.177 189.058C183.226 188.677 184.424 179.686 189.487 175.517C191.296 174.034 195.908 170.512 203.589 164.746C206.235 162.771 208.89 160.796 211.243 159.046L213.56 157.322C213.789 157.151 214.123 157.186 214.306 157.402C214.488 157.617 214.45 157.931 214.221 158.102L211.904 159.826C209.551 161.577 206.896 163.552 204.252 165.525C196.584 171.28 191.982 174.794 190.186 176.268C185.84 179.848 184.473 187.6 184.261 188.97C185.459 190.306 194.146 199.58 207.638 203.472C208.663 202.584 213.06 198.678 216.291 194.358C216.578 193.977 216.903 193.384 217.29 192.54C218.595 189.697 220.244 184.552 222.195 177.255C222.265 176.987 222.554 176.827 222.839 176.893C223.124 176.961 223.296 177.229 223.226 177.496C221.262 184.847 219.594 190.041 218.267 192.932C217.844 193.852 217.494 194.487 217.16 194.929C213.428 199.92 208.182 204.356 208.129 204.4C208.031 204.482 207.904 204.527 207.774 204.527V204.529Z" fill="#282A40"/>
<path d="M198.276 133.617C198.076 133.617 197.891 133.512 197.802 133.345C192.1 122.769 193.97 114.91 194.053 114.582C194.074 114.492 194.123 114.411 194.193 114.345C194.693 113.873 199.128 109.714 201.001 109.115C202.827 108.525 204.155 108.255 204.21 108.243C204.314 108.221 204.421 108.231 204.518 108.267L204.763 108.356C205.035 108.458 205.169 108.746 205.06 109.001L202.178 115.84L208.633 124.839C208.737 124.987 208.752 125.172 208.671 125.333C208.591 125.492 208.425 125.598 208.238 125.614C202.146 126.112 198.795 133.245 198.763 133.317C198.68 133.494 198.497 133.612 198.291 133.617H198.274H198.276ZM195.058 114.94C194.85 115.974 193.704 122.926 198.276 131.989C199.394 130.018 202.408 125.586 207.277 124.734L201.141 116.181C201.043 116.045 201.024 115.872 201.088 115.721L203.764 109.374C203.209 109.509 202.35 109.736 201.347 110.058C199.998 110.491 196.457 113.634 195.06 114.942L195.058 114.94Z" fill="#282A40"/>
<path d="M203.332 91.509C202.835 91.509 201.749 91.3975 201.03 90.5294C200.154 89.4722 198.603 85.8308 199.691 81.8927C200.365 79.4418 201.211 78.0242 202.274 77.5564C202.835 77.3095 203.432 77.3234 204.052 77.5982C204.359 77.7316 204.643 77.9585 204.894 78.2691C205.804 79.3482 206.169 81.2775 206.184 81.3591C206.235 81.6299 206.042 81.8887 205.753 81.9345C205.457 81.9803 205.19 81.8011 205.139 81.5303C205.136 81.5124 204.803 79.7663 204.055 78.8764C203.906 78.6912 203.751 78.5618 203.604 78.4981C203.272 78.3528 202.994 78.3368 202.728 78.4563C202.214 78.6813 201.449 79.5035 200.724 82.1415C199.712 85.7949 201.213 89.1198 201.874 89.9182C202.452 90.619 203.521 90.5036 203.532 90.5036C203.825 90.5036 204.103 90.7226 204.103 90.9993C204.103 91.276 203.906 91.4951 203.613 91.4951H203.604C203.604 91.4951 203.504 91.509 203.338 91.509H203.332Z" fill="#282A40"/>
<path d="M163.487 172.007C163.217 172.007 162.986 171.814 162.958 171.555L161.572 157.853L147.024 148.094C146.903 148.012 146.824 147.889 146.805 147.753C146.805 147.753 146.665 146.73 146.49 145.125C146.027 140.91 145.338 133.17 145.916 128.684C146.556 123.649 150.365 117.6 151.972 115.235C152.465 114.5 152.773 114.08 152.773 114.08C152.869 113.951 153.026 113.869 153.194 113.865L164.478 113.531L187.032 114.198C187.322 114.206 187.555 114.433 187.551 114.703C187.547 114.976 187.313 115.193 187.024 115.193L164.478 114.526L153.5 114.853C153.366 115.042 153.147 115.352 152.869 115.769C151.298 118.08 147.583 123.971 146.971 128.803C146.403 133.195 147.088 140.851 147.547 145.026C147.672 146.184 147.78 147.037 147.829 147.413L162.384 157.178C162.509 157.262 162.588 157.392 162.603 157.537L164.012 171.464C164.04 171.736 163.825 171.979 163.534 172.005C163.517 172.005 163.5 172.005 163.483 172.005L163.487 172.007Z" fill="#282A40"/>
<path d="M147.733 91.0968C147.47 91.0968 147.243 90.9136 147.206 90.6647C147.168 90.396 147.366 90.1491 147.651 90.1073L147.98 90.0635L150.841 77.8928C150.905 77.626 151.187 77.4567 151.472 77.5145C151.759 77.5722 151.94 77.837 151.878 78.1038L149.017 90.613C148.97 90.818 148.792 90.9733 148.571 91.0012C148.314 91.0351 148.046 91.0689 147.789 91.0928C147.77 91.0928 147.751 91.0948 147.731 91.0948L147.733 91.0968Z" fill="#282A40"/>
<path d="M147.02 145.573C146.932 145.573 146.843 145.553 146.762 145.512C141.895 142.999 117.478 130.229 114.698 125.592C111.704 120.579 110.871 115.494 111.015 114.825C111.083 114.507 113.638 109.461 126.148 85.3251L126.994 83.6925C127.134 83.4217 127.559 83.3301 127.812 83.5213L128.044 83.6965C128.061 83.7064 128.078 83.7164 128.095 83.7303L128.669 84.1464C128.69 84.1584 128.709 84.1703 128.728 84.1842C128.883 84.2977 129.049 84.4092 129.223 84.5247L129.332 84.5964C132.016 86.4062 134.764 87.8018 137.504 88.7555C137.757 88.8411 138.012 88.9287 138.276 89.0083C138.546 89.0999 138.803 89.1776 139.062 89.2492C139.321 89.3269 139.568 89.3946 139.823 89.4543C139.846 89.4583 139.868 89.4623 139.891 89.4682C140.263 89.5718 140.633 89.6494 141.013 89.7291C141.251 89.7848 141.485 89.8306 141.71 89.8605C141.984 89.9122 142.225 89.9501 142.467 89.9839C142.966 90.0556 143.459 90.1113 143.961 90.1511C144.184 90.1671 144.414 90.183 144.641 90.191C144.971 90.2069 145.3 90.2149 145.638 90.2149C145.806 90.2149 145.963 90.2885 146.063 90.4139C146.163 90.5394 146.195 90.7026 146.15 90.852L140.548 109.007C142.348 109.884 149.919 113.581 152.69 115.072C152.816 115.14 152.907 115.253 152.941 115.385C152.975 115.516 152.952 115.655 152.873 115.771C151.304 118.08 147.589 123.972 146.975 128.804C146.407 133.196 147.092 140.851 147.551 145.026C147.572 145.209 147.481 145.39 147.315 145.492C147.226 145.546 147.124 145.573 147.022 145.573H147.02ZM127.666 84.676L127.104 85.7591C123.073 93.5378 112.365 114.198 112.046 115.062C111.989 115.51 112.705 120.219 115.627 125.102C117.757 128.654 135.551 138.545 146.39 144.18C145.938 139.831 145.381 132.853 145.919 128.684C146.52 123.938 149.94 118.291 151.676 115.677C148.182 113.84 139.757 109.744 139.668 109.702C139.442 109.593 139.332 109.35 139.402 109.121L144.935 91.2004C144.82 91.1964 144.705 91.1924 144.592 91.1864C144.359 91.1785 144.116 91.1625 143.876 91.1446C143.345 91.1028 142.828 91.0431 142.312 90.9694C142.057 90.9356 141.793 90.8938 141.53 90.844C141.302 90.8141 141.03 90.7624 140.771 90.7006C140.397 90.623 140.021 90.5414 139.642 90.4398C139.621 90.4358 139.6 90.4319 139.581 90.4259C139.298 90.3602 139.024 90.2865 138.75 90.2029C138.484 90.1292 138.201 90.0456 137.931 89.952C137.674 89.8744 137.406 89.7828 137.139 89.6912C134.307 88.7057 131.474 87.2682 128.722 85.4147L128.607 85.335C128.441 85.2235 128.282 85.118 128.133 85.0105C128.11 84.9985 128.086 84.9826 128.065 84.9667L127.668 84.678L127.666 84.676Z" fill="#282A40"/>
<path d="M142.392 90.9754C142.369 90.9754 142.343 90.9754 142.318 90.9714C142.054 90.9376 141.791 90.8938 141.527 90.844C141.276 90.7962 141.102 90.5872 141.102 90.3562C141.102 90.3224 141.106 90.2905 141.113 90.2567C141.172 89.9879 141.451 89.8147 141.74 89.8684C141.982 89.9142 142.222 89.954 142.464 89.9859C142.73 90.0217 142.921 90.2348 142.921 90.4777C142.921 90.5015 142.921 90.5234 142.917 90.5473C142.879 90.7962 142.651 90.9754 142.392 90.9754Z" fill="#282A40"/>
<path d="M140.896 90.7145C140.858 90.7145 140.82 90.7105 140.779 90.7025C140.375 90.6189 139.982 90.5333 139.587 90.4238C139.306 90.3462 139.147 90.0734 139.226 89.8106C139.306 89.5478 139.598 89.3965 139.878 89.4662C140.252 89.5617 140.626 89.6493 141.009 89.729C141.255 89.7807 141.425 89.9858 141.425 90.2148C141.425 90.2506 141.421 90.2884 141.413 90.3243C141.357 90.5572 141.138 90.7145 140.894 90.7145H140.896Z" fill="#282A40"/>
<path d="M139.731 90.4456C139.689 90.4456 139.644 90.4416 139.601 90.4317C139.31 90.364 139.03 90.2883 138.749 90.2027C138.473 90.1191 138.32 89.8424 138.405 89.5816C138.492 89.3227 138.785 89.1774 139.064 89.2511C139.17 89.2809 139.219 89.2949 139.27 89.3048C139.289 89.3088 139.306 89.3128 139.323 89.3187C139.508 89.3725 139.684 89.4203 139.869 89.4681C140.15 89.5397 140.318 89.8085 140.245 90.0733C140.184 90.2963 139.967 90.4456 139.731 90.4456Z" fill="#282A40"/>
<path d="M139.166 90.2905C139.13 90.2905 139.096 90.2885 139.06 90.2805C138.972 90.2646 138.894 90.2407 138.811 90.2188C138.811 90.2188 138.66 90.175 138.658 90.175C138.566 90.1471 138.475 90.1212 138.39 90.0834C138.133 89.9739 138.012 89.6952 138.116 89.4483C138.22 89.2014 138.511 89.068 138.779 89.1576C138.955 89.2114 139.138 89.2671 139.315 89.3149C139.589 89.3905 139.75 89.6533 139.682 89.9122C139.623 90.1391 139.406 90.2905 139.168 90.2905H139.166Z" fill="#282A40"/>
<path d="M138.913 90.2247C138.864 90.2247 138.813 90.2188 138.764 90.2048C138.569 90.1511 138.373 90.0933 138.182 90.0336C138.093 90.0077 138.003 89.9779 137.918 89.948C137.648 89.8484 137.512 89.5637 137.614 89.3089C137.719 89.054 138.023 88.9246 138.295 89.0182C138.367 89.0441 138.439 89.066 138.514 89.0919C138.586 89.1138 138.66 89.1337 138.737 89.1496C138.769 89.1576 138.798 89.1675 138.826 89.1795C138.871 89.1994 138.919 89.2113 138.97 89.2253C138.975 89.2253 139.079 89.2571 139.083 89.2591C139.357 89.3447 139.506 89.6215 139.419 89.8803C139.347 90.0913 139.138 90.2287 138.911 90.2287L138.913 90.2247Z" fill="#282A40"/>
<path d="M138.609 90.1271C138.566 90.1271 138.522 90.1232 138.479 90.1132C138.282 90.0674 138.097 90.0117 137.918 89.948C137.825 89.9141 137.733 89.8663 137.676 89.8126C137.502 89.6493 137.47 89.3945 137.599 89.1974C137.729 89.0023 137.988 88.9147 138.22 88.9883L138.77 89.1556C139.043 89.2372 139.198 89.508 139.119 89.7668C139.053 89.9858 138.841 90.1291 138.609 90.1291V90.1271Z" fill="#282A40"/>
<path d="M138.112 89.9799C138.063 89.9799 138.006 89.9699 137.948 89.954C137.672 89.8724 137.404 89.7808 137.136 89.6892C136.862 89.5956 136.72 89.3109 136.82 89.0521C136.919 88.7933 137.223 88.6619 137.498 88.7535L137.617 88.7933C137.812 88.859 138.003 88.9227 138.207 88.9824C138.235 88.9904 138.263 89.0003 138.288 89.0123C138.53 89.0919 138.677 89.3209 138.637 89.5598C138.596 89.8027 138.373 89.9799 138.112 89.9799Z" fill="#282A40"/>
<path d="M138.05 89.956C137.999 89.956 137.946 89.95 137.893 89.934C137.674 89.8703 137.466 89.8007 137.255 89.729L137.139 89.6892C134.303 88.7036 131.472 87.2642 128.718 85.4126C128.579 85.319 128.497 85.1677 128.497 85.0084C128.497 84.8213 128.607 84.6481 128.784 84.5625C128.962 84.4788 129.175 84.4868 129.336 84.5963C131.347 85.9402 134.522 87.7918 138.222 88.9883C138.497 89.0759 138.643 89.3547 138.554 89.6135C138.482 89.8226 138.273 89.956 138.048 89.956H138.05Z" fill="#282A40"/>
<path d="M129.03 85.5061C128.892 85.5061 128.756 85.4563 128.654 85.3608C128.501 85.2194 128.452 85.0004 128.535 84.8152C128.618 84.6301 128.807 84.5046 129.021 84.5046C129.315 84.5046 129.561 84.7276 129.561 85.0024V85.0103C129.561 85.2114 129.432 85.3926 129.234 85.4703C129.168 85.4961 129.1 85.5081 129.03 85.5081V85.5061Z" fill="#282A40"/>
<path d="M148.683 89.2172C148.671 89.2172 148.658 89.2172 148.643 89.2172C140.783 88.6737 132.983 85.9341 126.677 81.5042C126.441 81.339 126.394 81.0264 126.571 80.8074C126.747 80.5884 127.079 80.5426 127.315 80.7078C133.459 85.0242 141.062 87.6941 148.722 88.2237C149.015 88.2436 149.234 88.4825 149.213 88.7573C149.191 89.0181 148.96 89.2172 148.683 89.2172Z" fill="#282A40"/>
<path d="M150.131 77.419C149.927 77.419 149.731 77.3075 149.644 77.1223C148.713 75.1393 144.218 71.679 144.171 71.6452C143.944 71.472 143.91 71.1574 144.097 70.9444C144.282 70.7314 144.618 70.6995 144.845 70.8747C145.039 71.022 149.585 74.5221 150.618 76.7221C150.737 76.973 150.613 77.2677 150.346 77.3792C150.276 77.407 150.203 77.421 150.133 77.421L150.131 77.419Z" fill="#282A40"/>
<path d="M151.997 76.5151C151.753 76.5151 151.534 76.3578 151.479 76.1249C150.917 73.7497 149.95 71.4899 148.603 69.4114C148.45 69.1764 148.531 68.8718 148.781 68.7285C149.032 68.5871 149.36 68.6608 149.513 68.8957C150.917 71.0678 151.929 73.4271 152.516 75.9079C152.58 76.1766 152.399 76.4434 152.112 76.5012C152.074 76.5091 152.033 76.5131 151.997 76.5131V76.5151Z" fill="#282A40"/>
<path d="M162.677 155.586H162.654C162.361 155.574 162.133 155.341 162.146 155.066L163.313 129.624C163.326 129.349 163.591 129.154 163.868 129.148C164.161 129.16 164.388 129.393 164.376 129.668L163.209 155.11C163.196 155.377 162.962 155.586 162.677 155.586Z" fill="#282A40"/>
<path d="M160.325 154.126C160.104 154.126 159.897 153.997 159.821 153.79C157.812 148.245 156.059 142.545 154.609 136.847C154.541 136.58 154.718 136.311 155.003 136.248C155.285 136.184 155.574 136.349 155.642 136.616C157.085 142.284 158.83 147.954 160.828 153.469C160.922 153.73 160.773 154.013 160.497 154.1C160.439 154.118 160.382 154.126 160.327 154.126H160.325Z" fill="#282A40"/>
<path d="M239.553 126.994C239.483 126.994 239.413 126.982 239.347 126.954L235.711 125.51C235.441 125.403 235.313 125.112 235.428 124.857C235.543 124.604 235.855 124.487 236.125 124.595L239.762 126.038C240.032 126.145 240.159 126.436 240.044 126.691C239.959 126.88 239.762 126.994 239.555 126.994H239.553Z" fill="#282A40"/>
<path d="M249.617 173.244C249.401 173.244 249.196 173.118 249.118 172.917C247.092 167.723 245.349 162.371 243.94 157.009C243.87 156.743 244.044 156.472 244.329 156.408C244.614 156.346 244.901 156.506 244.971 156.772C246.37 162.098 248.102 167.416 250.115 172.577C250.215 172.835 250.074 173.12 249.798 173.216C249.738 173.236 249.677 173.246 249.615 173.246L249.617 173.244Z" fill="#282A40"/>
<path d="M251.203 172.887C250.933 172.887 250.701 172.694 250.674 172.437C250.21 167.906 250.127 163.307 250.427 158.765C250.446 158.491 250.71 158.278 250.99 158.299C251.284 158.315 251.507 158.552 251.488 158.827C251.192 163.315 251.273 167.862 251.73 172.342C251.758 172.616 251.545 172.859 251.252 172.885C251.235 172.885 251.218 172.885 251.201 172.885L251.203 172.887Z" fill="#282A40"/>
<path d="M239.139 193.711C238.93 193.711 238.735 193.595 238.65 193.406C238.537 193.153 238.665 192.86 238.935 192.755C245.827 190.049 251.844 185.313 255.878 179.422C256.036 179.189 256.365 179.121 256.612 179.27C256.858 179.42 256.931 179.726 256.771 179.957C252.622 186.018 246.433 190.889 239.343 193.673C239.275 193.699 239.207 193.713 239.137 193.713L239.139 193.711Z" fill="#282A40"/>
<path d="M205.211 237.076C205.028 237.076 204.85 236.988 204.752 236.829C204.603 236.592 204.688 236.287 204.943 236.148C216.133 230.022 227.777 224.359 239.549 219.314C239.817 219.201 240.132 219.31 240.253 219.561C240.374 219.812 240.257 220.107 239.991 220.222C228.25 225.251 216.639 230.9 205.479 237.008C205.394 237.054 205.302 237.076 205.211 237.076Z" fill="#282A40"/>
<path d="M212.93 241.766C212.692 241.766 212.475 241.615 212.416 241.388C212.346 241.121 212.52 240.85 212.805 240.785L239.166 234.676C239.449 234.609 239.74 234.772 239.81 235.041C239.88 235.308 239.706 235.578 239.421 235.644L213.06 241.752C213.017 241.762 212.975 241.766 212.932 241.766H212.93Z" fill="#282A40"/>
<path d="M194.935 289.119C192.267 289.119 189.602 288.976 186.948 288.685C172.248 287.075 158.199 280.974 147.387 271.509C147.173 271.322 147.162 271.008 147.362 270.804C147.562 270.603 147.897 270.595 148.112 270.781C158.758 280.102 172.595 286.109 187.069 287.696C201.543 289.287 216.486 286.426 229.141 279.656C229.394 279.521 229.719 279.605 229.866 279.841C230.013 280.08 229.923 280.383 229.668 280.52C219.137 286.153 207.043 289.117 194.933 289.117L194.935 289.119Z" fill="#282A40"/>
<path d="M275.458 200.332C275.241 200.332 275.039 200.209 274.959 200.006C274.942 199.964 273.224 195.682 269.484 192.9C265.641 190.041 255.764 184.192 255.666 184.134C255.418 183.987 255.343 183.68 255.5 183.447C255.658 183.214 255.987 183.145 256.234 183.292C256.334 183.352 266.259 189.229 270.145 192.12C274.125 195.078 275.883 199.476 275.955 199.661C276.057 199.92 275.915 200.205 275.641 200.301C275.579 200.323 275.518 200.332 275.458 200.332Z" fill="#282A40"/>
<path d="M219.929 139.298C219.819 139.298 219.708 139.266 219.613 139.198C218.367 138.326 217.045 137.518 215.687 136.793C215.432 136.658 215.343 136.353 215.487 136.114C215.632 135.873 215.955 135.794 216.212 135.927C217.608 136.672 218.966 137.502 220.248 138.4C220.484 138.565 220.531 138.876 220.356 139.097C220.252 139.228 220.093 139.298 219.931 139.298H219.929Z" fill="#282A40"/>
<path d="M221.972 137.819C221.88 137.819 221.789 137.797 221.704 137.751C220.203 136.931 218.807 135.937 217.557 134.798C217.347 134.607 217.343 134.293 217.547 134.094C217.751 133.896 218.086 133.89 218.299 134.084C219.487 135.165 220.816 136.11 222.242 136.891C222.495 137.028 222.58 137.335 222.433 137.572C222.335 137.731 222.157 137.819 221.974 137.819H221.972Z" fill="#282A40"/>
<path d="M224.708 154.491C224.625 154.491 224.54 154.473 224.459 154.433C221.83 153.129 218.871 152.442 215.893 152.442C215.857 152.442 215.828 152.442 215.787 152.442C215.496 152.442 215.258 152.221 215.256 151.946C215.256 151.672 215.492 151.449 215.785 151.447C218.948 151.445 222.142 152.157 224.956 153.553C225.216 153.682 225.315 153.983 225.177 154.226C225.082 154.395 224.897 154.491 224.708 154.491Z" fill="#282A40"/>
<path d="M221.455 160.581C221.368 160.581 221.281 160.561 221.2 160.519C219.034 159.402 216.975 158.082 215.079 156.595C214.854 156.418 214.824 156.103 215.013 155.892C215.202 155.683 215.538 155.653 215.761 155.831C217.604 157.278 219.606 158.56 221.713 159.645C221.97 159.779 222.063 160.081 221.921 160.322C221.825 160.487 221.642 160.579 221.455 160.579V160.581Z" fill="#282A40"/>
<path d="M217.961 164.231C217.851 164.231 217.738 164.199 217.645 164.131C216.756 163.51 215.836 162.865 215.071 162.043C214.185 161.089 213.666 160.038 213.577 159C213.466 157.726 214.055 156.49 215.075 155.849C215.32 155.693 215.649 155.755 215.813 155.984C215.976 156.213 215.91 156.522 215.668 156.675C214.962 157.119 214.559 157.999 214.639 158.919C214.729 159.958 215.36 160.834 215.874 161.386C216.563 162.128 217.439 162.739 218.282 163.331C218.518 163.496 218.565 163.807 218.391 164.028C218.287 164.159 218.127 164.229 217.966 164.229L217.961 164.231Z" fill="#282A40"/>
<path d="M221.339 83.5351C221.047 83.5351 220.809 83.3141 220.807 83.0413C220.807 82.9696 220.714 81.1619 217.685 80.2062C214.573 79.2227 213.118 80.1624 213.056 80.2042C212.82 80.3635 212.486 80.3137 212.316 80.0947C212.144 79.8757 212.189 79.5691 212.423 79.4038C212.499 79.3501 214.335 78.0978 218.025 79.2625C221.806 80.4571 221.868 82.9278 221.87 83.0334C221.87 83.3081 221.636 83.5331 221.343 83.5351H221.339Z" fill="#282A40"/>
<path d="M222.384 78.9639C222.25 78.9639 222.117 78.9181 222.012 78.8226C220.897 77.8012 219.443 77.0705 217.917 76.7619C216.393 76.4553 214.746 76.5588 213.279 77.0606C213.005 77.1541 212.699 77.0207 212.597 76.7639C212.497 76.5071 212.639 76.2204 212.914 76.1268C214.565 75.5614 216.42 75.4439 218.14 75.7903C219.857 76.1368 221.496 76.963 222.754 78.1118C222.965 78.3029 222.969 78.6195 222.763 78.8166C222.659 78.9161 222.52 78.9659 222.382 78.9659L222.384 78.9639Z" fill="#282A40"/>
<path d="M239.332 88.7037C239.103 88.7037 238.89 88.5623 238.822 88.3453C238.797 88.2657 238.238 86.7008 235.139 85.7212C232.108 84.7636 230.869 86.1513 230.818 86.211C230.635 86.4221 230.302 86.4599 230.074 86.2907C229.847 86.1214 229.804 85.8148 229.983 85.5978C230.051 85.5142 231.698 83.5829 235.481 84.7775C239.171 85.9422 239.821 87.985 239.847 88.0706C239.925 88.3354 239.762 88.6101 239.479 88.6858C239.432 88.6977 239.383 88.7037 239.335 88.7037H239.332Z" fill="#282A40"/>
<path d="M241.126 85.9481C240.952 85.9481 240.78 85.8665 240.678 85.7192C239.836 84.4888 238.595 83.4714 237.182 82.8502C235.768 82.229 234.138 81.9861 232.591 82.1653C232.295 82.2012 232.034 82.0041 231.998 81.7333C231.962 81.4605 232.168 81.2117 232.459 81.1778C234.204 80.9747 236.04 81.2495 237.632 81.9483C239.224 82.6491 240.623 83.7959 241.571 85.1836C241.728 85.4146 241.658 85.7232 241.411 85.8705C241.322 85.9242 241.222 85.9501 241.124 85.9501L241.126 85.9481Z" fill="#282A40"/>
<path d="M231.825 84.9727C231.02 85.6018 230.909 86.7227 231.581 87.4773C232.252 88.2319 233.449 88.3354 234.255 87.7063C235.06 87.0771 235.171 85.9562 234.499 85.2016C233.827 84.4471 232.631 84.3435 231.825 84.9727Z" fill="#282A40"/>
<path d="M213.783 79.3562C212.977 79.9854 212.867 81.1063 213.538 81.8608C214.21 82.6154 215.407 82.7189 216.212 82.0898C217.018 81.4607 217.128 80.3398 216.457 79.5852C215.785 78.8306 214.588 78.7271 213.783 79.3562Z" fill="#282A40"/>
<path d="M216.2 90.3904C216.636 88.88 214.979 87.1464 212.5 86.5185C210.021 85.8905 207.658 86.6059 207.222 88.1164C206.786 89.6268 208.442 91.3604 210.921 91.9883C213.401 92.6163 215.764 91.9009 216.2 90.3904Z" fill="#C3E9FD"/>
<path d="M238.279 96.376C238.715 94.8656 237.059 93.132 234.579 92.5041C232.1 91.8761 229.737 92.5915 229.301 94.102C228.865 95.6125 230.521 97.346 233 97.9739C235.48 98.6019 237.843 97.8865 238.279 96.376Z" fill="#C3E9FD"/>
<path d="M224.157 97.2608C224.14 97.2608 224.125 97.2608 224.108 97.2608C221.317 97.0199 218.767 95.3176 217.615 92.9245C217.477 92.6358 217.354 92.3212 217.39 91.9628C217.462 91.2282 218.136 90.7961 218.582 90.5094C222.187 88.1999 225.003 84.8153 226.516 80.9767C226.618 80.7199 226.924 80.5865 227.198 80.6821C227.473 80.7776 227.615 81.0623 227.513 81.3212C225.925 85.3509 222.967 88.9047 219.181 91.3297C218.809 91.5686 218.472 91.8036 218.448 92.0524C218.435 92.1818 218.506 92.3511 218.584 92.5143C219.566 94.5531 221.825 96.0642 224.206 96.2693C224.497 96.2951 224.714 96.5361 224.686 96.8108C224.661 97.0696 224.429 97.2628 224.157 97.2628V97.2608Z" fill="#282A40"/>
<path d="M220.501 105.657C219.593 105.657 218.614 105.481 217.579 105.043C212.722 102.993 213.474 97.8839 213.483 97.8341C213.506 97.6848 213.6 97.5554 213.738 97.4777C213.876 97.4021 214.044 97.3861 214.193 97.4399L226.631 101.736C226.788 101.79 226.909 101.91 226.956 102.061C227.003 102.212 226.973 102.373 226.873 102.501C226.841 102.541 224.312 105.657 220.501 105.657ZM214.488 98.6026C214.467 99.8828 214.794 102.776 218.014 104.135C221.615 105.657 224.448 103.474 225.536 102.421L214.488 98.6046V98.6026Z" fill="#282A40"/>
<path d="M202.869 87.7459C202.856 87.7459 202.844 87.7459 202.829 87.7459C202.535 87.7259 202.316 87.487 202.338 87.2123C202.495 85.2333 202.187 83.2025 201.447 81.3429C201.345 81.0861 201.483 80.7994 201.76 80.7019C202.034 80.6063 202.342 80.7377 202.444 80.9945C203.239 82.9875 203.568 85.1636 203.4 87.2859C203.379 87.5468 203.147 87.7459 202.871 87.7459H202.869Z" fill="#282A40"/>
<path d="M241.049 98.8914C240.939 98.8914 240.826 98.8596 240.731 98.7919C240.495 98.6266 240.448 98.314 240.624 98.095C242.097 96.2534 243.819 94.5909 245.74 93.1575C245.97 92.9862 246.303 93.0201 246.486 93.2371C246.669 93.4521 246.631 93.7647 246.401 93.9359C244.552 95.3176 242.894 96.9184 241.475 98.6923C241.37 98.8217 241.211 98.8914 241.049 98.8914Z" fill="#282A40"/>
<path d="M172.803 63.9142C172.728 65.7957 172.42 67.916 170.794 69.031C169.019 70.2554 166.469 69.678 164.535 68.6826C161.209 66.9703 158.647 64.2427 155.842 61.8536C149.646 56.5776 142.006 52.8146 133.865 51.0029C133.44 50.1766 133.408 49.1712 133.918 48.3848C134.662 47.24 136.193 46.7522 137.106 45.7169C138.945 43.6363 137.627 40.4209 138.541 37.8725C139.338 35.6626 141.995 34.2092 144.439 34.6372C146.118 34.9259 147.521 35.9612 149.03 36.7178C150.539 37.4743 152.463 37.9422 153.908 37.096C155.863 35.9612 156.139 32.9349 158.339 32.3178C159.508 31.9992 160.752 32.5368 161.729 33.2037C164.067 34.7965 165.651 37.1657 166.968 39.5748C171.06 47.0508 173.09 55.5124 172.803 63.9142Z" fill="white"/>
<path d="M168.35 70.2176C167.098 70.2176 165.698 69.8493 164.278 69.1186C161.712 67.7966 159.583 65.8793 157.523 64.0238C156.847 63.4165 156.174 62.8093 155.485 62.2219C149.355 56.9997 141.836 53.2885 133.744 51.4867C133.589 51.4509 133.457 51.3533 133.389 51.2179C132.862 50.1966 132.892 49.0119 133.466 48.126C133.933 47.4052 134.643 46.9354 135.328 46.4794C135.846 46.135 136.333 45.8125 136.699 45.3984C137.653 44.3193 137.646 42.83 137.642 41.2552C137.638 40.0706 137.634 38.8461 138.04 37.7133C138.92 35.2724 141.834 33.6716 144.539 34.1475C145.855 34.3724 146.99 35.0135 148.089 35.6307C148.484 35.8537 148.881 36.0767 149.283 36.2798C150.097 36.6859 152.146 37.5401 153.627 36.674C154.403 36.224 154.892 35.4018 155.411 34.5337C156.084 33.4028 156.784 32.2342 158.186 31.8399C159.334 31.5274 160.665 31.8618 162.042 32.7996C164.609 34.5476 166.276 37.2175 167.44 39.3459C171.585 46.9214 173.623 55.4228 173.332 63.9282C173.258 65.8335 172.937 68.1769 171.107 69.4312C170.348 69.9548 169.402 70.2156 168.35 70.2156V70.2176ZM134.248 50.5768C142.416 52.4384 150.001 56.2073 156.199 61.4853C156.896 62.0786 157.579 62.6918 158.259 63.307C160.269 65.1168 162.348 66.9883 164.79 68.2446C165.63 68.6766 168.518 69.9807 170.48 68.6288C171.942 67.6254 172.206 65.5707 172.272 63.8943C172.556 55.5562 170.558 47.2241 166.495 39.7998C165.383 37.769 163.802 35.2305 161.415 33.6039C160.646 33.0783 159.515 32.5109 158.486 32.7936C157.498 33.0704 156.935 34.0161 156.337 35.0175C155.774 35.9592 155.194 36.9328 154.189 37.5182C152.308 38.6192 149.993 37.763 148.779 37.1558C148.361 36.9468 147.948 36.7138 147.538 36.4829C146.475 35.8836 145.47 35.3201 144.344 35.125C142.14 34.7408 139.761 36.0409 139.045 38.0298C138.694 39.0074 138.699 40.1482 138.703 41.2512C138.709 42.9336 138.716 44.6737 137.517 46.0315C137.062 46.5471 136.492 46.9254 135.942 47.2898C135.317 47.7039 134.726 48.0961 134.373 48.6416C134.02 49.1832 133.978 49.9079 134.248 50.5748V50.5768Z" fill="#282A40"/>
<path d="M155.402 54.4312C155.294 54.4312 155.185 54.3994 155.09 54.3357C150.227 51.0287 145.011 48.1199 139.589 45.689C139.323 45.5695 139.213 45.2728 139.338 45.026C139.466 44.7771 139.782 44.6736 140.046 44.791C145.527 47.2479 150.798 50.1885 155.715 53.5313C155.953 53.6926 156.004 54.0032 155.831 54.2262C155.727 54.3596 155.566 54.4312 155.4 54.4312H155.402Z" fill="#282A40"/>
<path d="M158.89 50.318C158.703 50.318 158.52 50.2245 158.424 50.0612L151.961 39.0671C151.818 38.8262 151.914 38.5236 152.169 38.3922C152.426 38.2568 152.749 38.3484 152.892 38.5873L159.355 49.5814C159.497 49.8223 159.402 50.1249 159.147 50.2563C159.066 50.2981 158.977 50.318 158.892 50.318H158.89Z" fill="#282A40"/>
<path d="M166.767 66.2874C166.516 66.2874 166.293 66.1201 166.244 65.8792C166.191 65.6084 166.382 65.3496 166.669 65.2979C167.817 65.1007 168.614 64.0893 168.894 63.1775C169.179 62.2497 169.134 61.1766 168.756 59.8008C168.618 59.3011 168.452 58.8093 168.286 58.3176C168.061 57.6466 167.827 56.9518 167.664 56.241C167.602 55.9722 167.785 55.7074 168.072 55.6497C168.354 55.5959 168.641 55.7632 168.703 56.0319C168.856 56.6969 169.081 57.3679 169.3 58.0189C169.472 58.5266 169.642 59.0363 169.785 59.5539C170.214 61.1089 170.257 62.3473 169.916 63.4542C169.464 64.9295 168.265 66.0385 166.862 66.2814C166.83 66.2854 166.796 66.2894 166.764 66.2894L166.767 66.2874Z" fill="#282A40"/>
<path d="M190.114 66.367C189.838 66.367 189.606 66.1679 189.585 65.9051C189.12 59.9322 187.083 54.0888 183.696 49.0059C183.54 48.7729 183.617 48.4663 183.866 48.321C184.112 48.1737 184.442 48.2453 184.597 48.4803C188.074 53.6986 190.165 59.6993 190.644 65.8334C190.665 66.1082 190.446 66.3451 190.153 66.367C190.14 66.367 190.127 66.367 190.112 66.367H190.114Z" fill="#282A40"/>
<path d="M136.403 61.8913C136.273 61.8913 136.144 61.8475 136.042 61.7599C130.822 57.2325 124.057 54.2978 116.994 53.4955C116.703 53.4616 116.494 53.2148 116.53 52.942C116.567 52.6692 116.83 52.4681 117.121 52.508C124.405 53.3342 131.381 56.3605 136.764 61.0293C136.979 61.2164 136.992 61.531 136.792 61.7341C136.688 61.8396 136.545 61.8933 136.403 61.8933V61.8913Z" fill="#282A40"/>
<path d="M134.953 57.5232C134.83 57.5232 134.709 57.4834 134.609 57.4038C131.942 55.2675 128.949 53.5393 125.716 52.2651C125.446 52.1576 125.319 51.8669 125.432 51.6121C125.546 51.3592 125.857 51.2418 126.127 51.3473C129.461 52.6613 132.547 54.4452 135.298 56.6472C135.521 56.8264 135.546 57.141 135.357 57.35C135.253 57.4655 135.104 57.5232 134.953 57.5232Z" fill="#282A40"/>
<path d="M187.222 66.9404C186.965 66.9404 186.737 66.7652 186.697 66.5203C186.074 62.7853 185.058 59.0901 183.672 55.5362C183.572 55.2774 183.713 54.9927 183.989 54.8971C184.265 54.8035 184.569 54.9369 184.671 55.1938C186.08 58.8073 187.115 62.5663 187.749 66.365C187.793 66.6358 187.596 66.8906 187.305 66.9344C187.277 66.9384 187.249 66.9404 187.222 66.9404Z" fill="#282A40"/>
</g>
<g clip-path="url(#clip2_222_2835)">
<path d="M99.3541 35.7954C98.7521 35.7954 98.1422 35.7436 97.5324 35.6351C92.1345 34.6761 88.5583 29.7033 89.566 24.5506C90.5712 19.4004 95.7882 15.9858 101.184 16.9497C103.801 17.4108 106.07 18.821 107.576 20.9166C109.08 23.0097 109.638 25.5393 109.153 28.0343C108.261 32.5977 104.062 35.7954 99.3593 35.7954H99.3541ZM90.8348 24.7774C89.9588 29.2596 93.0699 33.5888 97.7676 34.4246C102.465 35.2555 107.003 32.2871 107.876 27.8074C108.3 25.6354 107.814 23.4363 106.504 21.6143C105.194 19.7899 103.22 18.5646 100.943 18.1627C96.2404 17.3344 91.7081 20.2953 90.8322 24.7799L90.8348 24.7774Z" fill="#282A40"/>
<path d="M93.0545 28.1254C92.7574 28.1254 92.4912 27.9282 92.424 27.6422C91.977 25.7044 92.4524 23.5965 93.6953 22.0063C94.9382 20.4161 96.9176 19.3781 98.9925 19.2327C99.3465 19.1908 99.6592 19.462 99.685 19.8022C99.7108 20.1424 99.4447 20.4383 99.0881 20.4629C97.3827 20.5813 95.7548 21.4368 94.7315 22.7434C93.7083 24.0501 93.3181 25.7833 93.685 27.3784C93.7625 27.7112 93.5403 28.0391 93.194 28.1131C93.1475 28.123 93.101 28.1279 93.0545 28.1279V28.1254Z" fill="#282A40"/>
<path d="M107.331 13.9986C107.049 13.9986 106.762 13.9739 106.475 13.9221C103.943 13.466 102.269 11.1338 102.739 8.72504C102.969 7.5515 103.664 6.53329 104.697 5.85776C105.726 5.18717 106.969 4.9357 108.188 5.16005C110.716 5.60876 112.39 7.93857 111.92 10.3522C111.501 12.4971 109.532 13.9986 107.331 13.9986ZM107.318 6.31387C106.646 6.31387 105.992 6.50617 105.426 6.87598C104.677 7.36413 104.175 8.10129 104.008 8.94939C103.666 10.6924 104.881 12.3788 106.713 12.7092C108.54 13.0247 110.307 11.8734 110.648 10.1229C110.989 8.37742 109.778 6.69354 107.951 6.36811C107.739 6.33112 107.527 6.3114 107.318 6.3114V6.31387Z" fill="#282A40"/>
<path d="M91.3978 10.1576C91.0697 10.1576 90.7389 10.128 90.4082 10.0688C89.0128 9.8223 87.8009 9.07281 86.9973 7.95598C86.1911 6.83668 85.8914 5.48563 86.1523 4.14938C86.4133 2.81559 87.2014 1.65931 88.3772 0.892565C89.5503 0.125821 90.9611 -0.160167 92.3591 0.0888396C95.2454 0.601646 97.1549 3.2569 96.62 6.00583C96.3616 7.33716 95.5735 8.49344 94.403 9.26265C93.5064 9.85188 92.465 10.1576 91.3978 10.1576ZM87.4237 4.37373C87.2273 5.38455 87.4521 6.41016 88.0645 7.2558C88.6743 8.10144 89.589 8.67095 90.6459 8.85585C91.7105 9.04076 92.7828 8.82627 93.6717 8.24443C94.558 7.66259 95.1523 6.78737 95.3487 5.77902C95.7544 3.69574 94.3074 1.68643 92.1213 1.29689C91.0645 1.11199 89.9947 1.32648 89.1058 1.90585C88.2169 2.48522 87.62 3.36044 87.4211 4.37126L87.4237 4.37373Z" fill="#282A40"/>
<path d="M75.6718 40.1247C75.3902 40.1247 75.1034 40.1 74.8165 40.0482C72.2842 39.5921 70.6098 37.2623 71.0801 34.8512C71.3101 33.6776 72.0052 32.6594 73.0388 31.9863C74.0672 31.3157 75.3075 31.0618 76.5323 31.2862C79.0594 31.7349 80.7339 34.0647 80.2636 36.4783C79.845 38.6232 77.876 40.1247 75.6744 40.1247H75.6718ZM75.6615 32.44C74.9897 32.44 74.3359 32.6323 73.7674 33.0046C73.0207 33.4927 72.5168 34.2299 72.3514 35.078C72.0103 36.821 73.2248 38.5098 75.0568 38.8377C76.8837 39.1558 78.6512 38.0019 78.9922 36.2515C79.3333 34.506 78.1214 32.8221 76.2946 32.4967C76.0827 32.4597 75.8734 32.44 75.6641 32.44H75.6615Z" fill="#282A40"/>
</g>
<defs>
<clipPath id="clip0_222_2835">
<rect width="398" height="177.295" fill="white" transform="translate(395 307) rotate(-180)"/>
</clipPath>
<clipPath id="clip1_222_2835">
<rect width="171" height="275.274" fill="white" transform="translate(111 31.7264)"/>
</clipPath>
<clipPath id="clip2_222_2835">
<rect width="41" height="40.1246" fill="white" transform="translate(71)"/>
</clipPath>
</defs>
</svg>
