<svg width="393" height="307" viewBox="0 0 393 307" fill="none" xmlns="http://www.w3.org/2000/svg">
<g clip-path="url(#clip0_222_3726)">
<path d="M395 119.719C383.857 115.759 369.626 116.153 358.999 120.72C348.372 125.286 341.749 133.849 342.249 142.382C333.56 139.094 322.219 141.017 314.44 145.226C306.66 149.435 301.66 155.511 296.858 161.424C285.945 153.93 265.487 154.512 255.532 162.597C248.782 154.503 235.074 149.329 221.385 149.71C207.697 150.092 194.661 156.014 188.914 164.456C184.894 158.214 175.761 153.63 165.793 152.854C155.825 152.078 145.4 155.141 139.406 160.604C139.422 153.07 132.347 145.746 122.169 142.752C111.99 139.758 99.2817 141.264 91.2004 146.425C90.8919 137.908 82.1612 129.821 70.294 127.058C58.4236 124.296 44.2252 127.047 36.2867 133.644C37.8484 126.946 31.0528 119.824 21.4129 118.054C11.7731 116.283 0.616954 120.113 -3.00002 126.432L-3.00003 307L395 307L395 119.719Z" fill="#C3E9FD"/>
<g clip-path="url(#clip1_222_3726)">
<path d="M311.79 217.98C311.19 217.98 310.57 217.92 309.96 217.81C304.53 216.8 300.94 211.56 301.95 206.14C302.44 203.51 303.92 201.23 306.13 199.72C308.33 198.21 311 197.64 313.62 198.13C316.25 198.62 318.53 200.1 320.04 202.31C321.55 204.51 322.11 207.18 321.62 209.81C320.73 214.62 316.51 217.98 311.78 217.99L311.79 217.98ZM311.79 198.96C307.54 198.96 303.74 201.99 302.94 206.32C302.03 211.2 305.26 215.92 310.15 216.83C315.03 217.74 319.75 214.5 320.66 209.62C321.1 207.25 320.59 204.86 319.24 202.87C317.88 200.88 315.83 199.55 313.46 199.11C312.9 199.01 312.35 198.96 311.81 198.96L311.79 198.96Z" fill="#282A40"/>
<path d="M305.36 209.77C305.13 209.77 304.92 209.61 304.87 209.38C304.42 207.35 304.9 205.14 306.14 203.48C307.38 201.81 309.36 200.73 311.43 200.58C311.7 200.56 311.95 200.77 311.97 201.04C311.99 201.32 311.78 201.56 311.51 201.58C309.72 201.71 308.02 202.65 306.95 204.09C305.88 205.53 305.47 207.43 305.85 209.18C305.91 209.45 305.74 209.72 305.47 209.78C305.43 209.78 305.4 209.79 305.36 209.79L305.36 209.77Z" fill="#282A40"/>
<path d="M319.94 194.66C319.66 194.66 319.37 194.63 319.09 194.58C316.59 194.11 314.94 191.7 315.4 189.2C315.63 187.99 316.31 186.93 317.33 186.24C318.34 185.55 319.57 185.29 320.77 185.52C323.26 185.98 324.92 188.39 324.45 190.89C324.23 192.1 323.54 193.15 322.53 193.85C321.75 194.39 320.85 194.66 319.93 194.66L319.94 194.66ZM316.39 189.39C316.03 191.34 317.32 193.23 319.28 193.6C320.23 193.78 321.18 193.57 321.98 193.02C322.77 192.47 323.31 191.65 323.49 190.7C323.85 188.75 322.56 186.86 320.61 186.5C319.67 186.32 318.71 186.52 317.91 187.07C317.11 187.62 316.57 188.44 316.4 189.39L316.39 189.39Z" fill="#282A40"/>
<path d="M303.66 190.55C303.33 190.55 303.01 190.52 302.68 190.46C301.3 190.2 300.1 189.42 299.3 188.26C298.5 187.1 298.2 185.69 298.46 184.31C299 181.45 301.76 179.56 304.62 180.09C306 180.35 307.21 181.13 308 182.29C308.8 183.45 309.09 184.85 308.84 186.23C308.59 187.61 307.8 188.81 306.64 189.61C305.75 190.22 304.72 190.54 303.66 190.54L303.66 190.55ZM303.64 181C301.62 181 299.82 182.44 299.44 184.49C299.23 185.61 299.47 186.75 300.12 187.69C300.77 188.63 301.74 189.26 302.86 189.47C303.99 189.68 305.13 189.44 306.07 188.79C307.01 188.14 307.64 187.17 307.85 186.05C308.06 184.93 307.82 183.8 307.17 182.85C306.52 181.91 305.55 181.27 304.43 181.07C304.17 181.02 303.9 181 303.65 181L303.64 181Z" fill="#282A40"/>
<path d="M287.61 222.61C287.33 222.61 287.05 222.58 286.77 222.53C284.27 222.06 282.62 219.65 283.08 217.15C283.31 215.94 283.99 214.88 285.01 214.19C286.02 213.5 287.25 213.24 288.46 213.47C289.67 213.69 290.72 214.38 291.41 215.39C292.11 216.4 292.37 217.63 292.14 218.84C291.73 221.06 289.79 222.61 287.61 222.61ZM287.6 214.39C286.88 214.39 286.18 214.61 285.58 215.02C284.78 215.57 284.25 216.39 284.07 217.34C283.71 219.29 285 221.18 286.96 221.55C288.91 221.91 290.8 220.62 291.17 218.66C291.35 217.71 291.14 216.76 290.6 215.96C290.06 215.17 289.23 214.63 288.29 214.46C288.07 214.42 287.84 214.4 287.62 214.4L287.6 214.39Z" fill="#282A40"/>
</g>
</g>
<g clip-path="url(#clip2_222_3726)">
<path d="M395 119.719C383.857 115.759 369.626 116.153 358.999 120.72C348.372 125.286 341.749 133.849 342.249 142.382C333.56 139.094 322.219 141.017 314.44 145.226C306.66 149.435 301.66 155.511 296.858 161.424C285.945 153.93 265.487 154.512 255.532 162.597C248.782 154.503 235.074 149.329 221.385 149.71C207.697 150.092 194.661 156.014 188.914 164.456C184.894 158.214 175.761 153.63 165.793 152.854C155.825 152.078 145.4 155.141 139.406 160.604C139.422 153.07 132.347 145.746 122.169 142.752C111.99 139.758 99.2817 141.264 91.2004 146.425C90.8919 137.908 82.1612 129.821 70.294 127.058C58.4236 124.296 44.2252 127.047 36.2867 133.644C37.8484 126.946 31.0528 119.824 21.4129 118.054C11.7731 116.283 0.616954 120.113 -3.00002 126.432L-3.00003 307L395 307L395 119.719Z" fill="#C3E9FD"/>
<g clip-path="url(#clip3_222_3726)">
<path d="M311.79 217.98C311.19 217.98 310.57 217.92 309.96 217.81C304.53 216.8 300.94 211.56 301.95 206.14C302.44 203.51 303.92 201.23 306.13 199.72C308.33 198.21 311 197.64 313.62 198.13C316.25 198.62 318.53 200.1 320.04 202.31C321.55 204.51 322.11 207.18 321.62 209.81C320.73 214.62 316.51 217.98 311.78 217.99L311.79 217.98ZM311.79 198.96C307.54 198.96 303.74 201.99 302.94 206.32C302.03 211.2 305.26 215.92 310.15 216.83C315.03 217.74 319.75 214.5 320.66 209.62C321.1 207.25 320.59 204.86 319.24 202.87C317.88 200.88 315.83 199.55 313.46 199.11C312.9 199.01 312.35 198.96 311.81 198.96L311.79 198.96Z" fill="#282A40"/>
<path d="M305.36 209.77C305.13 209.77 304.92 209.61 304.87 209.38C304.42 207.35 304.9 205.14 306.14 203.48C307.38 201.81 309.36 200.73 311.43 200.58C311.7 200.56 311.95 200.77 311.97 201.04C311.99 201.32 311.78 201.56 311.51 201.58C309.72 201.71 308.02 202.65 306.95 204.09C305.88 205.53 305.47 207.43 305.85 209.18C305.91 209.45 305.74 209.72 305.47 209.78C305.43 209.78 305.4 209.79 305.36 209.79L305.36 209.77Z" fill="#282A40"/>
<path d="M319.94 194.66C319.66 194.66 319.37 194.63 319.09 194.58C316.59 194.11 314.94 191.7 315.4 189.2C315.63 187.99 316.31 186.93 317.33 186.24C318.34 185.55 319.57 185.29 320.77 185.52C323.26 185.98 324.92 188.39 324.45 190.89C324.23 192.1 323.54 193.15 322.53 193.85C321.75 194.39 320.85 194.66 319.93 194.66L319.94 194.66ZM316.39 189.39C316.03 191.34 317.32 193.23 319.28 193.6C320.23 193.78 321.18 193.57 321.98 193.02C322.77 192.47 323.31 191.65 323.49 190.7C323.85 188.75 322.56 186.86 320.61 186.5C319.67 186.32 318.71 186.52 317.91 187.07C317.11 187.62 316.57 188.44 316.4 189.39L316.39 189.39Z" fill="#282A40"/>
<path d="M303.66 190.55C303.33 190.55 303.01 190.52 302.68 190.46C301.3 190.2 300.1 189.42 299.3 188.26C298.5 187.1 298.2 185.69 298.46 184.31C299 181.45 301.76 179.56 304.62 180.09C306 180.35 307.21 181.13 308 182.29C308.8 183.45 309.09 184.85 308.84 186.23C308.59 187.61 307.8 188.81 306.64 189.61C305.75 190.22 304.72 190.54 303.66 190.54L303.66 190.55ZM303.64 181C301.62 181 299.82 182.44 299.44 184.49C299.23 185.61 299.47 186.75 300.12 187.69C300.77 188.63 301.74 189.26 302.86 189.47C303.99 189.68 305.13 189.44 306.07 188.79C307.01 188.14 307.64 187.17 307.85 186.05C308.06 184.93 307.82 183.8 307.17 182.85C306.52 181.91 305.55 181.27 304.43 181.07C304.17 181.02 303.9 181 303.65 181L303.64 181Z" fill="#282A40"/>
<path d="M287.61 222.61C287.33 222.61 287.05 222.58 286.77 222.53C284.27 222.06 282.62 219.65 283.08 217.15C283.31 215.94 283.99 214.88 285.01 214.19C286.02 213.5 287.25 213.24 288.46 213.47C289.67 213.69 290.72 214.38 291.41 215.39C292.11 216.4 292.37 217.63 292.14 218.84C291.73 221.06 289.79 222.61 287.61 222.61ZM287.6 214.39C286.88 214.39 286.18 214.61 285.58 215.02C284.78 215.57 284.25 216.39 284.07 217.34C283.71 219.29 285 221.18 286.96 221.55C288.91 221.91 290.8 220.62 291.17 218.66C291.35 217.71 291.14 216.76 290.6 215.96C290.06 215.17 289.23 214.63 288.29 214.46C288.07 214.42 287.84 214.4 287.62 214.4L287.6 214.39Z" fill="#282A40"/>
</g>
</g>
<g clip-path="url(#clip4_222_3726)">
<path d="M167.018 210.863C167.018 210.863 149.376 256.578 128.798 272.889C128.798 272.889 123.528 278.457 118.935 278.859C114.338 279.243 72 252.955 72 252.955L75.1134 240.788C82.0159 246.081 100.502 259.41 118.999 265.255C139.834 245.931 159.649 200.761 159.649 200.761C159.649 200.761 165.57 206.166 167.018 210.861V210.863Z" fill="#ECB841"/>
<path d="M159.649 200.764C159.649 200.764 139.834 245.934 118.999 265.258C100.502 259.41 82.0158 246.081 75.1133 240.791C95.8769 221.386 115.603 176.457 115.603 176.457C115.409 176.307 141.892 186.328 159.649 200.766V200.764Z" fill="#46CDCF"/>
<path d="M119.211 262.189C119.07 262.189 118.93 262.143 118.813 262.049C118.538 261.83 118.492 261.428 118.711 261.156C133.625 242.514 146.344 222.116 156.513 200.532C156.663 200.214 157.041 200.079 157.362 200.227C157.681 200.377 157.818 200.756 157.668 201.074C147.458 222.747 134.688 243.229 119.71 261.95C119.586 262.108 119.399 262.189 119.213 262.189H119.211Z" fill="#282A40"/>
<path d="M115.684 262.357C115.59 262.357 115.493 262.337 115.404 262.294C102.782 256.133 90.4203 249.112 78.6603 241.432C78.3645 241.242 78.2829 240.847 78.4767 240.552C78.6705 240.254 79.0657 240.175 79.3589 240.369C91.0756 248.021 103.391 255.013 115.965 261.151C116.281 261.306 116.411 261.685 116.258 262.001C116.148 262.227 115.922 262.357 115.684 262.357Z" fill="#282A40"/>
<path d="M120.639 277.645H120.631C120.279 277.643 119.996 277.353 120.001 277.002C120.042 273.637 119.754 270.253 119.147 266.94C119.086 266.594 119.313 266.263 119.66 266.199C119.999 266.146 120.338 266.365 120.402 266.711C121.021 270.103 121.315 273.571 121.276 277.017C121.274 277.365 120.988 277.645 120.639 277.645Z" fill="#282A40"/>
<path d="M119.234 199.461C118.222 199.461 117.217 199.204 116.307 198.702C114.889 197.921 113.861 196.633 113.413 195.079C112.964 193.524 113.147 191.89 113.933 190.473C114.718 189.058 116.006 188.033 117.564 187.585C119.119 187.142 120.761 187.323 122.179 188.106C125.104 189.722 126.17 193.414 124.553 196.336C123.768 197.751 122.48 198.776 120.922 199.224C120.366 199.382 119.8 199.463 119.234 199.463V199.461ZM119.249 188.618C118.803 188.618 118.357 188.681 117.918 188.806C116.689 189.16 115.669 189.969 115.05 191.089C114.43 192.206 114.285 193.498 114.639 194.725C114.994 195.952 115.804 196.969 116.924 197.585C118.041 198.204 119.336 198.346 120.568 197.997C121.797 197.644 122.817 196.834 123.436 195.717C124.714 193.409 123.872 190.493 121.562 189.218C120.843 188.821 120.05 188.618 119.249 188.618Z" fill="#282A40"/>
<path d="M124.112 216.515C123.319 216.515 122.515 216.322 121.773 215.912C119.435 214.622 118.584 211.672 119.876 209.339C121.172 207.006 124.124 206.158 126.463 207.446C127.595 208.072 128.418 209.1 128.775 210.342C129.132 211.583 128.985 212.889 128.357 214.021C127.472 215.614 125.815 216.515 124.109 216.515H124.112ZM124.124 208.115C122.865 208.115 121.643 208.779 120.993 209.955C120.04 211.675 120.667 213.848 122.391 214.8C124.112 215.752 126.292 215.128 127.245 213.405C128.199 211.685 127.572 209.512 125.848 208.56C125.302 208.26 124.711 208.118 124.127 208.118L124.124 208.115Z" fill="#282A40"/>
<path d="M131.333 201.204C130.841 201.204 130.356 201.079 129.912 200.835C128.495 200.051 127.977 198.262 128.762 196.847C129.142 196.16 129.77 195.664 130.522 195.448C131.274 195.229 132.072 195.321 132.758 195.7C133.447 196.079 133.944 196.702 134.16 197.456C134.377 198.209 134.288 199 133.908 199.687C133.528 200.374 132.903 200.87 132.149 201.087C131.878 201.166 131.606 201.204 131.33 201.204H131.333ZM131.338 196.603C131.182 196.603 131.027 196.623 130.874 196.669C130.448 196.791 130.091 197.074 129.877 197.463C129.433 198.265 129.724 199.277 130.529 199.723C130.917 199.937 131.371 199.99 131.797 199.865C132.225 199.743 132.58 199.461 132.794 199.071C133.008 198.682 133.059 198.232 132.937 197.807C132.814 197.379 132.531 197.025 132.141 196.812C131.891 196.674 131.613 196.603 131.338 196.603Z" fill="#282A40"/>
<path d="M104.763 249.891C103.713 249.891 102.672 249.626 101.729 249.102C100.258 248.29 99.1917 246.954 98.7276 245.344C98.261 243.733 98.4548 242.036 99.2682 240.567C100.082 239.099 101.418 238.035 103.034 237.572C104.648 237.109 106.349 237.3 107.82 238.112C110.857 239.789 111.961 243.616 110.281 246.646C109.468 248.115 108.129 249.178 106.515 249.641C105.936 249.807 105.35 249.891 104.766 249.891H104.763ZM104.781 238.603C103.014 238.603 101.298 239.537 100.382 241.186C99.7348 242.356 99.5818 243.707 99.9516 244.995C100.321 246.28 101.17 247.344 102.343 247.993C104.761 249.329 107.823 248.451 109.162 246.033C109.809 244.863 109.962 243.511 109.593 242.224C109.22 240.939 108.371 239.875 107.198 239.226C106.431 238.804 105.6 238.603 104.778 238.603H104.781Z" fill="#282A40"/>
<path d="M119.147 238.267C118.459 238.267 117.763 238.099 117.117 237.743C116.133 237.201 115.419 236.307 115.108 235.228C114.797 234.15 114.927 233.015 115.47 232.032C116.013 231.05 116.908 230.34 117.99 230.03C119.073 229.719 120.208 229.849 121.19 230.391C122.174 230.933 122.885 231.826 123.196 232.903C123.507 233.982 123.38 235.116 122.834 236.099C122.067 237.48 120.626 238.264 119.145 238.264L119.147 238.267ZM119.157 231.139C118.885 231.139 118.612 231.177 118.341 231.254C117.589 231.47 116.964 231.966 116.587 232.651C115.804 234.063 116.319 235.849 117.735 236.631C119.15 237.412 120.937 236.895 121.72 235.485C122.1 234.801 122.189 234.01 121.972 233.259C121.756 232.508 121.258 231.885 120.573 231.508C120.131 231.264 119.647 231.139 119.157 231.139Z" fill="#282A40"/>
<path d="M108.767 232.099C108.226 232.099 107.69 231.961 107.203 231.694C106.446 231.277 105.898 230.587 105.658 229.757C105.419 228.925 105.518 228.053 105.936 227.297C106.357 226.541 107.045 225.991 107.877 225.755C108.705 225.513 109.585 225.612 110.342 226.032C111.1 226.449 111.648 227.139 111.888 227.969C112.127 228.798 112.028 229.671 111.61 230.429C111.191 231.185 110.5 231.732 109.669 231.971C109.371 232.055 109.07 232.099 108.769 232.099H108.767ZM108.774 226.9C108.591 226.9 108.407 226.925 108.229 226.976C107.724 227.121 107.305 227.455 107.053 227.913C106.798 228.371 106.739 228.9 106.885 229.404C107.03 229.908 107.364 230.325 107.823 230.577C108.282 230.831 108.812 230.89 109.317 230.745C109.822 230.6 110.24 230.266 110.493 229.808C111.018 228.862 110.671 227.666 109.723 227.142C109.427 226.979 109.103 226.895 108.774 226.895V226.9Z" fill="#282A40"/>
<path d="M159.096 223.182C159.002 223.182 158.905 223.162 158.815 223.118C158.499 222.963 158.369 222.581 158.525 222.266C160.419 218.418 162.003 214.388 163.229 210.288C163.331 209.952 163.688 209.761 164.022 209.861C164.359 209.962 164.553 210.316 164.451 210.652C163.204 214.823 161.595 218.917 159.67 222.828C159.56 223.052 159.333 223.185 159.096 223.185V223.182Z" fill="#282A40"/>
<path d="M157.433 222.129C157.329 222.129 157.222 222.103 157.122 222.047C156.816 221.877 156.704 221.487 156.878 221.182C157.834 219.469 158.594 217.64 159.134 215.741C159.231 215.403 159.58 215.207 159.922 215.304C160.261 215.4 160.458 215.752 160.361 216.09C159.795 218.083 158.997 220.004 157.989 221.803C157.872 222.011 157.655 222.129 157.433 222.129Z" fill="#282A40"/>
<path d="M257.985 284.44C257.187 286.6 256.45 288.554 255.82 290.259C254.175 294.631 249.8 297.427 245.141 296.944C221.43 294.478 202.558 283.882 193.29 277.676C189.455 275.111 187.784 270.332 189.177 265.937C189.373 265.332 189.567 264.698 189.781 264.044C195.664 245.855 208.854 209.077 216.004 195.03C216.741 193.552 217.422 192.338 218.023 191.407C225.673 179.577 244.583 188.045 245.582 182.948C246.584 177.851 240.967 175.879 241.503 172.184C242.183 168.286 248.242 168.767 249.055 166.68C249.884 164.586 246.727 161.105 246.967 157.733C247.207 154.364 252.388 154.832 256.825 153.199C259.387 152.257 260.321 151.094 260.652 150.27L261.657 150.639L269.263 153.44L277.242 156.377L281.62 157.988C281.507 163.655 286.378 187.826 282.385 209.069C282.089 210.642 281.694 212.408 281.224 214.337C276.706 232.729 264.765 266.059 257.985 284.434V284.44ZM260.461 247.896C267.335 229.299 263.271 210.672 251.381 206.296C239.491 201.919 224.278 213.444 217.401 232.04C210.522 250.649 214.589 269.273 226.476 273.653C238.366 278.03 253.579 266.505 260.458 247.896H260.461Z" fill="#46CDCF"/>
<path d="M308.363 134.287L300.853 145.667L285.807 141.158L268.511 134.788C268.511 134.788 269.113 129.964 265.418 123.75C265.41 123.734 265.39 123.711 265.382 123.696C263.363 120.335 258.373 116.965 254.237 114.589C250.743 112.571 247.844 111.258 247.844 111.258L248.183 110.339L251.437 101.542L251.71 100.802L300.282 114.347C300.282 114.347 307.169 131.259 308.36 134.287H308.363Z" fill="white"/>
<path d="M251.381 206.296C263.271 210.673 267.335 229.299 260.461 247.896C253.581 266.505 238.366 278.03 226.479 273.653C214.589 269.276 210.524 250.649 217.404 232.04C224.278 213.444 239.493 201.916 251.383 206.296H251.381Z" fill="#ECB841"/>
<path d="M284.83 159.011L284.777 159.153L281.62 157.99L277.242 156.379L281.571 144.669C283.17 145.488 284.506 146.252 285.59 146.921C286.179 147.275 286.681 147.608 287.128 147.908C286.508 150.433 285.899 152.962 285.281 155.474C285.004 156.631 284.71 157.827 284.83 159.011Z" fill="#ECB841"/>
<path d="M285.807 141.155L285.59 146.921C284.506 146.252 283.17 145.488 281.571 144.669C279.445 143.588 276.859 142.42 273.766 141.267C273.46 141.14 273.149 141.025 272.825 140.908C270.13 139.928 267.896 139.241 266.04 138.788C264.801 138.468 263.738 138.251 262.835 138.124L262.84 138.111L266.109 133.903L268.514 134.788L285.809 141.157L285.807 141.155Z" fill="white"/>
<path d="M281.571 144.669L277.242 156.38L269.263 153.443L273.764 141.267C276.857 142.42 279.442 143.588 281.569 144.669H281.571Z" fill="#ECB841"/>
<path d="M273.766 141.267L269.265 153.443L261.659 150.641L266.042 138.788C267.899 139.241 270.132 139.928 272.828 140.908C273.151 141.028 273.463 141.142 273.768 141.267H273.766Z" fill="#ECB841"/>
<path d="M266.04 138.788L261.657 150.641L260.652 150.272L255.282 148.295C257.001 144.86 258.623 141.389 260.132 137.862C260.81 137.867 261.708 137.941 262.835 138.124C263.738 138.254 264.801 138.468 266.04 138.788Z" fill="#ECB841"/>
<path d="M254.236 114.589C258.372 116.965 263.362 120.337 265.382 123.696C261.231 127.795 249.096 139.519 244.325 141.722C238.516 144.384 238.037 140.058 238.037 140.058C245.488 133.282 251.942 119.764 254.234 114.589H254.236Z" fill="#ECB841"/>
<path d="M244.528 98.9974L241.276 107.795L248.178 110.336L251.43 101.538L244.528 98.9974Z" fill="#ECB841"/>
<path d="M300.854 146.303C300.792 146.303 300.731 146.295 300.67 146.275L285.623 141.766L268.289 135.384C268.011 135.282 267.843 135.002 267.876 134.709C267.881 134.663 268.391 130.002 264.867 124.07C262.855 120.726 257.804 117.37 253.916 115.136C250.491 113.156 247.607 111.848 247.579 111.833C247.273 111.695 247.128 111.347 247.245 111.034L251.111 100.578C251.223 100.267 251.557 100.094 251.881 100.186L300.453 113.731C300.642 113.785 300.797 113.922 300.871 114.103C300.94 114.271 307.774 131.053 308.954 134.05C309.028 134.244 309.008 134.46 308.893 134.633L301.384 146.013C301.264 146.193 301.063 146.298 300.851 146.298L300.854 146.303ZM269.179 134.356L286.026 140.559L300.581 144.918L307.646 134.211C306.297 130.811 300.695 117.049 299.808 114.874L252.105 101.573L248.645 110.932C249.652 111.41 251.952 112.535 254.556 114.039C258.574 116.347 263.809 119.841 265.928 123.37C265.941 123.391 265.984 123.464 265.994 123.482C269.082 128.671 269.233 132.925 269.177 134.356H269.179Z" fill="#282A40"/>
<path d="M281.62 158.626C281.546 158.626 281.472 158.614 281.4 158.586L277.022 156.972C276.691 156.85 276.523 156.486 276.645 156.156L280.975 144.448C281.036 144.277 281.171 144.14 281.342 144.076C281.51 144.012 281.704 144.02 281.864 144.104C283.343 144.86 284.71 145.628 285.929 146.382C286.227 146.567 286.319 146.959 286.136 147.257C285.949 147.557 285.554 147.646 285.258 147.463C284.246 146.837 283.127 146.201 281.923 145.567L278.065 156.003L281.844 157.395C282.176 157.517 282.344 157.881 282.221 158.212C282.127 158.469 281.882 158.629 281.625 158.629L281.62 158.626Z" fill="#282A40"/>
<path d="M285.59 147.557C285.472 147.557 285.358 147.524 285.253 147.46C284.065 146.725 282.726 145.977 281.278 145.234C278.891 144.02 276.288 142.885 273.539 141.862C273.236 141.737 272.95 141.631 272.654 141.521C270.053 140.577 267.794 139.872 265.884 139.404C264.714 139.101 263.658 138.882 262.74 138.753C262.557 138.727 262.394 138.62 262.294 138.465C262.192 138.307 262.167 138.116 262.22 137.938C262.243 137.865 262.281 137.781 262.33 137.719L265.599 133.513C265.767 133.297 266.06 133.208 266.323 133.307L286.023 140.559C286.283 140.653 286.449 140.905 286.441 141.18L286.227 146.946C286.22 147.173 286.089 147.376 285.891 147.483C285.796 147.534 285.694 147.557 285.59 147.557ZM263.985 137.669C264.673 137.798 265.413 137.966 266.198 138.17C268.144 138.646 270.449 139.366 273.042 140.307C273.412 140.442 273.712 140.554 274.008 140.676C276.777 141.709 279.427 142.862 281.859 144.101C282.974 144.671 284.022 145.247 284.993 145.817L285.151 141.592L266.323 134.658L263.985 137.669Z" fill="#282A40"/>
<path d="M277.241 157.013C277.167 157.013 277.094 157.001 277.022 156.973L269.044 154.036C268.885 153.977 268.755 153.86 268.684 153.705C268.613 153.553 268.608 153.377 268.666 153.219L273.167 141.043C273.225 140.885 273.345 140.755 273.498 140.684C273.651 140.613 273.827 140.608 273.985 140.666C276.777 141.707 279.427 142.862 281.857 144.099C282.145 144.247 282.277 144.583 282.165 144.885L277.836 156.593C277.741 156.85 277.496 157.011 277.239 157.011L277.241 157.013ZM270.081 153.064L276.864 155.56L280.776 144.98C278.702 143.949 276.476 142.977 274.141 142.086L270.084 153.064H270.081Z" fill="#282A40"/>
<path d="M269.266 154.077C269.192 154.077 269.118 154.064 269.046 154.036L261.44 151.234C261.282 151.176 261.152 151.059 261.081 150.903C261.009 150.751 261.004 150.575 261.063 150.417L265.446 138.564C265.556 138.262 265.874 138.086 266.196 138.167C268.149 138.646 270.454 139.363 273.047 140.305C273.417 140.44 273.718 140.552 274.013 140.674C274.33 140.804 274.485 141.16 274.368 141.481L269.867 153.657C269.773 153.914 269.528 154.074 269.271 154.074L269.266 154.077ZM262.478 150.265L268.888 152.624L272.953 141.631C272.856 141.592 272.756 141.557 272.659 141.521C270.306 140.666 268.23 140.007 266.443 139.544L262.48 150.265H262.478Z" fill="#282A40"/>
<path d="M261.657 151.277C261.583 151.277 261.506 151.265 261.438 151.237L260.433 150.868C260.101 150.746 259.933 150.382 260.056 150.051C260.178 149.72 260.548 149.552 260.874 149.674L261.282 149.824L265.199 139.234C264.304 139.02 263.483 138.86 262.746 138.755C262.396 138.704 262.157 138.384 262.205 138.035C262.256 137.686 262.58 137.452 262.927 137.496C263.891 137.633 264.995 137.862 266.201 138.175C266.374 138.221 266.522 138.335 266.606 138.496C266.69 138.653 266.701 138.842 266.639 139.01L262.256 150.863C262.197 151.02 262.08 151.15 261.925 151.222C261.84 151.26 261.749 151.28 261.659 151.28L261.657 151.277Z" fill="#282A40"/>
<path d="M239.985 140.72C239.781 140.72 239.582 140.623 239.457 140.442C239.259 140.152 239.335 139.755 239.626 139.559C247.535 134.177 254.532 127.63 260.417 120.098C260.632 119.82 261.034 119.772 261.312 119.988C261.59 120.205 261.639 120.604 261.422 120.882C255.455 128.518 248.364 135.157 240.342 140.613C240.233 140.687 240.108 140.722 239.983 140.722L239.985 140.72Z" fill="#282A40"/>
<path d="M305.696 134.406C305.578 134.406 305.458 134.373 305.351 134.305C302.169 132.259 299.683 129.185 298.352 125.648C297.021 122.108 296.865 118.161 297.918 114.533C298.015 114.197 298.372 113.998 298.709 114.097C299.048 114.197 299.242 114.548 299.145 114.886C298.171 118.255 298.314 121.917 299.548 125.202C300.782 128.485 303.09 131.34 306.042 133.236C306.338 133.427 306.425 133.819 306.234 134.116C306.111 134.305 305.907 134.409 305.698 134.409L305.696 134.406Z" fill="#282A40"/>
<path d="M252.518 166.166C252.365 166.166 252.214 166.113 252.092 166.006C251.829 165.772 251.807 165.37 252.041 165.108C253.097 163.93 253.599 162.227 253.354 160.665C253.109 159.105 252.112 157.637 250.746 156.833C250.442 156.654 250.34 156.265 250.521 155.962C250.7 155.659 251.093 155.56 251.393 155.738C253.104 156.743 254.308 158.512 254.614 160.469C254.922 162.426 254.316 164.477 252.992 165.955C252.867 166.095 252.691 166.169 252.515 166.169L252.518 166.166Z" fill="#282A40"/>
<path d="M248.198 179.681C248.155 179.681 248.114 179.679 248.071 179.668C247.727 179.6 247.502 179.264 247.574 178.918C248.155 176.063 246.671 172.833 244.126 171.406C243.82 171.235 243.711 170.846 243.884 170.541C244.055 170.235 244.445 170.123 244.751 170.299C247.806 172.011 249.517 175.744 248.823 179.172C248.762 179.472 248.497 179.681 248.198 179.681Z" fill="#282A40"/>
<path d="M276.324 224.737C276.262 224.737 276.201 224.729 276.137 224.709C275.801 224.607 275.61 224.251 275.714 223.915C280.477 208.235 281.298 191.455 278.093 175.386C278.024 175.042 278.249 174.706 278.593 174.637C278.935 174.566 279.274 174.79 279.343 175.136C282.591 191.407 281.757 208.403 276.936 224.284C276.851 224.559 276.599 224.734 276.326 224.734L276.324 224.737Z" fill="#282A40"/>
<path d="M158.851 288.188C156.228 289.277 157.982 292.519 157.982 292.519C157.982 292.519 165.739 296.369 187.866 292.213C209.979 288.061 216.501 283.91 215.905 280.745C215.306 277.569 213.462 278.175 213.462 278.175C213.462 278.175 208.14 283.732 187.818 287.549C167.508 291.364 158.854 288.188 158.854 288.188H158.851Z" fill="#46CDCF"/>
<path d="M142.871 197.331L146.474 197.043C162.582 199.158 179.304 196.262 193.761 188.86L196.48 188.272C196.546 188.493 196.589 188.717 196.635 188.954L213.464 278.177C213.464 278.177 208.143 283.735 187.82 287.552C167.51 291.366 158.856 288.19 158.856 288.19L143.001 199.031C143.001 199.031 142.917 198.374 142.876 197.333L142.871 197.331ZM177.557 274.151C187.491 272.286 192.741 255.894 189.281 237.539C185.821 219.197 174.959 205.83 165.024 207.698C155.09 209.563 149.84 225.956 153.297 244.298C156.76 262.652 167.623 276.019 177.557 274.151Z" fill="#ECB841"/>
<path d="M142.871 197.331L146.474 197.043C162.582 199.158 179.304 196.262 193.762 188.86L196.48 188.272C194.455 179.538 186.255 176.638 186.255 176.638L186.122 176.353C184.013 177.487 178.982 179.35 167.003 181.6C155.452 183.77 149.707 183.994 146.91 183.808L146.9 184.03C142.943 187.465 142.731 194.186 142.871 197.331Z" fill="#46CDCF"/>
<path d="M144.164 181.966C144.337 182.892 145.082 183.605 146.015 183.729C146.267 183.76 146.571 183.793 146.913 183.806C149.71 183.992 155.455 183.768 167.006 181.597C178.982 179.348 184.016 177.482 186.124 176.35C186.186 176.325 186.254 176.286 186.313 176.251C187.124 175.8 187.547 174.879 187.371 173.955L187.359 173.892C187.114 172.591 185.785 171.805 184.528 172.223C184.09 172.37 183.587 172.528 183.024 172.698C181.973 173.039 180.721 173.416 179.281 173.828C177.434 174.357 175.259 174.933 172.822 175.495C170.774 175.984 168.528 176.457 166.123 176.91C165.822 176.966 165.534 177.019 165.244 177.062C162.938 177.495 160.746 177.844 158.711 178.121C156.337 178.465 154.167 178.716 152.255 178.895C150.829 179.045 149.554 179.157 148.44 179.236C147.583 179.307 146.828 179.358 146.186 179.388C146.097 179.393 145.995 179.411 145.908 179.426C144.743 179.645 143.942 180.767 144.169 181.966H144.164Z" fill="white"/>
<path d="M165.024 207.695C155.09 209.56 149.84 225.953 153.297 244.295C156.76 262.65 167.623 276.017 177.557 274.149C187.491 272.284 192.741 255.891 189.281 237.536C185.821 219.194 174.959 205.827 165.024 207.695Z" fill="#152744"/>
<path d="M147.502 174.284L148.435 179.236C149.549 179.157 150.824 179.045 152.25 178.895L152.161 178.007C151.99 176.343 151.883 174.681 151.829 173.019L151.684 172.594C150.697 172.935 149.753 173.294 148.851 173.671C148.384 173.874 147.941 174.075 147.502 174.286V174.284Z" fill="white"/>
<path d="M148.264 157.349C148.221 155.881 149.07 154.532 150.424 153.939C151.444 153.502 152.446 153.107 153.446 152.764C160.868 150.166 167.58 149.98 170.95 150.11C172.348 150.158 173.572 151.003 174.112 152.285L180.706 167.851C179.962 167.887 178.934 167.95 177.685 168.057V168.044C175.943 168.177 173.786 168.362 171.397 168.63C169.048 168.902 166.478 169.243 163.849 169.673C161.725 170.034 159.573 170.452 157.464 170.963C155.463 171.429 153.514 171.963 151.686 172.592C150.699 172.933 149.756 173.291 148.853 173.668L148.387 160.667L148.267 157.349H148.264ZM157.087 167.266C159.292 166.851 160.601 163.952 160.001 160.777C159.405 157.614 157.13 155.387 154.925 155.802C154.787 155.827 154.652 155.866 154.517 155.904C152.946 156.446 151.921 158.308 151.852 160.548C151.842 161.108 151.888 161.693 151.997 162.281C152.597 165.456 154.871 167.683 157.089 167.266H157.087Z" fill="#ECB841"/>
<path d="M152.161 178.004L152.25 178.892C154.162 178.714 156.332 178.462 158.706 178.119L158.647 177.676C158.395 175.51 158.015 173.355 157.523 171.233L157.459 170.96C155.458 171.426 153.509 171.96 151.681 172.589L151.826 173.014C151.88 174.673 151.987 176.337 152.158 178.002L152.161 178.004Z" fill="white"/>
<path d="M151.85 160.545C151.839 161.105 151.885 161.69 151.995 162.278C152.594 165.454 154.869 167.68 157.087 167.263C159.293 166.848 160.601 163.95 160.001 160.774C159.405 157.611 157.13 155.385 154.925 155.799C154.787 155.825 154.652 155.863 154.517 155.901C152.946 156.443 151.921 158.306 151.852 160.545H151.85Z" fill="white"/>
<path d="M158.65 177.678L158.709 178.121C160.743 177.841 162.936 177.495 165.241 177.063L165.162 176.638L163.849 169.673C161.725 170.034 159.573 170.452 157.464 170.963L157.528 171.235C158.02 173.358 158.4 175.513 158.653 177.678H158.65Z" fill="white"/>
<path d="M165.159 176.638L165.239 177.062C165.529 177.022 165.817 176.966 166.118 176.91C168.523 176.457 170.769 175.984 172.817 175.495L172.766 175.297C172.317 173.192 171.881 171.088 171.43 168.97L171.391 168.627C169.043 168.899 166.473 169.24 163.844 169.67L165.157 176.635L165.159 176.638Z" fill="white"/>
<path d="M171.394 168.629L171.432 168.973C171.884 171.09 172.32 173.195 172.768 175.299L172.819 175.498C175.257 174.935 177.43 174.36 179.278 173.831L179.227 173.632C178.664 171.887 178.149 170.118 177.697 168.339L177.682 168.057V168.044C175.94 168.177 173.783 168.362 171.394 168.629Z" fill="white"/>
<path d="M177.682 168.057L177.697 168.339C178.149 170.118 178.664 171.887 179.227 173.632L179.278 173.831C180.719 173.419 181.971 173.039 183.022 172.701L182.953 172.467L182.07 167.79C182.07 167.79 181.581 167.805 180.706 167.851C179.962 167.886 178.934 167.95 177.685 168.057H177.682Z" fill="white"/>
<path d="M148.611 184.493C147.93 184.493 147.354 184.473 146.867 184.44C146.522 184.427 146.201 184.391 145.933 184.358C144.722 184.2 143.761 183.284 143.537 182.083C143.396 181.338 143.554 180.587 143.985 179.964C144.411 179.35 145.049 178.935 145.783 178.798C145.898 178.778 146.028 178.755 146.145 178.747C146.785 178.717 147.535 178.666 148.381 178.597C149.496 178.518 150.765 178.406 152.181 178.259C154.213 178.07 156.373 177.811 158.614 177.488C160.807 177.187 162.995 176.834 165.121 176.434C165.43 176.388 165.708 176.337 165.998 176.281C168.403 175.828 170.647 175.355 172.669 174.874C174.801 174.386 176.963 173.826 179.1 173.215C180.533 172.805 181.777 172.429 182.822 172.093C183.391 171.92 183.886 171.762 184.319 171.617C185.092 171.357 185.938 171.449 186.637 171.859C187.338 172.271 187.83 172.968 187.981 173.77C188.218 175.027 187.665 176.22 186.617 176.801C186.561 176.839 186.453 176.897 186.357 176.935C184.222 178.088 179.089 179.971 167.115 182.221C157.52 184.022 151.877 184.49 148.606 184.49L148.611 184.493ZM185.217 172.744C185.054 172.744 184.888 172.77 184.725 172.826C184.283 172.973 183.774 173.134 183.202 173.307C182.154 173.645 180.897 174.024 179.449 174.439C177.289 175.057 175.107 175.62 172.96 176.113C170.922 176.599 168.66 177.075 166.236 177.533C165.927 177.592 165.629 177.648 165.33 177.691C163.209 178.088 161.001 178.447 158.792 178.75C156.536 179.075 154.353 179.335 152.308 179.526C150.883 179.676 149.6 179.788 148.481 179.867C147.621 179.938 146.859 179.989 146.209 180.02C146.15 180.022 146.079 180.037 146.018 180.05C145.617 180.126 145.268 180.353 145.033 180.689C144.799 181.027 144.712 181.439 144.789 181.847C144.914 182.508 145.439 183.009 146.097 183.096C146.329 183.124 146.617 183.157 146.936 183.17C149.72 183.361 155.434 183.124 166.883 180.974C178.697 178.755 183.7 176.93 185.819 175.79C185.829 175.785 185.989 175.701 186 175.694C186.566 175.378 186.864 174.727 186.742 174.07C186.647 173.566 186.377 173.185 185.994 172.958C185.752 172.816 185.487 172.744 185.219 172.744H185.217Z" fill="#282A40"/>
<path d="M148.435 179.872C148.129 179.872 147.866 179.656 147.808 179.353L146.874 174.401C146.821 174.118 146.964 173.833 147.224 173.711C147.67 173.498 148.119 173.294 148.593 173.085C149.503 172.706 150.47 172.34 151.474 171.991C151.635 171.935 151.808 171.945 151.961 172.022C152.114 172.095 152.229 172.228 152.283 172.388L152.428 172.813C152.448 172.872 152.461 172.935 152.464 172.999C152.517 174.696 152.627 176.36 152.79 177.941L152.882 178.831C152.918 179.18 152.665 179.49 152.316 179.528C150.883 179.681 149.6 179.79 148.481 179.872C148.466 179.872 148.45 179.872 148.435 179.872ZM148.218 174.65L148.955 178.559C149.748 178.498 150.615 178.421 151.551 178.327L151.525 178.07C151.372 176.584 151.265 175.027 151.207 173.436C150.475 173.701 149.769 173.973 149.098 174.253C148.8 174.386 148.509 174.515 148.218 174.648V174.65Z" fill="#282A40"/>
<path d="M156.533 167.955C154.177 167.955 151.984 165.66 151.37 162.398C151.253 161.779 151.202 161.153 151.212 160.535C151.293 157.973 152.507 155.922 154.307 155.301C154.493 155.247 154.646 155.204 154.804 155.176C156.082 154.937 157.4 155.402 158.512 156.494C159.563 157.525 160.315 159.003 160.628 160.66C161.291 164.169 159.754 167.413 157.206 167.892C156.982 167.935 156.758 167.955 156.533 167.955ZM155.457 156.39C155.317 156.39 155.179 156.403 155.042 156.428C154.924 156.451 154.807 156.481 154.69 156.517C153.448 156.947 152.548 158.581 152.484 160.571C152.474 161.097 152.52 161.634 152.619 162.166C153.152 164.988 155.118 166.986 156.967 166.645C158.826 166.294 159.904 163.718 159.374 160.899C159.109 159.497 158.484 158.255 157.617 157.405C156.941 156.741 156.187 156.392 155.457 156.392V156.39Z" fill="#282A40"/>
<path d="M152.25 179.531C151.928 179.531 151.651 179.287 151.617 178.958L151.526 178.068C151.362 176.485 151.253 174.826 151.197 173.131L151.082 172.798C150.967 172.467 151.143 172.106 151.477 171.991C153.216 171.393 155.126 170.854 157.316 170.345C157.661 170.266 158 170.477 158.081 170.818L158.145 171.09C158.65 173.276 159.032 175.467 159.282 177.607L159.338 178.04C159.384 178.386 159.142 178.701 158.798 178.752C156.536 179.078 154.353 179.337 152.308 179.528C152.288 179.528 152.268 179.528 152.25 179.528V179.531ZM152.467 173.001C152.52 174.699 152.63 176.36 152.793 177.94L152.821 178.203C154.471 178.04 156.207 177.831 157.997 177.582C157.765 175.655 157.426 173.691 156.987 171.731C155.33 172.131 153.843 172.551 152.469 173.001H152.467Z" fill="#282A40"/>
<path d="M156.533 167.955C154.177 167.955 151.984 165.66 151.37 162.398C151.253 161.779 151.202 161.153 151.212 160.535V160.527C151.293 157.973 152.507 155.922 154.307 155.301C154.493 155.247 154.646 155.204 154.804 155.176C156.082 154.937 157.4 155.402 158.512 156.494C159.563 157.525 160.315 159.003 160.628 160.66C161.291 164.169 159.754 167.413 157.206 167.892C156.982 167.935 156.758 167.955 156.533 167.955ZM152.487 160.563C152.476 161.095 152.522 161.632 152.622 162.161C153.155 164.983 155.121 166.981 156.969 166.64C158.828 166.289 159.907 163.713 159.376 160.894C159.111 159.492 158.486 158.25 157.62 157.4C156.814 156.609 155.893 156.265 155.044 156.425C154.927 156.448 154.81 156.479 154.692 156.515C153.451 156.942 152.55 158.576 152.487 160.563Z" fill="#282A40"/>
<path d="M158.706 178.757C158.566 178.757 158.43 178.711 158.318 178.627C158.183 178.523 158.096 178.37 158.073 178.202L158.017 177.76C158.017 177.76 158.017 177.755 158.017 177.752C157.773 175.66 157.4 173.515 156.906 171.378L156.842 171.111C156.76 170.77 156.969 170.429 157.311 170.347C159.221 169.881 161.325 169.456 163.739 169.047C164.071 168.988 164.407 169.215 164.474 169.556L165.868 176.945C165.899 177.111 165.866 177.284 165.769 177.424C165.672 177.564 165.527 177.658 165.361 177.688C163.214 178.091 161.006 178.449 158.795 178.752C158.767 178.755 158.736 178.757 158.708 178.757H158.706ZM158.224 171.436C158.675 173.439 159.022 175.442 159.257 177.403C161.019 177.154 162.773 176.869 164.494 176.556L163.334 170.408C161.457 170.736 159.774 171.075 158.224 171.439V171.436Z" fill="#282A40"/>
<path d="M165.239 177.699C164.938 177.699 164.67 177.485 164.614 177.182L164.532 176.757L163.219 169.79C163.186 169.622 163.224 169.446 163.324 169.306C163.423 169.166 163.574 169.072 163.742 169.044C166.085 168.663 168.635 168.309 171.32 167.996C171.478 167.978 171.657 168.024 171.792 168.131C171.924 168.238 172.009 168.39 172.029 168.558L172.067 168.902L173.439 175.34C173.48 175.505 173.454 175.678 173.365 175.823C173.276 175.968 173.133 176.073 172.967 176.113C170.925 176.599 168.663 177.078 166.238 177.533C165.93 177.592 165.631 177.648 165.333 177.691C165.302 177.694 165.272 177.696 165.239 177.696V177.699ZM164.594 170.197L165.751 176.332C165.833 176.317 165.917 176.302 166.001 176.284C168.166 175.877 170.201 175.452 172.06 175.019L170.859 169.332C168.661 169.594 166.56 169.884 164.594 170.195V170.197Z" fill="#282A40"/>
<path d="M172.819 176.131C172.534 176.131 172.274 175.938 172.2 175.65L172.149 175.452L170.759 168.698C170.741 168.53 170.79 168.362 170.894 168.23C171.001 168.098 171.154 168.014 171.32 167.993C173.322 167.769 175.384 167.576 177.628 167.406C177.95 167.375 178.238 167.602 178.302 167.917L178.33 168.304C178.743 169.874 179.253 171.64 179.829 173.434L179.89 173.671C179.974 174.004 179.778 174.342 179.446 174.436C177.287 175.055 175.104 175.617 172.957 176.111C172.909 176.121 172.86 176.126 172.814 176.126L172.819 176.131ZM172.128 169.189L173.301 174.732C175.02 174.327 176.756 173.879 178.483 173.396C177.983 171.826 177.529 170.248 177.139 168.729C175.382 168.869 173.73 169.021 172.128 169.192V169.189Z" fill="#282A40"/>
<path d="M179.276 174.467C179.166 174.467 179.056 174.439 178.957 174.383C178.806 174.296 178.697 174.154 178.656 173.986L178.605 173.787C178.031 172.009 177.511 170.215 177.075 168.497L177.042 168.09C177.024 167.746 177.282 167.451 177.626 167.423C178.885 167.319 179.918 167.255 180.67 167.217C181.553 167.169 182.047 167.154 182.047 167.154C182.402 167.164 182.634 167.365 182.692 167.673L183.631 172.52C183.73 172.851 183.544 173.202 183.215 173.307C182.157 173.648 180.9 174.027 179.452 174.441C179.395 174.457 179.334 174.467 179.276 174.467ZM178.419 168.637C178.783 170.006 179.219 171.51 179.706 173.044C180.65 172.772 181.507 172.513 182.267 172.273L181.542 168.449C181.331 168.459 181.06 168.472 180.739 168.49C180.137 168.52 179.355 168.566 178.419 168.64V168.637Z" fill="#282A40"/>
<path d="M171.603 290.152C166.965 290.152 162.495 289.722 158.229 288.86C157.885 288.791 157.661 288.452 157.732 288.109C157.803 287.765 158.135 287.544 158.484 287.613C166.039 289.139 174.268 289.29 182.937 288.053C190.332 286.999 198.114 284.946 206.733 281.778C209.063 280.92 211.646 279.829 212.837 277.701C213.008 277.393 213.398 277.286 213.704 277.457C214.013 277.627 214.122 278.017 213.949 278.322C212.547 280.826 209.716 282.035 207.171 282.971C198.469 286.172 190.6 288.249 183.113 289.315C179.181 289.875 175.336 290.155 171.601 290.155L171.603 290.152Z" fill="#282A40"/>
<path d="M205.259 259.192C204.955 259.192 204.687 258.975 204.631 258.667L193.292 195.654C193.231 195.308 193.46 194.977 193.807 194.916C194.146 194.86 194.483 195.084 194.547 195.43L205.886 258.441C205.947 258.787 205.718 259.118 205.371 259.181C205.333 259.187 205.294 259.192 205.256 259.192H205.259Z" fill="#282A40"/>
<path d="M176.055 165.759C175.81 165.759 175.578 165.619 175.471 165.383L169.367 151.672C169.224 151.351 169.367 150.975 169.691 150.832C170.012 150.69 170.387 150.832 170.532 151.155L176.636 164.866C176.779 165.187 176.636 165.563 176.313 165.706C176.229 165.744 176.142 165.759 176.053 165.759H176.055Z" fill="#282A40"/>
<path d="M153.496 188.883C151.796 188.883 150.098 188.829 148.399 188.725C148.047 188.704 147.78 188.402 147.803 188.05C147.826 187.702 148.104 187.43 148.478 187.455C161.164 188.244 174.048 186.03 185.74 181.065C186.061 180.928 186.436 181.078 186.576 181.401C186.714 181.724 186.563 182.096 186.239 182.236C175.93 186.615 164.706 188.883 153.499 188.883H153.496Z" fill="#282A40"/>
</g>
<defs>
<clipPath id="clip0_222_3726">
<rect width="398" height="280.433" fill="white" transform="translate(395 307) rotate(-180)"/>
</clipPath>
<clipPath id="clip1_222_3726">
<rect width="41.54" height="42.61" fill="white" transform="translate(283 180)"/>
</clipPath>
<clipPath id="clip2_222_3726">
<rect width="398" height="280.433" fill="white" transform="translate(395 307) rotate(-180)"/>
</clipPath>
<clipPath id="clip3_222_3726">
<rect width="41.54" height="42.61" fill="white" transform="translate(283 180)"/>
</clipPath>
<clipPath id="clip4_222_3726">
<rect width="237" height="292.24" fill="white" transform="translate(72)"/>
</clipPath>
</defs>
</svg>
