<svg width="120" height="114" viewBox="0 0 120 114" fill="none" xmlns="http://www.w3.org/2000/svg">
<path opacity="0.5" fill-rule="evenodd" clip-rule="evenodd" d="M119.34 6.05635V103C119.34 108.523 114.863 113 109.34 113H37.5273C38.2204 111.948 39.0976 111.008 40.1308 110.25C37.7874 109.398 35.6844 108.001 34.0095 106.229C30.7047 102.731 29.1499 97.9623 30.1489 93.3356C30.945 89.6432 33.2358 86.2423 36.4355 83.9924C34.4902 82.5424 32.8528 80.7335 31.621 78.693C28.6993 73.8869 28.1209 68.0119 30.3892 62.8694C31.9125 59.4268 34.5379 56.4468 37.8234 54.3989C34.4371 50.4974 32.8003 45.2661 33.4687 40.2515C34.1822 34.8474 37.5546 29.8096 42.4291 26.887C41.3926 20.6981 44.1266 14.0831 49.3241 10.1889C54.5141 6.29469 61.9574 5.27815 68.1088 7.62515C71.6915 2.87135 77.8204 -0.0661396 84.0093 0.00113122C90.1908 0.068402 96.2596 3.14791 99.7221 7.97646C103.14 3.51416 109.899 1.63805 115.337 3.6487C116.826 4.19987 118.177 5.02962 119.34 6.05635Z" fill="#B2E9FD"/>
<g clip-path="url(#clip0_399_4726)">
<path d="M4.78632 97.5501C4.57001 97.4674 4.3591 97.3632 4.15358 97.2373C2.35314 96.1178 1.81078 93.682 2.94198 91.803C4.07567 89.9249 6.46088 89.3054 8.26132 90.4249C9.13465 90.9655 9.74176 91.83 9.97039 92.8573C10.199 93.8845 10.023 94.9492 9.47291 95.8592C8.4692 97.5239 6.47953 98.1971 4.78632 97.5501ZM3.36596 92.0655C2.38004 93.6986 2.8539 95.8215 4.41945 96.7951C5.98599 97.7661 8.06301 97.2298 9.04893 95.5967C9.52582 94.8036 9.68094 93.8757 9.48054 92.9834C9.28112 92.0885 8.75333 91.337 7.99544 90.8671C6.42642 89.8951 4.35189 90.4324 3.36596 92.0655Z" fill="#22263F"/>
<path d="M3.66573 93.6815C3.55882 93.6407 3.49142 93.5263 3.51142 93.4068C3.63955 92.5868 4.12648 91.8271 4.81153 91.3766C5.49757 90.9235 6.36588 90.7913 7.13346 91.0195C7.26074 91.0593 7.33766 91.201 7.29734 91.3364C7.25604 91.4743 7.11571 91.5507 6.98497 91.5125C6.3531 91.3243 5.6382 91.4353 5.07509 91.8054C4.51099 92.178 4.11008 92.8021 4.00683 93.475C3.9849 93.6144 3.85606 93.7129 3.7209 93.6938C3.70251 93.6897 3.68412 93.6856 3.66921 93.6799L3.66573 93.6815Z" fill="#22263F"/>
<path d="M10.9181 90.116C10.8162 90.0771 10.7182 90.0278 10.6216 89.9673C9.77716 89.4406 9.52434 88.2977 10.0541 87.4184C10.3116 86.9907 10.7155 86.6869 11.1889 86.5664C11.6599 86.4449 12.1449 86.5179 12.5515 86.7738C13.3945 87.2969 13.6498 88.4407 13.1175 89.3191C12.6456 90.0993 11.7123 90.4165 10.9191 90.1135L10.9181 90.116ZM12.0623 87.107C11.8211 87.0148 11.5563 86.9994 11.2972 87.0659C10.9558 87.1541 10.6639 87.3736 10.4771 87.6835C10.0941 88.3204 10.2769 89.1469 10.889 89.5286C11.5006 89.9041 12.3071 89.6951 12.6926 89.0591C13.0756 88.4223 12.8927 87.5958 12.2822 87.2176C12.211 87.1727 12.1394 87.1364 12.0623 87.107Z" fill="#22263F"/>
<path d="M5.7567 86.4206C5.63735 86.375 5.52443 86.32 5.41396 86.2512C4.94818 85.9638 4.62542 85.5035 4.50206 84.9539C4.37869 84.4043 4.4748 83.8322 4.76587 83.3464C5.06041 82.859 5.51632 82.516 6.05431 82.3757C6.59131 82.2381 7.14437 82.3194 7.60916 82.6093C8.57159 83.2076 8.86314 84.5101 8.25824 85.5115C7.96717 85.9973 7.51027 86.3429 6.97327 86.4805C6.56234 86.5865 6.14058 86.5643 5.75768 86.418L5.7567 86.4206ZM5.18985 83.6089C4.96696 83.976 4.89527 84.4096 4.98942 84.8269C5.08207 85.2406 5.32702 85.5913 5.67983 85.8089C6.03513 86.0275 6.45206 86.0922 6.86051 85.9852C7.26548 85.8799 7.61287 85.6195 7.83327 85.2516C8.29139 84.4926 8.06985 83.5065 7.34231 83.0541C6.98949 82.8365 6.57257 82.7718 6.1651 82.8762C5.75764 82.9806 5.41274 83.2419 5.18985 83.6089Z" fill="#22263F"/>
</g>
<path d="M80.1284 32.9552C79.9353 32.9552 79.7423 32.9401 79.5492 32.8999C78.721 32.749 77.9996 32.2814 77.522 31.5976C77.0444 30.9087 76.8665 30.079 77.019 29.2594C77.1714 28.4398 77.6439 27.7258 78.34 27.2532C79.036 26.7805 79.8744 26.6045 80.7025 26.7604C81.5307 26.9112 82.2522 27.3738 82.7298 28.0627C83.2074 28.7516 83.3852 29.5863 83.2328 30.4059C82.9483 31.9043 81.6171 32.9602 80.1284 32.9602V32.9552ZM80.1233 27.1073C79.5746 27.1073 79.036 27.2733 78.5737 27.585C77.9691 27.9973 77.5626 28.6158 77.4254 29.3298C77.2933 30.0438 77.4458 30.7679 77.8624 31.3663C78.279 31.9646 78.9039 32.3669 79.6254 32.5027C81.1141 32.7742 82.552 31.7987 82.8314 30.3254C82.9635 29.6114 82.8111 28.8873 82.3945 28.284C81.9778 27.6856 81.3529 27.2833 80.6314 27.1526C80.4637 27.1224 80.291 27.1073 80.1233 27.1073Z" fill="#22263F"/>
<path d="M78.1318 30.431C78.0353 30.431 77.954 30.3657 77.9337 30.2701C77.7914 29.6315 77.9438 28.9376 78.3351 28.4147C78.7263 27.8918 79.3563 27.5498 80.0168 27.5046C80.1286 27.4945 80.2302 27.58 80.2353 27.6906C80.2454 27.8013 80.1591 27.9018 80.0473 27.9068C79.5036 27.9471 78.9905 28.2287 78.6653 28.6561C78.3401 29.0885 78.2182 29.6567 78.3351 30.1796C78.3605 30.2902 78.2893 30.3958 78.1775 30.421C78.1623 30.421 78.1471 30.421 78.1318 30.421V30.431Z" fill="#22263F"/>
<path d="M82.6583 25.7849C82.5669 25.7849 82.4805 25.7749 82.389 25.7598C81.5863 25.6089 81.0528 24.8446 81.2052 24.0502C81.2763 23.663 81.4999 23.3311 81.8251 23.1099C82.1502 22.8886 82.5415 22.8082 82.9327 22.8786C83.3188 22.949 83.6592 23.1652 83.8828 23.487C84.1063 23.8088 84.1876 24.201 84.1165 24.5832C83.9844 25.2871 83.3595 25.7849 82.6634 25.7849H82.6583ZM82.6583 23.2557C82.4449 23.2557 82.2366 23.3211 82.0588 23.4418C81.82 23.6027 81.6625 23.844 81.6117 24.1256C81.505 24.6988 81.886 25.2519 82.4703 25.3625C83.0495 25.4681 83.6084 25.086 83.7202 24.5128C83.771 24.2362 83.7151 23.9546 83.5525 23.7183C83.3899 23.487 83.1461 23.3261 82.8666 23.2758C82.8006 23.2658 82.7345 23.2557 82.6685 23.2557H82.6583Z" fill="#22263F"/>
<path d="M77.6082 24.5228C77.5066 24.5228 77.3999 24.5128 77.2932 24.4927C76.8512 24.4122 76.465 24.1658 76.211 23.7988C75.9569 23.4317 75.8604 22.9842 75.9417 22.5467C76.023 22.1093 76.277 21.7271 76.6479 21.4757C77.0188 21.2243 77.4659 21.1288 77.908 21.2092C78.8225 21.3802 79.4271 22.2501 79.2595 23.1552C79.1782 23.5926 78.9292 23.9748 78.5583 24.2262C78.2738 24.4223 77.9435 24.5228 77.6031 24.5228H77.6082ZM77.6031 21.5863C77.3491 21.5863 77.1001 21.6618 76.8816 21.8076C76.6022 21.9987 76.4091 22.2853 76.3482 22.6171C76.2872 22.949 76.3583 23.2859 76.5514 23.5675C76.7445 23.844 77.0341 24.0351 77.3694 24.0954C77.7047 24.1558 78.0451 24.0854 78.3297 23.8943C78.6091 23.7032 78.7971 23.4166 78.8632 23.0848C78.9902 22.4009 78.5329 21.7372 77.8419 21.6115C77.7606 21.5964 77.6844 21.5914 77.6082 21.5914L77.6031 21.5863Z" fill="#22263F"/>
<path d="M72.6238 34.3782C72.5324 34.3782 72.4409 34.3682 72.3495 34.3531C71.5467 34.2023 71.0132 33.438 71.1657 32.6435C71.2368 32.2563 71.4603 31.9245 71.7855 31.7032C72.1107 31.482 72.5019 31.4015 72.8931 31.4719C73.6959 31.6177 74.2243 32.3871 74.077 33.1815C74.0058 33.5637 73.7873 33.9006 73.4622 34.1218C73.2132 34.2928 72.9236 34.3782 72.6289 34.3782H72.6238ZM72.6188 31.849C72.4054 31.849 72.1971 31.9144 72.0192 32.0351C71.7804 32.196 71.6229 32.4373 71.5721 32.7189C71.4654 33.2921 71.8465 33.8452 72.4308 33.9559C72.7102 34.0062 72.9947 33.9458 73.2335 33.7849C73.4673 33.624 73.6298 33.3826 73.6807 33.1011C73.7315 32.8245 73.6756 32.5429 73.513 32.3066C73.3504 32.0753 73.1065 31.9144 72.8271 31.8641C72.761 31.8541 72.695 31.844 72.6289 31.844L72.6188 31.849Z" fill="#22263F"/>
<path d="M14.2493 87.0078C14.0257 87.0078 13.7971 86.9877 13.5684 86.9474C11.5412 86.5753 10.1999 84.6395 10.5759 82.6332C10.9518 80.6269 12.9079 79.2995 14.9352 79.6766C15.9158 79.8576 16.7694 80.4057 17.3333 81.2203C17.8973 82.0348 18.1056 83.0204 17.9227 83.9908C17.5874 85.7658 16.0123 87.0128 14.2442 87.0128L14.2493 87.0078ZM10.9772 82.7036C10.6419 84.4886 11.8359 86.2133 13.6396 86.5452C15.4433 86.877 17.186 85.6954 17.5213 83.9104C17.6839 83.0455 17.4959 82.1706 16.9929 81.4415C16.4899 80.7174 15.7329 80.2297 14.859 80.0688C13.0553 79.7369 11.3126 80.9186 10.9772 82.7036Z" fill="#22263F"/>
<path d="M11.8611 83.9908C11.7645 83.9908 11.6832 83.9255 11.6629 83.8299C11.4953 83.0807 11.6731 82.2611 12.1405 81.6426C12.6029 81.0242 13.3447 80.6219 14.122 80.5666C14.2287 80.5666 14.3354 80.642 14.3405 80.7526C14.3507 80.8633 14.2643 80.9638 14.1525 80.9689C13.492 81.0191 12.8671 81.3611 12.4708 81.884C12.0745 82.4069 11.9271 83.1008 12.0643 83.7394C12.0897 83.85 12.0186 83.9556 11.9068 83.9808C11.8916 83.9808 11.8763 83.9808 11.8611 83.9808V83.9908Z" fill="#22263F"/>
<path d="M17.2778 78.4296C17.1711 78.4296 17.0695 78.4195 16.9628 78.3994C16.0229 78.2234 15.403 77.3284 15.5758 76.3982C15.6621 75.9456 15.9162 75.5534 16.3023 75.297C16.6834 75.0405 17.1457 74.945 17.5979 75.0305C18.0501 75.116 18.4464 75.3674 18.7055 75.7445C18.9647 76.1216 19.0663 76.5792 18.9799 77.0267C18.8224 77.8513 18.0958 78.4296 17.2778 78.4296ZM17.2778 75.4076C17.0136 75.4076 16.7596 75.4881 16.536 75.6339C16.2413 75.83 16.0483 76.1317 15.9822 76.4736C15.8501 77.1826 16.3226 77.8664 17.039 78.0022C17.7503 78.1329 18.4464 77.6653 18.5785 76.9513C18.6446 76.6094 18.5683 76.2624 18.3702 75.9708C18.172 75.6842 17.8723 75.4881 17.5217 75.4227C17.4404 75.4076 17.354 75.3975 17.2727 75.3975L17.2778 75.4076Z" fill="#22263F"/>
<path d="M7.97976 76.9211C7.85782 76.9211 7.73588 76.9111 7.61394 76.8859C7.0957 76.7904 6.64351 76.5038 6.34882 76.0714C6.04905 75.6389 5.93727 75.116 6.03381 74.6031C6.23196 73.5421 7.26844 72.8382 8.34049 73.0393C9.41254 73.2354 10.1239 74.2612 9.9257 75.3221C9.82917 75.835 9.53956 76.2825 9.10261 76.5792C8.76728 76.8055 8.38114 76.9262 7.98484 76.9262L7.97976 76.9211ZM6.43011 74.6785C6.3539 75.0858 6.44027 75.5032 6.67907 75.8451C6.91787 76.187 7.27353 76.4133 7.68507 76.4887C8.09662 76.5641 8.51832 76.4786 8.86382 76.2423C9.20931 76.006 9.44303 75.654 9.51924 75.2467C9.67674 74.407 9.11278 73.5924 8.26428 73.4366C7.41579 73.2807 6.5927 73.8388 6.43519 74.6785H6.43011Z" fill="#22263F"/>
<path d="M89.7104 64.0343C90.818 66.3774 81.4236 74.9607 81.4236 74.9607L81.4032 74.9757C80.1737 73.427 76.8864 71.647 75.4638 70.923L79.437 65.2863L73.9497 60.8665C74.9201 60.3134 76.4088 59.3479 77.5418 58.0909C78.8171 56.6779 79.6402 54.4353 80.0213 53.1934C80.0213 53.1934 88.6078 61.6911 89.7053 64.0343H89.7104Z" fill="white"/>
<path d="M64.9667 79.7274C64.8041 79.7777 61.4914 80.7934 61.0088 80.2353C60.5312 79.6922 62.7261 78.1938 62.8937 78.0782C62.721 78.1184 60.2568 78.6665 60.2466 77.7211C60.2314 76.7406 63.539 75.559 63.539 75.559C63.539 75.559 60.9884 75.7601 60.836 75.1115C60.6785 74.4628 62.2891 73.6734 63.7422 73.3063C64.3519 73.1505 65.0734 73.1002 65.7695 73.1102C66.1658 73.1102 66.5621 73.1404 66.9228 73.1857C67.436 73.241 67.8882 73.3265 68.2032 73.427C69.1279 73.7136 70.9316 74.9556 70.9316 74.9556C71.1348 74.1662 72.3288 73.8192 72.3288 73.8192L74.8031 70.5861C74.8031 70.5861 75.0572 70.7067 75.4687 70.9179C76.8863 71.642 80.1735 73.427 81.4082 74.9707C81.5454 75.1467 81.6622 75.3227 81.7435 75.4886L75.1181 79.7676C75.1181 79.7676 72.3999 83.9411 69.3768 81.5577C69.1177 80.9694 68.9246 80.5671 68.8484 80.4163C68.8434 80.4062 68.8332 80.3962 68.8332 80.3861L68.8484 80.4163C68.4471 80.5873 67.817 80.8537 67.1159 81.1353C65.3224 81.8493 63.0512 82.6539 62.8226 82.2466C62.4517 81.5879 64.8397 79.833 64.9769 79.7274H64.9667Z" fill="#FCB831"/>
<path d="M71.3024 44.6856C72.0493 44.8616 72.6488 45.0376 72.9486 45.1934C74.3001 45.9074 80.2802 52.2883 80.2802 52.2883C80.2802 52.2883 80.1938 52.6403 80.0262 53.1884C79.6451 54.4303 78.822 56.6729 77.5467 58.0859C76.4137 59.3429 74.925 60.3084 73.9546 60.8615C73.3551 61.1984 72.9537 61.3844 72.9537 61.3844L66.435 57.4322L65.053 68.072L66.9177 73.1807C66.557 73.1354 66.1657 73.1103 65.7643 73.1053L64.1182 68.1273L64.357 43.4838C64.357 43.4838 68.7163 44.0822 71.3024 44.6806V44.6856Z" fill="white"/>
<path d="M73.0706 113.291H56.7307L54.2056 101.615C61.3644 100.796 70.2507 98.1007 70.2507 98.1007C70.2507 98.1007 69.3514 86.239 67.9999 81.1554L67.1108 81.1404C67.812 80.8588 68.442 80.5973 68.8434 80.4213L69.3768 81.5627C70.2812 83.6042 71.9985 87.9134 72.4152 92.1271C72.9842 97.9247 73.0757 113.291 73.0757 113.291H73.0706Z" fill="#152744"/>
<path d="M71.2922 40.8641C71.6936 42.096 71.6885 43.4536 71.3024 44.6855C68.7163 44.0872 64.3569 43.4888 64.3569 43.4888V43.1921L63.0969 43.0463L62.6701 44.8263L62.5787 44.8062C62.6142 44.6755 62.6345 44.5447 62.6447 44.414C62.8124 42.3625 60.3838 40.7283 60.3838 40.7283L59.896 35.9464C60.2872 35.2978 60.5921 34.6743 60.8055 34.1865C60.9528 33.8446 61.0697 33.4926 61.1611 33.1306L61.2831 33.1608C61.2831 33.1608 61.7454 33.3519 62.1163 33.0854C62.1824 33.0351 62.2637 32.9647 62.35 32.8691C62.6752 33.8949 63.3408 34.8151 64.2248 35.4436C65.49 36.3386 67.1057 36.6102 68.447 37.3795C69.7832 38.1488 70.8146 39.4159 71.2922 40.8741V40.8641Z" fill="#22263F"/>
<path d="M35.3709 97.99C34.9085 97.7839 34.6494 97.6582 34.6494 97.6582L39.6997 75.6093C39.8217 75.5389 39.9233 75.4635 40.0097 75.3931C40.594 74.9003 40.7769 73.2158 40.6397 71.5012L41.0766 69.5955C41.0766 69.5955 39.3187 64.3209 38.7852 60.9067C38.6785 60.1927 38.6175 59.5591 38.6429 59.0714C38.7649 56.6125 44.3436 45.4649 45.7256 42.7295C46.2794 42.639 46.7875 42.5636 47.199 42.5083L44.3487 55.0538C48.8706 57.8646 59.8197 56.6628 59.8197 56.6628L62.665 44.8263L63.0918 43.0463L64.3518 43.1921V43.4888L64.113 68.1323L65.7592 73.1102C65.058 73.0952 64.3416 73.1505 63.7319 73.3063C62.2788 73.6734 60.6682 74.4628 60.8257 75.1115C60.9832 75.7551 63.5287 75.559 63.5287 75.559C63.5287 75.559 60.2262 76.7406 60.2363 77.7211C60.2465 78.6665 62.7107 78.1184 62.8834 78.0782C62.7158 78.1938 60.5259 79.6922 60.9985 80.2353C61.4811 80.7934 64.7938 79.7727 64.9564 79.7274C64.8192 79.828 62.4262 81.5828 62.8021 82.2466C63.0308 82.6539 65.3019 81.8493 67.0954 81.1353L67.9846 81.1504C69.3361 86.234 70.2354 98.0956 70.2354 98.0956C70.2354 98.0956 61.3541 100.791 54.1902 101.61C53.1639 101.731 52.1782 101.806 51.2535 101.837C51.0198 101.842 50.7911 101.847 50.5676 101.847C44.5163 101.847 37.576 98.9806 35.3556 97.985L35.3709 97.99Z" fill="#46CDCF"/>
<path d="M69.367 81.5627L68.8335 80.4213C68.9097 80.5772 69.1028 80.9744 69.3619 81.5627H69.367Z" fill="white"/>
<path d="M68.8232 80.3912C68.8232 80.3912 68.8336 80.4117 68.8389 80.422L68.8232 80.3912Z" fill="white"/>
<path d="M62.35 32.8591C62.2637 32.9546 62.1824 33.03 62.1163 33.0753C61.7454 33.3468 61.2831 33.1507 61.2831 33.1507L61.1611 33.1206C61.2272 32.839 61.2729 32.5574 61.3034 32.2658C61.3593 31.6573 61.4355 30.8478 61.4914 30.1941C61.5168 29.8874 61.5422 29.6209 61.5524 29.4298C61.5524 29.4298 61.8369 28.8315 62.2078 28.5298C62.3196 28.4342 62.4263 28.3739 62.5431 28.3538C62.66 28.3337 62.7667 28.3387 62.8683 28.3789C63.2036 28.5097 63.417 29.0225 63.3967 30.1639C63.3764 31.3858 62.7667 32.3915 62.345 32.8541L62.35 32.8591Z" fill="white"/>
<path d="M62.6649 44.8263L59.8197 56.6628C59.8197 56.6628 48.8705 57.8646 44.3486 55.0538L47.199 42.5083C47.8595 42.4128 48.2863 42.3625 48.332 42.3524C48.1491 43.2525 47.6918 45.8923 48.2202 47.7729C48.2202 47.7729 51.4364 45.651 53.1791 46.018L54.4747 49.6484L56.0345 45.9627C56.0345 45.9627 58.0312 46.9734 59.0372 49.0852C59.0372 49.0852 62.0603 46.7873 62.5735 44.8062L62.6649 44.8263Z" fill="white"/>
<path d="M60.3841 40.7233C60.3841 40.7233 62.8077 42.3574 62.6451 44.409C62.6349 44.5397 62.6146 44.6704 62.579 44.8012C62.0659 46.7773 59.0428 49.0802 59.0428 49.0802C58.0368 46.9684 56.04 45.9577 56.04 45.9577C56.04 45.9577 59.4797 44.5146 60.5467 42.272L60.3892 40.7233H60.3841Z" fill="white"/>
<path d="M62.6294 25.8145C62.6294 26.7649 62.482 27.68 62.2077 28.5398C61.8368 28.8415 61.5523 29.4399 61.5523 29.4399H61.5472C61.5472 29.4399 61.5269 29.4399 61.5167 29.4349C61.4202 29.4198 61.3236 29.4047 61.2322 29.3846C61.1305 29.3645 61.034 29.3444 60.9426 29.3243C57.828 28.565 58.6511 25.9503 57.2133 23.7127C56.9541 23.3105 56.6594 22.9585 56.3546 22.6618C56.1666 22.4808 55.9786 22.3149 55.7855 22.1691C55.7195 22.1188 55.6534 22.0685 55.5874 22.0232C55.4553 21.9277 55.3232 21.8422 55.1911 21.7618C55.125 21.7215 55.059 21.6813 54.998 21.6461C54.8405 21.5556 54.6932 21.4802 54.5458 21.4098C54.2715 21.2791 54.0174 21.1735 53.799 21.098C53.7024 21.0679 53.616 21.0377 53.5347 21.0126C53.5093 21.0025 53.4839 20.9975 53.4585 20.9874C53.4331 20.9774 53.4077 20.9723 53.3823 20.9673C53.362 20.9623 53.3417 20.9522 53.3264 20.9472C53.3061 20.9422 53.2858 20.9371 53.2655 20.9321C53.2248 20.9271 53.1893 20.917 53.1639 20.912C53.0775 20.8919 53.0267 20.8818 53.0267 20.8818C52.4576 21.1684 51.9445 21.4953 51.4821 21.8623C49.5768 23.3658 48.5505 25.4173 48.0018 27.0062C47.9611 27.1269 47.9205 27.2426 47.8849 27.3582C47.8443 27.4889 47.8087 27.6096 47.7731 27.7353C47.7223 27.9214 47.6766 28.0923 47.6359 28.2482C47.6105 28.3588 47.5851 28.4544 47.5648 28.5549C47.5496 28.6102 47.5445 28.6605 47.5343 28.7108C47.5242 28.7611 47.514 28.8114 47.5038 28.8516C47.4937 28.8969 47.4886 28.9421 47.4835 28.9823C47.4683 29.0628 47.453 29.1332 47.4479 29.1985C47.4327 29.2891 47.4225 29.3595 47.4175 29.3997C47.4124 29.4298 47.4124 29.45 47.4124 29.45C47.4124 29.45 47.1279 28.8516 46.762 28.5499C46.4877 27.6951 46.3403 26.78 46.3403 25.8246C46.3403 21.0729 49.9883 17.2213 54.4899 17.2213C58.9915 17.2213 62.6446 21.0729 62.6446 25.8246L62.6294 25.8145Z" fill="#22263F"/>
<path d="M47.804 33.186C47.7278 32.8843 47.6719 32.5775 47.6364 32.2658C47.5601 31.5518 47.5042 30.8176 47.4585 30.1841C47.4382 29.8874 47.423 29.6209 47.4077 29.3896C47.4077 29.3494 47.423 29.279 47.4382 29.1885C47.4433 29.1231 47.4585 29.0527 47.4738 28.9723C47.4788 28.9321 47.489 28.8868 47.4941 28.8415C47.5042 28.8013 47.5144 28.751 47.5246 28.7008C47.5347 28.6505 47.5449 28.6002 47.5601 28.5449C47.5805 28.4493 47.6008 28.3488 47.6262 28.2382C47.6668 28.0823 47.7126 27.9113 47.7634 27.7253C47.7989 27.6046 47.8345 27.4789 47.8751 27.3482C47.9107 27.2325 47.9514 27.1118 47.992 26.9962C48.5407 25.4072 49.5721 23.3557 51.4724 21.8523C51.9347 21.4852 52.4428 21.1584 53.0169 20.8718C53.0169 20.8718 53.0677 20.8818 53.1541 20.9019C53.1846 20.907 53.2202 20.917 53.2557 20.922C53.276 20.9271 53.2964 20.9321 53.3167 20.9371C53.3319 20.9422 53.3573 20.9522 53.3726 20.9572C53.398 20.9623 53.4234 20.9673 53.4488 20.9774C53.4742 20.9874 53.4996 20.9924 53.525 21.0025C53.6063 21.0226 53.6927 21.0528 53.7892 21.088C54.0077 21.1634 54.2617 21.269 54.5361 21.3997C54.6834 21.4701 54.8358 21.5456 54.9883 21.6361C55.0543 21.6713 55.1204 21.7115 55.1813 21.7517C55.2474 21.7919 55.3134 21.8372 55.3744 21.8774C55.5065 21.9679 55.6386 22.0584 55.7707 22.164C55.9638 22.3098 56.1518 22.4707 56.3398 22.6518C56.6446 22.9484 56.9393 23.3004 57.1984 23.7027C58.6363 25.9402 57.8132 28.5549 60.9277 29.3142C61.0192 29.3343 61.1157 29.3544 61.2173 29.3745C61.3088 29.3947 61.4002 29.4097 61.5019 29.4248C61.512 29.4248 61.5222 29.4248 61.5323 29.4298C61.5171 29.6259 61.4968 29.8924 61.4714 30.1941C61.4155 30.8478 61.3393 31.6574 61.2834 32.2658C61.2529 32.5524 61.2072 32.839 61.1411 33.1206C61.0548 33.4826 60.9379 33.8346 60.7855 34.1765C60.567 34.6643 60.2621 35.2878 59.876 35.9364C59.6575 36.3085 59.4035 36.6906 59.124 37.0577C58.0469 38.4908 56.5481 39.773 54.6225 39.8434C54.5666 39.8484 54.5158 39.8484 54.4599 39.8484C54.404 39.8484 54.3583 39.8484 54.3024 39.8434C52.9814 39.7981 51.8585 39.1746 50.9338 38.3248C50.5121 37.9326 50.131 37.4952 49.7906 37.0426C49.0082 36.0118 48.4544 34.8956 48.119 34.1262C47.9869 33.8195 47.8751 33.5027 47.7939 33.1809L47.804 33.186Z" fill="white"/>
<path d="M60.3839 40.7233L60.5414 42.272C59.4744 44.5146 56.0347 45.9577 56.0347 45.9577L54.4749 49.6434L53.1793 46.013C51.3299 44.7207 50.4458 42.2971 50.4458 42.2971L50.6236 40.8942C58.2245 43.8609 59.891 35.9414 59.891 35.9414L60.3788 40.7233H60.3839Z" fill="white"/>
<path d="M59.1443 37.0627C59.4238 36.6956 59.6778 36.3135 59.8963 35.9414C59.8963 35.9414 58.2298 43.8609 50.6289 40.8942L50.7407 40.0143L50.949 38.3349C51.8737 39.1846 52.9966 39.8081 54.3176 39.8534C54.3735 39.8584 54.4192 39.8584 54.4751 39.8584C54.531 39.8584 54.5818 39.8584 54.6377 39.8534C56.5633 39.788 58.0621 38.5008 59.1393 37.0677L59.1443 37.0627Z" fill="#22263F"/>
<path d="M55.7908 22.164C55.9839 22.3098 56.1719 22.4708 56.3599 22.6568C56.1719 22.4758 55.9839 22.3149 55.7908 22.1691C55.6587 22.0685 55.5266 21.973 55.3945 21.8824C55.4606 21.9277 55.5266 21.9679 55.5978 22.0182C55.6638 22.0685 55.7299 22.1137 55.7959 22.164H55.7908Z" fill="white"/>
<path d="M55.5926 22.0182C55.5265 21.9679 55.4554 21.9277 55.3894 21.8824C55.3233 21.8422 55.2573 21.7969 55.1963 21.7567C55.3284 21.8372 55.4605 21.9226 55.5926 22.0182Z" fill="white"/>
<path d="M55.1965 21.7517C55.1304 21.7114 55.0644 21.6763 55.0034 21.6411C55.0695 21.6763 55.1355 21.7165 55.1965 21.7517Z" fill="white"/>
<path d="M53.1792 46.013C51.4365 45.6459 48.2203 47.7679 48.2203 47.7679C47.6919 45.8873 48.1492 43.2525 48.3321 42.3474C48.3727 42.1463 48.3981 42.0306 48.3981 42.0306C48.5811 40.9898 50.7302 40.0093 50.7302 40.0093L50.6185 40.8892L50.4406 42.2921C50.4406 42.2921 51.3247 44.7157 53.1741 46.008L53.1792 46.013Z" fill="white"/>
<path d="M51.2636 101.837L46.3911 114.005H30.5898L35.3658 97.985C37.5861 98.9756 44.5214 101.847 50.5777 101.847C50.8013 101.847 51.0299 101.847 51.2636 101.837Z" fill="#152744"/>
<path d="M47.6362 32.2658C47.6667 32.5776 47.7226 32.8843 47.8039 33.186C47.5651 33.2262 47.1078 33.2715 46.8436 33.0753C46.4727 32.8038 45.5836 31.6423 45.5582 30.164C45.5429 29.4751 45.6141 29.0176 45.7513 28.7309C45.9037 28.4041 46.1374 28.3086 46.4168 28.3538C46.5337 28.3739 46.6455 28.4393 46.7522 28.5298C47.118 28.8365 47.4025 29.4299 47.4025 29.4299C47.4025 29.4299 47.4025 29.4098 47.4076 29.3796C47.4228 29.6159 47.4381 29.8824 47.4584 30.174C47.5041 30.8076 47.56 31.5468 47.6362 32.2608V32.2658Z" fill="white"/>
<path d="M47.6309 28.2432C47.6055 28.3538 47.5801 28.4493 47.5649 28.5499C47.5496 28.6052 47.5395 28.6555 47.5293 28.7058C47.5395 28.6555 47.5496 28.6052 47.5598 28.5499C47.5801 28.4543 47.6055 28.3538 47.6309 28.2432Z" fill="white"/>
<path d="M38.8818 44.6755C39.7201 43.8257 43.231 43.1268 45.7256 42.7245C44.3437 45.4599 38.7599 56.6076 38.643 59.0664C38.6227 59.5541 38.6786 60.1877 38.7853 60.9017C38.3077 60.8765 37.6065 60.7559 36.692 60.3737C34.8324 59.5994 32.668 57.4875 32.668 57.4875C32.668 57.4875 37.5506 46.0281 38.8869 44.6755H38.8818Z" fill="white"/>
<path d="M41.0769 69.5905L40.6399 71.4962C40.518 69.9626 40.1319 68.4088 39.5425 67.6446C38.6127 66.4327 36.5347 63.9337 35.5541 62.747C35.6709 62.4403 35.6658 62.2694 35.6658 62.2694L32.3278 58.2769C32.3278 58.2769 32.3125 57.9702 32.2871 57.5076L32.6682 57.4875C32.6682 57.4875 34.8326 59.5994 36.6922 60.3737C37.6067 60.7508 38.3079 60.8765 38.7855 60.9017C39.3189 64.3209 41.0769 69.5905 41.0769 69.5905Z" fill="white"/>
<path d="M40.6397 71.4962C40.7768 73.2108 40.5939 74.8953 40.0096 75.3881C39.9233 75.4635 39.8166 75.5339 39.6997 75.6043L40.6397 71.4962Z" fill="white"/>
<path d="M40.64 71.4962L39.7001 75.6042C38.3384 76.4138 35.1477 76.9317 33.8521 75.5037C32.6327 74.1511 30.3311 68.3183 29.7417 66.7998C30.6359 66.5283 31.9925 66.0103 33.3643 65.0751C34.8276 64.0795 35.356 63.2398 35.5541 62.747C36.5347 63.9286 38.6128 66.4277 39.5426 67.6445C40.1269 68.4088 40.513 69.9626 40.64 71.4962Z" fill="white"/>
<path d="M35.5538 62.747C35.3607 63.2398 34.8272 64.0795 33.364 65.0751C31.9922 66.0104 30.6356 66.5333 29.7414 66.7998C29.1012 66.9959 28.6998 67.0613 28.6998 67.0613L27.3026 58.9557C25.9054 59.9463 24.9298 59.5088 24.3964 58.7445C23.8019 57.8847 24.8689 57.0701 24.8689 57.0701C22.8975 56.6478 23.8781 54.8828 23.8781 54.8828C22.8518 54.0582 23.5885 53.0978 23.5885 53.0978C23.3954 52.9419 22.4352 51.6949 23.2481 50.8452C24.061 50.0004 26.0883 51.0463 26.0883 51.0463C25.3922 49.563 26.2813 46.6969 26.9876 46.8527C27.6989 47.0086 27.5312 47.9539 28.0037 48.9043C28.4762 49.8496 31.7635 52.4039 31.9668 53.7666C32.1039 54.7018 32.2208 56.4818 32.2868 57.5026C32.3123 57.9652 32.3275 58.2719 32.3275 58.2719L35.6656 62.2643C35.6656 62.2643 35.6707 62.4353 35.5538 62.742V62.747Z" fill="#FCB831"/>
<path d="M81.5607 75.1065L81.4032 74.9757L81.2711 74.8199C83.8623 72.4516 90.381 65.9349 89.5223 64.1248C88.5519 62.0582 81.5099 54.9733 80.1178 53.5805C79.7011 54.8577 78.8984 56.8992 77.6942 58.2317C76.6628 59.3781 75.3266 60.2932 74.3053 60.8966L79.564 65.1304C79.6453 65.1958 79.6656 65.3165 79.6046 65.4019L75.6314 71.0386C75.5654 71.1291 75.4384 71.1543 75.3469 71.0889C75.2554 71.0235 75.23 70.8978 75.2961 70.8073L79.1626 65.3265L73.8277 61.0274C73.7769 60.9871 73.7464 60.9218 73.7515 60.8564C73.7566 60.791 73.7973 60.7307 73.8531 60.6955C74.8693 60.1122 76.3123 59.1669 77.3945 57.9601C78.6545 56.5673 79.4623 54.3398 79.8332 53.138C79.8536 53.0676 79.9095 53.0174 79.9806 53.0023C80.0517 52.9872 80.1229 53.0023 80.1737 53.0576C80.5242 53.4045 88.7958 61.6106 89.9034 63.9538C91.0415 66.3623 82.5413 74.2215 81.5658 75.1115L81.5607 75.1065Z" fill="#22263F"/>
<path d="M66.9128 73.3868C66.8264 73.3868 66.7502 73.3365 66.7197 73.2511L64.8551 68.1424C64.8449 68.1122 64.8398 68.077 64.8449 68.0468L66.2269 57.407C66.237 57.3367 66.2777 57.2813 66.3437 57.2512C66.4047 57.221 66.4809 57.226 66.5368 57.2612L72.959 61.1581C73.1114 61.0827 73.4315 60.9218 73.8481 60.6905C74.8643 60.1072 76.3072 59.1619 77.3894 57.9551C78.6494 56.5623 79.4573 54.3348 79.8282 53.133C79.945 52.771 80.0162 52.4894 80.0568 52.3486C79.3608 51.6095 74.0818 46.0231 72.8573 45.3744C72.6033 45.2387 72.0647 45.0727 71.2569 44.8817C68.7114 44.2934 64.3724 43.695 64.3317 43.69C64.22 43.69 64.1387 43.5995 64.1387 43.4888C64.1387 43.3782 64.2403 43.2877 64.3571 43.2877C64.4283 43.2978 68.7825 43.8961 71.3534 44.4895C72.207 44.6906 72.7608 44.8616 73.0504 45.0174C74.4171 45.7415 80.1889 51.8911 80.4328 52.1525C80.4785 52.2028 80.4989 52.2732 80.4836 52.3386C80.4836 52.3537 80.3972 52.7056 80.2245 53.2537C79.8434 54.4856 79.0102 56.7735 77.6993 58.2267C76.5816 59.4686 75.103 60.4441 74.0564 61.0425C73.4569 61.3794 73.0555 61.5654 73.0402 61.5755C72.9793 61.6056 72.9031 61.6006 72.8472 61.5654L66.5978 57.7741L65.2615 68.0569L67.1109 73.1203C67.1516 73.2259 67.0957 73.3416 66.989 73.3818C66.9636 73.3919 66.9433 73.3919 66.9179 73.3919L66.9128 73.3868Z" fill="#22263F"/>
<path d="M62.6651 45.0275C62.6651 45.0275 62.6296 45.0275 62.6143 45.0224L62.5229 45.0023C62.4721 44.9872 62.4263 44.9571 62.3959 44.9068C62.3654 44.8615 62.3603 44.8062 62.3755 44.7509C62.406 44.6302 62.4263 44.5146 62.4365 44.3989C62.5889 42.4882 60.2873 40.9093 60.267 40.8942C60.2162 40.859 60.1857 40.8088 60.1806 40.7484L59.6929 35.9665C59.6929 35.9213 59.698 35.8811 59.7183 35.8408C60.0434 35.2978 60.3483 34.7145 60.6176 34.1061C60.7598 33.7893 60.8716 33.4424 60.958 33.0854C60.9834 32.9747 61.0952 32.9094 61.207 32.9345L61.3289 32.9647C61.3645 32.9747 61.7252 33.1206 61.9945 32.9194C62.0504 32.8742 62.1266 32.8088 62.1977 32.7284C62.2485 32.673 62.3196 32.6479 62.3908 32.668C62.4619 32.6831 62.5229 32.7334 62.5432 32.8038C62.8633 33.8044 63.5035 34.6793 64.3418 35.2726C65.0226 35.7554 65.8051 36.047 66.6282 36.3588C67.2734 36.6001 67.939 36.8515 68.5487 37.1985C69.9256 37.9929 70.9977 39.3053 71.4854 40.8037C71.897 42.0658 71.902 43.4637 71.4956 44.7459C71.4651 44.8464 71.3584 44.9068 71.2517 44.8816C68.7062 44.2883 64.3672 43.695 64.3215 43.6899C64.2656 43.6899 64.2249 43.6698 64.1894 43.6296C64.1487 43.5894 64.1437 43.5391 64.1437 43.4838V43.3681L63.2494 43.2625L62.8633 44.8666C62.848 44.9168 62.8176 44.9671 62.7718 44.9923C62.7414 45.0124 62.7007 45.0224 62.6651 45.0224V45.0275ZM64.5603 43.3179C65.4393 43.4385 68.8993 43.9414 71.1602 44.4492C71.4854 43.2977 71.4651 42.0558 71.0993 40.9294C70.642 39.5265 69.636 38.2946 68.3455 37.5504C67.7663 37.2186 67.1159 36.9722 66.4859 36.7359C65.673 36.4291 64.8346 36.1174 64.1081 35.5995C63.2799 35.0162 62.6347 34.1815 62.2638 33.2261C62.2587 33.2312 62.2485 33.2362 62.2434 33.2412C61.8979 33.4926 61.4966 33.4273 61.3086 33.377C61.2222 33.6837 61.1206 33.9854 60.9986 34.262C60.7294 34.8654 60.4296 35.4436 60.1095 35.9867L60.582 40.6127C60.9478 40.8741 62.406 42.0055 62.7718 43.514L62.8938 42.996C62.9192 42.8955 63.0157 42.8301 63.1173 42.8402L64.3774 42.986C64.479 42.996 64.5603 43.0865 64.5603 43.1871V43.3078V43.3179Z" fill="#22263F"/>
<path d="M61.6489 33.4223C61.405 33.4223 61.217 33.3469 61.2018 33.3418L61.1103 33.3217C61.0595 33.3117 61.0138 33.2765 60.9833 33.2312C60.9528 33.186 60.9477 33.1307 60.9579 33.0753C61.0189 32.8189 61.0646 32.5474 61.0951 32.2507C61.1052 32.1401 61.2068 32.0546 61.3186 32.0697C61.4304 32.0798 61.5117 32.1803 61.5015 32.2909C61.4761 32.5373 61.4406 32.7636 61.3999 32.9798C61.5269 33.015 61.7861 33.0653 61.9944 32.9144C62.0503 32.8692 62.1265 32.8038 62.1976 32.7234C62.6447 32.2306 63.1731 31.2601 63.1934 30.164C63.2188 28.922 62.9546 28.6354 62.7971 28.57C62.7362 28.5449 62.665 28.5399 62.5837 28.5549C62.5126 28.565 62.4364 28.6103 62.3449 28.6857C62.0553 28.922 61.8115 29.3796 61.7556 29.4952C61.7454 29.6612 61.7251 29.8774 61.7048 30.1187L61.6946 30.2193C61.6844 30.3299 61.5828 30.4154 61.4761 30.4053C61.3643 30.3953 61.278 30.2998 61.2881 30.1891L61.2983 30.0886C61.3186 29.8271 61.3389 29.6008 61.3491 29.4248C61.3491 29.3846 61.3643 29.3494 61.3847 29.3192C61.4507 29.1835 61.7251 28.6656 62.0807 28.379C62.2281 28.2533 62.3703 28.1829 62.5126 28.1577C62.6701 28.1326 62.8124 28.1426 62.9445 28.1929C63.417 28.379 63.6253 29.0075 63.605 30.169C63.5847 31.3758 63.0207 32.4217 62.5024 32.9899C62.411 33.0904 62.3195 33.1759 62.2382 33.2363C62.0452 33.377 61.8318 33.4223 61.6489 33.4223Z" fill="#22263F"/>
<path d="M54.5105 57.1255C51.0454 57.1255 46.7267 56.7685 44.2422 55.2248C44.1711 55.1795 44.1304 55.0941 44.1507 55.0086L47.0011 42.4631C47.0214 42.3826 47.0874 42.3173 47.1687 42.3072C47.7124 42.2268 48.1036 42.1765 48.2509 42.1614H48.3068C48.3729 42.1463 48.4389 42.1664 48.4847 42.2167C48.5304 42.267 48.5507 42.3324 48.5355 42.3977C48.3424 43.3531 47.9563 45.6862 48.3526 47.4561C49.1502 46.9634 51.6805 45.5002 53.22 45.827C53.2911 45.8421 53.347 45.8924 53.3724 45.9577L54.4902 49.0903L55.8467 45.8873C55.8671 45.837 55.9128 45.7968 55.9636 45.7767C56.0195 45.7566 56.0754 45.7616 56.1262 45.7868C56.2075 45.827 58.0569 46.7824 59.1035 48.7735C59.7742 48.2305 61.959 46.36 62.3705 44.761C62.3959 44.6554 62.5077 44.59 62.6195 44.6152L62.7109 44.6353C62.8176 44.6604 62.8837 44.7711 62.8583 44.8817L60.013 56.7182C59.9927 56.8037 59.9215 56.864 59.8352 56.8741C59.6319 56.8942 57.3557 57.1406 54.5003 57.1406L54.5105 57.1255ZM44.5826 54.9533C48.7844 57.4322 58.3668 56.5975 59.6523 56.4718L62.1215 46.2091C61.0749 47.7729 59.261 49.1657 59.1645 49.2412C59.1137 49.2764 59.0527 49.2915 58.9918 49.2764C58.9308 49.2613 58.88 49.2211 58.8546 49.1657C58.0721 47.5215 56.6546 46.5561 56.1364 46.2494L54.668 49.7239C54.6375 49.7993 54.5359 49.8496 54.4749 49.8496C54.3886 49.8496 54.3174 49.7943 54.2869 49.7138L53.032 46.1941C51.3655 45.9577 48.3729 47.9187 48.3424 47.9389C48.2865 47.9741 48.2205 47.9841 48.1595 47.959C48.0985 47.9389 48.0528 47.8835 48.0325 47.8232C47.5447 46.0935 47.8699 43.7554 48.0833 42.5888C47.9105 42.6089 47.6667 42.6441 47.372 42.6843L44.5877 54.9533H44.5826Z" fill="#22263F"/>
<path d="M59.0376 49.2814C59.0376 49.2814 59.0071 49.2814 58.9868 49.2763C58.9258 49.2612 58.875 49.221 58.8496 49.1657C57.8894 47.1443 55.9587 46.1488 55.9383 46.1387C55.8672 46.1035 55.8215 46.0281 55.8266 45.9527C55.8266 45.8722 55.8774 45.8018 55.9485 45.7716C55.9841 45.7565 59.2764 44.3537 60.3231 42.2368L60.1706 40.7484C60.1605 40.668 60.2011 40.5925 60.2672 40.5523C60.3332 40.5121 60.4196 40.5171 60.4857 40.5573C60.5873 40.6277 63.0057 42.2871 62.833 44.4291C62.8228 44.5699 62.7974 44.7107 62.7568 44.8565C62.2334 46.8728 59.2713 49.1456 59.1494 49.2411C59.1138 49.2663 59.0681 49.2814 59.0224 49.2814H59.0376ZM56.4769 45.9778C57.0815 46.3549 58.3161 47.265 59.1088 48.7634C59.7794 48.2204 61.9642 46.3499 62.3757 44.7509C62.4062 44.6302 62.4316 44.5095 62.4367 44.3939C62.5535 42.9608 61.2833 41.7138 60.633 41.1708L60.7448 42.2468C60.7448 42.282 60.7448 42.3223 60.7245 42.3524C59.8353 44.2229 57.4067 45.5303 56.4769 45.9728V45.9778Z" fill="#22263F"/>
<path d="M61.5575 29.641C61.5575 29.641 61.5017 29.641 61.4763 29.6259C61.3797 29.6109 61.2832 29.5958 61.1917 29.5757C61.1308 29.5656 61.0647 29.5505 61.0037 29.5354L60.9072 29.5153C58.7529 28.9874 58.3668 27.5996 57.9603 26.1313C57.7469 25.362 57.5285 24.5675 57.0458 23.8133C56.8121 23.4512 56.5326 23.1093 56.2176 22.7976C56.0296 22.6166 55.8518 22.4607 55.6689 22.3249L55.4707 22.1791C55.3437 22.0936 55.2167 22.0081 55.0897 21.9277C55.0897 21.9277 55.0795 21.9227 55.0744 21.9176C55.0186 21.8824 54.9576 21.8472 54.9017 21.8171C54.7493 21.7266 54.6019 21.6511 54.4597 21.5858C54.2209 21.4701 53.977 21.3696 53.7331 21.2841C53.6467 21.2539 53.5604 21.2288 53.4842 21.2036L53.4435 21.1885L53.3876 21.1684L53.3368 21.1584L53.2504 21.1332C53.2504 21.1332 53.2149 21.1282 53.1996 21.1232C53.1996 21.1232 53.1691 21.1232 53.1437 21.1131C53.1082 21.1031 53.0777 21.098 53.0523 21.093C52.529 21.3595 52.0463 21.6712 51.6093 22.0182C49.7091 23.5166 48.7031 25.5933 48.195 27.0666C48.1544 27.1872 48.1137 27.3029 48.0782 27.4135C48.0426 27.5141 48.0172 27.6146 47.9867 27.7102L47.9613 27.7906C47.9105 27.9716 47.8648 28.1376 47.8292 28.2935L47.8089 28.384C47.7937 28.4544 47.7733 28.5248 47.7632 28.5901C47.753 28.6404 47.7428 28.6806 47.7378 28.7209C47.7225 28.7963 47.7124 28.8466 47.7022 28.8918C47.6971 28.927 47.687 28.9622 47.6819 28.9974C47.6616 29.0929 47.6514 29.1583 47.6463 29.2136C47.6311 29.3092 47.6209 29.3745 47.6158 29.4097C47.6107 29.5002 47.5345 29.6008 47.4431 29.6159C47.3516 29.636 47.2551 29.6109 47.2195 29.5254C47.2195 29.5203 46.9502 28.9622 46.62 28.6907C46.5895 28.6655 46.5692 28.6354 46.5539 28.5951C46.2694 27.7051 46.1221 26.7699 46.1221 25.8095C46.1221 20.9522 49.8717 17 54.4749 17C59.0781 17 62.8328 20.9522 62.8328 25.8095C62.8328 26.7699 62.6855 27.7051 62.401 28.5951C62.3908 28.6303 62.3654 28.6655 62.3349 28.6907C62.0047 28.9572 61.7354 29.5153 61.7354 29.5203C61.6998 29.5907 61.6287 29.636 61.5525 29.636L61.5575 29.641ZM55.3234 21.5958C55.4504 21.6763 55.5825 21.7618 55.7146 21.8523L55.9179 22.0031C56.116 22.1489 56.304 22.3199 56.5072 22.511C56.8476 22.8428 57.1474 23.2099 57.3964 23.5971C57.9095 24.4016 58.1382 25.2262 58.3566 26.0257C58.7631 27.494 59.0832 28.6555 60.9987 29.1231L61.0952 29.1432C61.1562 29.1583 61.2171 29.1684 61.2781 29.1835C61.334 29.1935 61.3899 29.2036 61.4458 29.2136C61.5525 29.0175 61.7659 28.6605 62.0351 28.4192C62.2943 27.5845 62.4314 26.7096 62.4314 25.8095C62.4314 21.1785 58.8647 17.4073 54.4851 17.4073C50.1054 17.4073 46.5387 21.1785 46.5387 25.8095C46.5387 26.7096 46.6708 27.5845 46.935 28.4192C47.0722 28.5398 47.1941 28.6957 47.2957 28.8415C47.2957 28.8264 47.3008 28.8114 47.3059 28.7963C47.3161 28.7561 47.3262 28.7108 47.3364 28.6605C47.3516 28.5951 47.3567 28.5449 47.3719 28.4996C47.3821 28.4342 47.4024 28.3638 47.4228 28.2834L47.4431 28.1929C47.4837 28.032 47.5295 27.861 47.5803 27.6699L47.6057 27.5895C47.6361 27.4889 47.6666 27.3884 47.6971 27.2878C47.7327 27.1722 47.7733 27.0515 47.814 26.9308C48.3424 25.4072 49.3839 23.2602 51.3604 21.6964C51.838 21.3193 52.3664 20.9824 52.9405 20.6958C52.9812 20.6757 53.0269 20.6706 53.0726 20.6757C53.0726 20.6757 53.1285 20.6857 53.22 20.7058L53.3165 20.7259L53.2809 20.9271L53.3571 20.736C53.3571 20.736 53.4079 20.7511 53.413 20.7511C53.413 20.7511 53.4587 20.7662 53.4638 20.7662C53.4943 20.7712 53.5197 20.7762 53.5502 20.7863L53.6264 20.8114C53.6975 20.8315 53.789 20.8617 53.8855 20.8919C54.1447 20.9824 54.4038 21.093 54.6527 21.2137C54.8052 21.2841 54.9576 21.3645 55.1202 21.4601C55.1811 21.4953 55.2523 21.5355 55.3183 21.5757C55.3234 21.5757 55.3336 21.5858 55.3386 21.5908L55.3234 21.5958Z" fill="#22263F"/>
<path d="M54.4801 40.0596C54.414 40.0596 54.3581 40.0596 54.2921 40.0546C53.0727 40.0143 51.8939 39.4864 50.8066 38.4857C50.4002 38.1086 50.0039 37.6661 49.6381 37.1784C49.0131 36.3538 48.4288 35.333 47.9411 34.2218C47.7988 33.895 47.687 33.5681 47.6057 33.2463C47.5244 32.9396 47.4686 32.6178 47.433 32.296C47.4228 32.1854 47.5041 32.0848 47.6159 32.0747C47.7226 32.0596 47.8293 32.1451 47.8394 32.2557C47.8699 32.5574 47.9258 32.8591 48.002 33.1457C48.0833 33.4525 48.1849 33.7542 48.317 34.0609C48.7896 35.142 49.3586 36.1325 49.9632 36.937C50.3189 37.4047 50.6949 37.827 51.0861 38.1891C52.0972 39.1193 53.1895 39.6121 54.3226 39.6523C54.3835 39.6573 54.4242 39.6573 54.475 39.6573C54.5258 39.6573 54.5715 39.6573 54.6172 39.6523C56.2075 39.597 57.6708 38.6869 58.9816 36.9471C59.2459 36.6002 59.4948 36.2281 59.7234 35.8409C60.0486 35.2978 60.3535 34.7146 60.6228 34.1011C60.765 33.7843 60.8768 33.4374 60.9632 33.0804C61.0241 32.8239 61.0699 32.5524 61.1003 32.2557C61.1105 32.1451 61.2121 32.0596 61.3239 32.0747C61.4357 32.0848 61.517 32.1854 61.5068 32.296C61.4763 32.6128 61.4255 32.8994 61.3595 33.1759C61.268 33.5581 61.1461 33.9251 60.9936 34.267C60.7142 34.8956 60.4043 35.4939 60.0689 36.047C59.8352 36.4443 59.5761 36.8264 59.3068 37.1885C57.9198 39.0288 56.3549 39.9942 54.6477 40.0546C54.602 40.0596 54.541 40.0596 54.4801 40.0596Z" fill="#22263F"/>
<path d="M61.4913 30.4053C61.4913 30.4053 61.4812 30.4053 61.4761 30.4053C61.3643 30.3952 61.2779 30.2997 61.2881 30.1891L61.2983 30.0885C61.3135 29.9125 61.3287 29.7466 61.3389 29.6058C61.2932 29.5957 61.2424 29.5907 61.1966 29.5807C61.1357 29.5706 61.0696 29.5555 61.0086 29.5404L60.9121 29.5203C58.7578 28.9924 58.3717 27.6046 57.9652 26.1363C57.7518 25.367 57.5334 24.5725 57.0507 23.8183C56.817 23.4563 56.5375 23.1143 56.2225 22.8026C56.0295 22.6216 55.8516 22.4657 55.6738 22.3299C55.5417 22.2294 55.4147 22.1389 55.2826 22.0483L55.1098 21.9377C55.1098 21.9377 55.0946 21.9327 55.0895 21.9277C55.0285 21.8874 54.9676 21.8522 54.9066 21.8221C54.7542 21.7316 54.6068 21.6561 54.4646 21.5908C54.2258 21.4751 53.9819 21.3746 53.738 21.2891C53.6516 21.2589 53.5653 21.2338 53.4891 21.2086L53.4484 21.1935L53.3925 21.1734L53.3417 21.1634L53.2553 21.1382C53.2553 21.1382 53.2198 21.1332 53.2045 21.1282C53.2045 21.1282 53.174 21.1282 53.1486 21.1181C53.1131 21.1081 53.0826 21.103 53.0572 21.098C52.5339 21.3645 52.0512 21.6763 51.6142 22.0232C49.714 23.5216 48.708 25.5983 48.1999 27.0716C48.1593 27.1922 48.1186 27.3079 48.0831 27.4185C48.0475 27.5191 48.0221 27.6196 47.9916 27.7152L47.9662 27.7956C47.9154 27.9767 47.8697 28.1426 47.8341 28.2985C47.8087 28.4041 47.7884 28.4996 47.7681 28.5951C47.7477 28.6706 47.7376 28.7108 47.7325 28.751C47.7223 28.8013 47.7122 28.8566 47.702 28.8968C47.6969 28.932 47.6868 28.9672 47.6817 29.0024C47.6614 29.098 47.6512 29.1633 47.6461 29.2186C47.6309 29.3142 47.6207 29.3795 47.6156 29.4147L47.6665 30.179L47.2549 30.1941L47.2041 29.4097C47.2041 29.3343 47.2193 29.2589 47.2346 29.1583C47.2346 29.103 47.2549 29.0276 47.2702 28.9421C47.2752 28.8968 47.2854 28.8516 47.2956 28.8063C47.3057 28.7661 47.3159 28.7208 47.326 28.6706C47.3362 28.6253 47.3464 28.58 47.3565 28.5348C47.3819 28.4191 47.4023 28.3186 47.4327 28.208C47.4734 28.047 47.5191 27.8761 47.5699 27.685L47.5953 27.6046C47.6258 27.504 47.6563 27.4034 47.6868 27.3029C47.7223 27.1872 47.763 27.0665 47.8036 26.9459C48.332 25.4223 49.3736 23.2752 51.35 21.7115C51.8276 21.3343 52.356 20.9974 52.9302 20.7108C52.9708 20.6907 53.0165 20.6857 53.0623 20.6907C53.0623 20.6907 53.1182 20.7008 53.2096 20.7209L53.3061 20.741L53.2706 20.9421L53.3468 20.7511C53.3468 20.7511 53.3976 20.7661 53.4027 20.7661C53.4027 20.7661 53.4484 20.7812 53.4535 20.7812C53.484 20.7863 53.5094 20.7913 53.5399 20.8013L53.6161 20.8265C53.6872 20.8466 53.7787 20.8768 53.8752 20.9069C54.1343 20.9974 54.3934 21.1081 54.6424 21.2287C54.7948 21.2991 54.9472 21.3796 55.1098 21.4751C55.1657 21.5053 55.2318 21.5455 55.2927 21.5807C55.3029 21.5807 55.308 21.5908 55.3181 21.5958L55.5112 21.7215C55.6535 21.817 55.7907 21.9126 55.9228 22.0182C56.1108 22.159 56.2987 22.3249 56.5071 22.521C56.8475 22.8529 57.1472 23.2199 57.3962 23.6121C57.9094 24.4167 58.138 25.2413 58.3565 26.0408C58.7629 27.509 59.083 28.6706 60.9985 29.1382L61.095 29.1583C61.156 29.1734 61.217 29.1834 61.2779 29.1985C61.3694 29.2186 61.4608 29.2337 61.5523 29.2488C61.5574 29.2488 61.5726 29.2488 61.5828 29.2538C61.6285 29.2589 61.6692 29.284 61.6996 29.3142C61.7403 29.3544 61.7606 29.4097 61.7555 29.465C61.7454 29.641 61.725 29.8673 61.7047 30.1338L61.6946 30.2343C61.6844 30.3399 61.598 30.4204 61.4913 30.4204V30.4053Z" fill="#22263F"/>
<path d="M54.4799 49.8445H54.4748C54.3885 49.8445 54.3173 49.7892 54.2868 49.7088L53.0116 46.1387C51.1672 44.8163 50.2933 42.4631 50.2578 42.3625C50.2476 42.3323 50.2425 42.3022 50.2476 42.267L50.4254 40.8591C50.4356 40.7987 50.4712 40.7434 50.522 40.7082C50.5779 40.678 50.6439 40.673 50.6998 40.6931C52.8795 41.5429 54.7644 41.563 56.3039 40.7384C58.9358 39.3355 59.6826 35.9213 59.6928 35.8861C59.7131 35.7906 59.8046 35.7151 59.9062 35.7252C60.0078 35.7302 60.0891 35.8057 60.0993 35.9062L60.7496 42.2368C60.7496 42.272 60.7496 42.3122 60.7293 42.3424C59.7182 44.4643 56.7307 45.8622 56.1972 46.0935L54.6679 49.7037C54.6374 49.7792 54.5612 49.8295 54.4799 49.8295V49.8445ZM50.6591 42.272C50.7912 42.6039 51.6651 44.7006 53.3012 45.8471C53.3367 45.8722 53.3621 45.9074 53.3774 45.9426L54.4952 49.0752L55.8517 45.8722C55.872 45.8219 55.9127 45.7867 55.9584 45.7666C55.994 45.7515 59.2863 44.3487 60.333 42.2318L60.1806 40.7434L59.7944 36.9823C59.3626 38.1639 58.4023 40.0948 56.5021 41.1105C54.9118 41.9602 52.9912 41.9854 50.7963 41.1758L50.6591 42.277V42.272Z" fill="#22263F"/>
<path d="M56.36 22.8579C56.3092 22.8579 56.2584 22.8378 56.2178 22.8026C56.0247 22.6166 55.8469 22.4657 55.669 22.3299C55.5369 22.2294 55.4099 22.1389 55.2778 22.0484C55.1864 21.983 55.161 21.8573 55.227 21.7668C55.2931 21.6763 55.4201 21.6511 55.5115 21.7165C55.5115 21.7165 55.5115 21.7165 55.5166 21.7165L55.5979 21.7718C55.6386 21.797 55.6741 21.8221 55.7148 21.8523L55.918 22.0031C56.1162 22.1489 56.3041 22.3149 56.5023 22.511C56.5836 22.5914 56.5836 22.7171 56.5023 22.7976C56.4617 22.8378 56.4108 22.8579 56.355 22.8579H56.36Z" fill="#22263F"/>
<path d="M55.5928 22.2193C55.5521 22.2193 55.5115 22.2093 55.4759 22.1841C55.4657 22.1791 55.4556 22.1691 55.4454 22.164C55.42 22.1489 55.3946 22.1288 55.3692 22.1137L55.0847 21.9277C54.9881 21.8674 54.9627 21.7417 55.0237 21.6511C55.0847 21.5556 55.2117 21.5305 55.3031 21.5908C55.4251 21.6662 55.5521 21.7467 55.6791 21.8372C55.6893 21.8422 55.6995 21.8523 55.7096 21.8573C55.8011 21.9227 55.8214 22.0484 55.7553 22.1389C55.7147 22.1942 55.6537 22.2244 55.5877 22.2244L55.5928 22.2193Z" fill="#22263F"/>
<path d="M55.1966 21.9578C55.0848 21.9578 54.9883 21.8673 54.9883 21.7567C54.9883 21.6763 55.0391 21.6008 55.1153 21.5656C55.1915 21.5355 55.2779 21.5505 55.3389 21.6059C55.3947 21.6662 55.4151 21.7567 55.3846 21.8321C55.3541 21.9076 55.2779 21.9578 55.1966 21.9578Z" fill="#22263F"/>
<path d="M55.1966 21.9578C55.1559 21.9578 55.1204 21.9478 55.0848 21.9277C55.0238 21.8874 54.968 21.8522 54.907 21.8221C54.8409 21.7869 54.8003 21.7165 54.8003 21.6461C54.8003 21.6109 54.8105 21.5807 54.8257 21.5505C54.8816 21.45 55.0035 21.4148 55.1051 21.4701C55.1712 21.5053 55.2322 21.5405 55.2982 21.5807C55.3592 21.6159 55.3998 21.6813 55.3998 21.7567C55.3998 21.8321 55.3592 21.9025 55.2931 21.9377C55.2626 21.9528 55.2271 21.9629 55.1966 21.9629V21.9578Z" fill="#22263F"/>
<path d="M48.2257 47.974C48.2257 47.974 48.18 47.974 48.1546 47.9589C48.0936 47.9388 48.0479 47.8835 48.0276 47.8232C47.4992 45.9476 47.926 43.343 48.1343 42.3122C48.1343 42.3021 48.1393 42.2921 48.1444 42.277C48.18 42.091 48.2105 41.9803 48.2105 41.9803C48.4035 40.8791 50.4257 39.9288 50.6543 39.8232C50.7204 39.793 50.8017 39.7981 50.8627 39.8433C50.9236 39.8886 50.9541 39.959 50.9439 40.0294L50.6594 42.2669C50.7915 42.5988 51.6654 44.6956 53.3014 45.842C53.3827 45.8973 53.4081 46.0029 53.3726 46.0884C53.3319 46.1739 53.2354 46.2242 53.1439 46.2041C51.5079 45.8521 48.3731 47.9086 48.3426 47.9288C48.307 47.9489 48.2714 47.964 48.2308 47.964L48.2257 47.974ZM48.5306 42.4279C48.3375 43.4033 47.9666 45.7012 48.3578 47.4511C49.0488 47.0237 51.0354 45.8722 52.5546 45.7817C51.0252 44.4341 50.2936 42.4681 50.2631 42.3725C50.253 42.3424 50.2479 42.3122 50.253 42.277L50.4968 40.3663C49.816 40.7283 48.7287 41.4272 48.6169 42.0708C48.6169 42.091 48.5865 42.2016 48.5458 42.3927C48.5458 42.4027 48.5407 42.4178 48.5356 42.4279H48.5306Z" fill="#22263F"/>
<path d="M47.4176 33.4273C47.1788 33.4273 46.9196 33.3871 46.7215 33.2463C46.2591 32.9094 45.3802 31.6574 45.3497 30.1791C45.3344 29.4902 45.4056 28.9924 45.558 28.6605C45.7866 28.1728 46.1626 28.1225 46.442 28.1678C46.5996 28.1979 46.7469 28.2734 46.879 28.394C47.1635 28.6304 47.4023 29.0226 47.5141 29.2287C47.5649 29.2639 47.6056 29.3192 47.6106 29.3846L47.6614 30.1791L47.2499 30.1941L47.2042 29.5204C47.1635 29.4399 46.9146 28.9471 46.6097 28.7008C46.5233 28.6253 46.442 28.5851 46.3658 28.57C46.1575 28.5348 46.0305 28.6153 45.9289 28.8365C45.8019 29.108 45.746 29.5606 45.7561 30.1791C45.7866 31.6071 46.6605 32.7133 46.9603 32.9295C47.0771 33.015 47.2855 33.0502 47.5446 33.0301C47.4938 32.7938 47.4531 32.5474 47.4277 32.301C47.4176 32.1904 47.4989 32.0898 47.6106 32.0797C47.7173 32.0647 47.824 32.1501 47.8342 32.2608C47.8647 32.5625 47.9206 32.8641 47.9968 33.1508C48.012 33.2061 47.9968 33.2614 47.9714 33.3117C47.9409 33.3569 47.8901 33.3921 47.8342 33.4022C47.7224 33.4223 47.5751 33.4424 47.4125 33.4424L47.4176 33.4273Z" fill="#22263F"/>
<path d="M47.5246 28.9018C47.5246 28.9018 47.4992 28.9018 47.4839 28.9018C47.3721 28.8817 47.301 28.7761 47.3213 28.6655C47.3366 28.6002 47.3417 28.5499 47.3569 28.5046C47.3671 28.4393 47.3874 28.3689 47.4077 28.2884L47.428 28.1979C47.4534 28.0873 47.5652 28.0169 47.6719 28.047C47.7684 28.0672 47.8294 28.1526 47.8294 28.2431C47.8294 28.2582 47.8294 28.2733 47.8243 28.2884C47.7989 28.394 47.7786 28.4946 47.7583 28.5851C47.738 28.6605 47.7278 28.7007 47.7227 28.7409C47.7024 28.8365 47.616 28.9069 47.5246 28.9069V28.9018Z" fill="#22263F"/>
<path d="M38.7856 61.1028C38.7856 61.1028 38.7805 61.1028 38.7754 61.1028C38.1251 61.0676 37.3985 60.8866 36.611 60.5597C34.7362 59.7804 32.6073 57.7188 32.5209 57.6333C32.46 57.5729 32.4447 57.4875 32.4752 57.412C32.6734 56.9444 37.3883 45.9024 38.7348 44.5347C39.5985 43.6598 42.9975 42.9608 45.6904 42.5234C45.7971 42.5033 45.9088 42.5787 45.9241 42.6893C45.9444 42.7999 45.8682 42.9055 45.7564 42.9206C42.0322 43.519 39.6391 44.1928 39.0244 44.8112C37.805 46.0482 33.4456 56.1701 32.902 57.4322C33.344 57.8495 35.1833 59.5239 36.7634 60.1776C37.495 60.4793 38.1962 60.6553 38.7906 60.6905C38.9024 60.6955 38.9888 60.791 38.9837 60.9017C38.9786 61.0072 38.8872 61.0927 38.7805 61.0927L38.7856 61.1028Z" fill="#22263F"/>
<path d="M38.7856 61.1028C38.7856 61.1028 38.7805 61.1028 38.7755 61.1028C38.1251 61.0676 37.3986 60.8866 36.611 60.5597C35.0614 59.9161 33.339 58.3925 32.7344 57.8394L32.5108 58.3573C32.4651 58.4629 32.3432 58.5082 32.2415 58.4629C32.1348 58.4177 32.0891 58.302 32.1348 58.1964L32.4702 57.407C32.4956 57.3467 32.5515 57.3014 32.6175 57.2863C32.6836 57.2712 32.7547 57.2914 32.8004 57.3416C32.8208 57.3618 34.9598 59.4334 36.7635 60.1826C37.4951 60.4843 38.1962 60.6603 38.7907 60.6955C38.9025 60.7005 38.9888 60.7961 38.9838 60.9067C38.9787 61.0123 38.8872 61.0977 38.7805 61.0977L38.7856 61.1028Z" fill="#22263F"/>
<path d="M40.6399 71.7023C40.5332 71.7023 40.4468 71.6219 40.4366 71.5163C40.3045 69.8821 39.9032 68.444 39.3798 67.7703C38.4907 66.6138 36.56 64.2857 35.5235 63.0387L35.3914 62.8828C35.3203 62.7973 35.3304 62.6666 35.4219 62.5962C35.5083 62.5258 35.6404 62.5358 35.7115 62.6264L35.8436 62.7822C36.8801 64.0343 38.8159 66.3623 39.7101 67.5239C40.3858 68.3988 40.7415 70.1436 40.8482 71.4811C40.8584 71.5917 40.772 71.6923 40.6602 71.6973C40.6551 71.6973 40.65 71.6973 40.645 71.6973L40.6399 71.7023Z" fill="#22263F"/>
<path d="M39.6998 75.8104C39.6287 75.8104 39.5626 75.7753 39.522 75.7099C39.4661 75.6143 39.4966 75.4886 39.5931 75.4333C39.6998 75.368 39.7964 75.3026 39.8776 75.2372C40.3502 74.84 40.5788 73.3064 40.4365 71.5163C40.4264 71.4057 40.5127 71.3051 40.6245 71.3001C40.7363 71.3001 40.8379 71.3755 40.843 71.4862C40.97 73.06 40.8532 74.9506 40.1419 75.549C40.0453 75.6345 39.9285 75.7099 39.8014 75.7853C39.771 75.8054 39.7303 75.8155 39.6947 75.8155L39.6998 75.8104Z" fill="#22263F"/>
<path d="M40.6399 71.7023C40.5332 71.7023 40.4468 71.6219 40.4366 71.5163C40.3045 69.8821 39.9032 68.444 39.3798 67.7703C38.4907 66.6138 36.56 64.2857 35.5235 63.0387L35.3914 62.8828C35.3203 62.7973 35.3304 62.6666 35.4219 62.5962C35.5083 62.5258 35.6404 62.5358 35.7115 62.6264L35.8436 62.7822C36.8801 64.0343 38.8159 66.3623 39.7101 67.5239C40.3858 68.3988 40.7415 70.1436 40.8482 71.4811C40.8584 71.5917 40.772 71.6923 40.6602 71.6973C40.6551 71.6973 40.65 71.6973 40.645 71.6973L40.6399 71.7023Z" fill="#22263F"/>
<path d="M36.423 76.6149C35.3662 76.6149 34.3449 76.3535 33.6997 75.6445C32.5158 74.3321 30.4022 69.0776 29.5486 66.8752C29.508 66.7696 29.5588 66.654 29.6655 66.6137C29.7722 66.5735 29.889 66.6238 29.9297 66.7294C30.5902 68.4289 32.8308 74.0757 33.9994 75.373C35.2391 76.7406 38.3232 76.1875 39.5883 75.4333C39.6848 75.378 39.8119 75.4081 39.8677 75.5037C39.9236 75.5992 39.8932 75.7249 39.7966 75.7802C39.0701 76.2127 37.7186 76.6099 36.4128 76.6099L36.423 76.6149Z" fill="#22263F"/>
<path d="M34.1314 22.0685C34.4362 22.0182 34.7462 21.9729 35.051 21.9226C34.7208 25.1005 34.172 28.2532 33.3947 31.3556H33.2168C27.7601 31.1344 22.4557 32.2909 22.4557 32.2909C21.8917 32.3764 16.8414 33.1759 12.101 35.162L12.0807 35.0866C10.3227 32.5725 8.6918 29.9779 7.20312 27.2978C7.5283 27.3531 7.84839 27.4085 8.17356 27.4638C8.18372 27.1822 8.19388 26.9006 8.20404 26.619C8.43776 26.79 8.78834 26.79 9.02205 26.614C9.25069 26.438 9.34214 26.1011 9.23037 25.8346C10.2719 27.328 11.3084 28.8264 12.3449 30.3198C11.6742 28.4694 11.0036 26.6241 10.3329 24.7737C10.5717 24.9496 10.8105 25.1256 11.0544 25.3016C11.1712 25.0703 11.2881 24.8441 11.4049 24.6178C11.6844 24.8792 12.2433 24.5474 12.1417 24.1803C12.3297 24.2457 12.5176 24.3111 12.7006 24.3815C12.6955 24.3161 12.7006 24.2507 12.7209 24.1904C12.731 24.0345 12.7564 23.8887 12.8276 23.7529C12.9343 23.5367 13.1883 23.3758 13.422 23.4462C13.5236 23.4764 13.61 23.5518 13.7167 23.5669C13.8539 23.592 13.9962 23.4965 14.0724 23.3808C14.1486 23.2602 14.174 23.1194 14.2045 22.9786C14.8955 24.3412 15.5458 25.724 16.1555 27.1218C16.2927 27.3733 16.4299 27.6297 16.562 27.8861C16.4756 26.1967 16.3892 24.5072 16.3028 22.8177C16.3841 22.9685 16.4603 23.1093 16.5416 23.2602C16.6179 23.0741 16.6941 22.8881 16.7703 22.702C16.8617 22.8076 16.9481 22.9182 17.0345 23.0238C17.1717 22.8328 17.3139 22.6417 17.4511 22.4506L17.7356 22.6517C17.9033 22.4908 18.076 22.3249 18.2437 22.164C19.5088 23.3859 20.0372 25.1457 20.525 26.8252C20.7638 25.2513 20.8044 23.6524 20.6571 22.0634C20.7333 22.1288 20.8146 22.1992 20.8908 22.2646C20.9569 22.1137 21.0178 21.9578 21.0839 21.807C21.1703 21.8824 21.2515 21.9578 21.3379 22.0333C21.5005 21.8422 21.658 21.6561 21.8206 21.4651C21.9121 21.5656 22.0035 21.6662 22.0899 21.7668C22.2575 21.7064 22.4201 21.6511 22.5827 21.5908C24.0358 23.8283 24.6404 26.4883 25.2197 29.0879C25.0215 26.5486 24.8183 24.0144 24.6201 21.4751C24.7116 21.5355 24.8081 21.6008 24.9046 21.6662C25.0063 21.5606 25.113 21.46 25.2197 21.3544C25.3619 21.445 25.5093 21.5304 25.6515 21.6209C26.6778 21.3192 27.7601 21.2086 28.827 21.2891C29.2894 21.3243 29.7822 21.4148 30.0921 21.7567C30.4224 22.1137 30.4478 22.6467 30.4529 23.1344C30.4732 24.5574 30.4986 25.9855 30.5189 27.4085C30.9051 25.3972 31.464 23.4211 32.1854 21.5053C32.3074 21.631 32.4242 21.7567 32.5462 21.8824C32.6884 21.807 32.8307 21.7316 32.973 21.6511C33.0492 21.7466 33.1254 21.8472 33.2067 21.9377C33.3947 21.8372 33.5827 21.7316 33.7706 21.631C33.8875 21.7768 34.0044 21.9226 34.1161 22.0735L34.1314 22.0685Z" fill="white"/>
<path d="M33.4 31.3556C33.6693 31.3657 33.9335 31.3808 34.2027 31.4009C34.2027 31.4009 33.7912 33.4424 32.4041 35.871C31.2711 37.8471 29.3099 39.2349 27.049 39.6422L23.9649 40.2003L20.8352 40.7685C18.5691 41.1758 16.2421 40.5674 14.4791 39.1092C12.3197 37.3242 11.207 35.5542 11.207 35.5542C11.5068 35.4185 11.8015 35.2877 12.1063 35.162C16.8467 33.1809 21.897 32.3764 22.461 32.2909C22.461 32.2909 27.7654 31.1344 33.2222 31.3456H33.4V31.3556Z" fill="#46CDCF"/>
<path d="M27.049 39.6422L26.8712 41.02L25.9261 41.1909L24.1529 41.5077V41.5127L22.4305 41.8245L21.4855 41.9954L20.8301 40.7635L23.9649 40.2003V40.1953L27.049 39.6422Z" fill="white"/>
<path d="M37.2207 102.113C37.2207 102.113 37.6525 102.284 35.417 102.686C33.2424 103.084 33.5777 102.772 33.5777 102.772C33.5777 102.772 32.8207 98.6135 32.6987 98.0102C32.5768 97.4068 33.4456 96.6877 33.4456 96.6877L34.2789 96.5369L35.168 96.376C35.168 96.376 36.2401 96.743 36.3366 97.3464C36.4382 97.9548 37.2156 102.108 37.2156 102.108L37.2207 102.113Z" fill="#46CDCF"/>
<path d="M25.9258 41.1909L26.0375 44.4492L25.6209 44.5196L24.7369 44.6805V44.6856L23.9036 44.8364L23.487 44.9118L22.4302 41.8245L24.1526 41.5127V41.5077L25.9258 41.1909Z" fill="#22263F"/>
<path d="M25.6211 44.5196L24.7371 44.6805L23.9038 44.8364L24.9555 50.6742C24.9555 50.6742 26.2257 51.1569 26.871 51.3077L25.6262 44.5246L25.6211 44.5196Z" fill="#46CDCF"/>
<path d="M35.1729 96.376L28.1461 58.2115C27.7041 58.7043 27.2163 59.0915 26.6016 59.358L33.4556 96.6927L34.2888 96.5419L35.178 96.381L35.1729 96.376Z" fill="#22263F"/>
<path d="M12.101 35.3632C12.0096 35.3632 11.9283 35.3028 11.9029 35.2123L11.8927 35.1671C10.1347 32.663 8.49873 30.0483 7.02529 27.3984C6.98973 27.328 6.99481 27.2476 7.04054 27.1822C7.08626 27.1168 7.16756 27.0867 7.24377 27.1018L7.98048 27.2275L8.00589 26.614C8.00589 26.5386 8.05162 26.4732 8.12275 26.438C8.19388 26.4079 8.27517 26.4129 8.33106 26.4581C8.49365 26.5738 8.7426 26.5738 8.90011 26.4581C9.05761 26.3375 9.11858 26.1011 9.04745 25.9201C9.00681 25.8246 9.04745 25.714 9.13891 25.6637C9.23036 25.6134 9.34722 25.6436 9.40311 25.729C10.1398 26.79 10.8765 27.851 11.6133 28.917C11.2068 27.7957 10.8003 26.6794 10.3939 25.5581L10.1398 24.8541C10.1093 24.7686 10.1398 24.6781 10.211 24.6228C10.2821 24.5725 10.3837 24.5675 10.4548 24.6228L10.9782 25.005L11.222 24.5323C11.2525 24.477 11.3084 24.4368 11.3694 24.4267C11.4303 24.4167 11.4964 24.4368 11.5472 24.482C11.6133 24.5474 11.7301 24.5223 11.8114 24.472C11.8927 24.4217 11.9689 24.3312 11.9435 24.2457C11.9232 24.1753 11.9435 24.0949 11.9994 24.0446C12.0553 23.9943 12.1366 23.9742 12.2077 23.9993C12.3144 24.0345 12.4211 24.0747 12.5278 24.1099C12.543 23.934 12.5837 23.7982 12.6447 23.6725C12.7869 23.3909 13.1273 23.1495 13.483 23.2602C13.5338 23.2753 13.5846 23.3004 13.6354 23.3255C13.6761 23.3456 13.7116 23.3658 13.737 23.3708C13.7929 23.3758 13.8539 23.3356 13.8945 23.2753C13.9453 23.1948 13.9708 23.0842 13.9911 22.9635C14.0063 22.878 14.0774 22.8026 14.1638 22.7925C14.2502 22.7775 14.3366 22.8177 14.3772 22.8931C15.0428 24.2055 15.6881 25.5782 16.3028 26.976L16.0945 22.8378C16.0894 22.7423 16.1504 22.6568 16.2419 22.6316C16.3384 22.6065 16.4299 22.6467 16.4756 22.7322L16.5061 22.7925C16.5264 22.7372 16.5518 22.6869 16.5721 22.6316C16.5975 22.5663 16.6585 22.521 16.7296 22.511C16.8008 22.5009 16.8719 22.526 16.9176 22.5814C16.9481 22.6216 16.9837 22.6618 17.0142 22.697L17.2784 22.335C17.3088 22.2897 17.3596 22.2595 17.4105 22.2545C17.4613 22.2445 17.5172 22.2545 17.5629 22.2897L17.7102 22.3953C17.8372 22.2746 17.9693 22.1489 18.0964 22.0232C18.1777 21.9478 18.3047 21.9478 18.3809 22.0232C19.458 23.0641 20.022 24.5072 20.4335 25.8346C20.5555 24.5927 20.5606 23.3356 20.4437 22.0886C20.4386 22.0081 20.4793 21.9277 20.5555 21.8875C20.6317 21.8472 20.7181 21.8623 20.7841 21.9126C20.7892 21.9176 20.7993 21.9227 20.8044 21.9277L20.8908 21.7266C20.9162 21.6662 20.9721 21.621 21.0331 21.6059C21.0991 21.5908 21.1652 21.6059 21.216 21.6511L21.3023 21.7266C21.3023 21.7266 21.3125 21.7316 21.3125 21.7366C21.4294 21.6008 21.5462 21.4651 21.6631 21.3243C21.7037 21.279 21.7596 21.2539 21.8155 21.2539C21.8765 21.2438 21.9324 21.279 21.973 21.3243L21.9984 21.3545C22.0492 21.4098 22.1 21.4701 22.1508 21.5254L22.5116 21.3997C22.603 21.3645 22.6996 21.3997 22.7555 21.4802C23.7462 23.0037 24.3508 24.7385 24.8081 26.4581C24.676 24.8038 24.549 23.1495 24.4169 21.4902C24.4118 21.4148 24.4474 21.3394 24.5185 21.2992C24.5845 21.2589 24.6709 21.264 24.737 21.3042C24.7827 21.3343 24.8335 21.3695 24.8792 21.3997C24.93 21.3494 24.9809 21.2992 25.0367 21.2489L25.0774 21.2086C25.1434 21.1433 25.2501 21.1332 25.3314 21.1785L25.6871 21.3947C26.7134 21.103 27.7753 20.9975 28.8473 21.0829C29.3046 21.1181 29.8787 21.2086 30.2496 21.6159C30.6205 22.0182 30.6561 22.5814 30.6663 23.1244L30.7069 25.6234C31.0524 24.1954 31.4894 22.7925 32.0076 21.4299C32.033 21.3645 32.0889 21.3193 32.16 21.3042C32.2261 21.2891 32.2972 21.3092 32.348 21.3595L32.6021 21.626C32.6833 21.5807 32.7697 21.5355 32.8561 21.4902L32.8917 21.4701C32.978 21.4249 33.0898 21.445 33.1508 21.5204C33.1965 21.5757 33.2372 21.626 33.2727 21.6763L33.6893 21.45C33.7757 21.4047 33.8875 21.4249 33.9485 21.5003C34.0399 21.6159 34.1314 21.7316 34.2228 21.8472L35.0256 21.7215C35.0916 21.7115 35.1526 21.7316 35.1983 21.7768C35.2441 21.8221 35.2695 21.8824 35.2593 21.9428C34.9291 25.1307 34.3702 28.3136 33.5979 31.4059C33.5725 31.4964 33.4861 31.5568 33.3947 31.5618H33.2118C33.1 31.5518 33.0085 31.4562 33.0136 31.3456C33.0187 31.235 33.1152 31.1545 33.227 31.1495H33.2372C33.9637 28.213 34.4972 25.196 34.8224 22.169L34.1619 22.2746C34.0856 22.2847 34.0094 22.2545 33.9637 22.1942C33.8875 22.0936 33.8062 21.9931 33.73 21.8925L33.3184 22.1137C33.2321 22.159 33.1254 22.1389 33.0644 22.0685C33.0187 22.0182 32.978 21.9629 32.9323 21.9126C32.8358 21.9629 32.7443 22.0132 32.6529 22.0634C32.5716 22.1037 32.47 22.0886 32.409 22.0232L32.2718 21.8824C31.6062 23.6825 31.088 25.5581 30.7272 27.4487C30.7069 27.5493 30.6205 27.6247 30.5088 27.6146C30.4021 27.6046 30.3208 27.5191 30.3208 27.4135L30.2547 23.1345C30.2496 22.6467 30.2192 22.1892 29.9448 21.8925C29.6704 21.5908 29.1979 21.5204 28.8169 21.4902C27.7651 21.4098 26.7185 21.5204 25.7176 21.812C25.6617 21.8271 25.6007 21.8221 25.5499 21.7919L25.2552 21.6109C25.1892 21.6763 25.1231 21.7416 25.0571 21.807C25.0063 21.8573 24.93 21.8774 24.864 21.8623C25.052 24.2658 25.24 26.6693 25.428 29.0728C25.4381 29.1784 25.3619 29.274 25.2552 29.289C25.1536 29.3041 25.0469 29.2388 25.0266 29.1332C24.4982 26.7498 23.8986 24.0546 22.5065 21.8372L22.1661 21.9579C22.0899 21.988 21.9984 21.9629 21.9425 21.8975C21.907 21.8573 21.8714 21.812 21.8308 21.7718C21.719 21.9025 21.6072 22.0333 21.4954 22.164C21.4599 22.2042 21.409 22.2294 21.3532 22.2344C21.2973 22.2394 21.2465 22.2193 21.2058 22.1841C21.1906 22.1741 21.1753 22.159 21.1601 22.1489L21.0788 22.345C21.0534 22.4054 21.0026 22.4506 20.9365 22.4657C20.9213 22.4657 20.906 22.4707 20.8908 22.4707C20.9975 23.934 20.9416 25.4123 20.7231 26.8604C20.7079 26.9559 20.6317 27.0263 20.5351 27.0314C20.4437 27.0364 20.3522 26.976 20.3268 26.8855C19.8899 25.372 19.397 23.6624 18.2386 22.4506C18.1573 22.526 18.0811 22.6015 17.9998 22.6819L17.8779 22.8026C17.8068 22.873 17.695 22.878 17.6137 22.8227L17.4968 22.7372L17.1971 23.1445C17.1615 23.1948 17.1005 23.225 17.0396 23.23C16.9735 23.23 16.9176 23.2049 16.877 23.1596C16.8617 23.1395 16.8414 23.1194 16.8262 23.0993C16.7906 23.1797 16.7601 23.2602 16.7296 23.3406C16.6991 23.416 16.628 23.4663 16.5518 23.4663C16.5518 23.4663 16.5416 23.4663 16.5366 23.4663L16.7601 27.8761C16.7652 27.9716 16.7042 28.0571 16.6077 28.0823C16.5162 28.1074 16.4146 28.0621 16.374 27.9767C16.2419 27.7202 16.1047 27.4688 15.9675 27.2174C15.4086 25.9402 14.8243 24.6982 14.2299 23.5015C14.0978 23.6976 13.8793 23.8032 13.6761 23.768C13.5846 23.758 13.5033 23.7177 13.4423 23.6825C13.4119 23.6675 13.3865 23.6524 13.356 23.6423C13.229 23.6021 13.0714 23.7127 13.0054 23.8434C12.9597 23.944 12.9292 24.0597 12.9241 24.1954C12.9241 24.2256 12.9241 24.2256 12.9139 24.2558C12.9038 24.2809 12.8987 24.3161 12.9038 24.3614C12.9089 24.4318 12.8784 24.4971 12.8225 24.5373C12.7666 24.5776 12.6955 24.5927 12.6294 24.5675C12.5278 24.5323 12.4262 24.4921 12.3195 24.4569C12.2687 24.5927 12.1671 24.7184 12.0197 24.8038C11.847 24.9044 11.6539 24.9346 11.4913 24.8893L11.2322 25.3921C11.2068 25.4475 11.156 25.4827 11.095 25.4977C11.034 25.5128 10.9731 25.4977 10.9273 25.4625L10.7495 25.3318L10.7749 25.4072C11.3592 27.0213 11.9435 28.6354 12.5329 30.2494C12.5684 30.345 12.5278 30.4506 12.4313 30.5009C12.3398 30.5461 12.228 30.521 12.1671 30.4355C11.2424 29.103 10.3227 27.7705 9.39803 26.4431C9.34214 26.5688 9.25577 26.6844 9.13891 26.7749C8.92551 26.9358 8.64607 26.9861 8.39203 26.9308L8.37171 27.4738C8.37171 27.5342 8.34122 27.5895 8.29549 27.6247C8.24977 27.6599 8.1888 27.675 8.13291 27.6649L7.58418 27.5744C9.00173 30.0936 10.5666 32.5825 12.2433 34.971C12.2585 34.9911 12.2687 35.0112 12.2738 35.0363L12.2941 35.1168C12.3246 35.2274 12.2585 35.338 12.1467 35.3632C12.1315 35.3632 12.1112 35.3682 12.0959 35.3682L12.101 35.3632Z" fill="#22263F"/>
<path d="M21.4852 42.1965C21.409 42.1965 21.3379 42.1563 21.3023 42.091L20.6469 40.8641C20.6164 40.8087 20.6164 40.7384 20.6469 40.683C20.6774 40.6227 20.7282 40.5825 20.7942 40.5724L23.8935 40.0143C23.8935 40.0143 23.9138 40.0093 23.9291 40.0042L27.0131 39.4461C27.0792 39.436 27.1452 39.4511 27.191 39.4964C27.2367 39.5416 27.2621 39.607 27.2519 39.6673L27.0792 41.0451C27.069 41.1306 27.003 41.201 26.9115 41.2211L24.2238 41.7038C24.2238 41.7038 24.2034 41.7088 24.1882 41.7138L21.5208 42.1965C21.5208 42.1965 21.4954 42.1965 21.4852 42.1965ZM21.1397 40.9143L21.5919 41.7691L24.0764 41.3216C24.0764 41.3216 24.0968 41.3166 24.112 41.3116L26.6829 40.849L26.8048 39.8936L24.0307 40.3964C24.0307 40.3964 24.0104 40.4015 23.9951 40.4065L21.1397 40.9244V40.9143Z" fill="#22263F"/>
<path d="M12.6293 34.1463C12.5633 34.1463 12.4972 34.1161 12.4566 34.0558L8.4529 27.9867C8.39193 27.8912 8.41734 27.7655 8.51387 27.7051C8.60533 27.6448 8.73743 27.6699 8.7984 27.7655L12.8021 33.8295C12.863 33.9251 12.8376 34.0508 12.7411 34.1111C12.7055 34.1312 12.67 34.1463 12.6293 34.1463Z" fill="#22263F"/>
<path d="M12.9748 33.3066C12.9087 33.3066 12.8427 33.2765 12.802 33.2161L9.22513 27.8761C9.16416 27.7806 9.18956 27.6549 9.28102 27.5945C9.37247 27.5342 9.49949 27.5593 9.56554 27.6498L13.1424 32.9898C13.2034 33.0854 13.178 33.2111 13.0865 33.2714C13.051 33.2915 13.0103 33.3066 12.9748 33.3066Z" fill="#22263F"/>
<path d="M14.7428 33.0955C14.6514 33.0955 14.5701 33.0351 14.5447 32.9496C13.8334 30.4405 12.8985 27.9767 11.7655 25.6235C11.7147 25.5229 11.7604 25.4022 11.862 25.3519C11.9636 25.3017 12.0856 25.3469 12.1364 25.4475C13.2847 27.8208 14.2246 30.3048 14.941 32.839C14.9715 32.9446 14.9054 33.0603 14.7987 33.0904C14.7784 33.0955 14.7632 33.0955 14.7428 33.0955Z" fill="#22263F"/>
<path d="M15.3782 32.0697C15.2919 32.0697 15.2157 32.0194 15.1852 31.9339L13.9302 28.4745C13.8946 28.3689 13.9455 28.2532 14.0521 28.213C14.1588 28.1778 14.2757 28.2281 14.3164 28.3337L15.5713 31.7931C15.6069 31.8987 15.5561 32.0143 15.4494 32.0546C15.429 32.0646 15.4036 32.0646 15.3782 32.0646V32.0697Z" fill="#22263F"/>
<path d="M18.8281 32.4166C18.7316 32.4166 18.6452 32.3462 18.6249 32.2507L17.121 23.939C17.1006 23.8284 17.1768 23.7228 17.2886 23.7027C17.4004 23.6825 17.5071 23.758 17.5274 23.8686L19.0313 32.1803C19.0517 32.2909 18.9755 32.3965 18.8637 32.4166C18.8535 32.4166 18.8383 32.4166 18.8281 32.4166Z" fill="#22263F"/>
<path d="M19.7222 31.8585C19.6257 31.8585 19.5393 31.7881 19.519 31.6875L19.1532 29.5455C19.1329 29.4348 19.2091 29.3292 19.3209 29.3142C19.4326 29.294 19.5393 29.3695 19.5546 29.4801L19.9204 31.6221C19.9407 31.7328 19.8645 31.8383 19.7527 31.8534C19.7426 31.8534 19.7324 31.8534 19.7172 31.8534L19.7222 31.8585Z" fill="#22263F"/>
<path d="M22.6384 31.3959C22.5368 31.3959 22.4453 31.3204 22.4352 31.2148C22.1405 28.5499 21.7289 25.8648 21.2056 23.235C21.1853 23.1244 21.2564 23.0188 21.3682 22.9987C21.4749 22.9735 21.5867 23.049 21.607 23.1596C22.1303 25.8044 22.5469 28.4996 22.8416 31.1746C22.8518 31.2852 22.7705 31.3858 22.6587 31.3959C22.6536 31.3959 22.6435 31.3959 22.6384 31.3959Z" fill="#22263F"/>
<path d="M23.223 31.1093C23.1163 31.1093 23.0299 31.0288 23.0198 30.9232L22.8724 29.289C22.8623 29.1784 22.9436 29.0779 23.0604 29.0678C23.1671 29.0577 23.2738 29.1382 23.284 29.2538L23.4313 30.888C23.4415 30.9987 23.3602 31.0992 23.2433 31.1093C23.2383 31.1093 23.2332 31.1093 23.223 31.1093Z" fill="#22263F"/>
<path d="M27.6127 30.7724C27.5111 30.7724 27.4196 30.6919 27.4095 30.5914C27.125 27.7102 26.7286 24.7938 26.2206 21.9378C26.2002 21.8271 26.2765 21.7215 26.3882 21.7014C26.4949 21.6813 26.6067 21.7567 26.627 21.8674C27.1351 24.7385 27.5365 27.6599 27.821 30.5562C27.8312 30.6668 27.7499 30.7674 27.6381 30.7774C27.633 30.7774 27.6229 30.7774 27.6178 30.7774L27.6127 30.7724Z" fill="#22263F"/>
<path d="M28.9081 31.0741C28.7963 31.0741 28.7049 30.9835 28.7049 30.8729C28.6744 27.8359 28.4915 24.7686 28.1561 21.7517C28.146 21.6411 28.2273 21.5405 28.339 21.5304C28.4508 21.5204 28.5524 21.5958 28.5626 21.7115C28.8979 24.7385 29.0859 27.8208 29.1164 30.8729C29.1164 30.9835 29.0249 31.0741 28.9132 31.0791L28.9081 31.0741Z" fill="#22263F"/>
<path d="M31.5197 30.6467C31.5197 30.6467 31.4943 30.6467 31.4791 30.6467C31.3673 30.6266 31.2962 30.516 31.3216 30.4053L32.8458 22.9887C32.8661 22.878 32.9779 22.8077 33.0897 22.8328C33.2015 22.8529 33.2726 22.9635 33.2472 23.0741L31.7229 30.4908C31.7026 30.5864 31.6162 30.6517 31.5248 30.6517L31.5197 30.6467Z" fill="#22263F"/>
<path d="M16.257 39.9037C16.2214 39.9037 16.1909 39.8936 16.1604 39.8786C16.0588 39.8232 16.0232 39.7026 16.0791 39.602C17.4611 37.0678 19.9863 35.1771 22.8264 34.5486C25.6666 33.9201 28.7608 34.5637 31.1031 36.2733C31.1945 36.3387 31.2148 36.4644 31.1488 36.5549C31.0827 36.6454 30.9557 36.6655 30.8643 36.6001C28.6135 34.9609 25.6463 34.3425 22.9179 34.9458C20.1895 35.5492 17.771 37.3644 16.4449 39.7931C16.4094 39.8635 16.3382 39.8987 16.2671 39.8987L16.257 39.9037Z" fill="#22263F"/>
<path d="M33.4249 102.319C33.3131 102.319 33.2268 102.234 33.2217 102.123C33.2217 102.013 33.303 101.917 33.4198 101.912C34.6595 101.862 35.8789 101.62 37.0424 101.183C37.1491 101.143 37.266 101.198 37.3066 101.299C37.3473 101.404 37.2914 101.52 37.1898 101.56C35.9856 102.013 34.7256 102.264 33.4402 102.314H33.43L33.4249 102.319Z" fill="#22263F"/>
<path d="M44.918 67.8507C44.8266 67.8507 44.7453 67.7903 44.7199 67.6998C44.6894 67.5942 44.7554 67.4786 44.8621 67.4535C48.9725 66.3523 53.1946 65.5226 57.4168 64.9896C57.5235 64.9745 57.6302 65.055 57.6454 65.1656C57.6607 65.2762 57.5794 65.3768 57.4676 65.3919C53.2658 65.9249 49.0589 66.7545 44.9688 67.8457C44.9485 67.8457 44.9333 67.8507 44.9129 67.8507H44.918Z" fill="#22263F"/>
<path d="M47.8344 68.2278C47.7379 68.2278 47.6465 68.1574 47.6312 68.0569C47.6109 67.9462 47.6871 67.8406 47.7989 67.8256C50.888 67.3328 54.0381 67.197 57.1577 67.4233C57.2695 67.4334 57.3559 67.5289 57.3457 67.6395C57.3355 67.7501 57.2339 67.8356 57.1272 67.8256C54.0381 67.6043 50.9185 67.7401 47.8598 68.2228C47.8497 68.2228 47.8395 68.2228 47.8294 68.2228L47.8344 68.2278Z" fill="#22263F"/>
<path d="M66.2066 57.1908C66.1151 57.1908 66.0338 57.1305 66.0084 57.0399C65.5308 55.2097 65.1091 53.3442 64.7535 51.4938C64.7331 51.3832 64.8043 51.2776 64.916 51.2575C65.0227 51.2373 65.1345 51.3077 65.1548 51.4184C65.5054 53.2587 65.9271 55.1141 66.4047 56.9343C66.4352 57.0399 66.3692 57.1556 66.2574 57.1807C66.2421 57.1807 66.2218 57.1858 66.2066 57.1858V57.1908Z" fill="#22263F"/>
<path d="M66.9532 56.4768C66.8465 56.4768 66.755 56.3913 66.7499 56.2807C66.6737 54.5108 66.6585 52.7106 66.7093 50.9357C66.7093 50.825 66.816 50.7396 66.9176 50.7396C67.0294 50.7396 67.1208 50.8351 67.1158 50.9457C67.065 52.7106 67.0802 54.5007 67.1564 56.2606C67.1564 56.3712 67.0751 56.4667 66.9583 56.4718H66.9481L66.9532 56.4768Z" fill="#22263F"/>
<path d="M28.4512 66.0607C28.3495 66.0607 28.2581 65.9852 28.2479 65.8796C28.2378 65.769 28.3191 65.6685 28.4308 65.6584C31.0068 65.3768 33.4812 63.994 35.0562 61.9576C35.1273 61.8671 35.2544 61.852 35.3458 61.9174C35.4373 61.9878 35.4525 62.1135 35.3865 62.204C33.7454 64.3259 31.1643 65.769 28.4816 66.0657C28.4766 66.0657 28.4664 66.0657 28.4613 66.0657L28.4512 66.0607Z" fill="#22263F"/>
<path d="M25.6564 53.7666C24.8892 53.7666 24.122 53.5806 23.4412 53.2135C23.3396 53.1582 23.304 53.0375 23.3599 52.9369C23.4158 52.8364 23.5377 52.8012 23.6393 52.8565C24.6098 53.3744 25.7733 53.5001 26.8301 53.1984C27.2264 53.0828 27.4855 52.9269 27.6074 52.7157C27.8158 52.3687 27.6379 51.886 27.3534 51.6447C26.9825 51.3279 26.4643 51.2776 26.0984 51.2927C25.9867 51.2927 25.8901 51.2122 25.885 51.0966C25.885 50.986 25.9663 50.8904 26.0832 50.8854C26.5303 50.8703 27.1502 50.9307 27.6278 51.338C28.0444 51.695 28.2883 52.3889 27.9631 52.9219C27.7802 53.2235 27.4499 53.4448 26.9469 53.5856C26.5303 53.7063 26.0984 53.7666 25.6666 53.7666H25.6564Z" fill="#22263F"/>
<path d="M26.1848 55.6522C26.0374 55.6522 25.9053 55.6471 25.7783 55.6321C25.0771 55.5667 24.4116 55.3505 23.7663 55.1393C23.6596 55.1041 23.5986 54.9884 23.6342 54.8828C23.6698 54.7773 23.7866 54.7169 23.8933 54.7521C24.5132 54.9532 25.1584 55.1644 25.8139 55.2248C26.3118 55.2751 27.0333 55.2449 27.6328 54.8627C27.8817 54.7018 28.1612 54.4102 28.1104 54.1035C28.0545 53.7666 27.648 53.5604 27.2568 53.3995C27.1501 53.3593 27.0993 53.2386 27.145 53.133C27.1857 53.0274 27.3076 52.9771 27.4143 53.0224C27.9122 53.2235 28.4305 53.5001 28.5168 54.0381C28.5981 54.5359 28.2272 54.9633 27.8563 55.1996C27.3076 55.5466 26.6928 55.6421 26.1797 55.6421L26.1848 55.6522Z" fill="#22263F"/>
<path d="M25.5043 57.3668C25.3112 57.3668 25.1181 57.3567 24.9302 57.3316C24.8184 57.3165 24.7371 57.216 24.7523 57.1053C24.7676 56.9947 24.8692 56.9143 24.981 56.9293C26.0581 57.0651 27.1708 56.7735 28.0396 56.1299C28.3292 55.9136 28.4969 55.7175 28.5528 55.5114C28.6137 55.3103 28.5375 55.0337 28.3445 54.9633C28.2378 54.9231 28.1819 54.8074 28.2225 54.7018C28.2632 54.5962 28.38 54.546 28.4867 54.5812C28.9135 54.737 29.0608 55.2449 28.9491 55.622C28.8373 56.0092 28.5172 56.2807 28.2835 56.4517C27.4858 57.045 26.495 57.3618 25.5043 57.3618V57.3668Z" fill="#22263F"/>
<path d="M27.2366 59.2725C27.1858 59.2725 27.135 59.2524 27.0994 59.2172C27.0181 59.1418 27.0131 59.0111 27.0893 58.9306L27.6532 58.3322C27.9429 58.0255 28.2375 57.7087 28.395 57.3316C28.517 57.04 28.5627 56.5874 28.3036 56.2908C28.2274 56.2053 28.2375 56.0796 28.3239 56.0042C28.4103 55.9338 28.5373 55.9388 28.6135 56.0243C28.9285 56.3863 28.9895 56.9595 28.7761 57.4825C28.5932 57.93 28.2528 58.292 27.953 58.6088L27.3941 59.2072C27.3535 59.2524 27.2976 59.2725 27.2417 59.2725H27.2366Z" fill="#22263F"/>
<path d="M39.959 54.3298C39.8574 54.3298 39.766 54.2543 39.7558 54.1488L39.2528 49.573C39.2426 49.4624 39.3239 49.3619 39.4357 49.3518C39.5424 49.3417 39.6491 49.4222 39.6593 49.5328L40.1623 54.1085C40.1724 54.2191 40.0911 54.3197 39.9794 54.3298C39.9743 54.3298 39.9641 54.3298 39.959 54.3298Z" fill="#22263F"/>
<path d="M40.2538 53.0274C40.2538 53.0274 40.2386 53.0274 40.2335 53.0274C40.1217 53.0174 40.0353 52.9168 40.0506 52.8062L40.4164 48.854C40.4266 48.7434 40.5282 48.6629 40.6399 48.673C40.7517 48.683 40.8381 48.7836 40.8229 48.8942L40.457 52.8464C40.4469 52.952 40.3554 53.0325 40.2538 53.0325V53.0274Z" fill="#22263F"/>
<path d="M80.5193 75.8909C80.4634 75.8909 80.4024 75.8657 80.3618 75.8205C78.7816 74.0053 76.8103 72.4616 74.6611 71.3504C74.5595 71.3001 74.5239 71.1744 74.5747 71.0788C74.6255 70.9783 74.7525 70.9431 74.8491 70.9934C77.0389 72.1247 79.056 73.7036 80.6666 75.554C80.7377 75.6395 80.7327 75.7652 80.6463 75.8406C80.6056 75.8758 80.5599 75.8909 80.5142 75.8909H80.5193Z" fill="#22263F"/>
<path d="M73.5128 75.8306C73.4366 75.8306 73.3603 75.7853 73.3248 75.7099C73.0758 75.1568 72.7557 74.6389 72.3645 74.1713C72.2934 74.0858 72.3035 73.955 72.3899 73.8846C72.4763 73.8142 72.6084 73.8243 72.6795 73.9098C73.0911 74.4076 73.4366 74.9557 73.6957 75.5389C73.7414 75.6395 73.6957 75.7602 73.5941 75.8054C73.5687 75.8155 73.5382 75.8205 73.5128 75.8205V75.8306Z" fill="#22263F"/>
<path d="M73.0552 76.1272C73.0095 76.1272 72.9688 76.1121 72.9282 76.087C72.4658 75.735 71.9222 75.4685 71.3582 75.3126C71.2515 75.2824 71.1855 75.1718 71.216 75.0612C71.2464 74.9506 71.3582 74.8902 71.47 74.9204C72.0848 75.0863 72.6741 75.378 73.1822 75.7651C73.2737 75.8355 73.2889 75.9612 73.2178 76.0518C73.1771 76.102 73.1162 76.1322 73.0552 76.1322V76.1272Z" fill="#22263F"/>
<path d="M62.6548 82.0606C62.6091 82.0606 62.5685 82.0455 62.5329 82.0203C62.4414 81.955 62.4262 81.8242 62.4923 81.7388C63.8285 79.9889 65.8405 78.7218 68.0049 78.2542C68.1167 78.229 68.2234 78.2994 68.2488 78.4101C68.2742 78.5207 68.2031 78.6263 68.0913 78.6514C66.0183 79.0989 64.0978 80.3107 62.8174 81.9851C62.7768 82.0354 62.7158 82.0656 62.6548 82.0656V82.0606Z" fill="#22263F"/>
<path d="M61.7962 79.2598C61.7404 79.2598 61.6794 79.2346 61.6387 79.1894C61.5625 79.1039 61.5727 78.9782 61.6591 78.9028C63.2392 77.5552 65.0327 76.5144 66.9888 75.8104C67.0955 75.7702 67.2124 75.8255 67.253 75.9311C67.2937 76.0367 67.2378 76.1523 67.1311 76.1925C65.2207 76.8814 63.4729 77.9022 61.9284 79.2145C61.8877 79.2497 61.842 79.2648 61.7962 79.2648V79.2598Z" fill="#22263F"/>
<path d="M61.7708 76.6049C61.6996 76.6049 61.6285 76.5647 61.5879 76.4993C61.532 76.3988 61.5726 76.2781 61.6691 76.2228C63.1527 75.4384 64.743 74.8702 66.3892 74.5333C66.4959 74.5132 66.6077 74.5836 66.6331 74.6892C66.6534 74.7998 66.5823 74.9054 66.4756 74.9305C64.865 75.2573 63.3153 75.8105 61.8673 76.5798C61.8368 76.5949 61.8013 76.6049 61.7708 76.6049Z" fill="#22263F"/>
<path d="M52.5497 29.3896C52.4634 29.3896 52.3821 29.3343 52.3516 29.2438C52.3414 29.2187 52.128 28.6153 51.056 28.5751C49.9433 28.5348 49.5724 28.9874 49.5571 29.0075C49.486 29.093 49.359 29.1131 49.2726 29.0427C49.1862 28.9773 49.1659 28.8516 49.232 28.7611C49.2523 28.736 49.735 28.1175 51.0763 28.1678C52.4532 28.2231 52.7377 29.0879 52.7479 29.1231C52.7784 29.2287 52.7174 29.3444 52.6107 29.3745C52.5904 29.3796 52.5701 29.3846 52.5497 29.3846V29.3896Z" fill="#22263F"/>
<path d="M49.1862 27.9415C49.1253 27.9415 49.0592 27.9113 49.0236 27.861C48.9576 27.7705 48.9779 27.6448 49.0694 27.5795C49.5571 27.2225 50.1567 27.0062 50.7613 26.961C51.371 26.9157 51.9908 27.0465 52.5243 27.3281C52.6259 27.3783 52.6615 27.504 52.6107 27.5996C52.5599 27.7001 52.4329 27.7353 52.3363 27.6851C51.8689 27.4387 51.3202 27.323 50.7968 27.3633C50.2684 27.4035 49.7451 27.5946 49.3183 27.9063C49.2828 27.9314 49.237 27.9465 49.1964 27.9465L49.1862 27.9415Z" fill="#22263F"/>
<path d="M55.8168 29.5203C55.8168 29.5203 55.766 29.5203 55.7406 29.5053C55.6389 29.465 55.5831 29.3494 55.6237 29.2438C55.6389 29.2086 55.9997 28.3689 57.3664 28.4192C58.7078 28.4745 59.1396 29.1281 59.1549 29.1533C59.2158 29.2488 59.1853 29.3745 59.0888 29.4349C58.9923 29.4952 58.8703 29.465 58.8094 29.3745C58.7941 29.3494 58.4537 28.8717 57.3512 28.8265C56.2639 28.7862 56.0149 29.3695 56.0048 29.3946C55.9692 29.4751 55.893 29.5203 55.8168 29.5203Z" fill="#22263F"/>
<path d="M59.2866 28.3387C59.2409 28.3387 59.1901 28.3237 59.1545 28.2885C58.7531 27.9465 58.2451 27.7102 57.7268 27.6348C57.2035 27.5543 56.6497 27.6247 56.1619 27.8359C56.0552 27.8812 55.9384 27.8359 55.8927 27.7303C55.8469 27.6298 55.8927 27.5091 55.9994 27.4638C56.5532 27.2275 57.1883 27.142 57.7878 27.2375C58.3873 27.3281 58.9665 27.5946 59.4238 27.9868C59.5102 28.0622 59.5203 28.1879 59.4441 28.2734C59.4035 28.3186 59.3476 28.3438 59.2917 28.3438L59.2866 28.3387Z" fill="#22263F"/>
<path d="M57.3765 28.8516C57.1783 29.1483 57.2545 29.5455 57.5543 29.7416C57.854 29.9377 58.2554 29.8623 58.4536 29.5656C58.6517 29.2689 58.5755 28.8717 58.2758 28.6756C57.976 28.4795 57.5746 28.5549 57.3765 28.8516Z" fill="#22263F"/>
<path d="M50.8779 28.6253C50.6798 28.922 50.756 29.3192 51.0557 29.5153C51.3555 29.7114 51.7569 29.636 51.9551 29.3394C52.1532 29.0427 52.077 28.6455 51.7772 28.4494C51.4775 28.2533 51.0761 28.3287 50.8779 28.6253Z" fill="#22263F"/>
<path d="M50.0501 33.2813C50.9282 33.2625 51.63 32.7904 51.6177 32.2268C51.6054 31.6632 50.8835 31.2215 50.0054 31.2404C49.1274 31.2592 48.4255 31.7313 48.4378 32.2949C48.4502 32.8585 49.172 33.3002 50.0501 33.2813Z" fill="#C6F7F7"/>
<path d="M57.9124 33.2488C58.7905 33.23 59.4923 32.7579 59.48 32.1943C59.4677 31.6307 58.7458 31.189 57.8678 31.2078C56.9897 31.2266 56.2878 31.6988 56.3002 32.2624C56.3125 32.826 57.0343 33.2676 57.9124 33.2488Z" fill="#C6F7F7"/>
<path d="M54.4195 33.9251C53.6319 33.9251 52.8495 33.5832 52.3312 32.9848C52.255 32.8943 52.1788 32.7938 52.1534 32.663C52.0975 32.3915 52.2804 32.1703 52.4024 32.0244C53.3423 30.883 53.9165 29.45 54.0181 27.9767C54.0282 27.8661 54.1248 27.7756 54.2365 27.7907C54.3483 27.7957 54.4347 27.8962 54.4245 28.0069C54.3178 29.5606 53.7132 31.0791 52.7174 32.2809C52.6463 32.3664 52.5396 32.4971 52.5548 32.5826C52.565 32.6228 52.6005 32.6731 52.6412 32.7183C53.1696 33.3268 54.0536 33.6284 54.8513 33.4776C54.9631 33.4525 55.0698 33.5279 55.0901 33.6385C55.1104 33.7491 55.0393 33.8547 54.9275 33.8748C54.7599 33.91 54.5922 33.9251 54.4195 33.9251Z" fill="#22263F"/>
<path d="M54.0433 36.2683C53.8908 36.2683 53.7384 36.2582 53.586 36.2331C53.4742 36.213 53.398 36.1124 53.4183 36.0018C53.4386 35.8911 53.5453 35.8157 53.652 35.8358C54.1754 35.9213 54.7241 35.8358 55.1915 35.5844C55.659 35.338 56.04 34.9358 56.2636 34.4581C56.3093 34.3575 56.4312 34.3123 56.5329 34.3575C56.6345 34.4028 56.6802 34.5235 56.6345 34.624C56.3754 35.1822 55.9282 35.6498 55.3846 35.9364C54.973 36.1526 54.5056 36.2683 54.0433 36.2683Z" fill="#22263F"/>
<path d="M46.8232 32.0495C46.7216 32.0495 46.6352 31.9791 46.62 31.8735C46.498 31.0389 46.2643 30.2243 45.9239 29.4499C45.8782 29.3494 45.9239 29.2287 46.0306 29.1834C46.1322 29.1382 46.2542 29.1834 46.2999 29.289C46.6555 30.0986 46.8994 30.9483 47.0264 31.8182C47.0417 31.9289 46.9655 32.0344 46.8537 32.0495C46.8435 32.0495 46.8334 32.0495 46.8232 32.0495Z" fill="#22263F"/>
<path d="M62.0659 32.1049C62.0659 32.1049 62.0354 32.1049 62.0202 32.0998C61.9084 32.0747 61.8423 31.9641 61.8677 31.8585C62.076 30.9785 62.4012 30.1237 62.8229 29.3192C62.8737 29.2186 63.0007 29.1834 63.0973 29.2337C63.1989 29.284 63.2345 29.4097 63.1837 29.5052C62.7772 30.2796 62.4673 31.0992 62.264 31.949C62.2437 32.0445 62.1573 32.1049 62.0659 32.1049Z" fill="#22263F"/>
<defs>
<clipPath id="clip0_399_4726">
<rect width="10" height="15" fill="white" transform="translate(5.35449 81.7093) rotate(20.9134)"/>
</clipPath>
</defs>
</svg>
