<svg width="120" height="114" viewBox="0 0 120 114" fill="none" xmlns="http://www.w3.org/2000/svg">
<path opacity="0.5" fill-rule="evenodd" clip-rule="evenodd" d="M119.175 3.24231C119.284 3.83218 119.34 4.44016 119.34 5.06138V103.588C119.34 109.111 114.863 113.588 109.34 113.588H41.4846C42.2244 111.752 43.4778 110.094 45.1308 108.897C42.7874 108.055 40.6844 106.675 39.0095 104.925C35.7047 101.47 34.1499 96.7597 35.1489 92.1898C35.945 88.5427 38.2358 85.1836 41.4355 82.9613C39.4902 81.5291 37.8528 79.7424 36.621 77.727C33.6993 72.9798 33.1209 67.177 35.3892 62.0976C36.9125 58.6973 39.5379 55.7539 42.8234 53.7311C39.4371 49.8775 37.8003 44.7104 38.4687 39.7574C39.1822 34.4196 42.5546 29.4436 47.4291 26.557C46.3926 20.444 49.1266 13.9103 54.3241 10.0638C59.5141 6.21741 66.9574 5.21336 73.1088 7.53155C76.6915 2.8361 82.8204 -0.0653276 89.0093 0.00111733C95.1908 0.0675623 101.26 3.10926 104.722 7.87854C107.9 3.7801 113.968 1.8904 119.175 3.24231Z" fill="#B2E9FD"/>
<g clip-path="url(#clip0_399_4649)">
<path d="M4.78632 98.328C4.57001 98.2464 4.3591 98.1434 4.15358 98.0191C2.35314 96.9133 1.81078 94.5075 2.94198 92.6515C4.07567 90.7965 6.46088 90.1845 8.26132 91.2903C9.13465 91.8243 9.74176 92.6782 9.97039 93.6928C10.199 94.7075 10.023 95.7591 9.47291 96.6579C8.4692 98.3022 6.47953 98.9671 4.78632 98.328ZM3.36596 92.9108C2.38004 94.5238 2.8539 96.6207 4.41945 97.5823C5.98599 98.5414 8.06301 98.0117 9.04893 96.3987C9.52582 95.6153 9.68094 94.6988 9.48054 93.8174C9.28112 92.9335 8.75333 92.1913 7.99544 91.7271C6.42642 90.7671 4.35189 91.2978 3.36596 92.9108Z" fill="#22263F"/>
<path d="M3.66573 94.507C3.55882 94.4666 3.49142 94.3536 3.51142 94.2356C3.63955 93.4257 4.12648 92.6753 4.81153 92.2303C5.49757 91.7828 6.36588 91.6522 7.13346 91.8777C7.26074 91.917 7.33766 92.0569 7.29734 92.1906C7.25604 92.3268 7.11571 92.4023 6.98497 92.3646C6.3531 92.1787 5.6382 92.2884 5.07509 92.6538C4.51099 93.0219 4.11008 93.6383 4.00683 94.3029C3.9849 94.4406 3.85606 94.538 3.7209 94.5191C3.70251 94.515 3.68412 94.511 3.66921 94.5054L3.66573 94.507Z" fill="#22263F"/>
<path d="M10.9181 90.9853C10.8162 90.9468 10.7182 90.8981 10.6216 90.8383C9.77716 90.3181 9.52434 89.1893 10.0541 88.3207C10.3116 87.8983 10.7155 87.5982 11.1889 87.4792C11.6599 87.3592 12.1449 87.4313 12.5515 87.684C13.3945 88.2007 13.6498 89.3305 13.1175 90.1981C12.6456 90.9687 11.7123 91.2821 10.9191 90.9827L10.9181 90.9853ZM12.0623 88.0132C11.8211 87.9221 11.5563 87.9068 11.2972 87.9725C10.9558 88.0597 10.6639 88.2765 10.4771 88.5826C10.0941 89.2116 10.2769 90.028 10.889 90.405C11.5006 90.776 12.3071 90.5695 12.6926 89.9413C13.0756 89.3123 12.8927 88.4959 12.2822 88.1224C12.211 88.078 12.1394 88.0422 12.0623 88.0132Z" fill="#22263F"/>
<path d="M5.7567 87.3351C5.63735 87.2901 5.52443 87.2358 5.41396 87.1678C4.94818 86.884 4.62542 86.4294 4.50206 85.8865C4.37869 85.3437 4.4748 84.7786 4.76587 84.2987C5.06041 83.8173 5.51632 83.4785 6.05431 83.3399C6.59131 83.204 7.14437 83.2843 7.60916 83.5707C8.57159 84.1616 8.86314 85.4482 8.25824 86.4372C7.96717 86.917 7.51027 87.2584 6.97327 87.3944C6.56234 87.4991 6.14058 87.4771 5.75768 87.3326L5.7567 87.3351ZM5.18985 84.558C4.96696 84.9205 4.89527 85.3489 4.98942 85.761C5.08207 86.1697 5.32702 86.5161 5.67983 86.731C6.03513 86.9469 6.45206 87.0108 6.86051 86.9051C7.26548 86.8011 7.61287 86.5439 7.83327 86.1805C8.29139 85.4309 8.06985 84.4569 7.34231 84.01C6.98949 83.7951 6.57257 83.7312 6.1651 83.8343C5.75764 83.9374 5.41274 84.1955 5.18985 84.558Z" fill="#22263F"/>
</g>
<path d="M51.298 73.6396C54.613 76.7102 60.8463 95.0964 60.1195 96.9484C59.3926 98.8058 55.5656 101.705 50.4445 103.847C45.329 105.988 38.7762 108.624 36.4745 106.89C35.5989 106.225 33.7377 103.514 31.6783 100.153C28.3469 94.7206 24.4758 87.6238 23.3524 84.8109C21.5353 80.2532 29.762 71.707 29.762 71.707L30.3182 71.4762L37.1903 68.6042L37.9392 68.2928C37.9392 68.2928 47.9776 70.569 51.298 73.6396ZM57.1515 95.1501C56.6614 89.2665 51.6505 76.9786 51.6505 76.9786C42.6253 78.2133 26.8656 87.3393 26.8656 87.3393C26.8656 87.3393 36.1276 103.551 38.4899 104.813C40.8522 106.08 57.636 101.028 57.146 95.1447L57.1515 95.1501Z" fill="white"/>
<path d="M51.6558 76.9786C51.6558 76.9786 56.6667 89.2664 57.1568 95.15C57.6469 101.034 40.863 106.08 38.5007 104.818C36.1384 103.551 26.8765 87.3446 26.8765 87.3446C26.8765 87.3446 42.6306 78.2186 51.6613 76.9839L51.6558 76.9786Z" fill="#46CDCF"/>
<path d="M33.4677 51.689C35.6538 53.423 36.1879 57.8625 36.1879 57.8625C34.6791 58.8395 33.8146 62.0819 33.7981 62.2268L33.8146 62.2698L32.5756 62.7851L30.764 63.5421L29.2772 64.1648L27.818 64.7714L27.807 64.7338C27.807 64.7338 26.7828 62.7207 24.8885 62.1732C24.839 62.1517 24.7894 62.1409 24.7454 62.1248C23.8038 61.894 22.5538 62.0658 21.48 62.3235C20.2631 62.6026 19.2939 62.9784 19.2939 62.9784C19.1618 62.812 19.0351 62.6348 18.9195 62.463C18.6937 62.1356 18.49 61.7974 18.3082 61.4484C17.9063 60.6808 17.5979 59.897 17.3721 59.226C17.1794 58.6677 17.0528 58.1899 16.9757 57.8839C16.9206 57.6477 16.8931 57.5082 16.8931 57.5082C24.1176 53.7182 33.4677 51.6837 33.4677 51.6837V51.689Z" fill="white"/>
<path d="M35.2524 61.6686L37.7359 66.1618L36.3702 66.7362L36.2546 66.7845L34.1016 62.1464L35.2524 61.6686Z" fill="#FCB831"/>
<path d="M36.3696 66.7361L37.1955 68.6096L30.3234 71.4816L29.5029 69.6081L31.0888 68.9478L32.961 68.164L34.7231 67.4232L36.2539 66.7844L36.3696 66.7361Z" fill="#FCB831"/>
<path d="M34.101 62.1462L36.254 66.7844L34.7232 67.4232L32.5757 62.7851L33.8091 62.2697L34.101 62.1462Z" fill="#FCB831"/>
<path d="M32.5758 62.785L34.7234 67.4232L32.9613 68.164L32.9227 68.0674L30.7642 63.542L32.5758 62.785Z" fill="#FCB831"/>
<path d="M32.9231 68.0673L32.9617 68.164L31.0895 68.9477L31.0344 68.8243L29.2778 64.1646L30.7646 63.5419L32.9231 68.0673Z" fill="#FCB831"/>
<path d="M31.0337 68.8243L31.0888 68.9478L29.5029 69.6081L29.3653 69.6672L27.438 64.9324L27.8179 64.7767L29.2772 64.1647L31.0337 68.8243Z" fill="#FCB831"/>
<path d="M27.4383 64.9324L29.3656 69.6671L28.1982 70.1557L26.4526 65.3457L27.4383 64.9324Z" fill="#FCB831"/>
<path d="M24.7453 62.1301C24.7893 62.1462 24.8334 62.1516 24.8884 62.1784C24.9215 64.4384 24.3928 66.6877 23.6605 68.8404C23.2255 70.1019 22.7189 71.3581 21.9094 72.421C21.6506 72.7592 21.3367 73.092 20.9127 73.1833C20.8026 72.9256 20.8632 72.625 20.9237 72.3405C21.5019 69.6563 21.9204 66.9239 21.7662 64.1861C21.7332 63.5634 21.6671 62.93 21.4854 62.3341C22.5537 62.0818 23.8091 61.91 24.7508 62.1355L24.7453 62.1301Z" fill="#FCB831"/>
<path d="M18.9193 62.4683L15.0042 64.1056C14.6628 63.7889 14.3819 63.3916 14.1396 62.9675L18.275 61.4698L18.3026 61.4537C18.4898 61.8026 18.688 62.1408 18.9138 62.4683H18.9193Z" fill="#FCB831"/>
<path d="M18.3086 61.4538L18.2811 61.4699L14.1457 62.9676C13.7933 62.3556 13.5455 61.6792 13.3638 61.0887L17.3064 59.2582L17.3725 59.2367C17.5983 59.9077 17.9066 60.6861 18.3086 61.4591V61.4538Z" fill="#FCB831"/>
<path d="M13 59.548L16.9757 57.8892C17.0528 58.1952 17.185 58.673 17.3722 59.2313L17.3061 59.2527L13.3634 61.0833C13.1046 60.219 13 59.5426 13 59.5426V59.548Z" fill="#FCB831"/>
<path d="M38.6441 107.663C37.697 107.663 36.9151 107.481 36.3479 107.057C35.2356 106.214 32.8347 102.44 31.5021 100.261C28.0936 94.7045 24.2721 87.6614 23.1653 84.886C21.3206 80.264 29.2775 71.9217 29.6189 71.5674C29.6409 71.546 29.663 71.5299 29.6905 71.5191L37.8622 68.0996C37.9062 68.0835 37.9503 68.0781 37.9943 68.0888C38.4073 68.1801 48.1263 70.4133 51.4468 73.4839C54.624 76.4257 61.1548 94.8924 60.3233 97.0182C59.5358 99.042 55.417 101.989 50.5382 104.029C46.0724 105.897 41.5736 107.653 38.6496 107.653L38.6441 107.663ZM29.8942 71.8842C29.3601 72.4532 21.8602 80.4894 23.5562 84.7411C24.6575 87.5003 28.4625 94.5112 31.8656 100.051C34.1067 103.712 35.8358 106.15 36.6067 106.729C38.9084 108.458 46.0779 105.452 50.3675 103.659C55.7914 101.393 59.2825 98.532 59.9268 96.8786C60.549 95.295 54.5414 76.9249 51.1549 73.7899C48.0548 70.9233 38.8423 68.7169 37.9613 68.5129L29.8942 71.8842Z" fill="#22263F"/>
<path d="M27.8184 64.9807C27.7909 64.9807 27.7634 64.9753 27.7358 64.9646C27.6808 64.9431 27.6422 64.9001 27.6202 64.8465C27.6037 64.8089 26.607 62.8924 24.8284 62.3771C24.7788 62.3556 24.7568 62.3502 24.7348 62.3449L24.6742 62.3288C23.9418 62.1516 22.846 62.2214 21.53 62.5328C20.3461 62.8012 19.3824 63.1769 19.3769 63.1769C19.2888 63.2091 19.1897 63.1823 19.1291 63.1125C18.9915 62.9407 18.8648 62.7636 18.7437 62.5864C18.5399 62.2912 18.3362 61.953 18.1215 61.5557C17.6644 60.6807 17.3505 59.8486 17.1688 59.3011C17.0201 58.8663 16.8825 58.41 16.7668 57.9429C16.7063 57.696 16.6787 57.5564 16.6787 57.5564C16.6622 57.4705 16.7063 57.3793 16.7834 57.3363C23.9529 53.5732 33.3195 51.5172 33.4131 51.4957C33.4736 51.4796 33.5397 51.4957 33.5893 51.5386C35.8139 53.3048 36.3591 57.6638 36.3811 57.8463C36.3921 57.9214 36.3535 57.9966 36.2875 58.0395C34.9494 58.9038 34.0959 61.7758 34.0023 62.216C34.0298 62.3127 33.9802 62.42 33.8811 62.463L27.8845 64.9646C27.8845 64.9646 27.8294 64.9807 27.8019 64.9807H27.8184ZM23.7326 61.8188C24.1291 61.8188 24.487 61.8564 24.7954 61.9315L24.8504 61.9476C24.889 61.9583 24.933 61.9691 24.9771 61.9906C26.64 62.4683 27.6422 64.0359 27.9176 64.5083L33.6003 62.1355C33.7214 61.604 34.5584 58.7857 35.9571 57.7711C35.8525 57.0679 35.2467 53.4605 33.4131 51.9144C32.3888 52.1452 23.8262 54.1422 17.1303 57.6208C17.1413 57.6799 17.1578 57.755 17.1798 57.8409C17.2955 58.2919 17.4276 58.7374 17.5708 59.1669C17.747 59.6983 18.0554 60.5143 18.4959 61.3571C18.6996 61.7383 18.8979 62.0657 19.0961 62.3502C19.1842 62.4791 19.2723 62.6079 19.3659 62.7314C19.6853 62.6133 20.4782 62.3395 21.4309 62.1248C22.3064 61.9208 23.0718 61.8134 23.7271 61.8134L23.7326 61.8188Z" fill="#22263F"/>
<path d="M30.3238 71.6855C30.2412 71.6855 30.1641 71.6372 30.1311 71.5621L29.3051 69.6939C29.2831 69.6456 29.2831 69.5865 29.3051 69.5382C29.3271 69.4899 29.3657 69.447 29.4152 69.4255L36.2819 66.5481C36.3865 66.5052 36.5131 66.5481 36.5572 66.6555L37.3832 68.529C37.4052 68.5773 37.4052 68.6364 37.3832 68.6847C37.3611 68.733 37.3226 68.7759 37.273 68.7974L30.4009 71.6694C30.4009 71.6694 30.3458 71.6855 30.3183 71.6855H30.3238ZM29.7787 69.7154L30.4339 71.2077L36.9151 68.4968L36.2543 66.9991L29.7731 69.7154H29.7787Z" fill="#22263F"/>
<path d="M34.7232 67.6272C34.6406 67.6272 34.5635 67.5843 34.5304 67.5091L32.3829 62.871C32.3609 62.8227 32.3554 62.7636 32.3829 62.7099C32.4049 62.6563 32.4435 62.6187 32.4985 62.5972L34.0238 61.9584C34.1285 61.9154 34.2551 61.9584 34.2992 62.0604L36.4522 66.6985C36.4742 66.7468 36.4798 66.8059 36.4522 66.8596C36.4302 66.9133 36.3916 66.9508 36.3366 66.9723L34.8058 67.6111C34.8058 67.6111 34.7507 67.6272 34.7232 67.6272ZM32.8565 62.8925L34.8278 67.1548L35.9732 66.677L33.9963 62.4147L32.8565 62.8925Z" fill="#22263F"/>
<path d="M32.9606 68.368C32.878 68.368 32.8009 68.3197 32.7679 68.2445L32.7238 68.1479L30.5708 63.6279C30.5488 63.5796 30.5433 63.5205 30.5653 63.4668C30.5873 63.4131 30.6259 63.3756 30.6809 63.3487L32.4926 62.5918C32.5972 62.5489 32.7183 62.5918 32.7679 62.6938L34.9154 67.3319C34.9375 67.3803 34.943 67.4393 34.9154 67.493C34.8879 67.5467 34.8549 67.5843 34.7998 67.6057L33.0432 68.3465C33.0432 68.3465 32.9882 68.3626 32.9606 68.3626V68.368ZM31.0444 63.6493L33.0653 67.8956L34.4364 67.3212L32.465 63.0588L31.0444 63.6547V63.6493Z" fill="#22263F"/>
<path d="M31.0889 69.1517C31.0889 69.1517 31.0338 69.1517 31.0118 69.1356C30.9623 69.1142 30.9182 69.0766 30.8962 69.0229L30.8466 68.9048L29.0845 64.2344C29.046 64.1271 29.101 64.009 29.2112 63.9714C29.3213 63.9338 29.4425 63.9875 29.481 64.0949L31.21 68.674L32.6913 68.0566L30.5823 63.6278C30.5327 63.5258 30.5823 63.4024 30.6869 63.3541C30.7916 63.3057 30.9182 63.3541 30.9678 63.4561L33.1704 68.0835C33.1924 68.1318 33.1924 68.1908 33.1704 68.2391C33.1483 68.2875 33.1098 68.3304 33.0547 68.3519L31.1825 69.1356C31.1825 69.1356 31.1274 69.1517 31.0999 69.1517H31.0889Z" fill="#22263F"/>
<path d="M29.3657 69.8711C29.3382 69.8711 29.3107 69.8711 29.2831 69.855C29.2336 69.8335 29.1895 69.7906 29.1675 69.7423L27.2402 65.0129C27.1962 64.9109 27.2457 64.7928 27.3503 64.7498L29.195 63.9822C29.2501 63.9607 29.3107 63.9607 29.3602 63.9822C29.4153 64.0036 29.4538 64.0466 29.4759 64.1003L31.282 68.8726C31.326 68.9746 31.282 69.0981 31.1719 69.141C31.0672 69.184 30.9406 69.141 30.8965 69.0337L30.847 68.9156L29.162 64.4492L27.7138 65.0504L29.4869 69.4094C29.575 69.4094 29.6631 69.4524 29.7016 69.5329C29.7457 69.6403 29.6961 69.7584 29.586 69.8013L29.4483 69.8604C29.4483 69.8604 29.3933 69.8765 29.3657 69.8765V69.8711Z" fill="#22263F"/>
<path d="M14.1456 63.1716C14.0575 63.1716 13.9804 63.1232 13.9473 63.0373C13.9088 62.93 13.9638 62.8119 14.074 62.7743L18.2094 61.2766C18.3085 61.239 18.4517 61.2658 18.5012 61.3571C18.7105 61.7436 18.9032 62.0657 19.1014 62.3502C19.1675 62.4415 19.14 62.5703 19.0464 62.6347C18.9472 62.6991 18.8206 62.6723 18.7545 62.581C18.5783 62.3234 18.4021 62.0389 18.2149 61.7114L14.2226 63.1608C14.2226 63.1608 14.1731 63.1716 14.1511 63.1716H14.1456Z" fill="#22263F"/>
<path d="M14.1456 63.1715C14.0575 63.1715 13.9804 63.1232 13.9474 63.0373C13.9088 62.9299 13.9639 62.8118 14.074 62.7743L18.0222 61.3409C17.6753 60.6538 17.422 59.9989 17.2513 59.5104L13.4628 61.2765C13.3582 61.3248 13.2315 61.2819 13.182 61.1799C13.1324 61.0779 13.1765 60.9544 13.2811 60.9061L17.3063 59.0433C17.3614 59.0272 17.4165 59.0272 17.4715 59.0541C17.5211 59.0809 17.5596 59.1239 17.5817 59.1775C17.7579 59.709 18.0662 60.5196 18.5068 61.3678C18.5343 61.4161 18.5343 61.4751 18.5178 61.5288C18.5013 61.5825 18.4627 61.6255 18.4076 61.6469C18.4021 61.6469 18.3636 61.6684 18.3581 61.6684L14.2227 63.1661C14.2227 63.1661 14.1731 63.1769 14.1511 63.1769L14.1456 63.1715Z" fill="#22263F"/>
<path d="M13.3635 61.2927C13.2864 61.2927 13.2093 61.2498 13.1707 61.1746C13.1212 61.0726 13.1652 60.9491 13.2698 60.9008L17.1079 59.1132C16.9812 58.7321 16.8656 58.3348 16.7665 57.9322C16.739 57.8195 16.805 57.7121 16.9207 57.6853C17.0308 57.6584 17.1464 57.7228 17.174 57.8356C17.2896 58.2865 17.4218 58.7374 17.5649 59.1615C17.6035 59.2689 17.5429 59.3816 17.4383 59.4192L17.3722 59.4407L13.4516 61.2659C13.424 61.282 13.391 61.2873 13.3635 61.2873V61.2927Z" fill="#22263F"/>
<path d="M19.6959 62.565C19.6133 62.565 19.5307 62.5167 19.4977 62.4308C19.4591 62.3235 19.5142 62.2054 19.6188 62.1678C24.5086 60.3802 29.481 58.6194 34.4038 56.9445C34.514 56.9069 34.6351 56.966 34.6736 57.068C34.7122 57.1753 34.6516 57.2934 34.5415 57.331C29.6242 59.0059 24.6518 60.7613 19.7675 62.5543C19.7455 62.565 19.7179 62.565 19.6959 62.565Z" fill="#22263F"/>
<path d="M25.4061 81.6705C25.3125 81.6705 25.2299 81.6114 25.2024 81.5201C25.1693 81.4128 25.2354 81.2947 25.3456 81.2678C32.1461 79.3567 38.6713 76.0714 44.2054 71.7661C44.2935 71.6963 44.4312 71.7124 44.5027 71.7983C44.5743 71.8896 44.5578 72.0184 44.4697 72.0882C38.8916 76.4257 32.3223 79.7379 25.4667 81.6597C25.4447 81.6651 25.4281 81.6651 25.4061 81.6651V81.6705Z" fill="#22263F"/>
<path d="M26.8327 78.3099C26.7941 78.3099 26.7556 78.2992 26.7225 78.2777C26.6234 78.2187 26.5959 78.0898 26.6564 77.9932C27.7247 76.3398 28.9472 74.7723 30.2963 73.3282C30.3734 73.2423 30.5055 73.237 30.5936 73.3175C30.6817 73.3927 30.6872 73.5215 30.6101 73.6074C29.2776 75.03 28.0716 76.5814 27.0199 78.2133C26.9813 78.2777 26.9097 78.3099 26.8437 78.3099H26.8327Z" fill="#22263F"/>
<path d="M58.693 95.2145C58.5829 95.2145 58.4892 95.134 58.4837 95.0213C58.2965 92.3855 57.6633 89.8195 56.595 87.3877C56.551 87.2857 56.595 87.1622 56.7051 87.1192C56.8098 87.0763 56.9364 87.1192 56.9805 87.2266C58.0652 89.696 58.715 92.3103 58.9022 94.9944C58.9077 95.1072 58.8196 95.2038 58.704 95.2145C58.704 95.2145 58.693 95.2145 58.6875 95.2145H58.693Z" fill="#22263F"/>
<path d="M34.9766 90.936C34.7068 90.936 34.4425 90.877 34.1947 90.7643C33.7487 90.5603 33.4128 90.2006 33.2476 89.7497C32.9062 88.821 33.4017 87.7903 34.3544 87.4574C35.307 87.1246 36.3643 87.6077 36.7057 88.5364C36.8709 88.9874 36.8488 89.4759 36.6396 89.9053C36.4303 90.3402 36.0614 90.6676 35.5988 90.8287C35.3951 90.8985 35.1859 90.936 34.9766 90.936ZM34.9766 87.7581C34.8169 87.7581 34.6572 87.7849 34.4975 87.8386C33.7597 88.0963 33.3797 88.8908 33.644 89.6047C33.7707 89.9537 34.0295 90.2328 34.3764 90.3885C34.7178 90.5442 35.1033 90.5603 35.4612 90.4368C35.8191 90.3133 36.1054 90.061 36.2651 89.7228C36.4248 89.39 36.4469 89.0142 36.3147 88.6653C36.1054 88.1016 35.5603 87.7527 34.9766 87.7527V87.7581Z" fill="#22263F"/>
<path d="M39.3543 86.2711C39.1396 86.2711 38.9248 86.2227 38.7266 86.1315C38.3686 85.9651 38.0988 85.6752 37.9612 85.3155C37.829 84.9505 37.8455 84.5586 38.0162 84.2097C38.1869 83.8607 38.4843 83.5977 38.8532 83.4635C39.2277 83.3346 39.6296 83.3507 39.9876 83.5172C40.3455 83.6836 40.6153 83.9735 40.753 84.3331C41.0283 85.0793 40.6318 85.9114 39.8609 86.1798C39.6957 86.2388 39.525 86.2657 39.3598 86.2657L39.3543 86.2711ZM39.3543 83.7909C39.2332 83.7909 39.112 83.8124 38.9964 83.8554C38.7321 83.9466 38.5173 84.1399 38.3962 84.3868C38.275 84.6338 38.264 84.9183 38.3576 85.1759C38.4512 85.4336 38.6495 85.643 38.9028 85.7611C39.1616 85.8792 39.4479 85.8899 39.7122 85.7987C40.2629 85.6054 40.5492 85.0149 40.351 84.4781C40.2574 84.2204 40.0591 84.011 39.8058 83.8929C39.6627 83.8285 39.5085 83.7963 39.3543 83.7963V83.7909Z" fill="#22263F"/>
<path d="M41.5455 94.4092C40.4442 94.4092 39.409 93.7436 39.0125 92.6753C38.5114 91.3171 39.2383 89.814 40.6314 89.3255C42.0246 88.837 43.5664 89.5456 44.0675 90.9038C44.5686 92.262 43.8417 93.7651 42.4486 94.2536C42.1512 94.3609 41.8429 94.4092 41.54 94.4092H41.5455ZM41.5455 89.5778C41.2922 89.5778 41.0334 89.6208 40.7801 89.7067C40.2129 89.9053 39.7559 90.3079 39.4971 90.8447C39.2383 91.3762 39.2107 91.9774 39.4145 92.5357C39.6182 93.0887 40.0312 93.5342 40.5819 93.7865C41.127 94.0388 41.7437 94.0657 42.3164 93.8671C42.8836 93.6684 43.3406 93.2658 43.5994 92.729C43.8582 92.1975 43.8858 91.5963 43.682 91.038C43.3516 90.1361 42.4761 89.5778 41.5455 89.5778Z" fill="#22263F"/>
<path d="M48.3682 84.8646C47.7349 84.8646 47.1402 84.4834 46.9145 83.8715C46.7768 83.4957 46.7933 83.0823 46.9695 82.7227C47.1457 82.3576 47.4541 82.0838 47.8451 81.9496C48.2305 81.8154 48.6545 81.8315 49.0235 82.0033C49.3979 82.1751 49.6787 82.4757 49.8164 82.8569C50.1027 83.6353 49.6897 84.4995 48.8858 84.784C48.7151 84.8431 48.5389 84.8753 48.3627 84.8753L48.3682 84.8646ZM48.3682 82.2664C48.2415 82.2664 48.1094 82.2878 47.9882 82.3308C47.7074 82.4274 47.4816 82.6314 47.355 82.8944C47.2283 83.1575 47.2118 83.4581 47.3164 83.7319C47.5257 84.3009 48.1699 84.5962 48.7536 84.3922C49.3373 84.1882 49.6402 83.5601 49.4309 82.9911C49.3318 82.7173 49.1226 82.4972 48.8528 82.3737C48.6986 82.3039 48.5389 82.2664 48.3737 82.2664H48.3682Z" fill="#22263F"/>
<path d="M51.7443 98.72C50.8137 98.72 49.9382 98.1563 49.6078 97.2598C49.404 96.7069 49.4315 96.1056 49.6904 95.5688C49.9492 95.0374 50.4062 94.6294 50.9734 94.4308C52.1518 94.0174 53.4513 94.6133 53.8753 95.7621C54.2993 96.9109 53.6881 98.1778 52.5097 98.5911C52.2564 98.6824 51.9976 98.72 51.7443 98.72ZM51.7443 94.7099C51.535 94.7099 51.3258 94.7421 51.1221 94.8173C50.6595 94.9783 50.2851 95.3111 50.0758 95.746C49.8666 96.1808 49.8445 96.6693 50.0097 97.1202C50.3566 98.0543 51.4139 98.5374 52.372 98.2046C53.3302 97.8664 53.8258 96.8357 53.4843 95.9016C53.2145 95.1716 52.5042 94.7099 51.7443 94.7099Z" fill="#22263F"/>
<path d="M40.8299 102.58C40.0975 102.58 39.4092 102.139 39.1504 101.431C38.82 100.529 39.299 99.5304 40.2241 99.2083C41.1492 98.8863 42.1734 99.3533 42.5038 100.255C42.6635 100.69 42.6415 101.162 42.4378 101.586C42.234 102.005 41.8761 102.322 41.4301 102.483C41.2318 102.553 41.0281 102.585 40.8299 102.585V102.58ZM40.8299 99.5143C40.6757 99.5143 40.5215 99.5412 40.3728 99.5949C39.668 99.8418 39.299 100.604 39.5523 101.291C39.8056 101.978 40.5876 102.338 41.2924 102.091C41.6338 101.973 41.9091 101.726 42.0633 101.409C42.2175 101.087 42.234 100.728 42.1129 100.395C41.9146 99.8525 41.386 99.5143 40.8299 99.5143Z" fill="#22263F"/>
<path d="M93.2654 61.5955C93.348 63.3133 91.5859 65.3586 91.5859 65.3586C91.5859 65.3586 92.5165 68.4077 91.0848 70.657C89.6531 72.9063 78.7832 83.267 78.7832 83.267C78.5354 84.6198 77.6984 85.0277 77.6984 85.0277L73.6952 96.8647C60.5566 97.321 54.3232 90.5892 54.3232 90.5892L60.7769 79.6058C60.7769 79.6058 60.5346 78.8865 61.1678 78.0383C61.1678 78.0383 60.4575 67.4844 60.4465 65.7505C60.4355 64.0165 61.746 58.5409 61.9167 56.646C62.0929 54.751 63.2218 54.6114 64.6755 52.5554C66.1292 50.494 66.366 49.0446 67.8748 49.4418C67.8748 49.4418 68.8164 52.1903 67.7481 55.524C66.6744 58.8577 66.333 61.2841 67.5554 62.0625C68.7779 62.8409 73.1611 59.4052 74.8571 53.3123C76.5531 47.2194 79.1411 41.878 81.531 40.2783C83.9153 38.6785 84.8569 38.5551 86.1785 39.1617C87.4945 39.7683 84.4439 43.9179 83.3096 48.4433C82.1752 52.9687 79.8735 59.1529 79.8735 59.1529C79.8735 59.1529 82.3459 58.7396 84.1355 57.3224C85.9307 55.9051 86.5254 52.8131 88.5793 51.9595C89.1795 51.7126 89.7081 51.6589 90.1707 51.7609C91.2995 52.0078 92.0264 53.1405 92.3788 54.4611C92.8689 56.3239 90.7434 59.3891 90.7434 59.3891C90.7434 59.3891 93.1662 59.8776 93.2543 61.5955H93.2654Z" fill="#46CDCF"/>
<path d="M82.0936 33.8311C91.24 35.2644 92.4789 41.2553 91.4878 44.648C90.5021 48.0408 90.1882 51.7609 90.1882 51.7609C89.7257 51.6589 89.1915 51.7126 88.5968 51.9596C86.5484 52.8131 85.9537 55.9052 84.1531 57.3224C82.3579 58.7396 79.891 59.153 79.891 59.153C79.891 59.153 82.1872 52.9688 83.3271 48.4434C84.4614 43.918 87.512 39.7683 86.196 39.1617C84.8744 38.5551 83.9383 38.6786 81.5485 40.2783C79.1587 41.878 76.5651 47.214 74.8746 53.3123C73.1786 59.4053 68.8009 62.8409 67.5729 62.0625C66.3505 61.2842 66.6864 58.8577 67.7657 55.524C68.8394 52.1958 67.8923 49.4419 67.8923 49.4419C67.8923 49.4419 67.9309 45.5177 68.5971 41.4915C69.2634 37.46 72.9583 32.3978 82.1046 33.8311H82.0936Z" fill="#FCB831"/>
<path d="M70.7661 98.7919C68.9159 98.7168 66.3664 98.4162 63.057 97.5895C58.6022 96.4782 55.8489 94.7765 54.2961 93.5042C53.0847 92.5057 52.6001 91.7703 52.6001 91.7703C52.9085 90.2189 54.3291 90.6 54.3291 90.6C54.3291 90.6 60.5625 97.3318 73.7011 96.8755C75.3641 97.1761 74.5546 98.5557 74.5546 98.5557C74.5546 98.5557 73.3432 98.8993 70.7661 98.7973V98.7919Z" fill="#46CDCF"/>
<path d="M70.7661 98.7919L66.6252 113.791H37.9473L54.2961 93.5042C55.8545 94.7765 58.6022 96.4782 63.057 97.5894C66.3664 98.4161 68.9214 98.7221 70.7661 98.7919Z" fill="white"/>
<path d="M62.1488 77.9792C62.0552 77.9792 61.9726 77.9202 61.9451 77.8343C61.912 77.7269 61.9781 77.6088 62.0882 77.5766L69.6487 75.3971C69.7588 75.3649 69.88 75.4293 69.913 75.5367C69.946 75.6441 69.88 75.7622 69.7698 75.7944L62.2094 77.9739C62.2094 77.9739 62.1708 77.9846 62.1488 77.9846V77.9792Z" fill="#22263F"/>
<path d="M62.1657 79.359C62.0556 79.359 61.9675 79.2784 61.9565 79.1711C61.9455 79.0583 62.0336 78.9563 62.1492 78.951L69.0434 78.3605C69.1645 78.3605 69.2637 78.4356 69.2692 78.5484C69.2802 78.6611 69.1921 78.7631 69.0764 78.7685L62.1823 79.359C62.1823 79.359 62.1713 79.359 62.1657 79.359Z" fill="#22263F"/>
<path d="M87.5449 64.1186C87.5063 64.1186 87.4623 64.1078 87.4293 64.081C87.3356 64.0166 87.3081 63.8877 87.3742 63.7965L90.177 59.7864C90.7827 58.9167 91.416 58.0149 91.8124 57.0271C92.1208 56.2648 92.4127 55.1268 92.0713 53.9941C91.7574 52.9688 90.9094 52.1689 89.9623 52.0078C89.8466 51.9864 89.7695 51.8844 89.7916 51.7716C89.8136 51.6589 89.9182 51.5838 90.0338 51.6052C91.1351 51.7931 92.1153 52.7057 92.4732 53.8814C92.8532 55.1268 92.5338 56.3615 92.2034 57.1828C91.7849 58.2135 91.1462 59.1315 90.5239 60.0226L87.7211 64.0327C87.6826 64.0917 87.6165 64.1239 87.5449 64.1239V64.1186Z" fill="#22263F"/>
<path d="M88.5798 69.6264C88.5798 69.6264 88.5248 69.6264 88.5027 69.6103C88.3926 69.5674 88.343 69.4493 88.3871 69.3419C88.8937 68.134 89.7692 67.1302 90.6172 66.1585C91.2945 65.3801 91.9994 64.5749 92.495 63.6784C92.8969 62.9537 93.0621 62.3203 93.0016 61.7459C92.8914 60.683 91.9113 59.7381 90.7109 59.5449C90.5952 59.5288 90.5181 59.4214 90.5402 59.3087C90.5567 59.196 90.6668 59.1208 90.7824 59.1423C92.1591 59.3677 93.2934 60.4682 93.4201 61.7083C93.4861 62.3686 93.3044 63.0772 92.8639 63.877C92.3463 64.8111 91.6304 65.6325 90.9366 66.4269C90.0721 67.4147 89.2571 68.3541 88.7781 69.5029C88.745 69.5835 88.6679 69.6318 88.5853 69.6318L88.5798 69.6264Z" fill="#22263F"/>
<path d="M79.1641 61.6706C79.1641 61.6706 79.1255 61.6706 79.109 61.6652C78.9989 61.6384 78.9328 61.5203 78.9603 61.4129C79.9956 57.6713 81.218 53.935 82.5836 50.2953C82.6222 50.188 82.7433 50.1343 82.8534 50.1719C82.9636 50.2094 83.0187 50.3275 82.9801 50.4349C81.6145 54.0638 80.3975 57.7947 79.3678 61.5203C79.3403 61.6115 79.2577 61.6706 79.1641 61.6706Z" fill="#22263F"/>
<path d="M77.5889 51.3529C77.5339 51.3529 77.4788 51.3314 77.4403 51.2885C77.3577 51.2079 77.3632 51.0791 77.4403 50.9986C78.5526 49.9357 79.8191 49.0392 81.1957 48.3306C81.3003 48.2769 81.427 48.3145 81.4821 48.4165C81.5371 48.5185 81.4986 48.6419 81.394 48.6956C80.0504 49.3881 78.8224 50.2631 77.7321 51.2938C77.6936 51.3314 77.6385 51.3529 77.5834 51.3529H77.5889Z" fill="#22263F"/>
<path d="M78.8719 51.2723C78.8058 51.2723 78.7397 51.2401 78.7012 51.1865C78.6351 51.0952 78.6571 50.9664 78.7507 50.9019C79.4886 50.392 80.276 49.9518 81.102 49.5921C81.2066 49.5438 81.3333 49.5921 81.3773 49.6941C81.4269 49.7961 81.3773 49.9196 81.2727 49.9679C80.4743 50.3114 79.7089 50.7409 78.993 51.2348C78.9545 51.2616 78.9159 51.2723 78.8719 51.2723Z" fill="#22263F"/>
<path d="M72.2261 97.1171C68.8506 97.1171 65.8826 96.7252 63.1899 95.9307C59.5005 94.841 56.3563 92.9567 54.1096 90.482C54.0325 90.3961 54.038 90.2672 54.1261 90.1921C54.2143 90.1169 54.3464 90.1223 54.4235 90.2082C56.6206 92.6239 59.6932 94.4652 63.311 95.5335C66.3726 96.4407 69.8087 96.8165 73.812 96.6769C73.9166 96.6769 74.0267 96.7628 74.0322 96.8755C74.0322 96.9882 73.9441 97.0849 73.8285 97.0902C73.2833 97.1063 72.7492 97.1171 72.2261 97.1171Z" fill="#22263F"/>
<path d="M77.8972 82.4832C77.8531 82.4832 77.8036 82.4671 77.765 82.4403L75.0833 80.3896C74.9897 80.3199 74.9732 80.191 75.0503 80.0998C75.1219 80.0085 75.254 79.9978 75.3477 80.0622L78.0293 82.1128C78.1229 82.1826 78.1395 82.3115 78.0624 82.4027C78.0183 82.4564 77.9577 82.4832 77.8972 82.4832Z" fill="#22263F"/>
<path d="M77.754 84.0937C77.7045 84.0937 77.6549 84.0776 77.6164 84.0454L75.221 82.0001C75.1329 81.9249 75.1219 81.7961 75.199 81.7102C75.2761 81.6243 75.4083 81.6136 75.4964 81.6887L77.8917 83.734C77.9798 83.8092 77.9853 83.938 77.9137 84.0239C77.8697 84.0722 77.8146 84.0937 77.754 84.0937Z" fill="#22263F"/>
<path d="M68.0847 60.9834C68.0461 60.9834 68.0076 60.9727 67.9745 60.9512C67.8754 60.8922 67.8424 60.7633 67.903 60.6667C69.8688 57.537 70.9205 54.0155 70.9536 50.4725C70.9646 49.372 70.871 48.2285 70.7829 47.1281C70.5901 44.6748 70.3864 42.141 71.2564 39.8004C72.3632 36.8211 75.2652 34.5235 78.481 34.0779C78.5966 34.0618 78.7012 34.1423 78.7178 34.2551C78.7343 34.3678 78.6517 34.4698 78.5361 34.4859C75.4689 34.91 72.6991 37.1056 71.6474 39.94C70.8049 42.2 71.0031 44.6909 71.1959 47.0959C71.284 48.2071 71.3721 49.3505 71.3666 50.4725C71.339 54.0853 70.2598 57.682 68.2554 60.8761C68.2168 60.9405 68.1452 60.9727 68.0737 60.9727L68.0847 60.9834Z" fill="#22263F"/>
<path d="M75.1768 42.8174C75.0832 42.8174 74.9841 42.8121 74.8849 42.8013C74.2737 42.7262 73.7341 42.4255 73.3541 41.9478C72.9797 41.4754 72.8145 40.8849 72.8916 40.289C73.0513 39.065 74.2021 38.19 75.4631 38.3457C76.7241 38.5014 77.6162 39.6287 77.4565 40.8527C77.3078 41.9854 76.3166 42.8121 75.1768 42.8121V42.8174ZM75.1768 38.7429C74.2462 38.7429 73.4312 39.4193 73.3156 40.348C73.2495 40.8312 73.3872 41.3143 73.6955 41.7008C74.0039 42.0873 74.4444 42.3343 74.9455 42.3987C75.9752 42.5275 76.9168 41.8136 77.049 40.8097C77.1812 39.8059 76.4488 38.8879 75.4191 38.7591C75.342 38.7483 75.2594 38.7429 75.1823 38.7429H75.1768Z" fill="#22263F"/>
<path d="M77.2918 38.0934C77.2477 38.0934 77.2037 38.0934 77.1541 38.0826C76.5649 38.0075 76.1464 37.4814 76.2235 36.9124C76.3006 36.338 76.8347 35.93 77.4239 36.0051C78.0131 36.0803 78.4316 36.6064 78.3545 37.1754C78.2829 37.7069 77.8204 38.0934 77.2863 38.0934H77.2918ZM77.2918 36.4078C76.9669 36.4078 76.6861 36.644 76.642 36.9661C76.5979 37.315 76.8513 37.6371 77.2092 37.68C77.5671 37.7283 77.8975 37.476 77.9415 37.1271C77.9856 36.7782 77.7323 36.4561 77.3744 36.4131C77.3468 36.4131 77.3193 36.4131 77.2918 36.4131V36.4078Z" fill="#22263F"/>
<path d="M73.7176 48.2823C73.6515 48.2823 73.5799 48.2823 73.5084 48.2716C72.6108 48.1588 71.972 47.3536 72.0822 46.4786C72.1978 45.6036 73.0183 44.9808 73.9214 45.0882C74.8189 45.2009 75.4577 46.0062 75.3475 46.8812C75.2429 47.6918 74.5326 48.2823 73.7176 48.2823ZM73.7176 45.4855C73.1119 45.4855 72.5833 45.9257 72.5062 46.5269C72.4236 47.1764 72.8971 47.7777 73.5634 47.8582C74.2352 47.9441 74.8464 47.4771 74.929 46.8275C75.0116 46.1726 74.5381 45.5767 73.8718 45.4962C73.8222 45.4908 73.7672 45.4855 73.7176 45.4855Z" fill="#22263F"/>
<path d="M75.2981 45.2761C75.265 45.2761 75.2265 45.2761 75.1879 45.2707C74.9677 45.2439 74.7695 45.1365 74.6318 44.9648C74.4941 44.793 74.4336 44.5782 74.4611 44.3635C74.5217 43.918 74.9346 43.6012 75.3917 43.6603C75.8487 43.7193 76.1736 44.1273 76.113 44.5675C76.0855 44.7822 75.9699 44.9755 75.7937 45.1097C75.645 45.2224 75.4688 45.2815 75.2871 45.2815L75.2981 45.2761ZM75.2981 44.0575C75.0943 44.0575 74.9126 44.2078 74.8906 44.4118C74.8741 44.5192 74.9071 44.6266 74.9732 44.7071C75.0393 44.793 75.1384 44.8467 75.2485 44.8574C75.3586 44.8735 75.4688 44.8413 75.5514 44.7769C75.6395 44.7125 75.6945 44.6158 75.7056 44.5085C75.7331 44.2884 75.5734 44.0844 75.3476 44.0575C75.3311 44.0575 75.3146 44.0575 75.2981 44.0575Z" fill="#22263F"/>
<path d="M88.6466 46.1888C88.5805 46.1888 88.5089 46.1888 88.4428 46.178C88.0133 46.1244 87.6334 45.915 87.3691 45.5822C87.1047 45.2493 86.9891 44.836 87.0442 44.4226C87.0992 44.0039 87.314 43.6335 87.6554 43.3758C87.9968 43.1182 88.4153 43.0054 88.8448 43.0591C89.7259 43.1665 90.3536 43.9556 90.2435 44.8199C90.1388 45.6144 89.445 46.1941 88.6466 46.1941V46.1888ZM88.6466 43.4563C88.3823 43.4563 88.129 43.5422 87.9197 43.6979C87.6664 43.8858 87.5067 44.1596 87.4682 44.4709C87.4296 44.7769 87.5122 45.0829 87.7105 45.3299C87.9032 45.5768 88.184 45.7325 88.5034 45.7701C89.1532 45.8559 89.7534 45.3996 89.836 44.7662C89.8745 44.4602 89.7919 44.1542 89.5937 43.9073C89.401 43.6603 89.1201 43.5047 88.8008 43.4671C88.7512 43.4617 88.7016 43.4563 88.6466 43.4563Z" fill="#22263F"/>
<path d="M86.3061 48.5668C86.262 48.5668 86.2235 48.5668 86.1794 48.5615C85.9151 48.5292 85.6838 48.4004 85.5186 48.1964C85.3589 47.9924 85.2874 47.7401 85.3204 47.4824C85.392 46.951 85.8876 46.5752 86.4327 46.645C86.9778 46.7094 87.3633 47.1979 87.2917 47.7294C87.2256 48.2179 86.8016 48.5776 86.3061 48.5776V48.5668ZM86.3061 47.0422C86.0197 47.0422 85.7774 47.2462 85.7389 47.5308C85.7169 47.6811 85.7609 47.826 85.8545 47.9441C85.9481 48.0622 86.0803 48.1374 86.2345 48.1535C86.5483 48.1964 86.8347 47.9763 86.8732 47.6703C86.9118 47.3643 86.6915 47.0852 86.3776 47.0476C86.3556 47.0476 86.3281 47.0476 86.3061 47.0476V47.0422Z" fill="#22263F"/>
<path d="M104.102 99.3675C103.777 99.3675 103.452 99.3407 103.122 99.2816C101.718 99.0293 100.501 98.2563 99.6913 97.1075C98.8819 95.9587 98.5845 94.5737 98.8433 93.2048C99.1076 91.8359 99.8951 90.6495 101.073 89.8604C102.252 89.0713 103.673 88.7814 105.077 89.0337C106.481 89.286 107.698 90.059 108.507 91.2078C109.317 92.3566 109.614 93.7416 109.355 95.1105C108.876 97.6121 106.624 99.3675 104.097 99.3675H104.102ZM104.091 89.5114C103.138 89.5114 102.208 89.7906 101.409 90.3274C100.363 91.0307 99.6528 92.0882 99.4215 93.3068C98.9424 95.8245 100.649 98.2509 103.232 98.7179C105.815 99.185 108.304 97.5208 108.783 95.0031C109.014 93.7845 108.75 92.5499 108.028 91.5245C107.307 90.4992 106.222 89.8121 104.972 89.5866C104.68 89.5329 104.383 89.5061 104.091 89.5061V89.5114Z" fill="#22263F"/>
<path d="M100.682 95.1159C100.55 95.1159 100.429 95.0246 100.396 94.8904C100.159 93.8329 100.413 92.6787 101.073 91.8144C101.74 90.9448 102.797 90.3811 103.904 90.3006C104.069 90.2899 104.207 90.408 104.218 90.5637C104.229 90.7193 104.107 90.8589 103.948 90.8696C103.006 90.9394 102.109 91.4172 101.541 92.158C100.98 92.8988 100.76 93.8758 100.963 94.7723C100.996 94.928 100.897 95.0783 100.743 95.1105C100.721 95.1105 100.699 95.1159 100.682 95.1159Z" fill="#22263F"/>
<path d="M93.9429 103.759C93.7502 103.759 93.5519 103.743 93.3537 103.705C91.5971 103.383 90.4352 101.73 90.7656 100.022C90.9253 99.1904 91.4044 98.471 92.1202 97.9933C92.8306 97.5155 93.6951 97.3383 94.5431 97.4994C96.2942 97.8161 97.456 99.4695 97.1312 101.177C96.8393 102.696 95.4792 103.759 93.9484 103.759H93.9429ZM93.9374 98.0147C93.4087 98.0147 92.8966 98.1704 92.4506 98.4657C91.8614 98.8575 91.4704 99.448 91.3383 100.13C91.0685 101.531 92.0211 102.884 93.4638 103.147C94.901 103.41 96.2887 102.476 96.553 101.075C96.8228 99.6735 95.8702 98.3261 94.433 98.063C94.2678 98.0308 94.1026 98.0201 93.9374 98.0201V98.0147Z" fill="#22263F"/>
<path d="M90.6502 92.4908C89.5048 92.4908 88.5742 91.5836 88.5742 90.467C88.5742 89.3504 89.5048 88.4432 90.6502 88.4432C91.7955 88.4432 92.7261 89.3504 92.7261 90.467C92.7261 91.5836 91.7955 92.4908 90.6502 92.4908ZM90.6502 89.0122C89.8297 89.0122 89.1579 89.6618 89.1579 90.467C89.1579 91.2722 89.8242 91.9218 90.6502 91.9218C91.4761 91.9218 92.1424 91.2722 92.1424 90.467C92.1424 89.6618 91.4706 89.0122 90.6502 89.0122Z" fill="#22263F"/>
<defs>
<clipPath id="clip0_399_4649">
<rect width="9.98444" height="14.8395" fill="white" transform="matrix(0.935576 0.353124 -0.360819 0.932636 5.35449 82.6817)"/>
</clipPath>
</defs>
</svg>
