<svg width="120" height="114" viewBox="0 0 120 114" fill="none" xmlns="http://www.w3.org/2000/svg">
<path opacity="0.5" fill-rule="evenodd" clip-rule="evenodd" d="M119.34 7.03735V104C119.34 109.523 114.863 114 109.34 114H35.9412C36.6961 112.542 37.7801 111.241 39.1308 110.25C36.7874 109.398 34.6844 108.001 33.0095 106.229C29.7047 102.731 28.1499 97.9623 29.1489 93.3356C29.945 89.6432 32.2358 86.2423 35.4355 83.9924C33.4902 82.5424 31.8528 80.7335 30.621 78.693C27.6993 73.8869 27.1209 68.0119 29.3892 62.8694C30.9125 59.4268 33.5379 56.4468 36.8234 54.3989C33.4371 50.4974 31.8003 45.2661 32.4687 40.2515C33.1822 34.8474 36.5546 29.8096 41.4291 26.887C40.3926 20.6981 43.1266 14.0831 48.3241 10.1889C53.5141 6.29469 60.9574 5.27815 67.1088 7.62515C70.6915 2.87135 76.8204 -0.0661396 83.0093 0.00113122C89.1908 0.068402 95.2596 3.14791 98.7221 7.97646C102.14 3.51416 108.899 1.63805 114.337 3.6487C116.275 4.36618 117.98 5.55573 119.34 7.03735Z" fill="#B2E9FD"/>
<g clip-path="url(#clip0_399_4226)">
<path d="M35.1119 20.5705C35.0232 20.4997 34.8972 20.5847 34.8131 20.665C34.7337 20.7453 34.603 20.8303 34.5143 20.7595C34.4816 20.7358 34.4629 20.6933 34.4489 20.6556C34.4396 20.6367 34.4349 20.6178 34.4209 20.5989L34.533 20.5469C34.547 20.5139 34.5563 20.4808 34.5703 20.4478C34.9485 19.4796 35.3874 18.535 35.8917 17.6283C35.9617 17.5055 36.0458 17.3685 36.1765 17.3307C36.1111 17.4913 36.2372 17.6991 36.4053 17.7086C36.4753 17.7086 36.5454 17.6944 36.6107 17.7133C36.7368 17.7558 36.7695 17.9116 36.7882 18.0439C36.8115 18.1761 36.8815 18.3367 37.0123 18.3272C37.0776 18.3272 37.1337 18.2753 37.199 18.2847C37.2177 18.2847 37.2317 18.2942 37.2457 18.2989C37.3298 18.3461 37.3391 18.4973 37.2924 18.6059C37.2411 18.724 37.1617 18.8656 37.2271 18.979C37.2411 19.0026 37.2597 19.0262 37.2831 19.0404C37.3531 19.0923 37.4512 19.1065 37.5259 19.1537C37.6753 19.2529 37.6986 19.4749 37.6239 19.6402C37.5492 19.8007 37.4092 19.9188 37.2738 20.0322C37.2738 20.0322 37.2738 20.0322 37.2644 20.0369C36.564 20.6083 35.859 21.1798 35.154 21.7512C35.1633 21.6284 35.1726 21.5057 35.1866 21.3876C35.2053 21.1609 35.224 20.9295 35.1773 20.7075C35.168 20.6556 35.1493 20.6036 35.1073 20.5705H35.1119Z" fill="#FCB831"/>
<path d="M30.9424 21.3215C30.4335 20.92 30.0226 20.3958 29.7565 19.796C29.7144 19.6969 29.6911 19.5504 29.7891 19.5079C29.8358 19.4843 29.8919 19.5032 29.9432 19.5221C30.1393 19.5788 30.3868 19.5835 30.5035 19.4182C30.6109 19.2718 30.5642 19.0687 30.5642 18.8893C30.5642 18.8326 30.5876 18.757 30.6436 18.757C30.6623 18.757 30.6856 18.7712 30.7043 18.7806C30.7837 18.8326 30.8677 18.8798 30.9471 18.927C30.9751 18.9459 31.0031 18.9648 31.0405 18.9648C31.0965 18.9648 31.1432 18.9223 31.1665 18.8704C31.1899 18.8184 31.1946 18.7618 31.2039 18.7051C31.2132 18.6484 31.2272 18.5917 31.2459 18.5351C31.2646 18.4831 31.2926 18.4312 31.3206 18.3792C31.33 18.365 31.3393 18.3462 31.358 18.3414C31.372 18.3367 31.3907 18.3414 31.4047 18.3461C31.4747 18.3792 31.5121 18.4548 31.5588 18.5114C31.6054 18.5681 31.6988 18.6106 31.7549 18.5634C31.7782 18.5445 31.7922 18.5162 31.8016 18.4878C31.8296 18.417 31.8529 18.3461 31.8809 18.2753C31.8903 18.2422 31.9043 18.2139 31.9276 18.195C31.9883 18.1478 32.0724 18.2045 32.1237 18.2611C32.3338 18.4878 32.4879 18.7523 32.614 19.0357C32.8288 19.5079 32.9735 20.0274 33.2303 20.4761C33.2256 20.5611 33.2397 20.6603 33.2023 20.7406C33.0809 20.6225 32.9221 20.5469 32.7541 20.5375C32.7167 20.5375 32.6794 20.5375 32.6467 20.5517C32.5253 20.6083 32.5439 20.8209 32.4179 20.8681C32.3152 20.9059 32.2264 20.7973 32.1331 20.7311C32.1144 20.7217 32.0957 20.7075 32.077 20.7122C32.0163 20.7217 32.0397 20.8114 32.049 20.8728C32.063 20.9625 31.993 21.0476 31.9089 21.0806C31.8296 21.1137 31.7315 21.1042 31.6475 21.0806C31.5868 21.0664 31.5261 21.0428 31.4654 21.057C31.4047 21.0664 31.344 21.1231 31.3533 21.1845C31.358 21.2081 31.372 21.227 31.386 21.2459C31.4233 21.2979 31.456 21.3498 31.4934 21.4018L31.3393 21.5104C31.2039 21.4584 31.0685 21.4018 30.9331 21.3498L30.9424 21.3262V21.3215Z" fill="#FCB831"/>
<path d="M27.9075 16.2728C27.8421 16.1973 27.7814 16.0981 27.8235 16.0084C27.8515 15.947 27.9262 15.9186 27.9869 15.8997C28.1503 15.8525 28.3277 15.8383 28.4958 15.8525C28.5565 15.7486 28.4258 15.6069 28.4818 15.4983C28.5145 15.4369 28.6032 15.4133 28.6686 15.4369C28.7339 15.4605 28.79 15.5125 28.8413 15.5644C28.8413 15.3708 28.846 15.1772 28.8507 14.9788C28.8507 14.9505 28.8507 14.9221 28.8647 14.8985C28.902 14.8418 28.9907 14.8607 29.0421 14.8985C29.0935 14.941 29.1308 15.0071 29.1962 15.026C29.3269 15.0685 29.4343 14.908 29.4343 14.771C29.4343 14.634 29.3689 14.5018 29.3783 14.3648C29.3783 14.3271 29.3876 14.2893 29.4156 14.2609C29.495 14.1807 29.6258 14.2751 29.7005 14.3648C30.7277 15.6683 31.6615 17.0426 32.4926 18.4831H32.5486C32.5627 18.6578 32.5907 18.8373 32.6187 19.0167C32.4926 18.7334 32.3385 18.4689 32.1284 18.2422C32.0771 18.1855 31.993 18.1336 31.9323 18.1761C31.909 18.195 31.895 18.228 31.8856 18.2564C31.8576 18.3272 31.8343 18.3981 31.8062 18.4689C31.7969 18.4972 31.7829 18.5256 31.7596 18.5445C31.7035 18.5917 31.6101 18.5539 31.5635 18.4925C31.5168 18.4358 31.4794 18.3603 31.4094 18.3272C31.3954 18.3178 31.3767 18.3178 31.3627 18.3225C31.344 18.3272 31.3347 18.3461 31.3253 18.3603C31.2973 18.4122 31.2693 18.4642 31.2506 18.5161L31.1292 18.6059C30.7837 18.4547 30.4335 18.3083 30.0833 18.1714C29.5324 17.6991 28.9861 17.2221 28.4351 16.7498C28.2577 16.594 28.0756 16.4381 27.9168 16.2587L27.9075 16.2728Z" fill="#FCB831"/>
<path d="M38.3243 16.764C38.3663 16.8254 38.4691 16.849 38.4784 16.9293C38.4831 16.9718 38.4597 17.0049 38.4364 17.038C38.0955 17.5055 37.694 17.9306 37.2457 18.3036C37.2317 18.2942 37.2177 18.2895 37.199 18.2895C37.1337 18.2848 37.0777 18.332 37.0123 18.332C36.8815 18.3414 36.8115 18.1809 36.7882 18.0486C36.7695 17.9164 36.7368 17.7558 36.6107 17.718C36.5454 17.6991 36.4753 17.718 36.4053 17.7133C36.2372 17.7039 36.1111 17.4961 36.1765 17.3355C36.0411 17.3733 35.9571 17.5055 35.8917 17.633C35.3921 18.5445 34.9485 19.4843 34.5703 20.4525C34.645 19.6213 34.7151 18.7901 34.7898 17.9589C35.266 17.2552 35.7423 16.5515 36.2185 15.8431C36.3072 15.7156 36.396 15.5834 36.4707 15.4417L36.5874 15.4653C36.8208 15.2103 37.0823 14.9836 37.3765 14.7994C37.3485 15.0497 37.3204 15.3047 37.2971 15.555C37.2971 15.5834 37.2924 15.6164 37.3064 15.64C37.3531 15.6967 37.4418 15.6353 37.5166 15.64C37.6193 15.6495 37.6473 15.7817 37.6333 15.8809C37.6193 15.9801 37.5773 16.0934 37.6333 16.1784C37.7687 16.1217 37.9695 16.0981 38.0115 16.2351C38.0348 16.3154 37.9835 16.4287 38.0582 16.4759C38.1049 16.509 38.1656 16.4807 38.2169 16.5043C38.301 16.5468 38.2636 16.679 38.3196 16.7593L38.3243 16.764Z" fill="#FCB831"/>
<path d="M38.6182 19.9283C38.6182 19.9283 38.6182 19.9283 38.6229 19.9283C38.6929 19.9708 38.6742 20.0747 38.6602 20.1597C38.6462 20.24 38.6649 20.358 38.7489 20.358C38.7956 20.358 38.8423 20.3203 38.8843 20.3392C38.9357 20.3628 38.9217 20.4383 38.903 20.4903C38.8517 20.632 38.7956 20.7736 38.7443 20.9106C38.8517 20.8823 38.9637 20.8587 39.0664 20.835C39.0197 21.0192 38.9731 21.2081 38.9264 21.3923C38.9124 21.4584 38.903 21.5482 38.9684 21.5765C38.9917 21.586 39.0197 21.5812 39.0478 21.5765C39.1738 21.5529 39.2999 21.5246 39.426 21.5009C39.1178 21.9685 38.7489 22.3983 38.3381 22.7761C38.0065 22.7855 37.675 22.8091 37.3575 22.88C37.3902 22.8328 37.4276 22.7855 37.4603 22.7383C37.6797 22.4219 37.8945 22.0818 37.9365 21.6993C37.9412 21.6426 37.9412 21.5812 37.8992 21.5482C37.8805 21.534 37.8571 21.5246 37.8291 21.5246C37.7311 21.5151 37.6377 21.5718 37.5583 21.6332C37.4789 21.6993 37.3996 21.7654 37.3015 21.7796C37.2034 21.7938 37.082 21.7324 37.082 21.6285C37.082 21.5482 37.1474 21.4537 37.082 21.4018C37.0587 21.3829 37.0307 21.3829 36.998 21.3876C36.8859 21.4018 36.7926 21.4821 36.6898 21.5198C36.5824 21.5623 36.4284 21.5387 36.4097 21.4254C36.3957 21.3545 36.4377 21.2554 36.3723 21.2176C36.3443 21.1987 36.307 21.2081 36.2743 21.2176C36.0828 21.279 35.9661 21.4726 35.8681 21.6521C35.5832 22.1716 35.3031 22.6911 35.0229 23.2106C35.0556 22.8186 35.0883 22.4219 35.121 22.0299C35.1303 21.9354 35.1397 21.841 35.1443 21.7418C35.8494 21.1704 36.5544 20.5989 37.2548 20.0275C37.2548 20.0275 37.2548 20.0275 37.2641 20.0227L37.2828 20.0463C37.563 19.9519 37.8431 19.8527 38.1233 19.7535C38.184 19.7346 38.254 19.711 38.3054 19.7488C38.3521 19.7819 38.3707 19.848 38.4221 19.8763C38.4735 19.9047 38.5482 19.881 38.5995 19.9141L38.6182 19.9283Z" fill="#FCB831"/>
<path d="M39.4497 23.697C39.2909 23.867 39.1228 24.0417 38.9594 24.2118C38.9407 24.2354 38.9174 24.2637 38.9314 24.292C38.9407 24.3109 38.9641 24.3157 38.9921 24.3204C39.1182 24.3393 39.2396 24.3629 39.3656 24.3818C39.3937 24.4479 39.3143 24.4998 39.2442 24.5235C38.4411 24.8021 37.6054 24.9957 36.7603 25.1091C36.6809 24.7974 36.5595 24.4007 36.3867 24.1173C36.4381 24.0559 36.4894 23.9945 36.5408 23.9331C36.821 23.5884 37.0918 23.2389 37.3486 22.8799C37.6661 22.8044 37.9976 22.7808 38.3291 22.776C38.4692 22.7713 38.6139 22.7666 38.754 22.7666C38.866 22.7666 39.0014 22.776 39.0435 22.8752C39.0808 22.9461 39.0528 23.0311 39.0668 23.1066C39.0902 23.2105 39.2022 23.2861 39.3049 23.2672C39.1835 23.4231 39.0762 23.5884 38.9781 23.7584C39.1322 23.7395 39.2863 23.7159 39.4357 23.6923L39.4497 23.697Z" fill="#FCB831"/>
<path d="M36.5174 14.6955C36.6201 14.7427 36.6388 14.8844 36.6201 14.9977C36.5968 15.1536 36.5407 15.3 36.466 15.4369C36.3913 15.5786 36.3026 15.7109 36.2139 15.8384C35.7376 16.5468 35.2614 17.2505 34.7851 17.9542C34.8085 17.7133 34.8271 17.4724 34.8505 17.2316C34.8552 17.1655 34.8505 17.0852 34.7898 17.071C34.7384 17.0568 34.6964 17.1041 34.6404 17.1182C34.5517 17.1418 34.477 17.0474 34.3882 17.0191C34.2949 16.9907 34.1968 17.0332 34.1221 17.0946C34.0567 17.1513 34.01 17.2221 33.954 17.293C33.7766 16.8774 33.6505 16.4476 33.5571 16.0037C33.7812 15.1441 34.0614 14.3035 34.4022 13.4817C34.4816 13.2928 34.5797 13.0897 34.7711 13.0189C34.8085 13.0047 34.8505 13 34.8832 13.0142C34.9112 13.0283 34.9252 13.052 34.9439 13.0708C34.9999 13.1653 35.0139 13.2786 35.0559 13.3778C35.0933 13.477 35.182 13.5762 35.2847 13.5715C35.3921 13.5667 35.5228 13.4581 35.5882 13.5478C35.6116 13.5809 35.6116 13.6234 35.6069 13.6612C35.6022 13.7509 35.5929 13.8406 35.5882 13.9304C35.5882 13.9729 35.5882 14.0296 35.6256 14.0484C35.6583 14.0673 35.7003 14.0484 35.733 14.0296C35.8684 13.954 36.0084 13.8832 36.1438 13.8076C36.1952 13.9587 36.1485 14.124 36.1438 14.2846C36.1438 14.4452 36.1999 14.6388 36.354 14.6766C36.4053 14.686 36.466 14.6766 36.5174 14.7049V14.6955Z" fill="#FCB831"/>
<path d="M37.3577 22.8894C37.1009 23.2531 36.8301 23.6025 36.55 23.9426C36.4986 24.004 36.4473 24.0654 36.3959 24.1268C36.2652 24.2779 36.1204 24.4196 35.9523 24.5282C35.8263 24.6132 35.6862 24.6793 35.5368 24.6604C35.3547 24.6415 35.2053 24.4904 35.1259 24.3251C35.0512 24.1551 35.0325 23.9662 35.0185 23.782L34.9531 23.8009C34.9858 23.6875 34.9998 23.56 35.0092 23.442C35.0138 23.3711 35.0232 23.2956 35.0278 23.2247C35.308 22.7052 35.5881 22.181 35.8729 21.6662C35.971 21.4867 36.0877 21.2931 36.2792 21.2317C36.3118 21.2223 36.3445 21.2176 36.3772 21.2317C36.4379 21.2742 36.3959 21.3687 36.4146 21.4395C36.4379 21.5529 36.5873 21.5765 36.6947 21.534C36.8021 21.4962 36.8908 21.4112 37.0029 21.4017C37.0309 21.397 37.0636 21.4017 37.0869 21.4159C37.1476 21.4679 37.0869 21.5623 37.0869 21.6426C37.0869 21.7465 37.2083 21.8079 37.3064 21.7937C37.4044 21.7748 37.4838 21.7087 37.5632 21.6473C37.6426 21.5859 37.7359 21.5293 37.834 21.5387C37.862 21.5387 37.8854 21.5481 37.904 21.5623C37.9461 21.5954 37.9461 21.6615 37.9414 21.7134C37.8994 22.096 37.6799 22.436 37.4651 22.7524C37.4324 22.7997 37.3951 22.8469 37.3624 22.8941L37.3577 22.8894Z" fill="#FCB831"/>
<path d="M34.7899 17.9541C34.7198 18.7901 34.6451 19.6165 34.5704 20.4477C34.5564 20.4808 34.5471 20.5139 34.5331 20.5469L34.421 20.5989C34.3977 20.5375 34.3697 20.4714 34.3416 20.41C34.3276 20.3816 34.309 20.3486 34.2856 20.3297C34.2249 20.2919 34.1502 20.3438 34.1129 20.4052C34.0755 20.4619 34.0522 20.5375 33.9915 20.5753C33.9121 20.6225 33.814 20.5894 33.7393 20.528C33.6693 20.4714 33.6179 20.3911 33.5479 20.3297C33.4732 20.273 33.3658 20.2494 33.2911 20.3061C33.2397 20.3438 33.2304 20.4052 33.2304 20.4714C32.9736 20.0227 32.8288 19.5032 32.6141 19.0309C32.586 18.8515 32.558 18.672 32.544 18.4925C32.53 18.3461 32.516 18.1997 32.516 18.0533C32.5067 17.8172 32.516 17.5858 32.558 17.3544C32.5674 17.2882 32.586 17.2079 32.6514 17.1796C32.7635 17.1182 32.8755 17.2599 33.0016 17.2788C33.1417 17.3024 33.2584 17.1796 33.3284 17.0568C33.3518 17.019 33.3798 16.9765 33.4218 16.9813C33.4405 16.9813 33.4592 16.9954 33.4685 17.0096C33.5339 17.0804 33.5526 17.1749 33.5992 17.2552C33.6413 17.3355 33.7253 17.4157 33.8187 17.3969C33.8701 17.3874 33.9121 17.3496 33.9448 17.3118C33.9494 17.3024 33.9588 17.2977 33.9634 17.2882C34.0195 17.2221 34.0662 17.1513 34.1315 17.0899C34.2016 17.0285 34.3043 16.986 34.3977 17.0143C34.4864 17.0427 34.5611 17.1371 34.6498 17.1135C34.7012 17.104 34.7479 17.0568 34.7992 17.0663C34.8599 17.0804 34.8693 17.1654 34.8599 17.2268C34.8366 17.4677 34.8179 17.7133 34.7946 17.9494L34.7899 17.9541Z" fill="#FCB831"/>
<path d="M32.595 25.5247C32.8144 25.5813 33.0526 25.5152 33.2393 25.3735C33.4261 25.2319 33.5568 25.0241 33.6316 24.8021C33.6782 24.6604 33.7063 24.5046 33.6502 24.3676C33.6409 24.344 33.6269 24.3204 33.6082 24.3015C33.781 24.3676 33.9771 24.3723 34.1638 24.3534C34.4346 24.3251 34.7195 24.2259 34.8689 23.9992C34.9062 23.9378 34.9342 23.8717 34.9576 23.8009L35.023 23.782C35.037 23.9662 35.051 24.1551 35.1304 24.3251C35.2097 24.4904 35.3545 24.6415 35.5412 24.6604C35.6907 24.6793 35.8307 24.6132 35.9568 24.5282C36.1202 24.4148 36.265 24.2731 36.4004 24.1267C36.5685 24.4101 36.6945 24.8021 36.7739 25.1185C36.8439 25.4019 36.8813 25.6144 36.8813 25.6144C36.8159 25.6475 36.7459 25.6805 36.6805 25.7136C35.107 26.4645 33.3981 26.7101 32.7164 26.7809C32.525 26.7998 32.4129 26.8093 32.4129 26.8093C32.4129 26.8093 32.3148 26.5873 32.2495 26.2661C32.1981 26.0017 32.1701 25.6758 32.2401 25.3499C32.3569 25.416 32.4783 25.4774 32.6043 25.5294L32.595 25.5247Z" fill="#2F9AEB"/>
<path d="M34.2805 29.5721C34.0144 29.591 33.837 29.5957 33.837 29.5957C33.837 29.5957 33.7342 28.3442 33.6175 27.9144C33.5055 27.4846 32.707 26.7857 32.707 26.7857C33.3887 26.7148 35.0976 26.4692 36.6711 25.7183C36.6525 25.7844 36.363 26.8471 36.3583 27.2627C36.3583 27.6924 36.8626 28.7928 36.8626 28.7928C36.7785 28.8684 36.6852 28.9298 36.5871 28.9912C35.8961 29.4021 34.8595 29.539 34.2759 29.5815L34.2805 29.5721Z" fill="#2F9AEB"/>
<path d="M35.1587 21.756C35.154 21.8504 35.1446 21.9449 35.1353 22.0441C35.1026 22.436 35.0699 22.8328 35.0373 23.2247C35.0326 23.2956 35.0232 23.3711 35.0186 23.442C35.0092 23.5601 34.9952 23.6876 34.9625 23.8009C34.9439 23.8718 34.9112 23.9379 34.8738 23.9993C34.7244 24.2307 34.4396 24.3251 34.1688 24.3535C33.982 24.3724 33.7859 24.3676 33.6132 24.3015C33.5805 24.2496 33.5385 24.2071 33.4964 24.1598C33.2536 23.9095 33.0015 23.6734 32.74 23.442C32.3712 22.7289 31.9603 22.0441 31.498 21.3923C31.4607 21.3404 31.428 21.2884 31.3906 21.2365C31.3766 21.2176 31.3626 21.194 31.358 21.1751C31.3486 21.1137 31.4046 21.057 31.47 21.0476C31.5307 21.0381 31.5914 21.057 31.6521 21.0712C31.7362 21.0948 31.8342 21.1042 31.9136 21.0712C31.9976 21.0381 32.063 20.9531 32.0537 20.8634C32.0443 20.802 32.021 20.717 32.0817 20.7028C32.1004 20.7028 32.119 20.7122 32.1377 20.7217C32.2264 20.7878 32.3198 20.8964 32.4225 20.8586C32.5486 20.8114 32.5299 20.5989 32.6513 20.5422C32.684 20.5233 32.7213 20.5281 32.7587 20.5281C32.9268 20.5422 33.0855 20.6131 33.2069 20.7311C33.2443 20.6508 33.2303 20.5564 33.235 20.4667C33.235 20.4005 33.249 20.3391 33.2957 20.3014C33.3704 20.2447 33.4778 20.273 33.5525 20.325C33.6225 20.3816 33.6739 20.4619 33.7439 20.5233C33.8139 20.5847 33.9167 20.6178 33.996 20.5706C34.0567 20.5328 34.0801 20.4619 34.1174 20.4005C34.1501 20.3391 34.2295 20.2872 34.2902 20.325C34.3182 20.3391 34.3322 20.3722 34.3462 20.4053C34.3742 20.4714 34.4022 20.5328 34.4256 20.5942C34.4349 20.6131 34.4443 20.632 34.4536 20.6508C34.4676 20.6886 34.4863 20.7311 34.519 20.7547C34.6124 20.8256 34.7384 20.7406 34.8178 20.6603C34.9018 20.58 35.0279 20.495 35.1166 20.5658C35.1587 20.5989 35.1773 20.6508 35.1867 20.7028C35.2334 20.9248 35.2147 21.1562 35.196 21.3829C35.1867 21.5009 35.1727 21.6237 35.1633 21.7465L35.1587 21.756Z" fill="#FCB831"/>
<path d="M33.5568 15.999C33.6548 16.4429 33.7762 16.8727 33.9536 17.2883C33.949 17.2977 33.9396 17.3072 33.935 17.3119C33.8976 17.3497 33.8603 17.3875 33.8089 17.3969C33.7202 17.4158 33.6361 17.3355 33.5894 17.2552C33.5474 17.1749 33.5241 17.0758 33.4587 17.0096C33.4447 16.9955 33.4307 16.9813 33.412 16.9813C33.37 16.9719 33.342 17.0191 33.3186 17.0569C33.2486 17.1797 33.1319 17.3072 32.9918 17.2788C32.8657 17.2599 32.7537 17.1183 32.6416 17.1797C32.5809 17.2127 32.5576 17.2883 32.5482 17.3544C32.5062 17.5858 32.4969 17.8219 32.5062 18.0534H32.3988C31.8899 16.6979 31.3763 15.3378 30.872 13.9776C30.8346 13.8785 30.7973 13.7746 30.8066 13.6659C30.816 13.5573 30.8813 13.4487 30.9887 13.4251C31.0448 13.4156 31.0961 13.4298 31.1521 13.4251C31.2689 13.4251 31.3856 13.3684 31.451 13.2692C31.4977 13.1984 31.535 13.1039 31.6191 13.0945C31.8058 13.0709 31.7825 13.4818 31.9692 13.4818C32.0953 13.4818 32.128 13.2834 32.2401 13.2267C32.3428 13.1748 32.4688 13.2645 32.5109 13.3731C32.5529 13.4818 32.5529 13.6045 32.5856 13.7132C32.6229 13.8265 32.721 13.9351 32.833 13.9162C32.9311 13.9021 33.0151 13.7887 33.1085 13.8265C33.1786 13.8501 33.2019 13.9351 33.2112 14.0107C33.3233 14.6719 33.4073 15.3425 33.5521 15.9942L33.5568 15.999Z" fill="#FCB831"/>
<path d="M36.5967 28.9912C36.5967 28.9912 44.4642 56.5106 44.3802 57.1765C44.2914 57.8471 43.6471 59.3254 42.6993 59.3395C41.7514 59.3584 40.5374 59.2592 40.0799 58.5083C39.6223 57.7574 39.2861 56.1564 37.8433 48.7512C36.4799 41.7284 34.4862 30.6867 34.2808 29.5674C34.8644 29.5249 35.901 29.3927 36.592 28.9771V28.9865L36.5967 28.9912Z" fill="#46CDCF"/>
<path d="M31.288 24.8257C31.0592 24.6982 30.8211 24.566 30.5876 24.4384C30.4009 24.3345 30.2094 24.2306 30.046 24.089C29.9947 24.0417 29.9433 23.9614 29.99 23.9142C30.0133 23.8906 30.046 23.8859 30.0787 23.8812C30.1954 23.8717 30.3122 23.8481 30.4289 23.8198C30.4756 23.8056 30.5269 23.782 30.5269 23.7348C30.5269 23.7111 30.5129 23.6923 30.4989 23.6686C30.4336 23.5742 30.3869 23.4656 30.3682 23.3475C30.3589 23.3097 30.3589 23.2625 30.3915 23.2341C30.4009 23.2294 30.4055 23.2247 30.4102 23.2247C30.4569 23.2105 30.5129 23.2578 30.569 23.2625C30.6483 23.2672 30.709 23.1775 30.7137 23.0972C30.7137 23.0169 30.6717 22.9413 30.6343 22.8658C30.6017 22.7902 30.5736 22.7005 30.6063 22.6249C30.639 22.6674 30.695 22.691 30.7464 22.6721C30.7137 22.5494 30.6764 22.4313 30.639 22.3085C30.6297 22.2707 30.6203 22.2235 30.6483 22.1951C30.667 22.1715 30.7044 22.1668 30.7371 22.1668C31.1013 22.181 31.4234 22.3982 31.7176 22.6155C32.0678 22.8752 32.4086 23.1539 32.7308 23.4467C32.9923 23.6734 33.2444 23.9142 33.4872 24.1645C33.5292 24.2118 33.5759 24.2543 33.6039 24.3062C33.6226 24.3251 33.6366 24.3487 33.6459 24.3723C33.702 24.5093 33.674 24.6651 33.6273 24.8068C33.5526 25.0288 33.4218 25.2366 33.2351 25.3783C33.053 25.52 32.8102 25.5813 32.5907 25.5294C32.4693 25.4774 32.3479 25.4161 32.2265 25.3499C32.1425 25.3074 32.0631 25.2602 31.9791 25.2177C31.7456 25.0855 31.5121 24.9579 31.2787 24.8304L31.288 24.8257Z" fill="#FCB831"/>
<path d="M30.0738 18.1903C30.424 18.332 30.7742 18.4737 31.1197 18.6248L31.2411 18.5351C31.2224 18.587 31.2037 18.6437 31.1991 18.7051C31.1897 18.7618 31.1851 18.8184 31.1617 18.8704C31.1384 18.9223 31.087 18.9648 31.0357 18.9648C31.003 18.9648 30.9703 18.9459 30.9423 18.927C30.8629 18.8798 30.7835 18.8326 30.6995 18.7806C30.6808 18.7712 30.6621 18.7618 30.6388 18.757C30.5827 18.757 30.5594 18.8326 30.5594 18.8893C30.5594 19.0687 30.6014 19.2718 30.4987 19.4182C30.3773 19.5835 30.1345 19.5835 29.9384 19.5221C29.887 19.5032 29.8357 19.4891 29.7843 19.5079C29.6863 19.5504 29.7096 19.6969 29.7516 19.796C30.0178 20.3911 30.4287 20.92 30.9376 21.3215L30.9283 21.3451C30.5127 21.194 30.0925 21.0664 29.6536 21.0381C29.2567 21.0145 28.8458 21.0853 28.505 21.279C28.2855 21.2459 28.0567 21.279 27.8326 21.2884C27.5525 21.3026 27.2443 21.2742 27.0435 21.0712C27.0295 21.0523 27.0108 21.0334 27.0062 21.0145C26.9875 20.9295 27.1369 20.8728 27.1182 20.7878C27.1089 20.7406 27.0529 20.717 27.0062 20.6981C26.9595 20.6792 26.9128 20.632 26.9315 20.5847C26.9922 20.6036 27.0389 20.5233 27.0342 20.4619C27.0295 20.3958 26.9968 20.3391 26.9922 20.273C26.9922 20.0747 27.291 20.0133 27.347 19.8196C27.375 19.7252 27.3377 19.6213 27.2816 19.541C27.2303 19.456 27.1603 19.3852 27.1182 19.2954C27.1089 19.2765 27.1042 19.2576 27.1089 19.234C27.1136 19.1962 27.1649 19.1774 27.2023 19.1679C27.2957 19.1443 27.3937 19.1065 27.4544 19.0262C27.5571 18.8798 27.4824 18.6815 27.4124 18.5114C27.3984 18.4831 27.389 18.45 27.3937 18.4217C27.4077 18.3367 27.5244 18.3225 27.6085 18.3367C27.6832 18.3461 27.7486 18.3509 27.8233 18.3603C27.8466 18.365 27.87 18.3698 27.8886 18.3603C27.926 18.3367 27.926 18.28 27.9167 18.2328C27.884 18.0911 27.8373 17.9542 27.7719 17.8219C27.7299 17.7416 27.6879 17.6519 27.7159 17.5716C27.7392 17.4961 27.8279 17.4441 27.912 17.4394C27.996 17.4347 28.0801 17.4583 28.1548 17.4913C28.7898 17.718 29.4295 17.9447 30.0598 18.1856L30.0738 18.1903Z" fill="#FCB831"/>
<path d="M28.5096 21.279C28.8505 21.0901 29.266 21.0192 29.6582 21.0381C30.0971 21.0617 30.5174 21.194 30.9329 21.3451C31.0683 21.397 31.2037 21.4537 31.3391 21.5057L31.4932 21.397C31.9555 22.0535 32.3664 22.7383 32.7352 23.4467C32.413 23.1539 32.0722 22.8753 31.722 22.6155C31.4279 22.3983 31.1057 22.181 30.7415 22.1668C30.7088 22.1668 30.6714 22.1668 30.6528 22.1952C30.6248 22.2235 30.6341 22.266 30.6434 22.3085C30.6761 22.4313 30.7135 22.5494 30.7508 22.6722C30.6995 22.6911 30.6388 22.6722 30.6107 22.6249C30.5781 22.7005 30.6061 22.7902 30.6388 22.8658C30.6714 22.9414 30.7135 23.0122 30.7181 23.0972C30.7181 23.1822 30.6574 23.272 30.5734 23.2625C30.5174 23.2578 30.4613 23.2106 30.4146 23.2247C29.8263 23.3853 29.252 23.6026 28.6964 23.8765L28.6824 23.8481C28.603 23.8859 28.4956 23.8717 28.4116 23.8198C28.3042 23.7537 28.2341 23.6356 28.1641 23.5223C28.0894 23.4136 28.0007 23.305 27.8793 23.2672C27.8419 23.2578 27.8046 23.2531 27.7672 23.2295C27.7345 23.2106 27.7112 23.1633 27.7345 23.1303C27.7486 23.1114 27.7672 23.1067 27.7859 23.1019C27.898 23.0642 28.01 22.9744 28.0147 22.8516C28.0147 22.6958 27.8606 22.6013 27.7719 22.4738C27.7532 22.4502 27.7392 22.4171 27.7486 22.3888C27.7579 22.3652 27.7859 22.351 27.8093 22.3416C27.912 22.3038 28.0147 22.266 28.1174 22.2235C28.1454 22.266 28.2061 22.1952 28.1828 22.148C28.1548 22.1054 28.0987 22.0913 28.0567 22.0677C27.982 22.0299 27.9447 21.9307 27.9587 21.8457C27.9727 21.7607 28.0194 21.6851 28.0754 21.619C28.1968 21.4726 28.3462 21.3545 28.5143 21.2648L28.5096 21.279Z" fill="#FCB831"/>
<path d="M31.9881 25.213C32.0721 25.2555 32.1515 25.3027 32.2356 25.3452C32.1655 25.6664 32.1935 25.997 32.2449 26.2614L32.1515 26.2803C32.0581 26.3937 31.9647 26.507 31.876 26.6204C31.8574 26.644 31.8387 26.6629 31.8153 26.6723C31.7546 26.6959 31.6939 26.644 31.6659 26.5873C31.6379 26.5306 31.6379 26.4645 31.6052 26.4078C31.5772 26.3512 31.5118 26.2992 31.4558 26.3276C31.4325 26.337 31.4138 26.3653 31.3951 26.3889C31.3297 26.4787 31.2644 26.5731 31.2037 26.6676C31.171 26.7148 31.1243 26.7668 31.0683 26.762C31.0356 26.7573 31.0122 26.729 30.9936 26.7006C30.9515 26.6393 30.9329 26.5637 30.9002 26.5023C30.8675 26.4362 30.8115 26.3748 30.7368 26.3701C30.662 26.3653 30.5967 26.422 30.536 26.4692C30.4706 26.5117 30.3772 26.5354 30.3259 26.4787C30.3025 26.4503 30.2979 26.4078 30.2979 26.3701C30.2979 26.0914 30.4006 25.8222 30.5033 25.5625C30.5453 25.4491 30.592 25.3405 30.6387 25.2224C30.8535 25.0807 31.0729 24.9485 31.2971 24.8304C31.5305 24.958 31.764 25.0855 31.9974 25.2177L31.9881 25.213Z" fill="#FCB831"/>
<path d="M30.6294 25.2177C30.4146 25.3594 30.1998 25.5105 29.9943 25.6711C29.8916 25.7514 29.7889 25.8364 29.6675 25.8789C29.5228 25.9308 29.3593 25.9261 29.2239 25.9922C29.1679 26.0206 29.1119 26.0584 29.0512 26.0772C28.9905 26.0961 28.9111 26.0867 28.8738 26.0347C28.8457 25.9922 28.8504 25.9403 28.8504 25.8883L28.8784 25.4444C28.8784 25.4066 28.8784 25.3594 28.8411 25.3405C28.8224 25.331 28.799 25.3358 28.7804 25.3405C28.6263 25.3736 28.4769 25.468 28.3321 25.4208C28.2247 25.383 28.1547 25.2697 28.1407 25.161C28.1267 25.0477 28.1547 24.9296 28.1967 24.8257C28.2107 24.7879 28.2247 24.7454 28.2201 24.7076C28.2061 24.6321 28.1173 24.5943 28.038 24.5896C27.9633 24.5896 27.8792 24.6037 27.8092 24.5754C27.7905 24.566 27.7718 24.5565 27.7578 24.5329C27.7158 24.4668 27.7905 24.3912 27.8559 24.3487C28.1267 24.1834 28.4022 24.0276 28.687 23.8859C29.2379 23.612 29.8123 23.3947 30.4052 23.2294C30.4052 23.2294 30.3912 23.2389 30.3866 23.2436C30.3539 23.2672 30.3539 23.3192 30.3632 23.3569C30.3819 23.475 30.4286 23.5836 30.4939 23.6781C30.508 23.697 30.522 23.7206 30.522 23.7442C30.522 23.7914 30.4659 23.8198 30.4239 23.8292C30.3072 23.8576 30.1905 23.8764 30.0737 23.8906C30.041 23.8953 30.0037 23.9001 29.985 23.9237C29.9383 23.9709 29.9897 24.0512 30.041 24.0984C30.2045 24.2354 30.3959 24.344 30.5827 24.4479C30.8161 24.5801 31.0496 24.7076 31.283 24.8352C31.0589 24.9532 30.8395 25.0902 30.6247 25.2271L30.6294 25.2177Z" fill="#FCB831"/>
<path d="M33.2161 26.9226C33.1087 26.9226 33.0107 26.8565 32.978 26.7479C32.936 26.6157 33.006 26.4693 33.1368 26.4268C34.1173 26.0962 35.1305 25.8506 36.1577 25.6947C36.3024 25.6758 36.4238 25.7703 36.4425 25.9072C36.4612 26.0489 36.3678 26.1764 36.2324 26.1953C35.2379 26.3465 34.248 26.5873 33.3002 26.9085C33.2722 26.9179 33.2488 26.9226 33.2208 26.9226H33.2161Z" fill="#22263F"/>
<path d="M33.8933 29.9074C33.7626 29.9074 33.6505 29.8035 33.6412 29.6666C33.6319 29.5249 33.7392 29.4068 33.8746 29.3974C34.8925 29.3312 35.9011 29.029 36.7929 28.5236C36.9143 28.4575 37.0684 28.5 37.1384 28.6228C37.2084 28.7456 37.1617 28.9015 37.0403 28.9723C36.0832 29.5154 34.9999 29.8366 33.9073 29.9074C33.9027 29.9074 33.898 29.9074 33.8933 29.9074Z" fill="#22263F"/>
<path d="M32.2028 25.7892C32.1468 25.7892 32.0908 25.7703 32.0441 25.7325C31.0916 24.9627 30.1671 24.1362 29.2893 23.2767C29.0605 23.0547 29.0745 22.8658 29.1305 22.743C29.1819 22.625 29.3033 22.4974 29.6114 22.4927L30.0083 22.5022C29.9523 22.4313 29.9383 22.3369 29.971 22.2519C30.0083 22.1574 30.0924 22.096 30.1904 22.0913L30.9281 22.0393C30.9281 22.0393 30.9655 22.0393 30.9842 22.0346C30.9655 22.0299 30.9562 21.9827 30.9281 21.9307L30.8955 21.8693C30.8114 21.7229 30.704 21.5293 30.76 21.2932C30.7787 21.2081 30.8441 21.142 30.9235 21.1137C31.0075 21.0854 31.0962 21.1042 31.1616 21.1562C32.2215 22.0346 33.118 23.0783 33.8277 24.259C33.8977 24.3818 33.8604 24.5377 33.7436 24.6085C33.6269 24.6794 33.4682 24.6416 33.3981 24.5235C32.8612 23.6309 32.2168 22.8186 31.4698 22.1055C31.4558 22.2519 31.3857 22.3794 31.2643 22.4597C31.1523 22.5305 31.0355 22.54 30.9608 22.5447L30.6293 22.5683C30.6433 22.6155 30.6573 22.6627 30.6667 22.71C30.6807 22.7855 30.662 22.8658 30.6153 22.9225C30.5686 22.9839 30.4986 22.9981 30.4192 23.0122L29.7468 22.9981C30.5826 23.8104 31.4651 24.5896 32.3662 25.3264C32.4736 25.4161 32.4923 25.5767 32.4036 25.6853C32.3522 25.7467 32.2822 25.7798 32.2075 25.7798L32.2028 25.7892Z" fill="#22263F"/>
<path d="M32.5859 18.7806C32.5112 18.7806 32.4411 18.7476 32.3898 18.6862C31.3299 17.3969 30.3494 16.0178 29.4669 14.5963C29.3922 14.4782 29.4295 14.3176 29.5463 14.2468C29.663 14.1712 29.8217 14.209 29.8918 14.3271C30.7602 15.7297 31.7314 17.0899 32.7773 18.3603C32.866 18.4689 32.852 18.6295 32.7446 18.7192C32.6979 18.757 32.6419 18.7759 32.5859 18.7759V18.7806Z" fill="#22263F"/>
<path d="M31.2409 19.3426C31.1802 19.3426 31.1195 19.319 31.0728 19.2765L28.4908 16.8915C28.388 16.7971 28.3787 16.6365 28.4767 16.5326C28.5701 16.4287 28.7289 16.4192 28.8316 16.5184L31.4136 18.9034C31.5164 18.9979 31.5257 19.1584 31.4277 19.2623C31.3763 19.319 31.3109 19.3473 31.2409 19.3473V19.3426Z" fill="#22263F"/>
<path d="M31.6473 18.8562C31.5725 18.8562 31.4978 18.8232 31.4512 18.7618C30.8395 17.9825 30.1765 17.2316 29.4808 16.5279C29.3827 16.4287 29.3827 16.2682 29.4808 16.169C29.5788 16.0698 29.7376 16.0698 29.8356 16.169C30.5407 16.8868 31.2177 17.6519 31.8434 18.4453C31.9321 18.554 31.9134 18.7145 31.806 18.8043C31.7593 18.8421 31.7033 18.8609 31.6473 18.8609V18.8562Z" fill="#22263F"/>
<path d="M30.821 19.711C30.7884 19.711 30.7603 19.7063 30.7277 19.6921C29.8919 19.3521 29.0701 18.9601 28.2904 18.5161C28.169 18.45 28.1269 18.2942 28.1923 18.1714C28.2623 18.0486 28.4118 18.0014 28.5332 18.0722C29.2989 18.502 30.0973 18.8892 30.9144 19.2198C31.0452 19.2718 31.1059 19.4182 31.0545 19.5504C31.0171 19.6496 30.9191 19.711 30.821 19.711Z" fill="#22263F"/>
<path d="M31.8247 21.7418C31.7594 21.7418 31.6987 21.7182 31.652 21.6709C31.115 21.1467 30.6715 20.5044 30.3773 19.8102C30.34 19.7205 30.354 19.6118 30.4193 19.541C30.4847 19.4654 30.5874 19.4371 30.6808 19.4654L31.3765 19.6827C31.4465 19.7063 31.4839 19.711 31.5026 19.711C31.4932 19.7016 31.4932 19.6638 31.4792 19.6118C31.4372 19.4324 31.3952 19.2482 31.4792 19.064C31.5259 18.9601 31.638 18.8987 31.75 18.9223C31.8808 18.9412 31.9695 19.0168 32.0349 19.0923L32.0582 18.7476C32.0675 18.6059 32.1843 18.4973 32.329 18.5114C32.4691 18.5209 32.5718 18.6437 32.5625 18.7854L32.5251 19.3285C32.5205 19.404 32.5064 19.5741 32.3664 19.6874C32.287 19.7488 32.1843 19.7771 32.0816 19.763C32.0489 19.763 32.0209 19.7488 31.9882 19.7393C31.9788 19.9613 31.8808 20.0699 31.8107 20.1266C31.6006 20.2919 31.3392 20.2116 31.2318 20.1738L31.101 20.1313C31.3438 20.5658 31.652 20.9625 32.0068 21.3073C32.1096 21.4065 32.1096 21.567 32.0115 21.6662C31.9602 21.7182 31.8948 21.7465 31.8294 21.7465L31.8247 21.7418Z" fill="#22263F"/>
<path d="M35.1071 24.0134C34.9671 24.0134 34.855 23.8953 34.8597 23.7537L34.8877 20.9436C34.8877 20.9436 34.8737 20.9578 34.869 20.9672C34.6869 21.1798 34.3367 21.2742 34.0893 21.0711C33.9539 20.9578 33.9072 20.7925 33.8698 20.665C33.8698 20.6508 33.8605 20.6414 33.8605 20.6272C33.8511 20.6414 33.8418 20.6603 33.8278 20.6839C33.669 20.9672 33.4402 21.0853 33.2115 21.0097C33.0947 20.972 33.0247 20.8917 32.9733 20.8161C32.964 20.9058 32.908 20.9814 32.8239 21.0192C32.7352 21.057 32.6325 21.0428 32.5578 20.9814L32.2496 20.7217C32.1422 20.6319 32.1282 20.4714 32.2169 20.3627C32.3056 20.2541 32.4644 20.2399 32.5718 20.3297L32.5905 20.3486C32.6138 20.3108 32.6465 20.2777 32.6838 20.2494C32.7772 20.1738 32.894 20.1455 33.0107 20.1738C33.2068 20.2163 33.2955 20.3769 33.3469 20.4714C33.3469 20.4714 33.3469 20.4761 33.3469 20.4808C33.3562 20.4666 33.3655 20.4525 33.3749 20.4336C33.4309 20.3297 33.6083 20.018 33.9305 20.0652C34.22 20.1077 34.2947 20.3722 34.3414 20.528C34.3554 20.58 34.3834 20.665 34.4021 20.6886C34.4021 20.6886 34.4488 20.6697 34.4768 20.6367C34.5328 20.5705 34.5655 20.4666 34.6029 20.358L34.6262 20.2872C34.6822 20.1172 34.785 19.8763 35.0184 19.7535C35.0978 19.711 35.1912 19.7157 35.2659 19.7629C35.3406 19.8102 35.3873 19.8952 35.3873 19.9849L35.3499 23.7726C35.3499 23.9142 35.2379 24.0229 35.0978 24.0229L35.1071 24.0134Z" fill="#22263F"/>
<path d="M36.5314 24.4904C36.4801 24.4904 36.4287 24.4763 36.382 24.4432C36.27 24.3582 36.2419 24.2023 36.326 24.089L37.7314 22.1243C37.68 22.1149 37.6287 22.0866 37.5913 22.0393C37.54 21.9827 37.5213 21.9024 37.5353 21.8315C37.4606 21.8315 37.3672 21.8976 37.3018 21.9401C37.1944 22.011 37.0544 21.9921 36.9703 21.8976C36.8443 21.7512 36.8676 21.5907 36.905 21.4679C36.7929 21.5907 36.6248 21.7418 36.396 21.7465C36.2746 21.7465 36.1719 21.6521 36.1532 21.5293C35.9244 21.8646 35.7237 22.2141 35.5462 22.5777C35.4855 22.7052 35.3361 22.7572 35.2101 22.6958C35.084 22.6344 35.0326 22.4833 35.0933 22.3558C35.3922 21.7418 35.7563 21.1656 36.1906 20.6414C36.2559 20.5611 36.368 20.5281 36.4661 20.5611C36.5641 20.5942 36.6342 20.6886 36.6342 20.7925V21.0098C36.7602 20.9011 36.961 20.8067 37.1524 20.8445C37.2878 20.8681 37.3952 20.9531 37.4513 21.0759C37.4886 21.1609 37.4933 21.2365 37.4839 21.312C37.5166 21.312 37.5493 21.312 37.5867 21.312C37.7547 21.3215 37.9182 21.4301 38.0022 21.5812C38.0022 21.5859 38.0069 21.5954 38.0116 21.6001C38.1236 21.6143 38.2357 21.6521 38.3291 21.7182C38.3851 21.756 38.4224 21.8174 38.4364 21.8835C38.4458 21.9496 38.4364 22.0204 38.3944 22.0771L36.7462 24.3818C36.6948 24.4526 36.6201 24.4857 36.5408 24.4857L36.5314 24.4904Z" fill="#22263F"/>
<path d="M36.6388 20.9673C36.5781 20.9673 36.5174 20.9484 36.4707 20.9011C36.368 20.8067 36.3586 20.6461 36.4474 20.5422L37.1477 19.7441C37.2411 19.6402 37.3999 19.6307 37.5026 19.7205C37.6053 19.8149 37.6146 19.9755 37.5259 20.0794L36.8256 20.8775C36.7742 20.9342 36.7042 20.9625 36.6388 20.9625V20.9673Z" fill="#22263F"/>
<path d="M35.4155 19.593C35.3502 19.593 35.2848 19.5694 35.2381 19.5174C35.14 19.4182 35.14 19.2577 35.2381 19.1585C35.6817 18.7051 36.1532 18.2753 36.6388 17.8739C36.7462 17.7842 36.905 17.8031 36.9937 17.9117C37.0824 18.0203 37.0637 18.1809 36.9563 18.2706C36.4848 18.6626 36.0225 19.0829 35.5929 19.5221C35.5416 19.5741 35.4809 19.5977 35.4155 19.5977V19.593Z" fill="#22263F"/>
<path d="M33.6458 20.0747C33.6458 20.0747 33.6364 20.0747 33.6318 20.0747C33.4917 20.0652 33.3843 19.9472 33.3936 19.8055C33.4637 18.45 33.6131 17.0804 33.8325 15.7392C33.8325 15.5975 33.8699 15.4653 33.8979 15.3614C33.9306 15.2291 34.066 15.1488 34.1967 15.1772C34.3275 15.2055 34.4162 15.3378 34.3928 15.47C34.3742 15.5739 34.3555 15.6778 34.3415 15.777C34.3415 15.7959 34.3415 15.81 34.3508 15.8289C34.3601 15.862 34.3928 15.895 34.4068 15.8998C34.4115 15.8903 34.4582 15.8384 34.4815 15.8148L34.8271 15.4086C34.8924 15.3283 34.9998 15.3 35.0979 15.333C35.1959 15.3661 35.2613 15.4558 35.266 15.5597L35.28 15.8714C35.4107 15.7911 35.5461 15.7297 35.6909 15.6872C35.7796 15.6589 35.8776 15.6872 35.943 15.7581C36.0084 15.8289 36.027 15.9281 35.9944 16.0178C35.9617 16.117 35.9103 16.2492 35.9383 16.3295C35.9383 16.3343 35.943 16.339 35.9477 16.3437C36.0224 16.2587 36.1158 16.1642 36.2605 16.1548C36.3726 16.1548 36.4659 16.1879 36.5406 16.2587C36.6807 16.4004 36.6854 16.6176 36.6807 16.7026L36.6294 17.7039C36.62 17.8455 36.4986 17.9589 36.3632 17.9447C36.2231 17.9353 36.1158 17.8172 36.1251 17.6755L36.1718 16.8113C36.0644 16.8679 35.9383 16.8821 35.8123 16.8349C35.6442 16.7782 35.5134 16.6365 35.4621 16.4665C35.4527 16.4334 35.4434 16.4004 35.4434 16.3673C35.3734 16.4193 35.308 16.4854 35.252 16.5515C35.1866 16.6318 35.0792 16.6648 34.9765 16.6318C34.8784 16.5987 34.8084 16.509 34.8037 16.4004L34.7944 16.2067C34.729 16.2729 34.6403 16.3484 34.5189 16.3815C34.4255 16.4051 34.3321 16.4004 34.2481 16.372C34.08 17.5149 33.9633 18.672 33.9026 19.8196C33.8932 19.9566 33.7858 20.0605 33.6504 20.0605L33.6458 20.0747Z" fill="#22263F"/>
<path d="M32.9969 17.7747C32.8849 17.7747 32.7821 17.6992 32.7541 17.5858C32.4319 16.3862 32.0351 15.1914 31.5822 14.0343C31.5308 13.9021 31.5915 13.7557 31.7222 13.7037C31.853 13.6518 31.9977 13.7179 32.0491 13.8454C32.5113 15.0166 32.9129 16.2304 33.2397 17.4488C33.2771 17.5858 33.1977 17.7275 33.0623 17.7605C33.0389 17.7653 33.0156 17.77 32.9969 17.77V17.7747Z" fill="#22263F"/>
<path d="M30.1157 20.4289C30.1157 20.4289 30.0924 20.4289 30.083 20.4289L27.7811 20.1125C27.641 20.0936 27.5477 19.966 27.5663 19.8244C27.585 19.6827 27.7111 19.5835 27.8512 19.6071L30.1531 19.9235C30.2931 19.9424 30.3865 20.0699 30.3678 20.2116C30.3492 20.3391 30.2418 20.4336 30.1204 20.4336L30.1157 20.4289Z" fill="#22263F"/>
<path d="M28.2717 20.8775C28.141 20.8775 28.0289 20.7736 28.0196 20.6367C28.0103 20.495 28.1177 20.3769 28.2531 20.3675L29.8126 20.2683C29.9433 20.2494 30.0694 20.3675 30.0787 20.5091C30.088 20.6508 29.9807 20.7689 29.8452 20.7783L28.2858 20.8775C28.2858 20.8775 28.2764 20.8775 28.2717 20.8775Z" fill="#22263F"/>
<path d="M28.6684 22.0535C28.5516 22.0535 28.4489 21.9732 28.4209 21.8504C28.3929 21.7134 28.4769 21.5765 28.6123 21.5481L30.1018 21.227C30.2372 21.1987 30.3726 21.2837 30.4006 21.4253C30.4286 21.5623 30.3446 21.6993 30.2092 21.7276L28.7197 22.0487C28.7197 22.0487 28.6824 22.0535 28.6684 22.0535Z" fill="#22263F"/>
<path d="M28.8085 24.906C28.7151 24.906 28.6218 24.8541 28.5797 24.7596C28.519 24.6321 28.5751 24.481 28.7011 24.4196C29.0093 24.2732 29.2941 24.0842 29.5509 23.8623C29.6583 23.7725 29.8171 23.782 29.9058 23.8906C29.9945 23.9992 29.9852 24.1598 29.8778 24.2495C29.5883 24.4999 29.2614 24.7124 28.9159 24.8824C28.8832 24.8966 28.8459 24.906 28.8085 24.906Z" fill="#22263F"/>
<path d="M56.1978 21.1562L52.187 20.0322L53.8025 16.8254C53.8025 16.8254 57.9161 16.4618 60.7456 18.7712L60.0639 22.2424L56.1978 21.1609V21.1562Z" fill="#2F9AEB"/>
<path d="M53.7092 24.6179L55.1426 25.0194L57.0616 25.5577L58.4997 25.9592L58.8873 26.0678L58.8779 26.0961C58.8779 26.0961 63.1689 33.7942 62.744 36.7034C62.3238 39.6173 57.4352 53.3511 57.4352 53.3511C57.4352 53.3511 56.4733 55.4007 48.4984 53.1669C40.5188 50.9283 41.4106 48.9542 41.4106 48.9542C41.4106 48.9542 46.6494 28.2119 47.5926 26.3937C48.5358 24.5754 51.3746 24.0465 51.3746 24.0465L51.398 23.9662L52.1077 24.1645L53.7139 24.6132L53.7092 24.6179ZM59.695 40.968C60.4515 38.6114 60.3627 36.8923 60.0219 35.6975C59.7091 34.6065 58.2243 34.4932 57.776 35.5369L53.8819 44.5762C53.6065 45.2185 53.9193 45.9553 54.5683 46.1961L54.6383 46.2244C54.8345 46.2953 55.0446 46.3189 55.2547 46.2811C56.1138 46.1206 58.3083 45.2941 59.695 40.9728V40.968Z" fill="#46CDCF"/>
<path d="M60.666 22.4077L59.2326 26.1623L58.8871 26.0631L58.4995 25.9545L58.5089 25.9167C58.8264 24.6416 59.4287 23.4467 59.8115 22.1858V22.1669L60.0637 22.2377L60.666 22.4077Z" fill="#46CDCF"/>
<path d="M59.8166 22.1715V22.1904C59.4291 23.4514 58.8267 24.6415 58.5046 25.9214L58.4952 25.9592L57.0571 25.5577V25.5436C57.3326 24.2401 57.6641 22.9508 58.0423 21.6757L59.8166 22.1715Z" fill="#46CDCF"/>
<path d="M57.0616 25.5436V25.5578L55.1426 25.0194C55.6422 23.7726 56.1418 22.5258 56.6367 21.2837L58.0421 21.6757C57.6639 22.9508 57.3324 24.2401 57.0616 25.5436Z" fill="#46CDCF"/>
<path d="M56.6365 21.2789C56.1369 22.5257 55.642 23.7726 55.1424 25.0146L53.709 24.6132C54.0778 23.3522 54.5168 22.1149 55.021 20.8964L55.0397 20.8256L56.6365 21.2742V21.2789Z" fill="#46CDCF"/>
<path d="M55.0399 20.8303L55.0213 20.9011C54.517 22.1196 54.0827 23.357 53.7092 24.6179L52.103 24.1693L52.1124 24.1362C52.3365 22.8327 52.626 21.5482 52.9855 20.2777V20.2589L55.0399 20.835V20.8303Z" fill="#46CDCF"/>
<path d="M52.1122 24.1362L52.1028 24.1693L51.3931 23.9709L50.8608 23.8245L51.6826 19.8952L52.1869 20.0369L52.9853 20.2589V20.2777C52.6211 21.5482 52.3316 22.8327 52.1075 24.1362H52.1122Z" fill="#46CDCF"/>
<path d="M59.2328 26.422C59.2328 26.422 59.1861 26.422 59.1674 26.4126L58.4297 26.2048C58.2943 26.167 58.2196 26.0253 58.2523 25.8931C58.4437 25.128 58.7238 24.4149 58.99 23.7254C59.1954 23.2011 59.4055 22.658 59.569 22.1149C59.611 21.9827 59.7464 21.8882 59.8818 21.926L60.7316 22.1669C60.8016 22.1857 60.8577 22.233 60.8903 22.2991C60.923 22.3652 60.9277 22.4408 60.8997 22.5069L59.4662 26.2615C59.4289 26.3606 59.3308 26.422 59.2328 26.422ZM58.8032 25.7845L59.0787 25.86L60.33 22.5825L59.9799 22.4833C59.8211 22.9792 59.6343 23.4514 59.4569 23.9095C59.2188 24.5188 58.976 25.1469 58.8032 25.7798V25.7845Z" fill="#46CDCF"/>
<path d="M58.472 26.2095C58.472 26.2095 58.4439 26.2095 58.4299 26.2048L56.9918 25.8034C56.8564 25.7656 56.7771 25.6286 56.8144 25.4917C57.0852 24.1976 57.4167 22.8894 57.7996 21.6049C57.8416 21.4726 57.977 21.3971 58.1078 21.4348L59.882 21.9307C60.0174 21.9685 60.0968 22.1102 60.0595 22.2424V22.2613C59.882 22.828 59.6673 23.3806 59.4572 23.9143C59.1957 24.5849 58.9249 25.2839 58.7474 25.9876C58.7288 26.0537 58.6821 26.1292 58.626 26.1623C58.5794 26.1906 58.5233 26.2142 58.472 26.2142V26.2095ZM57.356 25.3736L58.3179 25.6428C58.5046 24.9674 58.7521 24.3346 58.9902 23.7206C59.163 23.272 59.3451 22.8092 59.4992 22.3416L58.2152 21.9827C57.8883 23.102 57.5988 24.2401 57.356 25.3689V25.3736Z" fill="#46CDCF"/>
<path d="M57.0572 25.8081C57.0572 25.8081 57.0105 25.8081 56.9918 25.7986L55.0728 25.2602C55.0027 25.2413 54.9467 25.1941 54.914 25.128C54.8813 25.0619 54.8813 24.9863 54.9047 24.9202C55.3949 23.7017 55.8805 22.4832 56.3708 21.2601L56.4035 21.1798C56.4502 21.0617 56.5809 20.9956 56.7023 21.0286L58.1077 21.4206C58.1731 21.4395 58.2291 21.482 58.2618 21.5434C58.2945 21.6048 58.3038 21.6757 58.2805 21.7418C57.9023 23.0122 57.5754 24.3109 57.3046 25.5908C57.3046 25.5955 57.3046 25.6003 57.3046 25.605V25.6191C57.2859 25.6853 57.2393 25.7419 57.1832 25.775C57.1459 25.7986 57.1038 25.8081 57.0572 25.8081ZM55.479 24.8446L56.8657 25.2319C57.1085 24.1031 57.398 22.965 57.7248 21.8457L56.7863 21.5812C56.3521 22.6674 55.9179 23.7584 55.479 24.8446Z" fill="#46CDCF"/>
<path d="M55.1428 25.2744C55.1428 25.2744 55.0961 25.2744 55.0774 25.265L53.644 24.8635C53.5786 24.8447 53.5226 24.8022 53.4899 24.7408C53.4572 24.6794 53.4479 24.6085 53.4665 24.5424C53.8354 23.2909 54.279 22.0299 54.7879 20.802L54.7973 20.7642C54.8346 20.6273 54.9747 20.547 55.1054 20.5895L56.7023 21.0381C56.7723 21.057 56.8283 21.1042 56.861 21.1704C56.8937 21.2365 56.8937 21.312 56.8704 21.3782L56.8377 21.4585C56.3521 22.6769 55.8618 23.9001 55.3716 25.1186C55.3342 25.2178 55.2362 25.2791 55.1381 25.2791L55.1428 25.2744ZM54.0268 24.4432L54.9934 24.7124C55.4276 23.6262 55.8665 22.5352 56.3007 21.449L55.1988 21.142C54.7506 22.2471 54.363 23.3475 54.0315 24.4432H54.0268Z" fill="#46CDCF"/>
<path d="M53.7093 24.873C53.7093 24.873 53.6626 24.873 53.6439 24.8636L52.0377 24.4149C51.9023 24.3771 51.823 24.2354 51.8603 24.1032C52.0891 22.7761 52.3832 21.4679 52.7428 20.2117C52.7801 20.0747 52.9249 19.9802 53.0556 20.018L55.1054 20.5942C55.1707 20.6131 55.2268 20.6556 55.2595 20.7123C55.2921 20.7737 55.3015 20.8398 55.2828 20.9059L55.2641 20.9767C54.7552 22.2188 54.3163 23.4609 53.9521 24.6983C53.9194 24.8069 53.8214 24.8824 53.7093 24.8824V24.873ZM52.3926 23.9851L53.5365 24.3063C53.868 23.2011 54.2603 22.0913 54.7038 21.0051L53.163 20.5706C52.8548 21.6899 52.598 22.8328 52.3926 23.9851Z" fill="#46CDCF"/>
<path d="M52.1032 24.4196C52.1032 24.4196 52.0565 24.4196 52.0378 24.4101L50.8005 24.0607C50.6697 24.0229 50.595 23.8954 50.623 23.7631L51.4448 19.8338C51.4588 19.763 51.5008 19.7063 51.5615 19.6685C51.6222 19.6307 51.6923 19.6213 51.7576 19.6402L53.0603 20.0038C53.1957 20.0416 53.2705 20.1786 53.2378 20.3155C52.8782 21.5812 52.5888 22.8705 52.3646 24.1693C52.3646 24.1787 52.3646 24.1835 52.36 24.1929L52.3506 24.226C52.332 24.2921 52.2899 24.3488 52.2339 24.3818C52.1966 24.4054 52.1545 24.4149 52.1078 24.4149L52.1032 24.4196ZM51.16 23.6356L51.9071 23.8434C52.1125 22.6863 52.374 21.5387 52.6775 20.4289L51.8744 20.2022L51.16 23.6309V23.6356Z" fill="#46CDCF"/>
<path d="M56.0066 47.0085C55.549 47.0085 55.1055 46.9093 54.7179 46.7062C54.5918 46.6401 54.5452 46.489 54.6105 46.3615C54.6759 46.2387 54.8253 46.1867 54.9514 46.2481C56.072 46.829 57.426 46.3142 58.2104 45.5964C59.177 44.7085 59.6766 43.405 60.0081 42.366C60.4516 40.9681 60.7318 39.589 60.8439 38.2714C60.8905 37.7094 60.9186 37.0482 60.7645 36.4201C60.6151 35.7872 60.2929 35.2677 59.8633 34.9608C59.3871 34.6207 58.7661 34.5546 58.3178 34.8049C58.1964 34.871 58.0424 34.8285 57.977 34.701C57.9116 34.5782 57.9536 34.4224 58.0797 34.3563C58.696 34.0162 59.5318 34.0918 60.1622 34.5404C60.6944 34.9183 61.082 35.5417 61.2641 36.2973C61.4322 36.9963 61.4041 37.7094 61.3528 38.3092C61.2407 39.6693 60.9512 41.0862 60.4937 42.5219C60.1435 43.6223 59.6065 45.006 58.5513 45.9742C57.8229 46.6448 56.8891 47.0037 56.0159 47.0037L56.0066 47.0085Z" fill="#22263F"/>
<path d="M51.8506 31.3667C52.4015 31.2014 52.9151 31.0598 53.1066 31.0078L53.1252 30.3419L53.1579 29.1801L53.1719 28.7834C48.4094 27.4138 43.1659 28.8117 43.1659 28.8117C42.4562 30.2474 42.9885 32.0468 42.9885 32.0468C45.4165 32.3066 45.7526 33.5109 45.7526 33.5109L46.2849 33.525L47.2981 33.5581L48.5355 33.5959L49.1331 33.6148C49.1331 33.6148 49.3152 33.0716 49.586 32.5994C49.7308 32.3443 49.9082 32.1129 50.0996 31.9949C50.3704 31.8296 51.1455 31.5745 51.8506 31.362V31.3667Z" fill="white"/>
<path d="M38.1701 53.6675C38.1561 56.8459 38.9125 60.1754 38.9125 60.1754C46.0797 62.5982 52.8266 60.6005 52.8266 60.6005C52.8266 60.6005 55.0771 56.3831 54.3347 53.2472C54.0079 51.8823 52.962 49.7146 51.9348 46.1158C50.8609 42.3801 49.7636 38.6208 49.3714 37.2796C49.2407 37.3174 49.0819 37.3599 48.9138 37.3977C48.3536 37.5299 47.6345 37.648 47.0415 37.5771C46.5559 37.5157 45.9676 37.3693 45.454 37.2182C45.1178 37.119 44.8143 37.0198 44.5855 36.9443C44.4034 37.3646 43.7965 38.7909 43.0214 40.68C42.7319 41.3836 42.419 42.1487 42.1015 42.9516C40.5607 46.8054 38.8331 50.0924 38.3242 52.5529C38.2261 53.0063 38.1748 53.3794 38.1748 53.6628L38.1701 53.6675Z" fill="#FCB831"/>
<path d="M44.1885 36.8073C44.1885 36.8073 44.3426 36.864 44.59 36.949C44.8188 37.0245 45.1223 37.1237 45.4585 37.2229L46.2896 33.5344L45.2904 33.5061C45.2904 33.5061 44.2632 36.2453 44.1931 36.812L44.1885 36.8073Z" fill="#FCB831"/>
<path d="M45.4541 37.2182C45.9677 37.3693 46.5514 37.5157 47.0416 37.5771L47.2984 33.5581L46.2852 33.525L45.4541 37.2135V37.2182Z" fill="#FCB831"/>
<path d="M47.0415 37.5772C47.6345 37.648 48.3535 37.5299 48.9138 37.3977L48.5403 33.5959L47.303 33.5581L47.0462 37.5772H47.0415Z" fill="#FCB831"/>
<path d="M48.5356 33.6006L48.9092 37.4024C49.0773 37.3646 49.236 37.3221 49.3668 37.2843C49.6422 37.2088 49.815 37.1474 49.815 37.1474L49.5068 33.6336L48.5356 33.6053V33.6006Z" fill="#FCB831"/>
<path d="M49.5864 32.6041C49.8526 32.8874 50.1187 33.1661 50.3849 33.4447C51.3747 34.4648 52.4019 35.4802 53.6579 36.1367C53.714 36.165 53.7933 36.1934 53.84 36.1461C53.8867 36.0989 53.854 36.0186 53.826 35.9572C53.2097 34.8474 52.6634 33.6903 52.2058 32.5049C52.0611 32.1365 51.921 31.754 51.851 31.362C51.1459 31.5745 50.3708 31.8296 50.1 31.9948C49.9133 32.1129 49.7358 32.3443 49.5864 32.5994V32.6041Z" fill="#FCB831"/>
<path d="M53.1114 31.0078L53.1021 31.3714L55.5067 31.2912C55.6748 31.0597 55.7681 30.7953 55.8148 30.5261L53.1301 30.3372L53.1114 31.0031V31.0078Z" fill="#FCB831"/>
<path d="M53.1626 29.1801L53.1299 30.3419L55.8146 30.5308C55.8987 30.0633 55.8473 29.5721 55.768 29.199L53.1626 29.1801Z" fill="#FCB831"/>
<path d="M53.1766 28.7834L53.1626 29.1801L55.768 29.199C55.6886 28.8165 55.5859 28.552 55.5859 28.552L53.1859 28.4764L53.1766 28.7834Z" fill="#FCB831"/>
<path d="M49.1331 33.8745H49.1238L45.7433 33.7706C45.6313 33.7706 45.5379 33.6903 45.5099 33.5864C45.5099 33.5817 45.1597 32.5427 42.9652 32.3066C42.8625 32.2971 42.7784 32.2263 42.7504 32.1271C42.7271 32.0515 42.1994 30.2144 42.9418 28.7031C42.9745 28.637 43.0352 28.5898 43.1053 28.5709C43.1566 28.5567 48.4701 27.1729 53.2467 28.5425C53.3587 28.5756 53.4334 28.6795 53.4288 28.7976L53.3634 31.022C53.3634 31.1353 53.284 31.2298 53.1766 31.2581C52.9619 31.3195 52.4623 31.4517 51.9253 31.617C50.7814 31.9618 50.3751 32.1365 50.2351 32.2215C50.1043 32.3018 49.9549 32.486 49.8102 32.7363C49.5534 33.1755 49.3806 33.695 49.3759 33.7045C49.3433 33.8084 49.2452 33.8792 49.1378 33.8792L49.1331 33.8745ZM45.9208 33.2653L48.9604 33.3597C49.0398 33.1519 49.1845 32.8024 49.3713 32.4766C49.5627 32.146 49.7635 31.9146 49.9689 31.7871C50.2164 31.6359 50.8094 31.4187 51.7806 31.1259C52.2101 30.9984 52.6117 30.885 52.8638 30.8142L52.9198 28.9817C48.7083 27.8388 44.1185 28.8495 43.3481 29.0384C42.8718 30.1058 43.0959 31.3809 43.194 31.8248C45.085 32.0751 45.7247 32.9016 45.9208 33.27V33.2653Z" fill="#22263F"/>
<path d="M45.4541 37.4732C45.4541 37.4732 45.4074 37.4732 45.384 37.4638C45.0525 37.3693 44.749 37.2654 44.5202 37.1946C44.2541 37.1049 44.1 37.0482 44.1 37.0482C43.9693 37.001 43.9039 36.8545 43.9506 36.7223C43.9973 36.5901 44.142 36.524 44.2728 36.5712C44.2728 36.5712 44.4268 36.6279 44.6696 36.7129C44.8377 36.7695 45.0432 36.8357 45.272 36.9065L45.9723 33.7848L45.2813 33.7612C45.1412 33.7612 45.0338 33.6384 45.0385 33.4967C45.0385 33.355 45.1786 33.2605 45.3 33.2511L46.2992 33.2842C46.3739 33.2842 46.4439 33.3219 46.4906 33.3833C46.5373 33.4447 46.5513 33.5203 46.5373 33.5959L45.7062 37.2843C45.6922 37.3552 45.6502 37.4118 45.5895 37.4496C45.5521 37.4732 45.5054 37.4827 45.4587 37.4827L45.4541 37.4732Z" fill="#22263F"/>
<path d="M47.0413 37.8322C47.0413 37.8322 47.0226 37.8322 47.0133 37.8322C46.579 37.7802 46.0327 37.6574 45.3837 37.4638C45.2577 37.426 45.1783 37.2938 45.2063 37.1615L46.0374 33.4731C46.0654 33.355 46.1588 33.2606 46.2896 33.2747L47.3028 33.3078C47.3728 33.3078 47.4335 33.3408 47.4802 33.3928C47.5269 33.4447 47.5502 33.5109 47.5456 33.5817L47.2888 37.6008C47.2888 37.6716 47.2514 37.7377 47.2 37.7802C47.1533 37.818 47.0973 37.8369 47.0413 37.8369V37.8322ZM45.7526 37.0387C46.1448 37.1474 46.5043 37.2324 46.8078 37.2843L47.0319 33.8084L46.4857 33.7895L45.7573 37.0387H45.7526Z" fill="#22263F"/>
<path d="M47.4337 37.8558C47.2843 37.8558 47.1443 37.8463 47.0135 37.8322C46.8828 37.818 46.7847 37.6999 46.7941 37.563L47.0509 33.5439C47.0602 33.407 47.1769 33.2983 47.3123 33.3031L48.5497 33.3408C48.6757 33.3408 48.7785 33.4447 48.7925 33.5723L49.166 37.3741C49.18 37.5016 49.096 37.6196 48.9699 37.648C48.3863 37.7849 47.8726 37.8558 47.4337 37.8558ZM47.3123 37.341C47.7513 37.3552 48.2415 37.2843 48.6431 37.1993L48.3115 33.8462L47.5365 33.8226L47.3123 37.341Z" fill="#22263F"/>
<path d="M48.9138 37.6574C48.8624 37.6574 48.8111 37.6433 48.7691 37.6102C48.7084 37.5677 48.671 37.5016 48.6663 37.4307L48.2928 33.6289C48.2835 33.5534 48.3115 33.4825 48.3582 33.4306C48.4095 33.3786 48.4702 33.3456 48.5496 33.3503L49.5208 33.3786C49.6609 33.3786 49.7683 33.5014 49.7636 33.6431C49.7636 33.7848 49.6422 33.8981 49.5021 33.8887L48.8204 33.8698L49.1379 37.0907C49.194 37.0765 49.25 37.0577 49.3013 37.0435C49.4367 37.0057 49.5768 37.0813 49.6142 37.2182C49.6515 37.3552 49.5768 37.4969 49.4414 37.5346C49.306 37.5724 49.1473 37.6197 48.9745 37.6574C48.9558 37.6574 48.9371 37.6622 48.9185 37.6622L48.9138 37.6574Z" fill="#22263F"/>
<path d="M53.7788 36.4248C53.7135 36.4248 53.6341 36.4059 53.5454 36.3587C52.2613 35.6833 51.1921 34.6349 50.2069 33.6148C49.9361 33.3409 49.67 33.0575 49.4038 32.7741C49.3244 32.6891 49.3104 32.5663 49.3711 32.4671C49.5626 32.1366 49.7633 31.9051 49.9688 31.7776C50.2163 31.6265 50.8092 31.4093 51.7804 31.1164C51.8505 31.0975 51.9252 31.107 51.9859 31.1448C52.0466 31.1826 52.0886 31.244 52.1026 31.3148C52.168 31.6926 52.308 32.061 52.4434 32.4057C52.901 33.5817 53.4426 34.7341 54.0496 35.825C54.1897 36.0942 54.0917 36.2501 54.0216 36.3209C53.9843 36.3587 53.9049 36.4201 53.7788 36.4201V36.4248ZM49.9081 32.571C50.1275 32.8025 50.347 33.0339 50.5711 33.2606C51.4583 34.1768 52.3454 35.0552 53.396 35.6881C52.859 34.6821 52.3827 33.6526 51.9765 32.5994C51.8645 32.3113 51.7524 32.009 51.6684 31.6879C50.7205 31.9807 50.3657 32.1366 50.2349 32.2168C50.1369 32.2782 50.0201 32.401 49.9081 32.571Z" fill="#22263F"/>
<path d="M53.0975 31.6312H53.0882C52.9481 31.6312 52.8407 31.5084 52.8454 31.3667L52.878 30.3372C52.878 30.2663 52.9107 30.2049 52.9621 30.1577C53.0135 30.1105 53.0835 30.0869 53.1489 30.0916L55.8336 30.2805C55.9737 30.29 56.0764 30.4127 56.0671 30.5544C56.0577 30.6961 55.9317 30.8047 55.7963 30.7906L53.373 30.6205L53.3496 31.3856C53.3496 31.5226 53.2329 31.6312 53.0975 31.6312Z" fill="#22263F"/>
<path d="M55.8145 30.7858C55.8145 30.7858 55.8052 30.7858 55.7958 30.7858L53.1111 30.5969C52.9756 30.5875 52.8729 30.4694 52.8776 30.3372L52.9103 29.1754C52.9103 29.0384 53.027 28.9298 53.1624 28.9298L55.7678 28.9487C55.9079 28.9487 56.0199 29.0668 56.0199 29.2037C56.0199 29.3454 55.9079 29.4588 55.7678 29.4588L53.4099 29.4399L53.3912 30.1105L55.8332 30.2805C55.9732 30.29 56.076 30.4127 56.0666 30.5544C56.0573 30.6867 55.9452 30.7906 55.8145 30.7906V30.7858Z" fill="#22263F"/>
<path d="M55.7679 29.454L53.1625 29.4351C53.0925 29.4351 53.0318 29.4068 52.9851 29.3548C52.9384 29.3076 52.9104 29.2368 52.9151 29.1706L52.9337 28.467C52.9337 28.3253 53.0598 28.2119 53.1952 28.2214C53.3353 28.2214 53.4427 28.3442 53.438 28.4858L53.424 28.9298L55.7679 28.944C55.908 28.944 56.02 29.062 56.02 29.199C56.02 29.3407 55.908 29.454 55.7679 29.454Z" fill="#22263F"/>
<path d="M52.3177 47.7546C52.2196 47.7546 52.1262 47.6932 52.0842 47.594C51.2111 45.4263 49.0726 43.8395 46.766 43.6458C44.4595 43.4569 42.0922 44.6565 40.8735 46.6495C40.7988 46.7676 40.6448 46.8053 40.528 46.7345C40.4113 46.6589 40.374 46.5031 40.444 46.385C41.7607 44.2362 44.3147 42.928 46.8034 43.1405C49.292 43.3483 51.6033 45.0626 52.5464 47.4051C52.5978 47.5374 52.5371 47.6838 52.4064 47.7357C52.3737 47.7499 52.341 47.7546 52.313 47.7546H52.3177Z" fill="#22263F"/>
<path d="M47.5211 59.4763C50.6476 58.8232 52.5605 55.2497 51.7937 51.4948C51.0269 47.7398 47.8709 45.2253 44.7444 45.8785C41.618 46.5317 39.7051 50.1051 40.4718 53.8601C41.2386 57.615 44.3947 60.1295 47.5211 59.4763Z" fill="#46CDCF"/>
<path d="M44.9499 59.5237C45.0013 59.637 45.048 59.7409 45.0947 59.8401C45.3982 60.506 45.3188 61.2947 44.8612 61.8709C44.2216 62.6785 42.9515 63.8308 40.4676 65.0115C37.8155 66.2725 35.7751 66.7117 34.5284 66.8534C33.7066 66.9478 32.9222 66.4992 32.5673 65.7483C32.4133 65.4224 32.2312 65.0398 32.0304 64.6148C30.4989 61.3797 27.7861 55.6321 26.8803 53.5683C26.7542 53.2755 26.6609 53.0583 26.6142 52.9307C26.2313 51.9012 26.7776 50.1254 27.0998 49.2376C27.2305 48.8881 27.2118 48.4961 27.0531 48.1561C26.9877 48.0096 26.8943 47.8821 26.7869 47.7735C26.0865 47.0462 23.3458 44.2031 23.0189 43.3861C22.6454 42.451 24.6811 37.3457 24.6811 37.3457V37.3268C25.8904 36.9632 27.6834 35.8439 28.4491 35.3433C29.1215 35.5605 33.5852 37.0434 34.0241 37.8699C34.435 38.6445 34.8552 42.5927 34.9626 43.5986C34.9766 43.7545 35.0186 43.9056 35.0887 44.052C35.2474 44.392 35.5276 44.6518 35.8824 44.7793C36.7602 45.091 38.4598 45.7994 39.0014 46.7534C39.1275 46.9706 39.389 47.509 39.7438 48.2552C41.1026 51.103 43.792 56.9781 44.9546 59.519L44.9499 59.5237Z" fill="white"/>
<path d="M28.8178 35.1071C28.8178 35.1071 28.6824 35.2016 28.449 35.3527C27.6832 35.8533 25.8903 36.9726 24.6763 37.3363C24.3728 37.426 24.1067 37.4732 23.9012 37.4496L22.7666 35.0127L27.6132 32.7032C27.6132 32.7032 28.7431 34.7199 28.8132 35.1071H28.8178Z" fill="#FCB831"/>
<path d="M26.1378 30.5261L27.235 32.8827L26.4319 33.2652L25.2459 30.7197L25.2319 30.6677C25.5308 30.5875 25.8343 30.5402 26.1378 30.5308V30.5261Z" fill="#FCB831"/>
<path d="M25.2322 30.663L25.2462 30.715L26.4322 33.2605L25.1341 33.8792L23.8828 31.1872C24.2984 30.97 24.7559 30.7811 25.2322 30.663Z" fill="#FCB831"/>
<path d="M23.878 31.192L25.1294 33.8839L23.766 34.5357L22.5894 32.0043C22.9255 31.7587 23.3738 31.4612 23.8827 31.1967L23.878 31.192Z" fill="#FCB831"/>
<path d="M22.5846 31.9995L23.7612 34.5309L23.0235 34.8804L21.9263 32.5238C21.9263 32.5238 22.1737 32.2971 22.58 31.9948L22.5846 31.9995Z" fill="#FCB831"/>
<path d="M34.3183 67.1273C33.4872 67.1273 32.7121 66.6409 32.3433 65.8663L31.8063 64.7329C30.4336 61.8284 27.5807 55.7927 26.6515 53.6769L26.6142 53.5919C26.5021 53.3369 26.4228 53.1433 26.3761 53.0205C25.9699 51.9295 26.5068 50.1302 26.8617 49.1526C26.9691 48.8692 26.955 48.548 26.8243 48.2694C26.7683 48.1513 26.6982 48.0474 26.6095 47.9577C25.3115 46.6212 23.0983 44.2645 22.7855 43.49C22.3979 42.5218 24.0508 38.2525 24.429 37.2985C24.429 37.2701 24.443 37.2465 24.4524 37.2229C24.4851 37.1615 24.5364 37.1049 24.6018 37.086C25.7971 36.727 27.5947 35.603 28.3138 35.1355C28.3791 35.093 28.4538 35.0835 28.5286 35.1071C30.0974 35.6172 33.7954 36.897 34.2483 37.7566C34.6405 38.4886 35.0187 41.719 35.2148 43.5797C35.2288 43.7072 35.2615 43.83 35.3175 43.9481C35.4482 44.2315 35.677 44.4393 35.9665 44.5432C36.9377 44.8879 38.6466 45.6199 39.2209 46.6306C39.3423 46.8384 39.5851 47.3343 39.9727 48.1466C41.3921 51.1267 44.2449 57.3654 45.1834 59.4151C45.2255 59.5142 45.2675 59.6087 45.3095 59.6937C45.6737 60.4966 45.5756 61.3797 45.062 62.0267C44.4364 62.8202 43.1477 64.0197 40.5797 65.2382C37.8996 66.5133 35.8264 66.9573 34.5611 67.1037C34.4817 67.1131 34.3977 67.1178 34.3183 67.1178V67.1273ZM24.8819 37.5346C24.0602 39.6173 23.0236 42.7296 23.2524 43.3011C23.4532 43.8017 24.8446 45.4074 26.9691 47.6035C27.0998 47.7357 27.2072 47.8869 27.2866 48.0569C27.4733 48.4583 27.492 48.9211 27.3379 49.332C27.0718 50.064 26.4928 51.8681 26.8523 52.8457C26.8943 52.9638 26.9737 53.1433 27.0764 53.3889L27.1138 53.4739C28.0383 55.5755 30.8911 61.6111 32.2592 64.5109L32.7962 65.6396C33.109 66.2961 33.7907 66.6881 34.5004 66.6031C35.7284 66.4614 37.7408 66.0316 40.3602 64.7848C42.8395 63.6041 44.0675 62.4612 44.6652 61.715C45.0527 61.2239 45.1321 60.5344 44.8659 59.9487C44.8099 59.8259 44.7632 59.7315 44.7212 59.6276C43.7827 57.5779 40.9345 51.3439 39.5151 48.3686C39.1415 47.5799 38.8941 47.0793 38.782 46.8856C38.4225 46.2528 37.3346 45.5727 35.7984 45.0249C35.3829 44.8738 35.0514 44.5715 34.8599 44.1653C34.7806 43.9953 34.7292 43.8159 34.7105 43.6317C34.393 40.5761 34.0568 38.4697 33.8047 37.9974C33.5386 37.4968 30.9472 36.4342 28.4865 35.6266C27.7255 36.1178 26.0772 37.1332 24.8819 37.5299V37.5346Z" fill="#22263F"/>
<path d="M24.0132 37.7046C23.9665 37.7046 23.9198 37.7046 23.8731 37.6952C23.7844 37.6857 23.7097 37.629 23.6724 37.5488L22.5377 35.1118C22.477 34.9843 22.5331 34.8332 22.6591 34.7718L27.5057 32.4624C27.6271 32.4057 27.7672 32.4529 27.8326 32.5663C28.024 32.911 28.9859 34.6443 29.0606 35.0504C29.0792 35.1496 29.0372 35.2535 28.9532 35.3102C28.9532 35.3102 28.8131 35.4046 28.5843 35.5558C27.8466 36.0375 26.0023 37.1898 24.7416 37.5676C24.4614 37.6527 24.214 37.6952 24.0085 37.6952L24.0132 37.7046ZM23.1027 35.126L24.0646 37.1946C24.186 37.1898 24.3587 37.1615 24.6015 37.0859C25.8015 36.727 27.5944 35.603 28.3135 35.1307C28.3929 35.0788 28.4629 35.0315 28.5189 34.9938C28.3649 34.6065 27.8933 33.7186 27.5104 33.0244L23.1027 35.1213V35.126Z" fill="#22263F"/>
<path d="M26.4274 33.5203C26.334 33.5203 26.2406 33.4683 26.1986 33.3739L24.9846 30.7339C24.9659 30.6677 24.9753 30.5969 25.008 30.5402C25.0406 30.4836 25.0967 30.4363 25.162 30.4222C25.4842 30.3372 25.8111 30.2852 26.1239 30.2758C26.2219 30.2758 26.32 30.3277 26.362 30.4222L27.4593 32.7788C27.4873 32.8402 27.492 32.911 27.4686 32.9724C27.4453 33.0338 27.3986 33.0858 27.3379 33.1141L26.5348 33.4967C26.5021 33.5108 26.4647 33.5203 26.4274 33.5203ZM25.5776 30.8472L26.5488 32.9252L26.899 32.7599L25.9838 30.7905C25.8484 30.8 25.7177 30.8189 25.5823 30.8472H25.5776Z" fill="#22263F"/>
<path d="M25.1291 34.1389C25.0358 34.1389 24.9424 34.087 24.9003 33.9925L23.649 31.3006C23.593 31.1778 23.6397 31.0266 23.7611 30.9652C24.242 30.7149 24.7182 30.5308 25.1665 30.4174C25.3019 30.3843 25.4326 30.4646 25.47 30.5969L25.484 30.6488L26.656 33.1566C26.7166 33.2841 26.6606 33.4352 26.5346 33.4966L25.2365 34.1153C25.2038 34.1295 25.1665 34.1389 25.1291 34.1389ZM24.2093 31.31L25.2505 33.5439L26.091 33.1424L25.0824 30.97C24.8023 31.055 24.5081 31.1683 24.2093 31.31Z" fill="#22263F"/>
<path d="M23.7659 34.786C23.7379 34.786 23.7099 34.7812 23.6819 34.7718C23.6212 34.7482 23.5698 34.701 23.5372 34.6396L22.3605 32.1082C22.3092 31.9948 22.3419 31.8673 22.4399 31.7917C22.8835 31.4659 23.327 31.1872 23.7659 30.9653C23.8266 30.9322 23.8967 30.9275 23.962 30.9511C24.0274 30.9747 24.0788 31.0219 24.1068 31.0833L25.3581 33.7753C25.3861 33.8367 25.3908 33.9075 25.3675 33.9689C25.3441 34.0303 25.2974 34.0823 25.2367 34.1153L23.8733 34.7671C23.8407 34.7812 23.8033 34.7907 23.7659 34.7907V34.786ZM22.9068 32.0798L23.8873 34.1909L24.7978 33.7564L23.7659 31.5367C23.4811 31.6926 23.1963 31.8768 22.9068 32.0798Z" fill="#22263F"/>
<path d="M23.0282 35.1402C23.0001 35.1402 22.9721 35.1355 22.9441 35.126C22.8834 35.1024 22.8321 35.0552 22.7994 34.9938L21.7021 32.6371C21.6554 32.538 21.6788 32.4152 21.7581 32.3396C21.7675 32.3302 22.0196 32.0987 22.4352 31.7918C22.4959 31.7493 22.5752 31.7304 22.6453 31.7493C22.72 31.7682 22.7807 31.8201 22.8087 31.8862L23.9853 34.4176C24.046 34.5451 23.99 34.6963 23.8639 34.7577L23.1262 35.1071C23.0935 35.1213 23.0562 35.1307 23.0188 35.1307L23.0282 35.1402ZM22.2437 32.5946L23.1496 34.5451L23.4297 34.4129L22.4912 32.3916C22.3885 32.4718 22.3044 32.5427 22.2437 32.5946Z" fill="#22263F"/>
<path d="M24.1442 42.6257C24.0415 42.6257 23.9435 42.5596 23.9061 42.4557C23.8594 42.3234 23.9248 42.177 24.0602 42.1298C27.1138 41.02 30.0834 39.6126 32.8849 37.9502C33.0063 37.8793 33.1604 37.9171 33.2304 38.0399C33.3005 38.1627 33.2584 38.3186 33.1417 38.3894C30.3122 40.066 27.3146 41.4875 24.2329 42.6068C24.2049 42.6163 24.1769 42.621 24.1489 42.621L24.1442 42.6257Z" fill="#22263F"/>
<path d="M28.3835 48.6566C28.2808 48.6566 28.1874 48.5952 28.1454 48.4913C28.0987 48.3591 28.1641 48.2127 28.2948 48.1655C30.41 47.3721 32.4504 46.3567 34.3647 45.1571C34.4815 45.0815 34.6402 45.1193 34.7103 45.2374C34.785 45.3554 34.7476 45.516 34.6262 45.5869C32.6838 46.8053 30.6107 47.8302 28.4629 48.6377C28.4349 48.6472 28.4022 48.6519 28.3742 48.6519L28.3835 48.6566Z" fill="#22263F"/>
<path d="M60.5779 62.8485C60.9842 61.7764 61.0775 60.5532 60.662 59.4859C60.2464 58.4186 59.2566 57.5543 58.1266 57.4599C56.9967 57.3654 55.8107 58.1824 55.6286 59.3159C54.9189 57.9888 53.3361 57.1954 51.8606 57.4362C50.3852 57.6771 49.1292 58.9334 48.8724 60.421C47.0374 58.7917 43.8343 59.1506 42.3962 61.1483C42.6017 59.9015 42.4896 58.5225 41.7052 57.5354C40.9208 56.5484 39.3379 56.1753 38.3901 56.997C38.7123 55.3582 38.0119 53.5589 36.6625 52.5907C35.3131 51.6226 33.4034 51.5375 31.984 52.3829C30.5599 53.2283 29.7008 54.9568 29.8829 56.6192C28.0666 55.4055 25.3258 55.9675 24.1211 57.7999C22.9165 59.6323 23.4628 62.4046 25.2651 63.6325C23.5749 63.4105 21.8566 64.8509 21.7539 66.57C21.6512 68.2891 23.192 69.9279 24.8916 69.909C24.8916 69.909 33.1746 70.6835 42.8865 68.2324C52.5983 65.7813 60.5733 62.8438 60.5733 62.8438L60.5779 62.8485Z" fill="#B2E9FD"/>
<path d="M48.8304 64.9312C54.3354 63.5475 57.8652 62.3384 59.7562 61.6253C59.9243 61.5592 60.0784 61.5025 60.2232 61.4459C61.2317 61.0491 62.343 61.63 62.357 62.584C62.357 62.6171 62.357 62.6596 62.357 62.6974C62.3476 63.2216 62.0068 63.7128 61.4745 63.9725C59.4994 64.9312 53.593 67.4673 42.1208 69.8618C30.6487 72.2562 24.2333 72.2987 22.0388 72.209C21.4505 72.1854 20.9462 71.8689 20.7361 71.3919C20.7221 71.3542 20.7034 71.3211 20.6894 71.288C20.3252 70.4049 21.1236 69.4273 22.2022 69.3895C22.3563 69.3848 22.5244 69.3753 22.7065 69.3659C25.522 69.2289 31.5919 68.6858 41.4578 66.6267C44.2313 66.0458 46.6826 65.4791 48.8304 64.936V64.9312Z" fill="#FCB831"/>
<path d="M60.4377 69.994C58.1825 71.2928 52.7383 73.9706 43.358 75.9258C33.9776 77.8857 27.9264 77.6118 25.349 77.319C24.3965 77.2104 23.9202 77.1017 23.9202 77.1017L22.0386 72.1995C24.2284 72.2893 30.6485 72.2515 42.1206 69.8523C53.5927 67.4579 59.4992 64.9218 61.4743 63.9631L61.6704 69.2148C61.6704 69.2148 61.2735 69.5028 60.4424 69.9846L60.4377 69.994Z" fill="#FCB831"/>
<path d="M62.2026 93.2676C60.7178 94.4483 56.9965 96.498 47.943 98.3918C38.8895 100.281 34.6685 99.8889 32.8382 99.4072C31.8951 99.1522 31.5869 98.8782 31.5869 98.8782L25.3442 77.3284C27.9216 77.6212 33.9682 77.8951 43.3532 75.9352C52.7335 73.9752 58.1824 71.3022 60.433 70.0034L63.1364 92.2947C63.1364 92.2947 62.9636 92.6726 62.1979 93.2771L62.2026 93.2676Z" fill="#FCB831"/>
<path d="M62.2029 93.2677L62.259 95.152C62.259 95.152 63.2535 97.2773 48.3542 100.39C33.4549 103.502 33.5343 101.15 33.5343 101.15L32.8433 99.4025C34.6689 99.8842 38.8898 100.281 47.948 98.3871C57.0015 96.498 60.7228 94.4436 62.2076 93.2629L62.2029 93.2677Z" fill="#FCB831"/>
<path d="M23.3226 72.4829C22.795 72.4829 22.3608 72.4734 22.0246 72.4593C21.3382 72.4309 20.7546 72.0626 20.5024 71.4911L20.4557 71.3872C20.269 70.9385 20.3203 70.4379 20.5911 70.0129C20.9227 69.4887 21.5343 69.1486 22.188 69.125L22.6876 69.1014C22.7576 69.1014 29.2011 68.9125 41.4016 66.3669C53.6021 63.8167 59.5973 61.4081 59.6533 61.3845C59.6533 61.3845 59.6533 61.3845 59.658 61.3845L60.1202 61.205C60.7272 60.9689 61.4229 61.035 61.9319 61.3797C62.3474 61.6631 62.5856 62.0976 62.5949 62.5793C62.5949 62.5982 62.5949 62.6454 62.5949 62.6879C62.5809 63.3255 62.1887 63.9017 61.5724 64.1992C59.5553 65.1768 53.6254 67.7129 42.1627 70.1073C32.4135 72.1428 26.3062 72.4829 23.3179 72.4829H23.3226ZM59.8448 61.8567C59.7047 61.9134 53.6721 64.3267 41.509 66.8675C29.2571 69.4273 22.7763 69.6115 22.7109 69.6115L22.2113 69.6351C21.7164 69.654 21.2635 69.9043 21.0207 70.2868C20.8386 70.5749 20.8059 70.8913 20.9227 71.1794L20.9647 71.2786C21.1328 71.6611 21.5623 71.9256 22.0479 71.9445C24.2658 72.0389 30.6485 71.987 42.0693 69.602C53.4807 67.217 59.3638 64.7045 61.3622 63.7317C61.8105 63.5144 62.0906 63.113 62.1 62.6832C62.1 62.6501 62.1 62.6218 62.1 62.5982C62.0953 62.2629 61.9412 61.9842 61.6611 61.7953C61.2875 61.5403 60.7693 61.4931 60.3117 61.6725L59.8494 61.852L59.8448 61.8567Z" fill="#22263F"/>
<path d="M29.416 77.7818C27.6511 77.7818 26.2877 77.6826 25.3212 77.574C25.1811 77.5598 25.083 77.4323 25.097 77.2906C25.111 77.149 25.2418 77.0545 25.3772 77.064C28.1086 77.3709 34.0712 77.6024 43.3068 75.6755C52.5423 73.7439 57.9259 71.1464 60.3165 69.7673C60.4379 69.6965 60.592 69.739 60.662 69.8618C60.7321 69.9846 60.69 70.1404 60.5686 70.2113C58.1547 71.6045 52.7198 74.2303 43.4141 76.1714C37.3676 77.4323 32.7031 77.7771 29.4207 77.7771L29.416 77.7818Z" fill="#22263F"/>
<path d="M23.3227 72.4829C22.7951 72.4829 22.3609 72.4734 22.0247 72.4593C21.8846 72.4545 21.7772 72.3365 21.7819 72.1948C21.7866 72.0531 21.908 71.9445 22.0434 71.9492C24.2612 72.0437 30.6439 71.9917 42.0647 69.6067C53.4761 67.2218 59.3593 64.7093 61.3577 63.7364C61.4837 63.675 61.6332 63.7316 61.6939 63.8544C61.7546 63.982 61.7032 64.1331 61.5771 64.1945C59.5601 65.1721 53.6302 67.7082 42.1674 70.1026C32.4182 72.1381 26.311 72.4782 23.3227 72.4782V72.4829Z" fill="#22263F"/>
<path d="M36.7326 100.064C34.9163 100.064 33.6509 99.8842 32.7778 99.6528C32.6424 99.6197 32.563 99.4781 32.5957 99.3411C32.6331 99.2041 32.7685 99.1191 32.9039 99.1569C34.5708 99.5961 38.7357 100.054 47.8919 98.1415C57.0621 96.2241 60.6947 94.1414 62.0488 93.0693C62.1562 92.9843 62.3149 93.0032 62.4036 93.1118C62.4877 93.2204 62.469 93.381 62.3616 93.4707C60.6714 94.8167 56.8053 96.805 47.9993 98.6421C42.8819 99.7095 39.2726 100.064 36.7373 100.064H36.7326Z" fill="#22263F"/>
<path d="M34.421 89.8153C31.8343 89.8153 29.6211 89.2533 27.8375 88.1435C25.5496 86.7219 23.738 84.1811 22.7295 80.9838C21.8283 78.136 21.6135 75.1229 21.4034 72.209C21.3941 72.0673 21.4968 71.9445 21.6369 71.935C21.777 71.9256 21.8984 72.0295 21.9077 72.1712C22.1178 75.0568 22.3326 78.0368 23.2104 80.8279C24.1816 83.9072 25.9232 86.3488 28.1037 87.709C30.06 88.9274 32.5674 89.4517 35.5556 89.2722C41.5182 88.9086 47.6021 85.8293 52.2526 80.8327C56.212 76.568 59.2843 70.8913 61.3808 63.9489C61.4228 63.8119 61.5629 63.7364 61.6936 63.7789C61.829 63.8214 61.9037 63.963 61.8617 64.0953C59.7466 71.1133 56.6369 76.8608 52.6214 81.1821C47.8869 86.278 41.6769 89.4139 35.5883 89.7823C35.1914 89.8059 34.8039 89.82 34.4257 89.82L34.421 89.8153Z" fill="#22263F"/>
<path d="M39.2958 86.8731C35.8827 86.7503 32.4695 86.6275 29.0517 86.5C26.5023 86.4055 26.2408 90.4104 28.7902 90.5048C32.2034 90.6276 35.6165 90.7504 39.0343 90.8779C41.5837 90.9724 41.8452 86.9675 39.2958 86.8731Z" fill="#2F9AEB"/>
<path d="M39.4033 90.1601C39.3099 90.1601 39.2259 90.1081 39.1792 90.0231C38.7589 89.2108 38.9504 88.134 39.6227 87.5154C39.7255 87.4209 39.8842 87.4304 39.9776 87.5343C40.071 87.6382 40.0616 87.7987 39.9589 87.8932C39.4593 88.3513 39.3146 89.1825 39.6227 89.787C39.6881 89.9098 39.6414 90.0656 39.5154 90.1318C39.478 90.1506 39.436 90.1601 39.3986 90.1601H39.4033Z" fill="#22263F"/>
<path d="M63.5105 67.8074C61.5588 66.7165 53.6772 61.8473 53.6772 61.8473C53.6772 61.8473 53.6539 61.6631 53.5932 61.4128C53.5231 61.4034 53.4531 61.3892 53.3831 61.3845C52.664 61.3373 51.987 61.5828 51.3613 61.9276C50.8104 62.2299 50.2501 62.5982 49.8112 63.0516C49.5217 63.3491 49.4096 63.7931 49.0921 64.0576C48.7513 64.3456 48.3357 64.2465 47.9482 64.1331C47.3785 63.9678 46.7902 63.93 46.2066 64.067C45.4035 64.2606 44.8292 64.6998 44.521 65.3988L45.3941 66.3245C45.3941 66.3245 45.6743 66.9384 46.0992 67.831C46.6081 68.9031 47.3225 70.3766 47.9948 71.6753C48.4011 72.4593 48.7933 73.1772 49.1108 73.7014C50.4088 75.8219 52.5286 78.92 52.5286 78.92C52.5286 78.92 53.962 81.6072 54.7745 82.4007C55.5869 83.1894 56.3386 83.213 56.7122 82.7785C57.0857 82.344 55.4562 79.5765 55.1527 78.7783C54.8538 77.9755 53.7986 75.5338 53.7986 75.5338C53.7986 75.5338 57.095 80.5588 58.3837 81.8245C59.6677 83.0902 60.6389 83.1421 60.9331 82.6557C61.2179 82.1881 56.348 74.2303 56.0445 73.7344C56.3666 74.1784 61.1852 80.7949 61.7409 81.305C62.3152 81.8339 62.4225 82.3062 63.0809 82.0323C63.7439 81.7631 64.2342 81.2625 63.3657 79.9165C62.4926 78.5705 58.183 72.0248 58.183 72.0248C58.183 72.0248 64.0941 78.4525 64.9205 78.8633C65.747 79.2742 66.424 77.659 65.6349 76.5728C64.8458 75.4866 59.0701 69.2006 59.0701 69.2006C59.0701 69.2006 60.2887 69.5029 61.5728 70.0743C62.8568 70.641 64.4583 71.6848 65.0419 70.3435C65.6256 69.007 65.4575 68.8936 63.5058 67.8027L63.5105 67.8074Z" fill="#46CDCF"/>
<path d="M44.2266 65.8049C44.1659 65.8049 44.1052 65.7813 44.0539 65.7388C43.9511 65.6444 43.9465 65.4838 44.0398 65.3799C44.6842 64.6715 45.3939 63.9583 46.3371 63.7033C47.4623 63.4011 48.6016 63.8308 49.6055 64.2086C50.5907 64.5817 51.6319 64.9218 52.5564 64.6148C52.6918 64.5676 52.8319 64.6431 52.8739 64.7754C52.9159 64.9076 52.8459 65.054 52.7151 65.0965C51.6366 65.4554 50.502 65.0918 49.4281 64.6856C48.4942 64.3314 47.4343 63.93 46.4678 64.1945C45.6554 64.4117 45.0064 65.0729 44.4134 65.7246C44.362 65.7766 44.2966 65.8049 44.2266 65.8049Z" fill="#46CDCF"/>
<path d="M59.2988 65.4885C59.2662 65.4885 59.2335 65.4838 59.2008 65.4696C57.5292 64.7376 55.9371 63.812 54.4663 62.721L54.3589 62.6407C53.9106 62.3101 53.4484 61.9654 52.9348 61.8379C52.2858 61.6773 51.506 61.8804 50.8477 62.3762C50.208 62.858 49.7271 63.5616 49.3395 64.1851C49.2648 64.3031 49.1107 64.3409 48.994 64.2653C48.8773 64.1898 48.8399 64.0339 48.9146 63.9159C49.3255 63.2547 49.8438 62.5038 50.5488 61.9701C51.3333 61.375 52.2484 61.1483 53.0562 61.342C53.6725 61.4931 54.1768 61.8662 54.6624 62.2298L54.7698 62.3101C56.2125 63.3775 57.772 64.2842 59.4109 65.0021C59.537 65.0588 59.5977 65.2099 59.5416 65.3374C59.4996 65.4319 59.4062 65.4885 59.3082 65.4885H59.2988Z" fill="#46CDCF"/>
<path d="M53.3083 76.0391C53.2243 76.0391 53.1402 75.9966 53.0935 75.9163C53.0188 75.7935 53.0608 75.6377 53.1776 75.5668C55.204 74.3248 57.0716 72.8229 58.7245 71.1086C58.8226 71.0094 58.9813 71.0047 59.0794 71.1086C59.1774 71.2078 59.1821 71.3683 59.0794 71.4675C57.3938 73.2149 55.4935 74.7404 53.4344 76.0061C53.3924 76.0297 53.3503 76.0438 53.3036 76.0438L53.3083 76.0391Z" fill="#46CDCF"/>
<path d="M54.2186 69.4131C52.7151 69.4131 51.1976 69.3423 49.6988 69.2053C49.5587 69.1911 49.456 69.0683 49.47 68.9267C49.484 68.785 49.6054 68.6905 49.7455 68.6952C51.3844 68.8464 53.0513 68.9172 54.6901 68.8983C54.8302 68.8983 54.9423 69.0117 54.9423 69.1486C54.9423 69.2903 54.8302 69.4036 54.6948 69.4084C54.5361 69.4084 54.3773 69.4084 54.2186 69.4084V69.4131Z" fill="#46CDCF"/>
<path d="M54.0269 71.5147H54.0176C52.8596 71.4722 51.697 71.3069 50.5718 71.0188C50.4364 70.9858 50.357 70.8441 50.3897 70.7119C50.4223 70.5796 50.5577 70.4899 50.6978 70.5277C51.7904 70.8063 52.9157 70.9669 54.0409 71.0047C54.181 71.0094 54.2884 71.1275 54.2837 71.2691C54.2791 71.4061 54.167 71.5147 54.0316 71.5147H54.0269Z" fill="#46CDCF"/>
<path d="M25.3771 61.97C25.3117 61.97 25.2464 61.9417 25.195 61.8898C24.6627 61.3278 24.3686 60.5627 24.3919 59.7834C24.4153 59.0042 24.7561 58.258 25.3211 57.729C25.4238 57.6346 25.5826 57.6393 25.6759 57.7432C25.7693 57.8471 25.7646 58.0077 25.6619 58.1021C25.1997 58.5319 24.9149 59.1647 24.8962 59.7929C24.8775 60.4257 25.125 61.0727 25.5592 61.5308C25.6573 61.6347 25.6526 61.7953 25.5545 61.8898C25.5078 61.937 25.4425 61.9606 25.3818 61.9606L25.3771 61.97Z" fill="#22263F"/>
<path d="M23.4814 68.0388C23.3694 68.0388 23.2667 67.9632 23.2386 67.8499C23.0005 66.9667 23.3134 65.9796 24.0091 65.3987C24.1164 65.309 24.2752 65.3232 24.3639 65.4318C24.4526 65.5404 24.4386 65.701 24.3312 65.7907C23.7896 66.2394 23.5421 67.0328 23.7242 67.7176C23.7616 67.8546 23.6822 67.9915 23.5468 68.0293C23.5235 68.034 23.5001 68.0388 23.4814 68.0388Z" fill="#22263F"/>
<path d="M31.0686 56.3217C31.0686 56.3217 31.0546 56.3217 31.05 56.3217C30.9099 56.3122 30.8072 56.1894 30.8165 56.0478C30.8865 55.1646 31.2928 54.3098 31.9278 53.7006C32.5674 53.0913 33.4359 52.7324 34.309 52.7135C34.4585 52.7277 34.5658 52.8221 34.5658 52.9638C34.5658 53.1055 34.4585 53.2236 34.3184 53.2236C33.5666 53.2377 32.8196 53.5494 32.2733 54.0689C31.727 54.5932 31.3768 55.3252 31.3161 56.0855C31.3068 56.2178 31.1947 56.3217 31.064 56.3217H31.0686Z" fill="#22263F"/>
<path d="M49.5399 60.9925C49.5165 60.9925 49.4885 60.9925 49.4652 60.983C49.3345 60.9405 49.2597 60.7988 49.3018 60.6619C49.5586 59.8354 50.1329 59.1175 50.8846 58.7019C51.6363 58.2816 52.5422 58.173 53.3686 58.395C53.504 58.4328 53.5834 58.5697 53.546 58.7067C53.5087 58.8436 53.3733 58.9192 53.2379 58.8861C52.5328 58.6972 51.7624 58.7917 51.1274 59.1459C50.4877 59.5001 49.9975 60.1093 49.7827 60.813C49.75 60.9216 49.6473 60.9925 49.5399 60.9925Z" fill="#22263F"/>
</g>
<g clip-path="url(#clip1_399_4226)">
<path d="M93.8691 41.7345C93.5614 41.7345 93.2502 41.7069 92.9354 41.6517C90.1698 41.1483 88.3414 38.5483 88.8542 35.8517C89.3706 33.1552 92.0407 31.369 94.8027 31.8724C96.1431 32.1138 97.3066 32.8517 98.0776 33.9483C98.8485 35.0448 99.135 36.3655 98.8839 37.6724C98.4277 40.0621 96.2775 41.7345 93.8691 41.7345ZM89.505 35.969C89.0558 38.3138 90.6508 40.5793 93.0557 41.0173C95.4605 41.4517 97.784 39.9 98.2332 37.5552C98.4489 36.4173 98.2013 35.2655 97.5294 34.3138C96.8574 33.3586 95.846 32.7173 94.6825 32.5069C92.2741 32.0724 89.9541 33.6242 89.505 35.969Z" fill="#22263F"/>
<path d="M90.644 37.7207C90.4919 37.7207 90.354 37.6172 90.3221 37.469C90.0923 36.4552 90.3363 35.3517 90.9729 34.5207C91.6094 33.6862 92.6244 33.1448 93.6854 33.069C93.8658 33.0483 94.0249 33.1897 94.039 33.3655C94.0532 33.5448 93.9153 33.6966 93.7349 33.7103C92.8614 33.7724 92.0267 34.2207 91.5033 34.9035C90.9799 35.5862 90.7783 36.4966 90.9693 37.3276C91.0082 37.5 90.8951 37.6724 90.7182 37.7104C90.6935 37.7138 90.6687 37.7172 90.6475 37.7172L90.644 37.7207Z" fill="#22263F"/>
<path d="M97.9538 30.3276C97.8088 30.3276 97.6638 30.3138 97.5153 30.2862C96.2174 30.0482 95.3615 28.8276 95.602 27.5655C95.7187 26.9517 96.0759 26.4172 96.6064 26.0655C97.1333 25.7138 97.7699 25.5827 98.3959 25.7C99.6902 25.9345 100.55 27.1551 100.306 28.4172C100.09 29.5379 99.082 30.3241 97.9538 30.3241V30.3276ZM97.9467 26.3069C97.6037 26.3069 97.2677 26.4069 96.9777 26.6C96.5958 26.8551 96.3376 27.2414 96.2527 27.6862C96.0794 28.6 96.6983 29.4827 97.639 29.6551C98.5727 29.8207 99.4816 29.2172 99.6549 28.3034C99.8282 27.3896 99.2093 26.5069 98.2721 26.3379C98.1625 26.3172 98.0564 26.3069 97.9467 26.3069Z" fill="#22263F"/>
<path d="M89.795 28.3173C89.6252 28.3173 89.459 28.3035 89.2892 28.2724C88.5748 28.1448 87.9559 27.7517 87.5422 27.1655C87.1284 26.5793 86.9763 25.8724 87.1072 25.1724C87.2416 24.4759 87.6447 23.869 88.2459 23.469C88.8472 23.0655 89.5721 22.9138 90.2865 23.0448C91.7648 23.3138 92.7444 24.7035 92.4686 26.1414C92.3377 26.8379 91.9346 27.4448 91.3333 27.8448C90.8736 28.1517 90.3396 28.3138 89.795 28.3138V28.3173ZM87.7579 25.2897C87.6553 25.8173 87.772 26.3552 88.0868 26.8C88.398 27.2414 88.8684 27.5414 89.4095 27.6379C89.9541 27.7345 90.5058 27.6241 90.9585 27.3173C91.4112 27.0138 91.7188 26.5552 91.8179 26.0276C92.0265 24.9379 91.2838 23.8862 90.1663 23.6828C89.6252 23.5862 89.077 23.6966 88.6208 24C88.1646 24.3035 87.8605 24.7621 87.7579 25.2897Z" fill="#22263F"/>
<path d="M81.739 44C81.594 44 81.449 43.9862 81.3004 43.9586C80.0025 43.7207 79.1467 42.5 79.3872 41.2379C79.5039 40.6241 79.861 40.0896 80.388 39.7379C80.9149 39.3862 81.5515 39.2552 82.1775 39.3724C83.4719 39.6069 84.3312 40.8276 84.0872 42.0896C83.8715 43.2103 82.8636 43.9965 81.7354 43.9965L81.739 44ZM81.7319 39.9793C81.3888 39.9793 81.0529 40.0793 80.7629 40.2758C80.3809 40.531 80.1228 40.9172 80.0379 41.3621C79.8646 42.2758 80.4835 43.1586 81.4242 43.331C82.3614 43.4965 83.2632 42.8931 83.44 41.9793C83.6133 41.0655 82.9944 40.1827 82.0572 40.0138C81.9476 39.9931 81.8415 39.9827 81.7354 39.9827L81.7319 39.9793Z" fill="#22263F"/>
</g>
<g clip-path="url(#clip2_399_4226)">
<path d="M4.78632 98.5501C4.57001 98.4674 4.3591 98.3632 4.15358 98.2373C2.35314 97.1178 1.81078 94.682 2.94198 92.803C4.07567 90.9249 6.46088 90.3054 8.26132 91.4249C9.13465 91.9655 9.74176 92.83 9.97039 93.8573C10.199 94.8845 10.023 95.9492 9.47291 96.8592C8.4692 98.5239 6.47953 99.1971 4.78632 98.5501ZM3.36596 93.0655C2.38004 94.6986 2.8539 96.8215 4.41945 97.7951C5.98599 98.7661 8.06301 98.2298 9.04893 96.5967C9.52582 95.8036 9.68094 94.8757 9.48054 93.9834C9.28112 93.0885 8.75333 92.337 7.99544 91.8671C6.42642 90.8951 4.35189 91.4324 3.36596 93.0655Z" fill="#22263F"/>
<path d="M3.66573 94.6816C3.55882 94.6407 3.49142 94.5263 3.51142 94.4069C3.63955 93.5869 4.12648 92.8271 4.81153 92.3766C5.49757 91.9235 6.36588 91.7913 7.13346 92.0196C7.26074 92.0593 7.33766 92.2011 7.29734 92.3364C7.25604 92.4743 7.11571 92.5507 6.98497 92.5126C6.3531 92.3243 5.6382 92.4354 5.07509 92.8054C4.51099 93.178 4.11008 93.8021 4.00683 94.475C3.9849 94.6144 3.85606 94.7129 3.7209 94.6938C3.70251 94.6897 3.68412 94.6857 3.66921 94.68L3.66573 94.6816Z" fill="#22263F"/>
<path d="M10.9181 91.1161C10.8162 91.0771 10.7182 91.0278 10.6216 90.9673C9.77716 90.4407 9.52434 89.2978 10.0541 88.4184C10.3116 87.9907 10.7155 87.6869 11.1889 87.5664C11.6599 87.4449 12.1449 87.5179 12.5515 87.7738C13.3945 88.2969 13.6498 89.4407 13.1175 90.3191C12.6456 91.0993 11.7123 91.4166 10.9191 91.1135L10.9181 91.1161ZM12.0623 88.107C11.8211 88.0149 11.5563 87.9994 11.2972 88.0659C10.9558 88.1541 10.6639 88.3736 10.4771 88.6835C10.0941 89.3204 10.2769 90.1469 10.889 90.5286C11.5006 90.9042 12.3071 90.6951 12.6926 90.0592C13.0756 89.4223 12.8927 88.5958 12.2822 88.2176C12.211 88.1727 12.1394 88.1365 12.0623 88.107Z" fill="#22263F"/>
<path d="M5.7567 87.4206C5.63735 87.375 5.52443 87.32 5.41396 87.2512C4.94818 86.9638 4.62542 86.5036 4.50206 85.954C4.37869 85.4044 4.4748 84.8322 4.76587 84.3464C5.06041 83.859 5.51632 83.516 6.05431 83.3758C6.59131 83.2381 7.14437 83.3194 7.60916 83.6093C8.57159 84.2076 8.86314 85.5102 8.25824 86.5115C7.96717 86.9973 7.51027 87.3429 6.97327 87.4806C6.56234 87.5866 6.14058 87.5643 5.75768 87.418L5.7567 87.4206ZM5.18985 84.6089C4.96696 84.976 4.89527 85.4097 4.98942 85.8269C5.08207 86.2406 5.32702 86.5914 5.67983 86.809C6.03513 87.0275 6.45206 87.0922 6.86051 86.9853C7.26548 86.8799 7.61287 86.6196 7.83327 86.2516C8.29139 85.4927 8.06985 84.5065 7.34231 84.0541C6.98949 83.8366 6.57257 83.7718 6.1651 83.8762C5.75764 83.9806 5.41274 84.2419 5.18985 84.6089Z" fill="#22263F"/>
</g>
<defs>
<clipPath id="clip0_399_4226">
<rect width="45.641" height="89" fill="white" transform="translate(20.3481 13)"/>
</clipPath>
<clipPath id="clip1_399_4226">
<rect width="21" height="21" fill="white" transform="translate(79.3481 23)"/>
</clipPath>
<clipPath id="clip2_399_4226">
<rect width="10" height="15" fill="white" transform="translate(5.35449 82.7093) rotate(20.9134)"/>
</clipPath>
</defs>
</svg>
