<svg width="25" height="25" viewBox="0 0 25 25" fill="none" xmlns="http://www.w3.org/2000/svg">
<path fill-rule="evenodd" clip-rule="evenodd" d="M14.4125 4.3433C13.8283 4.12116 13.1958 4 12.5374 4C9.83431 4 7.56803 6.04199 7.28734 8.73044L7.03455 11.1516C6.9353 12.1022 6.64189 13.0223 6.17249 13.8549L5.66296 14.7586L5.65184 14.7784C5.45529 15.127 5.29199 15.4166 5.18266 15.6564C5.07227 15.8985 4.98327 16.1581 5.00267 16.4349C5.03532 16.9007 5.28304 17.3248 5.67277 17.582C5.9044 17.7348 6.17425 17.7848 6.43934 17.8075C6.70189 17.8301 7.03436 17.83 7.43456 17.83H7.45724H17.6175H17.6402C18.0404 17.83 18.3729 17.8301 18.6354 17.8075C18.9005 17.7848 19.1704 17.7348 19.402 17.582C19.7917 17.3248 20.0394 16.9007 20.0721 16.4349C20.0915 16.1581 20.0025 15.8985 19.8921 15.6564C19.7828 15.4166 19.6195 15.127 19.4229 14.7784L19.4229 14.7783L19.4118 14.7586L18.9023 13.8549C18.4329 13.0223 18.1394 12.1022 18.0402 11.1516L18.0132 10.8928C17.7042 10.9969 17.3742 11.0609 17.027 11.0777L17.0456 11.2555C17.1591 12.3423 17.4945 13.3942 18.0312 14.346L18.5407 15.2498C18.7512 15.6232 18.8928 15.8753 18.9822 16.0713C19.0726 16.2695 19.0761 16.3423 19.0745 16.365C19.0636 16.5203 18.9811 16.6616 18.8512 16.7473C18.8322 16.7599 18.767 16.7926 18.55 16.8112C18.3353 16.8296 18.0462 16.83 17.6175 16.83H7.45724C7.02858 16.83 6.73941 16.8296 6.52478 16.8112C6.30773 16.7926 6.24254 16.7599 6.22359 16.7473C6.09368 16.6616 6.01111 16.5203 6.00022 16.365C5.99864 16.3423 6.00214 16.2695 6.09253 16.0713C6.18191 15.8753 6.32354 15.6232 6.53406 15.2498L7.04358 14.346C7.58023 13.3942 7.91568 12.3423 8.02915 11.2555L8.28193 8.83428C8.50944 6.65514 10.3464 5 12.5374 5C12.9471 5 13.3444 5.05788 13.7212 5.16624C13.9121 4.86123 14.1446 4.58335 14.4125 4.3433ZM16.2512 5.52747C15.9337 5.6511 15.6598 5.87141 15.4612 6.15492C16.1899 6.83688 16.6821 7.7735 16.7928 8.83428L16.8187 9.08199C16.8267 9.08211 16.8348 9.08217 16.8429 9.08217C17.1938 9.08217 17.5202 8.97048 17.7924 8.77868L17.7874 8.73044C17.6562 7.47416 17.0915 6.35903 16.2512 5.52747Z" fill="#152744"/>
<path d="M9.81409 17.587C9.9747 18.2249 10.3286 18.7886 10.8209 19.1906C11.3132 19.5926 11.9164 19.8105 12.537 19.8105C13.1575 19.8105 13.7608 19.5926 14.2531 19.1906C14.7454 18.7886 15.0993 18.2249 15.2599 17.587" stroke="#152744" stroke-linecap="round"/>
<ellipse cx="16.7827" cy="7.5" rx="2.34913" ry="2.5" fill="#152744"/>
<path d="M9 22H16" stroke="#152744" stroke-linecap="round"/>
</svg>
