<svg width="24" height="24" viewBox="0 0 24 24" fill="none" xmlns="http://www.w3.org/2000/svg">
<g clip-path="url(#clip0_399_5145)">
<path d="M10.2218 24H2.46744C2.71737 20.9965 2.9641 18.0277 3.21083 15.0589C-0.0735514 14.8913 -0.704793 13.9239 0.746742 11.5748C0.073845 10.9646 -0.0767558 10.1995 0.0321894 9.30472C0.163565 8.2266 0.192403 7.13583 0.234059 6.05139C0.310961 4.05956 1.10882 3.04467 3.14674 2.44396C3.16597 2.27323 3.20442 2.08353 3.21083 1.897C3.24287 0.581755 3.59534 0.173903 4.92832 0.0253062C5.34167 -0.0221184 5.78065 -0.00314853 6.1908 0.0727308C7.3924 0.290884 7.71283 0.676604 7.6936 1.88119C7.67758 2.90872 7.78332 3.81927 8.40175 4.77409C8.90482 5.55185 8.85996 6.67107 9.07144 7.6986C10.5005 8.12542 12.2853 7.1548 13.5991 8.25189C14.6725 8.14439 15.6722 8.04322 16.6688 7.94205C16.6816 8.078 16.6912 8.21711 16.704 8.35306C16.2009 8.35306 15.6947 8.35306 15.1916 8.35306C14.4514 8.34674 13.9483 8.63129 13.5831 9.31736C13.41 9.64617 12.9358 9.94653 12.5513 10.0192C10.978 10.3101 9.9398 11.4989 8.61644 12.2008C8.52992 12.245 8.5171 12.498 8.53633 12.6466C8.5876 13.0576 8.64207 13.4749 8.75101 13.8764C9.44955 16.4216 8.62284 18.9066 8.48186 21.4201C8.47224 21.5877 8.437 21.7521 8.42418 21.9165C8.42097 21.9671 8.45302 22.0208 8.46904 22.0714C9.84367 22.5299 10.0519 22.7448 10.225 24.0032L10.2218 24ZM8.0653 9.6683C9.60335 9.6683 11.0965 9.70308 12.5897 9.63353C12.8429 9.62088 13.2658 9.1656 13.2658 8.91583C13.2658 8.65974 12.8877 8.32777 12.5993 8.16336C12.3879 8.04322 12.0482 8.13175 11.7662 8.13175C10.7056 8.13175 9.64501 8.13175 8.55555 8.13175C8.4434 6.70585 8.78626 5.2926 7.6167 4.24926C6.48559 5.20723 5.23272 5.22936 3.94781 4.75196C3.041 4.41682 2.49948 4.62549 2.27838 5.55185C2.03166 6.57938 1.86183 7.62589 1.59267 8.6471C1.36837 9.49125 1.67278 10.0382 2.38733 10.4587C3.59854 11.1732 4.80015 11.9036 6.00175 12.6339C6.492 12.9311 7.0143 13.1556 7.40522 12.558C7.78973 11.97 7.38599 11.5906 6.90856 11.2554C5.76143 10.4524 4.63032 9.63036 3.47358 8.79885C3.80362 7.98631 4.10802 7.24017 4.41243 6.49718C4.50535 6.53196 4.59828 6.56674 4.688 6.60151C4.5406 7.02517 4.44447 7.47097 4.2394 7.86617C3.94461 8.43843 4.05035 8.78305 4.59828 9.15296C5.77745 9.95285 6.90535 10.8286 7.97238 11.6127C7.7641 10.2311 7.53659 8.69452 7.30589 7.16112C7.40202 7.14532 7.50135 7.12635 7.59748 7.11054C7.75128 7.94837 7.90509 8.78937 8.0685 9.67147L8.0653 9.6683ZM3.74915 22.2453C3.90936 22.22 4.07919 22.1473 4.23299 22.1726C5.05008 22.3054 5.2872 21.9228 5.35128 21.1703C5.45382 19.9531 5.57878 18.7232 5.87678 17.5408C6.20682 16.2287 5.62364 15.2391 5.05328 14.1673C4.49895 14.395 3.98626 14.6068 3.61136 14.7617C3.37104 17.7969 3.14354 20.7214 2.90963 23.6617H6.91817C6.32538 21.9323 4.7649 22.827 3.74915 22.2421V22.2453ZM5.42818 13.9207C5.55315 14.2179 5.60762 14.4044 5.70375 14.5688C6.27411 15.549 6.44073 16.5607 6.22605 17.6957C5.95048 19.1374 5.8127 20.6044 5.60762 22.1188H8.02685C8.30242 18.9161 9.24447 15.7576 8.05248 12.6213C7.62631 12.8647 7.23219 13.1113 6.81563 13.32C6.39267 13.5287 5.95048 13.6994 5.43139 13.9239L5.42818 13.9207ZM2.57959 12.0364C2.60522 11.3376 2.41296 10.876 1.82979 10.5219C1.22738 10.1584 1.01911 9.53868 1.1665 8.84628C1.41003 7.70493 1.64714 6.56358 1.94514 5.43803C2.03806 5.08709 2.25275 4.62865 2.54113 4.4927C3.3422 4.12279 3.23967 3.56002 3.10829 2.92453C1.63433 3.13004 0.778785 4.05956 0.634593 5.65618C0.525647 6.87342 0.464766 8.10013 0.423111 9.32052C0.365434 10.9551 0.858892 11.5716 2.57959 12.0364ZM7.21617 1.42591C7.07198 0.663957 6.50482 0.284561 5.40575 0.363602C4.68479 0.414188 3.79401 0.347793 3.52805 1.29945C3.18519 2.52932 3.50883 4.17021 4.10482 4.44844C5.04047 4.88474 6.54007 4.67924 7.00148 4.03426C6.36063 3.99 5.62044 4.10382 5.49547 3.20275C5.38332 2.39021 5.9633 1.78634 7.21296 1.42591H7.21617ZM1.07037 11.8182C0.871709 12.1534 0.660227 12.4158 0.548077 12.7161C0.326983 13.3168 0.234059 14.044 0.855687 14.3602C1.37158 14.6226 2.07331 14.5467 2.69174 14.572C2.77184 14.5752 2.93206 14.2969 2.93846 14.1452C2.99935 13.1082 2.65969 12.5802 1.70802 12.1439C1.53179 12.0617 1.35876 11.9668 1.06717 11.8182H1.07037ZM6.19401 13.1872C5.01163 12.4758 4.04073 11.8909 2.90322 11.2049C3.07304 12.3905 3.21403 13.3643 3.37425 14.4645C4.31951 14.0377 5.16864 13.652 6.19401 13.1872ZM11.151 10.1552H8.12298C8.2159 10.7622 8.29601 11.2744 8.39214 11.8909C9.31497 11.3092 10.1513 10.7844 11.151 10.1552ZM9.75395 23.6175C9.6386 22.514 8.62284 22.3749 6.88292 22.6215C7.44688 23.8641 7.63593 23.9305 9.75395 23.6175ZM7.19694 3.64538V1.95707C6.35742 2.04875 5.79988 2.51984 5.89921 3.0921C6.037 3.89199 6.67144 3.56634 7.19694 3.64222V3.64538Z" fill="#152744"/>
<path d="M24 6.65841C21.8307 6.91134 19.6582 7.16427 17.4889 7.4172C17.4761 7.30338 17.4601 7.19272 17.4473 7.0789C19.6166 6.81017 21.7858 6.54459 23.9583 6.27585C23.9712 6.40231 23.9872 6.52878 24 6.65841Z" fill="#152744"/>
<path d="M17.3578 8.93164C19.1938 10.1173 21.0299 11.306 22.8659 12.4916C22.8018 12.5897 22.7346 12.6908 22.6705 12.7888C20.8344 11.6001 19.0016 10.4081 17.1655 9.21935C17.2296 9.1245 17.2937 9.02649 17.3578 8.93164Z" fill="#152744"/>
<path d="M22.2216 9.08972C20.8726 8.88738 19.5204 8.68819 18.1714 8.48585C18.1874 8.37835 18.2034 8.27086 18.2195 8.16336C19.5717 8.35622 20.9239 8.55224 22.2729 8.7451C22.2568 8.85892 22.2376 8.9759 22.2216 9.08972Z" fill="#152744"/>
<path d="M5.62661 1.17298C3.50538 1.35951 5.00177 2.99408 4.21993 3.89831C4.21993 2.93085 4.15585 2.06772 4.2744 1.23305C4.29683 1.06864 5.03382 1.00225 5.44396 0.888428C5.50484 0.983277 5.56572 1.07813 5.62661 1.17298Z" fill="#152744"/>
</g>
<defs>
<clipPath id="clip0_399_5145">
<rect width="24" height="24" fill="white"/>
</clipPath>
</defs>
</svg>
