<svg width="24" height="24" viewBox="0 0 24 24" fill="none" xmlns="http://www.w3.org/2000/svg">
<g clip-path="url(#clip0_399_5137)">
<path d="M7.41655 17.8996C7.4524 17.6914 7.47195 17.4945 7.52083 17.3127C7.6023 17.0136 7.77175 16.775 8.00963 16.6235C8.14975 16.5364 8.18559 16.4304 8.19211 16.2562C8.29965 13.9842 9.00352 11.9886 10.333 10.3187C11.9852 8.24739 14.0447 7.2212 16.4789 7.2212C17.9355 7.2212 19.3921 7.24771 20.8487 7.21363C21.722 7.19091 22.3607 7.82328 22.4683 8.82297C22.729 8.82297 22.9962 8.79646 23.2569 8.83054C23.4426 8.85326 23.6414 8.91764 23.7913 9.03502C23.9868 9.19028 24.0194 9.46292 23.9836 9.73177C23.8076 11.0874 23.6316 12.4468 23.4491 13.8025C23.3742 14.3629 23.1689 14.556 22.6703 14.5636C22.6051 14.5636 22.54 14.5712 22.4618 14.5749C22.452 14.7037 22.4487 14.8211 22.4292 14.9347C22.3673 15.3133 22.2141 15.6352 21.9697 15.9003C21.7221 16.1729 21.4711 16.4456 21.2333 16.7333C21.1681 16.8129 21.1192 16.9416 21.1127 17.0552C21.0964 17.3279 21.1062 17.6005 21.1062 17.8996C21.1648 17.8996 21.2365 17.911 21.3049 17.911C22.0577 17.911 22.8104 17.911 23.5599 17.911C23.8695 17.911 23.9607 18.0095 23.9607 18.3654C23.9607 19.0205 23.9607 19.6756 23.9607 20.3307C23.9607 20.7094 23.8825 20.7927 23.5502 20.7927C22.9734 20.7927 22.3966 20.7927 21.8166 20.7927C21.6297 20.7927 21.5363 20.8974 21.5363 21.107C21.5363 21.9022 21.5363 22.6974 21.5363 23.4926C21.5363 23.9129 21.4711 23.9886 21.1159 23.9886C20.6532 23.9886 20.1905 23.9811 19.7278 23.9886C19.529 23.9924 19.4084 23.9015 19.3074 23.7046C18.8447 22.792 18.3689 21.8832 17.9062 20.9706C17.8345 20.8305 17.7595 20.7775 17.6194 20.7775C13.8524 20.7775 10.0854 20.7775 6.32164 20.7775C6.1913 20.7775 6.11635 20.823 6.04792 20.9555C5.58519 21.8681 5.10942 22.7731 4.64669 23.6895C4.53916 23.9053 4.40555 23.9962 4.19374 23.9886C3.72449 23.9773 3.25525 23.9886 2.78274 23.9848C2.49598 23.9848 2.408 23.8826 2.408 23.5532C2.408 22.7201 2.40148 21.8832 2.41126 21.0502C2.41126 20.8495 2.36889 20.7813 2.18641 20.7851C1.59008 20.7965 0.990482 20.7927 0.394148 20.7889C0.0617655 20.7889 -0.0131836 20.7018 -0.0131836 20.3231C-0.0131836 19.6832 -0.0131836 19.0432 -0.0131836 18.4033C-0.0131836 17.9905 0.0650242 17.9034 0.429994 17.9034C0.641806 17.9034 0.853619 17.9034 1.1306 17.9034C0.387631 17.1726 -0.0164423 16.2941 -0.000148971 15.1922C0.019403 14.0865 0.443028 13.2231 1.20881 12.5415C0.586409 12.2954 0.143232 11.8675 0.0291789 11.1026C-0.084874 10.3604 0.156267 9.76207 0.648324 9.28873C-0.329273 8.40643 -0.24129 6.60776 1.19904 6.02082C1.07847 5.89965 0.957896 5.78605 0.85036 5.66109C0.0291789 4.71442 -0.221738 3.30956 0.205146 2.08267C0.645065 0.833066 1.66502 0.0189289 2.84792 0.00756888C3.98845 -0.00379117 5.12898 -4.48216e-06 6.27276 -4.48216e-06C9.97134 -4.48216e-06 13.6699 -4.48216e-06 17.3717 -4.48216e-06C17.9159 -4.48216e-06 18.3884 0.196903 18.7502 0.685385C19.2585 1.37077 19.2357 2.39697 18.6948 3.05206C18.6263 3.13537 18.5514 3.2111 18.4667 3.30577C18.4992 3.34742 18.5286 3.38529 18.5612 3.41937C19.076 3.97601 19.2487 4.74092 19.0174 5.43767C18.7827 6.14578 18.1832 6.61155 17.4825 6.61155C15.977 6.61533 14.4748 6.61155 12.9693 6.61155C9.22836 6.61155 5.49069 6.61155 1.74975 6.61155C1.39781 6.61155 1.08498 6.70621 0.834067 7.00536C0.550564 7.34616 0.475615 7.75134 0.618996 8.19438C0.768894 8.66393 1.07847 8.91006 1.50209 8.96308C1.59659 8.97444 1.69109 8.97065 1.78234 8.97065C4.13834 8.97065 6.49435 8.97065 8.85036 8.97065C8.91879 8.97065 8.98397 8.96686 9.0524 8.97444C9.19904 8.99716 9.2805 9.0994 9.28702 9.2698C9.29354 9.44398 9.21207 9.55001 9.07195 9.58788C8.99374 9.60681 8.91228 9.59924 8.83081 9.59924C6.43244 9.59924 4.03733 9.59924 1.63895 9.59924C1.08824 9.59924 0.661358 9.97412 0.576633 10.527C0.459321 11.2767 0.895981 11.9053 1.56075 11.947C1.72694 11.9583 1.89639 11.9508 2.06258 11.9508C3.83529 11.9508 5.608 11.9508 7.38071 11.9508C7.44262 11.9508 7.50128 11.9508 7.56319 11.9508C7.72938 11.9659 7.82714 12.0795 7.82388 12.2689C7.82388 12.4468 7.72938 12.5566 7.57297 12.5718C7.50779 12.5794 7.43936 12.5756 7.37093 12.5756C5.88173 12.5756 4.38926 12.5756 2.90005 12.5756C1.85728 12.5756 1.00678 13.2799 0.667875 14.4008C0.175818 16.0442 1.23814 17.8656 2.73386 17.8921C4.26543 17.9224 5.79374 17.8996 7.32531 17.9034C7.35138 17.9034 7.37745 17.8959 7.41329 17.8921L7.41655 17.8996ZM10.0886 0.655092C9.20881 0.655092 8.32898 0.655092 7.44914 0.655092C5.86543 0.655092 4.27847 0.636158 2.69802 0.674025C1.31961 0.708105 0.289871 2.32881 0.605961 3.88892C0.866654 5.17261 1.77908 5.99053 2.96197 5.99053C7.76197 5.99053 12.562 5.99053 17.362 5.99053C17.5021 5.99053 17.6455 5.97917 17.7823 5.9413C18.2581 5.81255 18.5807 5.33165 18.5709 4.79015C18.5612 4.24487 18.2223 3.77532 17.753 3.66551C17.6227 3.63521 17.4858 3.639 17.3522 3.639C13.1844 3.639 9.01329 3.639 4.84547 3.639C4.52612 3.639 4.39904 3.54433 4.4023 3.31713C4.4023 3.09372 4.52287 3.01041 4.8357 3.01041C9.01003 3.01041 13.1876 3.01041 17.362 3.01041C17.4825 3.01041 17.6031 3.00284 17.7237 2.9839C18.4406 2.85894 18.8056 1.90091 18.395 1.20795C18.1538 0.798986 17.8019 0.658879 17.3848 0.658879C14.9538 0.662665 12.5229 0.658879 10.0952 0.658879L10.0886 0.655092ZM8.68743 16.4077C8.84058 16.4077 8.91228 16.4077 8.98722 16.4077C9.55749 16.4077 10.1278 16.4077 10.698 16.4077C13.9665 16.4077 17.2381 16.4077 20.5066 16.4077C20.6565 16.4077 20.7738 16.3736 20.8813 16.2411C21.1094 15.9647 21.3473 15.7034 21.5917 15.4459C21.8198 15.2035 21.9176 14.9044 21.9176 14.5484C21.9176 12.7005 21.9176 10.8488 21.9176 9.00094C21.9176 8.2739 21.5493 7.84979 20.9269 7.84979C19.4312 7.84979 17.9322 7.83464 16.4365 7.85736C15.9086 7.86494 15.3677 7.89902 14.8593 8.03912C11.8157 8.86084 9.84425 11.0344 8.97419 14.5219C8.82755 15.1126 8.78845 15.7412 8.69069 16.4039L8.68743 16.4077ZM23.4166 18.5623C23.3123 18.5623 23.2276 18.5623 23.1428 18.5623C16.7591 18.5623 10.3787 18.5623 3.99496 18.5623C2.91309 18.5623 1.83447 18.5623 0.752601 18.5623C0.592926 18.5623 0.544047 18.6191 0.547305 18.8009C0.557081 19.1682 0.563598 19.5355 0.547305 19.899C0.537529 20.1262 0.612478 20.1679 0.788446 20.1679C8.25729 20.1641 15.7294 20.1641 23.1982 20.1641C23.2699 20.1641 23.3383 20.1565 23.4166 20.1527V18.5661V18.5623ZM20.5652 17.0514H20.3404C16.4821 17.0514 12.6239 17.0514 8.76564 17.0514C8.69069 17.0514 8.619 17.0514 8.54405 17.059C8.19211 17.1082 7.95097 17.4945 8.02592 17.911C8.10087 17.911 8.17908 17.911 8.26054 17.911C12.2263 17.911 16.1921 17.911 20.1579 17.911C20.21 17.911 20.2654 17.911 20.3176 17.911C20.4838 17.911 20.562 17.805 20.5652 17.6194C20.5652 17.4415 20.5652 17.2635 20.5652 17.0514ZM5.48091 20.823C5.43203 20.8116 5.41248 20.8002 5.39293 20.8002C4.64018 20.8002 3.89069 20.8002 3.13794 20.7965C2.97826 20.7965 2.96849 20.8873 2.96849 21.0274C2.96849 21.7356 2.96849 22.4475 2.96849 23.1556C2.96849 23.2162 2.97826 23.273 2.98804 23.3563C3.33997 23.3563 3.68213 23.3525 4.02103 23.3563C4.14486 23.3563 4.21329 23.3108 4.27847 23.1896C4.64995 22.4588 5.02796 21.7318 5.4027 21.0009C5.42877 20.9479 5.44832 20.8911 5.47765 20.8154L5.48091 20.823ZM18.4862 20.8154C18.5318 20.9138 18.5612 20.9896 18.597 21.0615C18.9098 21.6674 19.2487 22.2619 19.5257 22.8905C19.6952 23.273 19.9005 23.4206 20.2589 23.3714C20.5001 23.3373 20.7477 23.3638 20.9856 23.3638V20.8192H18.4829L18.4862 20.8154ZM22.4683 9.47049V13.8896C22.8398 13.9766 22.8789 13.9464 22.9278 13.5828C23.0255 12.8369 23.1233 12.0909 23.221 11.3449C23.2927 10.792 23.3612 10.2354 23.4328 9.68255C23.4459 9.57273 23.4589 9.47049 23.3253 9.47049C23.0451 9.47049 22.7648 9.47049 22.4683 9.47049Z" fill="#152744"/>
<path d="M5.89188 15.5746C5.51062 15.5746 5.12609 15.5746 4.74483 15.5746C4.51347 15.5746 4.39941 15.461 4.39941 15.2566C4.39941 15.0521 4.51673 14.9385 4.74809 14.9385C5.50736 14.9385 6.26662 14.9347 7.02263 14.9385C7.24748 14.9385 7.36805 15.0597 7.36805 15.2603C7.36805 15.4648 7.25074 15.5746 7.01937 15.5784C6.64463 15.5784 6.26662 15.5784 5.89188 15.5784V15.5746Z" fill="#152744"/>
<path d="M15.5632 14.4386C14.3607 14.4386 13.1615 14.4386 11.9591 14.4386C11.5257 14.4386 11.3791 14.2531 11.4084 13.7494C11.5518 11.3979 13.1941 9.47806 15.2243 9.37961C16.5701 9.31523 17.9224 9.34553 19.2715 9.36446C19.9721 9.37582 20.4675 10.0006 20.4772 10.8185C20.4837 11.5342 20.487 12.2537 20.4772 12.9732C20.4675 13.8138 19.9298 14.431 19.2064 14.4348C17.9909 14.4424 16.7754 14.4348 15.5599 14.4348L15.5632 14.4386ZM11.9624 13.7835C12.0438 13.7911 12.096 13.7987 12.1481 13.7987C14.4911 13.7987 16.8341 13.7987 19.177 13.7987C19.6398 13.7987 19.933 13.4579 19.9363 12.9202C19.9396 12.2499 19.9363 11.5797 19.9363 10.9094C19.9363 10.3301 19.6463 9.99305 19.1477 9.99305C17.9387 9.99305 16.733 9.98548 15.5241 9.99305C14.4292 10.0006 13.5135 10.4777 12.7966 11.4471C12.3045 12.1098 12.0275 12.8823 11.9656 13.7835H11.9624Z" fill="#152744"/>
<path d="M20.142 15.5822C20.067 15.5784 19.9693 15.6049 19.9139 15.5595C19.8259 15.4913 19.7118 15.3739 19.7086 15.2717C19.7053 15.1695 19.8096 14.9991 19.8911 14.9726C20.054 14.9233 20.2397 14.9233 20.4027 14.9688C20.4874 14.9915 20.5819 15.1467 20.6047 15.2603C20.634 15.4194 20.533 15.5368 20.3896 15.5671C20.3114 15.5822 20.23 15.5784 20.1452 15.586L20.142 15.5822Z" fill="#152744"/>
</g>
<defs>
<clipPath id="clip0_399_5137">
<rect width="24" height="24" fill="white"/>
</clipPath>
</defs>
</svg>
