<svg width="24" height="24" viewBox="0 0 24 24" fill="none" xmlns="http://www.w3.org/2000/svg">
<g clip-path="url(#clip0_399_5129)">
<path d="M17.628 5.61073C17.874 5.61073 18.0975 5.61723 18.3179 5.60423C18.3595 5.60423 18.4233 5.51321 18.4297 5.45794C18.4425 5.26615 18.4297 5.07111 18.4361 4.87932C18.4457 4.50874 18.6278 4.32345 18.9951 4.32019C19.2187 4.31694 19.4422 4.31369 19.6658 4.32019C19.8 4.3267 19.8447 4.27143 19.8383 4.14141C19.8287 3.93336 19.8319 3.72857 19.8383 3.52052C19.8447 3.31898 19.9437 3.1987 20.1034 3.1922C20.2695 3.1857 20.3877 3.31247 20.3941 3.51727C20.4004 3.77082 20.3941 4.02763 20.3941 4.32019C20.6624 4.32019 20.9179 4.31694 21.1702 4.32019C21.2724 4.32019 21.3778 4.32345 21.4705 4.3592C21.6749 4.43397 21.7867 4.59325 21.793 4.8143C21.7994 5.02885 21.8026 5.2434 21.793 5.45469C21.793 5.57172 21.8346 5.61723 21.9464 5.61073C22.055 5.60423 22.1636 5.61073 22.2722 5.61073C22.8215 5.61398 23.1505 5.93905 23.1505 6.49817C23.1537 7.66518 23.1505 8.83218 23.1505 9.99594C23.1505 14.3779 23.1505 18.7599 23.1505 23.1418C23.1505 23.3347 23.2463 23.4311 23.438 23.4311C23.5338 23.4311 23.6296 23.4246 23.7222 23.4344C23.8851 23.4506 23.9905 23.5449 23.9905 23.7139C23.9905 23.8732 23.8947 23.9675 23.7414 23.9902C23.6743 24 23.6073 24 23.5402 24C16.0757 24 8.61125 24 1.14359 24C1.07652 24 1.00625 24 0.939176 23.9935C0.77628 23.9707 0.674071 23.8732 0.680459 23.7042C0.686847 23.5351 0.795444 23.4441 0.961534 23.4344C1.09568 23.4279 1.23303 23.4344 1.36718 23.4344C1.98363 23.4344 2.60008 23.4344 3.25166 23.4344C3.25166 23.2621 3.25166 23.1061 3.25166 22.9533C3.25485 22.7225 3.35706 22.5924 3.52954 22.5957C3.69882 22.5957 3.79784 22.7257 3.80423 22.9565C3.81274 23.2773 3.97458 23.4376 4.28972 23.4376C5.20641 23.4376 6.1199 23.4376 7.03659 23.4376C7.11006 23.4376 7.18352 23.4376 7.29531 23.4376C7.29531 23.1841 7.29531 22.9468 7.29531 22.7062C7.29531 22.4754 7.39433 22.3421 7.56361 22.3389C7.73928 22.3356 7.84149 22.4722 7.84469 22.716C7.84469 22.95 7.84469 23.1808 7.84469 23.4214C7.91815 23.4279 7.96286 23.4376 8.00758 23.4376C8.71346 23.4376 9.41935 23.4376 10.122 23.4409C10.2626 23.4409 10.3105 23.4019 10.3105 23.2523C10.3073 20.5965 10.3105 17.9374 10.3105 15.2816C10.3105 15.1646 10.3009 15.0898 10.1508 15.0833C9.94956 15.0768 9.84415 14.9565 9.85373 14.794C9.86332 14.6314 9.9815 14.5339 10.1827 14.5339C11.2751 14.5339 12.3674 14.5339 13.4566 14.5339C13.7888 14.5339 14.121 14.5339 14.4531 14.5339C14.664 14.5339 14.7821 14.6445 14.7757 14.82C14.7694 14.9825 14.6544 15.08 14.4531 15.0898C14.4404 15.0898 14.4276 15.0898 14.4116 15.0898C14.0518 15.0963 13.8718 15.2805 13.8718 15.6424C13.8718 18.1487 13.8718 20.6518 13.8718 23.1581C13.8718 23.3466 13.9634 23.4409 14.1465 23.4409C15.0345 23.4409 15.9224 23.4344 16.8104 23.4441C17.0084 23.4441 17.0563 23.3824 17.0563 23.1873C17.0499 18.2657 17.0531 13.3474 17.0531 8.42584C17.0531 6.58919 17.0531 4.75579 17.0531 2.91914C17.0531 2.7306 16.9605 2.63633 16.7752 2.63633C12.6453 2.63633 8.51543 2.63633 4.38874 2.63633C4.19709 2.63633 4.10127 2.73385 4.10127 2.92889C4.10127 6.08858 4.10127 9.24827 4.10127 12.4112C4.10127 12.5152 4.10127 12.6193 4.0885 12.72C4.06614 12.8696 3.97032 12.9508 3.82339 12.9508C3.67327 12.9508 3.58384 12.8598 3.55829 12.7168C3.54232 12.6355 3.5487 12.551 3.5487 12.4697C3.5487 9.28728 3.5487 6.10809 3.5487 2.92564C3.5487 2.73276 3.45288 2.63633 3.26124 2.63633C3.15903 2.63633 3.05682 2.63633 2.95781 2.62657C2.61924 2.59082 2.37969 2.34051 2.3701 1.99919C2.36052 1.55059 2.36052 1.10199 2.3701 0.653393C2.37649 0.325071 2.59369 0.0812678 2.91309 0.0260057C3.00572 0.00975213 3.10154 0.00650142 3.19736 0.00650142C8.12895 0 13.0574 0 17.9889 0C18.5894 0 18.8226 0.240553 18.8226 0.854937C18.8226 1.19951 18.8258 1.54409 18.8226 1.88866C18.8162 2.36002 18.5639 2.61682 18.1039 2.62983C17.7867 2.63849 17.628 2.8032 17.628 3.12393C17.628 3.86835 17.628 4.61601 17.628 5.36042V5.61073ZM22.6043 23.4246C22.6043 23.3336 22.6043 23.2588 22.6043 23.1841C22.6043 17.6514 22.6043 12.1154 22.6043 6.58269C22.6043 6.24787 22.5373 6.1796 22.2147 6.1796C20.7582 6.1796 19.2985 6.1796 17.842 6.1796C17.775 6.1796 17.7111 6.1861 17.6376 6.18935V23.4279H22.6043V23.4246ZM10.5788 2.0707C13.0542 2.0707 15.5295 2.0707 18.0049 2.07395C18.1998 2.07395 18.27 2.01219 18.2604 1.8139C18.2477 1.51158 18.2572 1.20601 18.2572 0.903698C18.2572 0.684816 18.1497 0.575376 17.9347 0.575376C13.332 0.575376 8.72624 0.575376 4.12363 0.575376C3.79145 0.575376 3.45927 0.578627 3.12709 0.575376C2.98017 0.575376 2.91948 0.630638 2.92267 0.783421C2.92906 1.11499 2.92267 1.44657 2.92267 1.77814C2.92267 1.97535 3.02062 2.07504 3.21652 2.0772C5.66955 2.0772 8.12576 2.0772 10.5788 2.0772V2.0707ZM10.8918 15.0963V23.4149H13.3161V15.0963H10.8918ZM18.9855 5.57172C19.0206 5.59122 19.0302 5.60098 19.043 5.60098C19.7393 5.60423 20.4356 5.60748 21.1319 5.60748C21.167 5.60748 21.2341 5.55221 21.2373 5.51971C21.2469 5.31491 21.2437 5.11337 21.2437 4.88907C20.5059 4.88907 19.7968 4.88907 19.0877 4.89232C19.0558 4.89232 18.9951 4.95408 18.9919 4.98984C18.9823 5.18813 18.9887 5.38318 18.9887 5.56847L18.9855 5.57172Z" fill="#152744"/>
<path d="M1.93885 14.1959C1.84942 14.2706 1.8047 14.3096 1.74082 14.3649C1.52043 14.0593 1.30643 13.7603 1.09243 13.4612C0.86246 13.1361 0.629295 12.8143 0.402518 12.4892C0.115055 12.0731 0.18213 11.553 0.559026 11.2735C0.948699 10.9809 1.46294 11.0492 1.76637 11.4588C2.21993 12.0699 2.65431 12.694 3.10467 13.3052C3.15897 13.3767 3.27715 13.4384 3.36659 13.4417C3.98303 13.4579 4.48769 13.6985 4.86459 14.1894C5.46507 14.9663 6.13262 15.6619 6.99501 16.1398C7.63382 16.4909 8.31096 16.6827 9.0392 16.6729C9.26597 16.6729 9.45762 16.7184 9.5726 16.933C9.68759 17.1475 9.62051 17.3393 9.49914 17.5311C8.41317 19.254 6.98543 20.577 5.11053 21.3604C4.62504 21.562 4.11399 21.7115 3.60614 21.8545C3.24202 21.9586 2.90984 21.6042 3.03121 21.2369C3.56781 19.6018 3.12384 18.1422 2.28061 16.7509C2.19118 16.6046 2.09536 16.4616 1.99634 16.3218C1.56195 15.6847 1.51085 15.0248 1.86858 14.3356C1.88455 14.3064 1.89413 14.2804 1.93246 14.1991L1.93885 14.1959ZM9.0392 17.2288C7.73283 17.219 6.66283 16.7509 5.74614 15.9382C5.27023 15.5156 4.8582 15.015 4.43339 14.5339C4.11718 14.1764 3.74029 13.9716 3.27076 14.0138C2.38602 14.0918 1.90691 15.0736 2.36366 15.8505C2.52975 16.1333 2.72778 16.3998 2.89387 16.6859C3.53268 17.7976 3.92874 18.9777 3.79778 20.2909C3.76584 20.6095 3.68918 20.9248 3.6285 21.2727C3.8425 21.2076 4.04372 21.1361 4.25133 21.0874C4.42381 21.0484 4.47172 20.9443 4.48769 20.7818C4.53241 20.2487 4.41104 19.7546 4.18426 19.2832C4.08524 19.0752 4.12677 18.9224 4.28966 18.8444C4.43978 18.7696 4.59948 18.8281 4.67295 19.0362C4.8071 19.4165 4.92208 19.8033 5.0211 20.1967C5.06581 20.369 5.05304 20.5575 5.06901 20.7818C5.41077 20.5933 5.7174 20.4112 6.04 20.2519C6.22525 20.1609 6.22844 20.0504 6.16456 19.8716C5.9314 19.2475 5.56089 18.7208 5.08178 18.2657C4.90292 18.0967 4.88056 17.9407 5.01471 17.8009C5.13289 17.6774 5.29259 17.6904 5.46187 17.8497C5.97931 18.3308 6.38495 18.8931 6.64367 19.5595C6.66922 19.6278 6.70116 19.6928 6.74907 19.8033C7.18665 19.3937 7.59549 19.0134 8.03627 18.6038C7.90531 18.5583 7.84143 18.5388 7.77755 18.5161C7.27289 18.3405 6.8385 18.0577 6.468 17.6709C6.34343 17.5408 6.34343 17.3751 6.45841 17.2678C6.58298 17.1508 6.71394 17.1573 6.8417 17.2678C6.88961 17.3068 6.93113 17.3523 6.97585 17.3913C7.33997 17.7099 7.74242 17.9602 8.22472 18.048C8.30457 18.061 8.42914 18.0642 8.46746 18.0187C8.65911 17.7846 8.83158 17.5278 9.0392 17.2385V17.2288ZM2.6064 13.5945C2.3413 13.2239 2.08897 12.8663 1.83345 12.512C1.66097 12.2714 1.50127 12.0244 1.31282 11.8033C1.24574 11.7253 1.09882 11.6668 0.999803 11.6831C0.913564 11.6993 0.811355 11.8196 0.782609 11.9171C0.76025 11.9951 0.811355 12.1187 0.865654 12.1967C1.25213 12.7525 1.65139 13.2987 2.04425 13.8513C2.073 13.8903 2.09536 13.9293 2.11452 13.9618C2.29019 13.8318 2.43712 13.7213 2.60321 13.5977L2.6064 13.5945Z" fill="#152744"/>
<path d="M9.28809 10.36C9.28809 9.99592 9.28809 9.62859 9.28809 9.26451C9.29128 8.80941 9.52445 8.57536 9.96522 8.57211C10.3932 8.57211 10.818 8.57211 11.246 8.57211C11.6389 8.57536 11.888 8.80941 11.8912 9.20925C11.9008 9.97967 11.9008 10.7533 11.8912 11.5238C11.8848 11.9138 11.6389 12.1479 11.2556 12.1544C10.8148 12.1609 10.3741 12.1609 9.93648 12.1544C9.53083 12.1479 9.30086 11.9106 9.29128 11.4945C9.28489 11.3027 9.29128 11.1077 9.29128 10.9159C9.29128 10.7306 9.29128 10.5453 9.29128 10.3568L9.28809 10.36ZM9.85024 10.3698C9.85024 10.7143 9.85343 11.0589 9.85024 11.4035C9.85024 11.54 9.87898 11.605 10.0291 11.6018C10.4092 11.592 10.7861 11.5953 11.1662 11.6018C11.3003 11.6018 11.3419 11.5498 11.3419 11.4197C11.3387 10.7241 11.3355 10.0284 11.3419 9.33278C11.3419 9.17349 11.2844 9.13124 11.1374 9.13449C10.7733 9.14099 10.406 9.14424 10.0419 9.13449C9.88537 9.13124 9.84385 9.193 9.85024 9.33928C9.85662 9.68386 9.85024 10.0284 9.85024 10.373V10.3698Z" fill="#152744"/>
<path d="M11.898 5.72774C11.898 6.09182 11.898 6.45915 11.898 6.82323C11.8948 7.26208 11.6649 7.50263 11.2337 7.50913C10.8088 7.51563 10.3808 7.51563 9.95285 7.50913C9.51846 7.50263 9.29488 7.26858 9.29488 6.82323C9.29168 6.08532 9.29168 5.34741 9.29488 4.61275C9.29488 4.15765 9.52485 3.9301 9.97521 3.92685C10.3872 3.92685 10.8025 3.92685 11.2145 3.92685C11.668 3.9301 11.8948 4.1674 11.898 4.6355C11.898 4.99958 11.898 5.36691 11.898 5.73099V5.72774ZM9.85064 4.48922C9.85064 5.2889 9.85064 6.05281 9.85703 6.81673C9.85703 6.85899 9.94327 6.93376 9.99118 6.93701C10.3904 6.94676 10.7897 6.94676 11.1889 6.93701C11.24 6.93701 11.3295 6.84924 11.3327 6.80373C11.3423 6.08207 11.3423 5.35716 11.3327 4.6355C11.3327 4.58674 11.2688 4.49897 11.2337 4.49897C10.7833 4.48922 10.3297 4.49247 9.85064 4.49247V4.48922Z" fill="#152744"/>
<path d="M15.7305 10.3698C15.7305 10.7403 15.7305 11.1142 15.7305 11.4848C15.7273 11.9106 15.4942 12.1512 15.0758 12.1544C14.6478 12.1577 14.223 12.1577 13.7949 12.1544C13.3669 12.1512 13.1306 11.9074 13.1274 11.4718C13.1242 10.7273 13.1242 9.98293 13.1274 9.23852C13.1274 8.81593 13.3733 8.57213 13.7854 8.56887C14.2198 8.56562 14.651 8.56562 15.0853 8.56887C15.4814 8.57213 15.7178 8.80618 15.7241 9.20926C15.7305 9.5961 15.7241 9.97968 15.7241 10.3665L15.7305 10.3698ZM13.6864 10.3535C13.6864 10.7046 13.6895 11.0557 13.6864 11.41C13.6864 11.5563 13.7375 11.6018 13.878 11.6018C14.2517 11.5953 14.6222 11.5953 14.9959 11.6018C15.1333 11.6018 15.1875 11.5628 15.1875 11.4132C15.1812 10.7176 15.1812 10.0219 15.1875 9.32304C15.1875 9.18001 15.1396 9.128 14.9991 9.13125C14.6254 9.13775 14.2549 9.141 13.8812 9.13125C13.7247 9.128 13.6864 9.19626 13.6895 9.34254C13.6959 9.68062 13.6895 10.0187 13.6895 10.3568L13.6864 10.3535Z" fill="#152744"/>
<path d="M15.7305 5.72776C15.7305 6.1081 15.7337 6.48518 15.7305 6.86551C15.7241 7.2621 15.5069 7.4994 15.1172 7.5124C14.6637 7.52541 14.2101 7.52541 13.7566 7.5124C13.3605 7.50265 13.1369 7.2556 13.1337 6.84926C13.1305 6.09184 13.1305 5.33443 13.1337 4.57701C13.1337 4.18693 13.3701 3.93987 13.7534 3.93337C14.2069 3.92362 14.6605 3.92362 15.114 3.93337C15.5005 3.93987 15.7273 4.18042 15.7337 4.57376C15.7401 4.96059 15.7337 5.34418 15.7337 5.73101L15.7305 5.72776ZM15.1811 4.49574C14.6988 4.49574 14.2389 4.49249 13.7821 4.50224C13.7502 4.50224 13.6927 4.60952 13.6895 4.66803C13.6831 5.36368 13.6895 6.05933 13.6831 6.75499C13.6831 6.89477 13.7214 6.95328 13.8684 6.95003C14.2421 6.94028 14.6126 6.94028 14.9863 6.95003C15.1396 6.95328 15.1843 6.90452 15.1843 6.74849C15.1779 6.16336 15.1843 5.57823 15.1843 4.98985C15.1843 4.83382 15.1843 4.67453 15.1843 4.49249L15.1811 4.49574Z" fill="#152744"/>
<path d="M8.04562 10.3665C8.04562 10.7468 8.04881 11.1239 8.04562 11.5043C8.04242 11.9073 7.80926 12.1511 7.41639 12.1544C6.96922 12.1609 6.52206 12.1609 6.07489 12.1544C5.69161 12.1479 5.45525 11.9041 5.45206 11.514C5.44567 10.7436 5.44567 9.96992 5.45206 9.1995C5.45206 8.81267 5.70119 8.57536 6.08448 8.57211C6.53164 8.56886 6.97881 8.56561 7.42597 8.57211C7.80926 8.57536 8.04242 8.81917 8.04562 9.20925C8.052 9.59609 8.04562 9.97967 8.04562 10.3665ZM7.49944 10.386C7.49944 10.0284 7.49624 9.67085 7.49944 9.31002C7.49944 9.17674 7.45472 9.12473 7.32376 9.12473C6.93728 9.12798 6.55081 9.12798 6.16752 9.12473C6.04934 9.12473 5.99824 9.16374 5.99824 9.29052C6.00143 9.99917 6.00143 10.7078 5.99824 11.4197C5.99824 11.5433 6.03657 11.592 6.16113 11.592C6.54761 11.5888 6.93409 11.5855 7.31738 11.592C7.4643 11.592 7.50263 11.5335 7.49944 11.3937C7.49305 11.0557 7.49944 10.7176 7.49944 10.3828V10.386Z" fill="#152744"/>
<path d="M5.44917 5.692C5.44917 5.32792 5.44917 4.96059 5.44917 4.59651C5.45237 4.16416 5.68234 3.92686 6.10076 3.92361C6.53515 3.92036 6.96634 3.92036 7.40073 3.92361C7.80957 3.92686 8.04273 4.16741 8.04593 4.58025C8.04593 5.33767 8.04593 6.09509 8.04593 6.8525C8.04593 7.25884 7.81915 7.49289 7.4167 7.50264C6.96954 7.5124 6.52237 7.5124 6.07521 7.50264C5.67595 7.49289 5.45556 7.25559 5.44917 6.846C5.44598 6.45917 5.44917 6.07558 5.44917 5.68875V5.692ZM7.49975 5.70825C7.49975 5.36368 7.49655 5.0191 7.49975 4.67453C7.49975 4.54775 7.47419 4.48273 7.33366 4.48598C6.94079 4.49249 6.54792 4.49249 6.15825 4.48598C6.03049 4.48598 5.99855 4.538 5.99855 4.65827C6.00174 5.36043 6.00174 6.06258 5.99855 6.76473C5.99855 6.89801 6.04326 6.94677 6.17422 6.94352C6.55431 6.93702 6.93121 6.93377 7.3113 6.94352C7.46781 6.94677 7.50613 6.88501 7.50294 6.73548C7.49655 6.3909 7.50294 6.04633 7.50294 5.70175L7.49975 5.70825Z" fill="#152744"/>
<path d="M1.18818 20.6908C0.542986 20.694 0 20.1544 0 19.5043C0 18.8476 0.53021 18.3047 1.1786 18.3047C1.82699 18.3047 2.3572 18.8411 2.35401 19.5043C2.35401 20.1577 1.83018 20.6908 1.19138 20.694L1.18818 20.6908ZM1.16902 18.8671C0.83045 18.8704 0.555763 19.1597 0.558957 19.5075C0.562151 19.8488 0.852808 20.1316 1.19138 20.1219C1.52675 20.1121 1.79186 19.8358 1.78866 19.4945C1.78866 19.1467 1.50759 18.8639 1.16902 18.8704V18.8671Z" fill="#152744"/>
<path d="M6.51906 14.4332C6.51906 13.7635 7.0333 13.2401 7.69127 13.2401C8.34285 13.2401 8.86667 13.7733 8.86667 14.4364C8.86667 15.08 8.32688 15.6262 7.69766 15.6262C7.04288 15.6262 6.51586 15.093 6.51906 14.4332ZM8.30133 14.4332C8.29814 14.0821 8.02025 13.8025 7.68169 13.809C7.34631 13.8123 7.06204 14.1113 7.07163 14.4494C7.08121 14.7907 7.37187 15.0703 7.71043 15.0638C8.04261 15.054 8.30772 14.7745 8.30452 14.4332H8.30133Z" fill="#152744"/>
<path d="M9.71305 20.9898C9.71305 21.5295 9.29144 21.9683 8.76762 21.9715C8.2406 21.9748 7.79663 21.523 7.79982 20.9833C7.80302 20.4535 8.24379 20.0081 8.76123 20.0114C9.28824 20.0114 9.71305 20.4502 9.71305 20.9866V20.9898ZM8.76123 20.5835C8.54084 20.5835 8.36197 20.7623 8.35878 20.9866C8.35558 21.2076 8.53445 21.3929 8.75484 21.3962C8.98162 21.4027 9.17006 21.2141 9.16687 20.9833C9.16687 20.7623 8.98481 20.5835 8.76123 20.5835Z" fill="#152744"/>
<path d="M20.3906 14.9273C20.3906 17.2873 20.3906 19.644 20.3906 22.0041C20.3906 22.0918 20.4066 22.1991 20.3651 22.2674C20.3108 22.3551 20.2022 22.4657 20.1223 22.4624C20.0297 22.4559 19.9275 22.3519 19.8572 22.2641C19.8189 22.2153 19.8348 22.1178 19.8348 22.0431C19.8348 17.297 19.8348 12.551 19.8348 7.8082C19.8348 7.73343 19.8189 7.63266 19.8572 7.58715C19.9275 7.50263 20.0329 7.39861 20.1255 7.39536C20.2054 7.39536 20.3108 7.50263 20.3682 7.5904C20.4098 7.65541 20.3938 7.76269 20.3938 7.85371C20.3938 10.2137 20.3938 12.5705 20.3938 14.9305L20.3906 14.9273Z" fill="#152744"/>
<path d="M19.1451 14.9208C19.1451 17.2873 19.1451 19.6505 19.1451 22.0171C19.1451 22.0366 19.1451 22.0593 19.1451 22.0788C19.1451 22.3454 19.0461 22.4787 18.864 22.4754C18.6884 22.4722 18.5989 22.3389 18.5989 22.0853C18.5989 20.9281 18.5989 19.7676 18.5989 18.6103C18.5989 15.0183 18.5989 11.423 18.5989 7.83095C18.5989 7.75619 18.5925 7.67817 18.6085 7.6034C18.6372 7.45712 18.7331 7.3726 18.88 7.3791C19.0269 7.38235 19.1195 7.46687 19.1387 7.61966C19.1483 7.69442 19.1451 7.77244 19.1451 7.84721C19.1451 10.2072 19.1451 12.564 19.1451 14.924V14.9208Z" fill="#152744"/>
<path d="M21.6299 14.9208C21.6299 17.2743 21.6299 19.6245 21.6299 21.9781C21.6299 22.0398 21.6299 22.1016 21.6299 22.1633C21.6204 22.3551 21.5054 22.4852 21.3457 22.4722C21.17 22.4559 21.0806 22.3454 21.0806 22.1666C21.0806 21.5327 21.0806 20.8988 21.0806 20.2617C21.0806 16.13 21.0806 11.9984 21.0806 7.86671C21.0806 7.78545 21.0806 7.70093 21.087 7.61966C21.1029 7.46363 21.1956 7.38236 21.3425 7.37586C21.499 7.36935 21.598 7.45712 21.6267 7.61316C21.6363 7.67492 21.6331 7.73668 21.6331 7.79845C21.6331 10.1715 21.6331 12.5445 21.6331 14.9175L21.6299 14.9208Z" fill="#152744"/>
</g>
<defs>
<clipPath id="clip0_399_5129">
<rect width="24" height="24" fill="white"/>
</clipPath>
</defs>
</svg>
