<svg width="24" height="24" viewBox="0 0 24 24" fill="none" xmlns="http://www.w3.org/2000/svg">
<g clip-path="url(#clip0_399_5141)">
<path d="M3.20665 9.0967C2.67875 8.47018 2.43435 7.73867 2.53211 6.89865C2.62987 6.06563 3.0372 5.43212 3.67916 4.97711C3.46735 4.75661 3.23924 4.5676 3.06653 4.3331C2.45065 3.50358 2.33008 2.57256 2.72111 1.61004C3.12193 0.62652 3.85838 0.0630081 4.85879 0.0280074C6.11989 -0.0174936 7.38099 0.010507 8.64209 0.010507C12.2788 0.010507 15.9187 0.010507 19.5553 0.010507C19.9985 0.010507 20.3895 0.126009 20.6861 0.504017C20.8881 0.759523 20.9891 1.05703 20.9891 1.38604C20.9957 2.24355 20.9957 3.09757 20.9891 3.95509C20.9891 4.3331 20.8555 4.6656 20.5883 4.95961C21.0315 5.40062 20.9989 5.97113 20.9924 6.53814C20.9859 6.96865 20.9989 7.40266 20.9924 7.83317C20.9826 8.26018 20.9598 8.68719 20.9403 9.1422C20.9761 9.1422 21.0543 9.1527 21.1325 9.1562C21.4845 9.1807 21.8429 9.1562 22.1851 9.2332C23.1561 9.4467 23.9056 10.3672 23.9904 11.3927C24.0849 12.5303 23.5374 13.5523 22.5859 13.9828C22.3969 14.0668 22.3317 14.1648 22.335 14.3888C22.3447 15.8238 22.3415 17.2624 22.3415 18.6974C22.3415 20.4544 21.7126 21.893 20.4091 22.9675C19.5456 23.6815 18.5517 24.007 17.4633 24.007C14.6641 24.007 11.8649 24.007 9.06572 24.007C8.22172 24.007 7.37447 24.007 6.53048 24.007C4.11256 23.9965 2.1313 22.1975 1.73374 19.6354C1.69138 19.3589 1.67834 19.0719 1.67509 18.7919C1.66857 17.3044 1.67183 15.8133 1.67509 14.3258C1.67509 14.1613 1.63924 14.0808 1.48608 14.0143C0.459607 13.5628 -0.156279 12.3973 0.0359815 11.2807C0.251053 10.0277 1.15044 9.1877 2.31704 9.1562C2.6038 9.1492 2.89382 9.1562 3.18384 9.1562C3.19362 9.1352 3.20014 9.1177 3.20991 9.0967H3.20665ZM12.0018 14.1928C8.87671 14.1928 5.75166 14.1928 2.62661 14.1893C2.43109 14.1893 2.36592 14.2453 2.36918 14.4623C2.37895 15.9043 2.36266 17.3499 2.38221 18.7919C2.38873 19.2119 2.44087 19.6424 2.54515 20.0449C3.02743 21.9245 4.65676 23.244 6.50115 23.2475C10.1737 23.2545 13.8462 23.251 17.5187 23.2475C17.7533 23.2475 17.9912 23.2265 18.2225 23.181C20.2331 22.7785 21.6278 20.9864 21.6376 18.7884C21.6441 17.3534 21.6376 15.9148 21.6441 14.4798C21.6441 14.2593 21.5952 14.1893 21.3802 14.1928C18.2551 14.1998 15.1301 14.1998 12.005 14.1963L12.0018 14.1928ZM12.0148 9.90521C8.78547 9.90521 5.55614 9.90171 2.32682 9.90521C1.08527 9.90521 0.303191 11.3892 0.928853 12.5408C1.27427 13.1708 1.80543 13.4438 2.47346 13.4438C6.44576 13.4438 10.4148 13.4438 14.3871 13.4438C16.7724 13.4438 19.1545 13.4438 21.5399 13.4438C22.0319 13.4438 22.4686 13.2968 22.8205 12.9153C23.2963 12.3973 23.4462 11.6342 23.1757 10.9972C22.8792 10.3007 22.3708 9.90871 21.6441 9.90521C18.4344 9.90171 15.2278 9.90521 12.0181 9.90521H12.0148ZM12.2625 4.5816C13.3639 4.5816 14.4653 4.5816 15.5667 4.5816C16.9126 4.5816 18.2551 4.5816 19.601 4.5816C20.0637 4.5816 20.2918 4.3366 20.295 3.84309C20.295 3.67158 20.2788 3.50008 20.2983 3.32858C20.3244 3.09057 20.2299 3.04857 20.0278 3.04857C17.8804 3.05557 15.7329 3.05207 13.5822 3.04857C13.4747 3.04857 13.3574 3.04157 13.2563 3.00307C13.0282 2.90857 12.9696 2.55856 13.1618 2.40106C13.2466 2.33106 13.3769 2.30305 13.4877 2.30305C14.1948 2.29605 14.902 2.29955 15.6091 2.29955C17.0918 2.29955 18.5745 2.29955 20.0572 2.30305C20.2364 2.30305 20.3113 2.25055 20.2918 2.05105C20.2788 1.90405 20.2918 1.75354 20.2918 1.60304C20.2918 0.969527 20.093 0.756023 19.5064 0.756023C16.1859 0.756023 12.8686 0.756023 9.548 0.756023C8.05227 0.756023 6.55329 0.756023 5.05757 0.756023C4.16144 0.756023 3.40543 1.38954 3.24902 2.25055C3.02091 3.51058 3.84535 4.5746 5.06409 4.5781C7.46246 4.5816 9.85757 4.5781 12.2559 4.5781L12.2625 4.5816ZM12.2788 5.33062C10.1639 5.33062 8.05227 5.33062 5.93741 5.33062C5.55614 5.33062 5.17488 5.31662 4.79362 5.34812C3.59769 5.45312 2.84494 6.90915 3.38914 8.05717C3.74107 8.79919 4.32437 9.1492 5.09016 9.1492C8.53456 9.1492 11.979 9.1492 15.4234 9.1492C16.8148 9.1492 18.2095 9.1492 19.601 9.1492C20.0604 9.1492 20.2918 8.89719 20.295 8.40718C20.295 8.21468 20.2853 8.01867 20.295 7.82617C20.3048 7.65817 20.2462 7.60567 20.093 7.60917C19.6075 7.61617 19.1219 7.60917 18.6364 7.60917C16.9321 7.60917 15.2278 7.60917 13.5236 7.60917C13.2075 7.60917 13.0608 7.49016 13.0576 7.23816C13.0576 6.97915 13.1977 6.86015 13.5105 6.86015C13.9341 6.86015 14.3545 6.86015 14.7781 6.86015C16.5378 6.86015 18.2975 6.86015 20.0572 6.86365C20.2364 6.86365 20.3113 6.81815 20.295 6.61514C20.282 6.46114 20.295 6.30364 20.295 6.14613C20.295 5.53712 20.0995 5.32712 19.5325 5.32712C17.1146 5.32712 14.6967 5.32712 12.2755 5.32712L12.2788 5.33062Z" fill="#152744"/>
<path d="M7.9122 18.1759C7.9122 18.3019 7.91872 18.4279 7.9122 18.5539C7.89916 18.7569 7.7623 18.9004 7.58307 18.9074C7.40711 18.9144 7.23766 18.7744 7.22462 18.5784C7.20833 18.3054 7.20833 18.0289 7.22462 17.7594C7.2344 17.5634 7.40711 17.4199 7.57982 17.4269C7.76556 17.4339 7.90568 17.5879 7.91546 17.8014C7.92197 17.9274 7.91546 18.0534 7.91546 18.1794L7.9122 18.1759Z" fill="#152744"/>
<path d="M5.70289 18.1689C5.70289 18.2949 5.70941 18.4209 5.70289 18.5469C5.68986 18.7569 5.5367 18.9109 5.35096 18.9074C5.1587 18.9074 5.01857 18.7639 5.0088 18.5399C4.99902 18.2879 4.99902 18.0359 5.0088 17.7839C5.01531 17.5704 5.17173 17.4164 5.35421 17.4199C5.53344 17.4199 5.68986 17.5844 5.69963 17.7909C5.70615 17.9169 5.69963 18.0429 5.69963 18.1689H5.70289Z" fill="#152744"/>
<path d="M19.0014 18.1549C19.0014 18.2879 19.0079 18.4244 19.0014 18.5574C18.9851 18.7674 18.8482 18.9039 18.6625 18.9074C18.4767 18.9074 18.3171 18.7534 18.3106 18.5434C18.3008 18.2914 18.3008 18.0359 18.3106 17.7839C18.3171 17.5774 18.4865 17.4164 18.6657 17.4199C18.8417 17.4199 18.9916 17.5704 19.0046 17.7734C19.0144 17.8994 19.0046 18.0254 19.0046 18.1514L19.0014 18.1549Z" fill="#152744"/>
<path d="M14.5663 18.1759C14.5663 18.3019 14.5761 18.4279 14.5663 18.5539C14.55 18.7639 14.4164 18.9039 14.234 18.9074C14.058 18.9144 13.8885 18.7779 13.8755 18.5784C13.856 18.3054 13.856 18.0289 13.8755 17.7594C13.8885 17.5634 14.058 17.4234 14.2307 17.4234C14.4067 17.4234 14.5468 17.5704 14.5631 17.7769C14.5729 17.9099 14.5631 18.0429 14.5631 18.1759H14.5663Z" fill="#152744"/>
<path d="M12.3536 18.1829C12.3536 18.3089 12.3601 18.4349 12.3536 18.5609C12.3406 18.7604 12.1907 18.9039 12.0082 18.9074C11.829 18.9074 11.6725 18.7604 11.666 18.5609C11.6562 18.2949 11.6562 18.0254 11.666 17.7559C11.6725 17.5739 11.8322 17.4269 11.9984 17.4199C12.1711 17.4129 12.3373 17.5634 12.3536 17.7559C12.3634 17.8959 12.3536 18.0394 12.3536 18.1794V18.1829Z" fill="#152744"/>
<path d="M10.1441 18.1794C10.1441 18.3054 10.1539 18.4314 10.1441 18.5574C10.1245 18.7674 9.96161 18.9144 9.78239 18.9074C9.5999 18.9004 9.45978 18.7639 9.45 18.5539C9.43697 18.2949 9.44023 18.0359 9.45 17.7769C9.45978 17.5704 9.60642 17.4269 9.78565 17.4234C9.9551 17.4199 10.1213 17.5634 10.1408 17.7594C10.1571 17.8994 10.1408 18.0394 10.1408 18.1794H10.1441Z" fill="#152744"/>
<path d="M16.0947 18.1409C16.0947 18.0219 16.0947 17.9029 16.0947 17.7839C16.1012 17.5704 16.2218 17.4514 16.4043 17.4269C16.5803 17.4024 16.7432 17.5004 16.7595 17.6894C16.7888 18.0044 16.7888 18.3264 16.7595 18.6414C16.7399 18.8339 16.577 18.9249 16.401 18.9004C16.2283 18.8759 16.1078 18.7674 16.098 18.5644C16.0915 18.4244 16.098 18.2809 16.098 18.1409H16.0947Z" fill="#152744"/>
<path d="M14.5663 15.8588C14.5663 15.9848 14.5761 16.1108 14.5663 16.2368C14.55 16.4434 14.4099 16.5974 14.2372 16.5974C14.0482 16.5974 13.9016 16.4819 13.8853 16.2894C13.8592 15.9953 13.8592 15.6978 13.8853 15.4038C13.9048 15.2078 14.0547 15.1063 14.247 15.1203C14.4425 15.1343 14.5468 15.2568 14.5631 15.4598C14.5729 15.5928 14.5631 15.7258 14.5631 15.8588H14.5663Z" fill="#152744"/>
<path d="M7.91187 15.8553C7.91187 15.9813 7.91839 16.1073 7.91187 16.2333C7.9021 16.4328 7.75872 16.5868 7.58601 16.5973C7.41656 16.6078 7.23733 16.4643 7.22755 16.2683C7.208 15.9883 7.208 15.7048 7.22755 15.4248C7.24059 15.2218 7.40678 15.1028 7.59578 15.1168C7.78478 15.1273 7.9021 15.2568 7.91513 15.4773C7.92165 15.6033 7.91513 15.7293 7.91513 15.8553H7.91187Z" fill="#152744"/>
<path d="M7.91546 20.4929C7.91546 20.6119 7.91872 20.7309 7.91546 20.8499C7.90568 21.074 7.79163 21.2035 7.59937 21.2175C7.39733 21.2315 7.23766 21.1055 7.22462 20.8884C7.20833 20.6224 7.20833 20.3529 7.22462 20.0869C7.23766 19.8734 7.40711 19.7334 7.59611 19.7474C7.77859 19.7614 7.90568 19.9049 7.91546 20.1149C7.92197 20.2409 7.91546 20.3669 7.91546 20.4929Z" fill="#152744"/>
<path d="M10.1475 15.8623C10.1475 15.9743 10.1541 16.0863 10.1475 16.1948C10.1345 16.4293 9.97483 16.6008 9.78257 16.5973C9.59357 16.5903 9.45019 16.4293 9.44367 16.1983C9.43715 15.9603 9.43389 15.7258 9.44367 15.4878C9.45345 15.2498 9.57728 15.1238 9.77931 15.1203C9.98135 15.1168 10.128 15.2568 10.1443 15.4878C10.1541 15.6138 10.1443 15.7398 10.1443 15.8658L10.1475 15.8623Z" fill="#152744"/>
<path d="M9.44348 20.4789C9.44348 20.3529 9.43696 20.2269 9.44348 20.1009C9.45977 19.8944 9.56405 19.7719 9.75631 19.7509C9.93554 19.7299 10.1115 19.8559 10.1278 20.0589C10.1506 20.3389 10.1506 20.6259 10.1278 20.9059C10.1148 21.1124 9.94857 21.2314 9.76283 21.2209C9.57383 21.2139 9.45326 21.0844 9.43696 20.8604C9.42719 20.7344 9.43696 20.6084 9.43696 20.4824L9.44348 20.4789Z" fill="#152744"/>
<path d="M16.098 15.8413C16.098 15.7083 16.0914 15.5718 16.098 15.4388C16.111 15.2498 16.2185 15.1413 16.388 15.1203C16.5672 15.0958 16.7366 15.1693 16.7529 15.3618C16.7855 15.6838 16.7855 16.0128 16.7529 16.3348C16.7334 16.5203 16.5705 16.6183 16.3912 16.5903C16.2185 16.5623 16.1045 16.4433 16.0947 16.2438C16.0882 16.1108 16.0947 15.9778 16.0947 15.8413H16.098Z" fill="#152744"/>
<path d="M14.5662 20.4859C14.5662 20.6119 14.5727 20.7379 14.5662 20.8639C14.5499 21.0844 14.4293 21.2104 14.2403 21.2174C14.0448 21.2244 13.8851 21.0984 13.8721 20.8814C13.8558 20.6154 13.8558 20.3494 13.8721 20.0834C13.8851 19.8734 14.0578 19.7334 14.2436 19.7439C14.4261 19.7544 14.5499 19.8909 14.5662 20.1079C14.576 20.2339 14.5662 20.3599 14.5662 20.4859Z" fill="#152744"/>
<path d="M16.0947 20.4789C16.0947 20.3599 16.0915 20.2409 16.0947 20.1219C16.1045 19.9049 16.2251 19.7649 16.4075 19.7474C16.5933 19.7299 16.7693 19.8629 16.7855 20.0799C16.8051 20.3529 16.8018 20.6294 16.7823 20.9024C16.766 21.1159 16.6128 21.228 16.4206 21.221C16.2316 21.2105 16.111 21.0809 16.098 20.8604C16.0915 20.7344 16.098 20.6084 16.098 20.4824L16.0947 20.4789Z" fill="#152744"/>
<path d="M19.0043 15.8588C19.0043 15.9848 19.0108 16.1108 19.0043 16.2368C18.988 16.4504 18.8349 16.6009 18.6524 16.5974C18.4797 16.5904 18.32 16.4364 18.3135 16.2438C18.3037 15.9848 18.3037 15.7258 18.3135 15.4668C18.3233 15.2498 18.4732 15.1133 18.6687 15.1168C18.8609 15.1203 18.988 15.2428 19.0043 15.4598C19.0141 15.5928 19.0043 15.7258 19.0043 15.8588Z" fill="#152744"/>
<path d="M5.00876 20.4789C5.00876 20.3529 5.00224 20.2269 5.00876 20.1009C5.02179 19.8909 5.1554 19.7509 5.33788 19.7439C5.51711 19.7369 5.68656 19.8699 5.69633 20.0659C5.71263 20.3459 5.71263 20.6294 5.69633 20.9094C5.6833 21.1089 5.52037 21.2279 5.3281 21.2139C5.14236 21.2034 5.02505 21.0844 5.01201 20.8744C5.00224 20.7414 5.01201 20.6084 5.01201 20.4754L5.00876 20.4789Z" fill="#152744"/>
<path d="M12.3536 20.5069C12.3536 20.6119 12.3536 20.7169 12.3536 20.8184C12.3471 21.0739 12.2167 21.2175 11.9984 21.2175C11.7931 21.2175 11.6628 21.0739 11.6563 20.8289C11.6497 20.5979 11.6497 20.3669 11.6563 20.1359C11.6628 19.9014 11.7996 19.7474 11.9984 19.7439C12.2037 19.7404 12.3438 19.9014 12.3503 20.1499C12.3503 20.2689 12.3503 20.3879 12.3503 20.5069H12.3536Z" fill="#152744"/>
<path d="M5.70582 15.8658C5.70582 15.9848 5.71234 16.1038 5.70582 16.2228C5.69279 16.4293 5.53963 16.5939 5.3604 16.5974C5.17792 16.6009 5.0215 16.4503 5.01173 16.2333C5.00195 15.9743 5.00195 15.7153 5.01173 15.4563C5.0215 15.2393 5.15511 15.1168 5.34737 15.1168C5.54289 15.1168 5.68301 15.2533 5.70256 15.4668C5.70908 15.5333 5.70256 15.5998 5.70256 15.6663C5.70256 15.7328 5.70256 15.7993 5.70256 15.8658H5.70582Z" fill="#152744"/>
<path d="M12.3536 15.8553C12.3536 15.9813 12.3601 16.1073 12.3536 16.2333C12.3406 16.4398 12.1841 16.6008 12.0049 16.5973C11.8322 16.5973 11.6725 16.4433 11.666 16.2473C11.6562 15.9813 11.6562 15.7153 11.666 15.4493C11.6758 15.2463 11.8224 15.1168 12.0147 15.1203C12.207 15.1203 12.3406 15.2533 12.3536 15.4598C12.3634 15.5928 12.3536 15.7258 12.3536 15.8588V15.8553Z" fill="#152744"/>
<path d="M19.0011 20.4894C19.0011 20.6224 19.0108 20.7554 19.0011 20.8884C18.9848 21.0949 18.8609 21.2139 18.6752 21.2209C18.4829 21.2279 18.3233 21.1054 18.3135 20.9059C18.2972 20.6259 18.2972 20.3424 18.3135 20.0624C18.3265 19.8699 18.5025 19.7369 18.6785 19.7474C18.8544 19.7579 18.9848 19.8909 18.9978 20.0904C19.0076 20.2234 18.9978 20.3564 18.9978 20.4894H19.0011Z" fill="#152744"/>
</g>
<defs>
<clipPath id="clip0_399_5141">
<rect width="24" height="24" fill="white"/>
</clipPath>
</defs>
</svg>
