<svg width="24" height="24" viewBox="0 0 24 24" fill="none" xmlns="http://www.w3.org/2000/svg">
<g clip-path="url(#clip0_399_5250)">
<path d="M10.6825 14.9336C9.73862 14.048 8.92185 13.2968 8.12322 12.5262C7.04904 11.4916 7.11009 10.7647 8.31958 9.90986C7.73381 8.97894 7.72061 8.31353 8.27833 7.81812C8.8047 7.35185 9.44327 7.40204 10.2831 7.97678C11.1346 6.85482 11.656 6.75768 12.7962 7.50565C13.8522 6.28817 14.4248 6.26874 15.5881 7.40851C17.3767 9.15865 19.1291 10.946 20.9689 12.6427C21.954 13.551 22.4638 14.5515 22.2361 15.8629C22.1107 16.5866 22.3401 17.1225 23.0199 17.503C23.1469 17.4058 23.2822 17.2682 23.4489 17.1921C23.5397 17.15 23.7294 17.1759 23.7872 17.2423C23.8449 17.3103 23.8235 17.477 23.7855 17.5823C23.7509 17.6762 23.6502 17.749 23.5727 17.8251C21.5909 19.7663 19.6109 21.7091 17.6242 23.6454C17.4823 23.7847 17.2992 23.8818 17.1342 24C17.0533 23.9401 16.9708 23.8786 16.8899 23.8187C17.0929 23.5094 17.2975 23.2002 17.5236 22.857C17.2002 22.245 16.6804 21.9811 15.9428 22.0993C14.5436 22.3259 13.476 21.8208 12.5272 20.7911C11.2963 19.4538 9.94158 18.225 8.64299 16.946C7.94502 16.2579 7.99287 15.9066 8.8641 15.4209C9.0984 15.2914 9.36076 15.2007 9.61982 15.1295C9.88218 15.0567 10.1561 15.0291 10.6825 14.9352V14.9336ZM12.4249 13.2029C12.349 13.279 12.2731 13.3551 12.1972 13.4312C11.9761 13.2741 11.7302 13.1398 11.5372 12.9552C10.7699 12.2218 10.0472 11.4382 9.23866 10.7534C9.0291 10.5753 8.43673 10.5477 8.25193 10.708C8.05722 10.878 8.08527 11.3605 8.12652 11.694C8.14797 11.8656 8.40043 12.0146 8.55554 12.1667C10.5356 14.1112 12.5206 16.0523 14.4891 18.0081C14.6343 18.1522 14.6723 18.3983 14.7597 18.5974C14.5337 18.5245 14.2499 18.5116 14.0931 18.3675C13.3324 17.6665 12.6246 16.9104 11.8639 16.2094C10.9382 15.3562 9.75843 15.3707 8.81295 16.1689C10.4729 17.8429 12.1064 19.5494 13.8258 21.1684C14.1641 21.4873 14.8455 21.6152 15.3455 21.5715C16.3933 21.4808 17.3784 21.3691 17.8948 22.3162C19.4492 20.817 20.9656 19.3518 22.4968 17.8753C22.1437 17.3961 21.383 17.0772 21.6206 16.2353C22.0266 14.8057 21.4837 13.7194 20.3435 12.8386C20.0646 12.6233 19.8353 12.3465 19.5828 12.0987C18.0103 10.5558 16.4362 9.01294 14.862 7.47165C14.4792 7.09767 14.037 6.97462 13.641 7.38747C13.2796 7.76631 13.4017 8.17592 13.7681 8.52724C14.1806 8.92227 14.5931 9.31893 14.9841 9.73501C15.1409 9.90339 15.2382 10.1252 15.3637 10.3243C15.2993 10.3842 15.2349 10.4425 15.1722 10.5024C14.9709 10.368 14.7465 10.2579 14.5733 10.0928C13.8258 9.37883 13.0915 8.65028 12.354 7.92497C11.981 7.55908 11.5685 7.3729 11.1395 7.80031C10.7171 8.22125 10.8887 8.626 11.2682 8.99351C12.0091 9.71396 12.7533 10.4328 13.476 11.1711C13.6476 11.3459 13.7417 11.5952 13.872 11.8089C13.8027 11.864 13.7334 11.9207 13.6641 11.9757C13.4413 11.8073 13.1988 11.66 13.0008 11.4673C11.9629 10.4652 10.9333 9.45492 9.91023 8.43981C9.52082 8.05287 9.0852 7.80679 8.63309 8.25849C8.18428 8.70695 8.43838 9.13922 8.8278 9.51807C9.86238 10.5235 10.8937 11.5321 11.915 12.5504C12.1097 12.7431 12.255 12.9827 12.4233 13.2013L12.4249 13.2029Z" fill="#152744"/>
<path d="M12.288 21.6039C11.722 22.1301 11.2187 22.7631 10.562 23.1338C10.237 23.3168 9.46308 23.1808 9.17267 22.9056C6.31479 20.1856 3.5097 17.4107 0.706261 14.6357C0.117192 14.0513 0.136993 13.462 0.744212 12.8597C3.04438 10.5801 5.35941 8.31678 7.67608 6.05343C7.83118 5.90124 8.04239 5.80572 8.22885 5.68268C8.2998 5.7442 8.37075 5.80572 8.4417 5.86724C8.28 6.09552 8.14799 6.35456 7.95164 6.54884C5.78347 8.69077 3.6054 10.8214 1.43063 12.9552C0.68481 13.687 0.68646 13.8521 1.43888 14.5904C4.04266 17.1436 6.6448 19.6967 9.24858 22.2466C9.9779 22.9622 10.0951 22.9509 10.8475 22.2418C11.2204 21.8904 11.623 21.5666 12.0108 21.2315L12.288 21.6023V21.6039Z" fill="#152744"/>
<path d="M21.3598 12.0729C21.5463 11.8397 21.7129 11.5888 21.9225 11.3751C22.297 10.9946 22.3218 10.6449 21.9274 10.2596C19.1702 7.55747 16.4163 4.85213 13.6623 2.14679C13.2564 1.74852 12.867 1.75337 12.4413 2.13384C12.3307 2.2326 12.1228 2.22612 11.9595 2.26659C12.0007 2.08203 11.9859 1.85051 12.0948 1.72423C12.6723 1.06206 13.3851 1.10739 14.1491 1.85375C16.2513 3.90502 18.3435 5.96438 20.4391 8.02051C21.0793 8.64868 21.741 9.25742 22.3531 9.91149C23.1485 10.7615 22.7112 11.9255 21.3582 12.0729H21.3598Z" fill="#152744"/>
<path d="M10.0535 6.76417C10.0024 5.20345 9.07341 4.48138 7.64941 4.13492C8.22363 3.84836 8.90675 3.67027 9.34237 3.24771C9.76973 2.83324 9.94464 2.16784 10.2631 1.54614C10.5766 2.14679 10.7614 2.81705 11.1954 3.24447C11.6161 3.65893 12.291 3.82407 12.9477 4.14463C12.3092 4.46195 11.6227 4.63681 11.1904 5.0626C10.7565 5.4884 10.575 6.16352 10.2812 6.72855C10.2037 6.7415 10.1278 6.75283 10.0502 6.76579L10.0535 6.76417ZM9.39022 4.14139C9.69053 4.45548 10.0073 4.78575 10.2004 4.98651C10.504 4.71452 10.8687 4.3891 11.0799 4.19968C10.8076 3.90664 10.4908 3.56341 10.2482 3.30275C9.98094 3.56341 9.65588 3.88073 9.39022 4.14139Z" fill="#152744"/>
<path d="M2.64002 13.5364C3.96831 13.4425 4.71413 12.7836 4.74383 11.4317C4.82634 11.4674 4.90884 11.503 4.99134 11.5386C5.2306 12.0065 5.37745 12.565 5.73552 12.918C6.10183 13.2774 6.6744 13.4344 7.25686 13.7307C7.02091 13.8586 6.8988 13.9687 6.7602 13.9914C5.90547 14.1355 5.38736 14.5888 5.2471 15.4517C5.224 15.5893 5.04249 15.7026 4.93524 15.8273C4.83789 15.714 4.66793 15.6087 4.65143 15.4857C4.52933 14.5273 3.92541 14.0982 3.01293 13.9671C2.92218 13.9541 2.84628 13.8521 2.76212 13.7906C2.72087 13.7064 2.67797 13.6222 2.63672 13.538L2.64002 13.5364ZM4.94679 13.0653C4.73723 13.2547 4.46828 13.4976 4.19767 13.7404C4.47983 14.0043 4.71578 14.2229 4.90224 14.3977C5.15305 14.1403 5.38736 13.9007 5.64806 13.6319C5.45336 13.4749 5.19925 13.2709 4.94679 13.0669V13.0653Z" fill="#152744"/>
<path d="M2.16834 5.01566C2.46205 6.18781 3.20952 6.67027 4.2573 6.92769C3.29697 7.3373 2.37624 7.64976 2.28219 8.90287C1.83008 7.91042 1.35651 7.1074 0.107422 7.04911C1.06445 6.57637 2.05778 6.31571 2.16834 5.01727V5.01566ZM2.14689 7.47167C2.36634 7.30168 2.57095 7.1414 2.80031 6.96331C2.5726 6.75931 2.38449 6.59094 2.18154 6.40961C1.97033 6.62656 1.80532 6.79655 1.62382 6.98112C1.82348 7.1673 1.99838 7.33244 2.14689 7.47167Z" fill="#152744"/>
<path d="M23.9998 3.3999C23.6763 3.35618 23.4536 3.38371 23.3051 3.29466C21.3415 2.12413 20.1502 2.27146 18.6107 3.89207C18.5117 3.99569 18.3681 4.05883 18.2279 4.15273C18.0645 3.46142 18.675 2.7523 19.7657 2.28603C21.2442 1.65462 23.0609 2.07394 24.0014 3.39828L23.9998 3.3999Z" fill="#152744"/>
<path d="M21.8452 0.919593C21.629 0.859691 21.4112 0.804645 21.1984 0.736647C19.6655 0.244472 18.2761 0.820835 17.5418 2.22774C17.4412 2.4204 17.2069 2.54668 17.0336 2.70373C17.0386 2.46412 16.9709 2.19536 17.06 1.98975C17.7547 0.364278 19.847 -0.451696 21.469 0.259043C21.662 0.343231 21.8171 0.513225 21.9887 0.644364C21.9409 0.736647 21.893 0.82893 21.8452 0.921212V0.919593Z" fill="#152744"/>
<path d="M2.66823 23.8446C1.60394 22.9638 1.32344 21.7156 1.79205 20.5726C2.18311 19.6222 2.84643 19.0734 3.5213 19.1155C3.06754 19.8424 2.37947 20.537 2.21116 21.3351C2.05771 22.0588 2.47187 22.8975 2.66823 23.8446Z" fill="#152744"/>
<path d="M19.2363 5.25204C19.3535 4.98814 19.3898 4.76148 19.5234 4.62711C20.492 3.64761 22.6998 3.66056 23.6667 4.64977C23.769 4.75339 23.7674 4.95414 23.8152 5.10957C23.67 5.10957 23.4803 5.17109 23.3879 5.10309C22.1025 4.14788 20.8616 4.22074 19.6406 5.21318C19.5894 5.25366 19.4838 5.23099 19.238 5.25204H19.2363Z" fill="#152744"/>
<path d="M23.4866 7.32597C23.4899 7.93795 23.0428 8.38156 22.4125 8.39127C21.792 8.40099 21.297 7.959 21.2723 7.37454C21.2475 6.79008 21.8052 6.23153 22.4059 6.24124C22.9933 6.24934 23.4833 6.74313 23.4866 7.32759V7.32597ZM23.1236 7.32273C22.8002 7.08798 22.589 6.81761 22.4042 6.83542C22.2079 6.85323 22.0363 7.14302 21.8547 7.31302C22.0462 7.49758 22.2145 7.78091 22.4372 7.8311C22.5857 7.8651 22.8118 7.56558 23.1236 7.32273Z" fill="#152744"/>
<path d="M2.57554 18.3108C2.42868 18.4015 2.28843 18.5084 2.13333 18.5812C0.824835 19.1948 0.410672 19.9849 0.644979 21.361C0.67798 21.5586 0.590527 21.7739 0.560827 21.9811C0.417272 21.8225 0.209366 21.6848 0.140063 21.5003C-0.358252 20.1614 0.529476 18.4549 1.91057 18.089C2.10527 18.0372 2.33298 18.1036 2.54419 18.1166C2.55409 18.1813 2.56399 18.2461 2.57554 18.3108Z" fill="#152744"/>
<path d="M6.76692 22.2159C6.77187 22.7793 6.28016 23.2876 5.72409 23.2342C5.13337 23.1775 4.76376 22.8521 4.75221 22.2353C4.74066 21.6103 5.11687 21.2882 5.70429 21.2186C6.26201 21.1522 6.76362 21.6524 6.76692 22.2159ZM5.72904 22.8375C5.9584 22.5526 6.21746 22.3697 6.19766 22.2191C6.17786 22.0604 5.9089 21.8581 5.72079 21.8208C5.60694 21.7982 5.31653 22.0588 5.32148 22.1867C5.32643 22.3664 5.53104 22.5413 5.72904 22.8375Z" fill="#152744"/>
<path d="M4.13667 23.8446C3.32815 23.5467 3.21099 22.9298 3.13179 22.3567C2.98329 21.2849 3.4288 20.4528 4.49803 19.9379C4.17132 20.6535 3.75221 21.2007 3.70436 21.7755C3.65321 22.3907 3.95022 23.0334 4.13832 23.8446H4.13667Z" fill="#152744"/>
</g>
<defs>
<clipPath id="clip0_399_5250">
<rect width="24" height="24" fill="white"/>
</clipPath>
</defs>
</svg>
