<svg width="24" height="24" viewBox="0 0 24 24" fill="none" xmlns="http://www.w3.org/2000/svg">
<g clip-path="url(#clip0_399_5232)">
<path d="M21.6204 5.35462C21.5002 5.35462 21.4211 5.35462 21.3388 5.35462C14.9156 5.35462 8.4924 5.35462 2.0692 5.35462C1.87724 5.35462 1.78126 5.44779 1.78126 5.63413C1.78126 8.73698 1.78126 11.8398 1.78126 14.9427C1.78126 15.0181 1.78126 15.0903 1.77493 15.1657C1.75595 15.3196 1.66419 15.4169 1.50598 15.4169C1.34778 15.4169 1.25601 15.3258 1.22754 15.1751C1.21805 15.1154 1.22121 15.0526 1.22121 14.9929C1.22121 10.3983 1.22121 5.80372 1.22121 1.21225C1.22437 0.445957 1.66735 0 2.43624 0C8.6158 0 14.7922 0 20.9718 0C21.7438 0 22.1805 0.439675 22.1805 1.21225C22.1805 3.99163 22.1805 6.771 22.1805 9.55038C22.1805 9.61633 22.1836 9.68856 22.1678 9.75137C22.133 9.8927 22.0318 9.99634 21.8925 9.95865C21.7944 9.93353 21.7027 9.83303 21.6426 9.74195C21.6046 9.68542 21.6236 9.58493 21.6236 9.50327C21.6236 8.21565 21.6236 6.92489 21.6236 5.63727C21.6236 5.55247 21.6236 5.46454 21.6236 5.34834L21.6204 5.35462ZM9.56188 0.549594V4.80503C9.64415 4.80503 9.7106 4.80503 9.77704 4.80503C13.6405 4.80503 17.507 4.80503 21.3705 4.80817C21.5635 4.80817 21.6236 4.76106 21.6236 4.5632C21.6141 3.45773 21.6204 2.35226 21.6204 1.24679C21.6204 0.731746 21.4369 0.549594 20.9243 0.549594C17.2159 0.549594 13.5076 0.549594 9.79919 0.549594C9.72642 0.549594 9.65364 0.549594 9.56505 0.549594H9.56188ZM8.99234 0.549594C8.89425 0.549594 8.83413 0.549594 8.77401 0.549594C6.66669 0.549594 4.55938 0.549594 2.45206 0.549594C1.98377 0.549594 1.78759 0.747448 1.78443 1.21853C1.78443 2.3397 1.78443 3.45773 1.7781 4.57891C1.7781 4.75792 1.83189 4.80503 2.00908 4.80503C4.25246 4.79874 6.49583 4.79874 8.73604 4.80503C8.9512 4.80503 8.99234 4.73593 8.98917 4.53808C8.97968 3.29129 8.98601 2.04135 8.98601 0.794556C8.98601 0.722324 8.98601 0.650092 8.98601 0.546454L8.99234 0.549594Z" fill="#152744"/>
<path d="M0.370076 18.9846C0.253003 18.7427 0.110616 18.5292 0.0504978 18.2936C-0.180484 17.3892 0.483985 16.5569 1.44588 16.5318C1.9205 16.5192 2.39829 16.5318 2.87291 16.5318C4.56572 16.5318 6.25538 16.5318 7.94819 16.5318C8.23613 16.5318 8.50191 16.5915 8.70758 16.8082C8.98286 17.0971 9.02083 17.4802 8.82149 17.8351C8.78669 17.8948 8.76454 17.9921 8.79302 18.0455C9.04615 18.5449 8.99868 18.8401 8.59684 19.217C8.58102 19.2295 8.57153 19.2484 8.55571 19.2703C9.08095 19.9299 9.09994 20.5925 8.57786 21.2332C8.69493 21.4059 8.82782 21.5535 8.9006 21.7262C9.00501 21.9681 8.95122 22.213 8.82149 22.4454C8.78669 22.5051 8.77719 22.615 8.812 22.6716C9.16955 23.3091 8.78036 23.9843 8.03995 23.9874C6.03389 23.9906 4.03099 23.9874 2.02492 23.9874C1.74015 23.9874 1.44905 24.0094 1.1706 23.956C0.104288 23.7488 -0.34502 22.5491 0.306793 21.6886C0.33527 21.6509 0.363748 21.6132 0.417538 21.541C0.33527 21.4719 0.237182 21.4185 0.173899 21.3337C-0.0539188 21.0322 -0.0507547 20.7119 0.129601 20.3852C0.161243 20.3319 0.186556 20.2408 0.161243 20.1937C-0.101381 19.6409 -0.0602471 19.3928 0.366912 18.9846H0.370076ZM4.22083 21.1421C5.29348 21.1421 6.36929 21.1421 7.44193 21.1421C7.8058 21.1421 8.09374 21.0102 8.2741 20.693C8.61899 20.0806 8.17284 19.3897 7.42294 19.3865C5.29031 19.3834 3.15452 19.3865 1.02189 19.3865C0.718131 19.3865 0.55676 19.4996 0.563088 19.6975C0.566253 19.8985 0.714967 19.9958 1.03138 19.9958C2.85393 19.9958 4.67331 19.9958 6.49585 19.9958C6.57179 19.9958 6.64457 19.9958 6.7205 20.0021C6.86922 20.0209 6.95465 20.1089 6.96098 20.2565C6.96731 20.4166 6.87555 20.5077 6.72367 20.536C6.66355 20.5485 6.60027 20.5391 6.54015 20.5391C4.71128 20.5391 2.88557 20.5391 1.05669 20.5391C0.980755 20.5391 0.904816 20.5328 0.83204 20.5454C0.670669 20.5705 0.575745 20.6679 0.569417 20.8312C0.563088 20.9851 0.651684 21.0856 0.800399 21.1201C0.885831 21.139 0.974427 21.139 1.06302 21.139C2.11668 21.139 3.17034 21.139 4.224 21.139L4.22083 21.1421ZM4.69862 21.6948C3.63863 21.6948 2.57865 21.6886 1.51866 21.7043C1.32565 21.7043 1.11048 21.7608 0.942785 21.8582C0.607386 22.056 0.483985 22.4643 0.597894 22.8349C0.711803 23.2054 1.05986 23.4504 1.48385 23.4504C3.64496 23.4504 5.80607 23.4504 7.96718 23.4504C8.03995 23.4504 8.11905 23.4441 8.1855 23.419C8.32156 23.3719 8.41332 23.262 8.37218 23.1238C8.34054 23.0264 8.24246 22.9291 8.1507 22.8725C8.08425 22.8317 7.97983 22.8506 7.89124 22.8506C6.08451 22.8506 4.27462 22.8506 2.4679 22.8506C2.38563 22.8506 2.30337 22.8537 2.22426 22.8411C2.07871 22.8192 1.99328 22.7312 1.99012 22.5805C1.98695 22.4297 2.07238 22.3387 2.21477 22.3072C2.28754 22.2915 2.36348 22.2978 2.43942 22.2978C4.1797 22.2978 5.91998 22.2978 7.66025 22.2978C7.80897 22.2978 7.96085 22.301 8.10956 22.2915C8.2741 22.279 8.37219 22.1816 8.38484 22.0183C8.39433 21.855 8.30257 21.7514 8.14753 21.7105C8.08425 21.6948 8.01147 21.6948 7.94503 21.6948C6.86606 21.6948 5.78392 21.6948 4.70495 21.6948H4.69862ZM4.70811 17.0877C3.65445 17.0877 2.60079 17.0877 1.54714 17.0877C1.4269 17.0877 1.30033 17.0877 1.18326 17.1222C0.762429 17.2416 0.50297 17.6467 0.563088 18.0707C0.629535 18.526 0.996575 18.8338 1.49335 18.8338C3.64812 18.8338 5.8029 18.8338 7.95768 18.8338C8.02413 18.8338 8.09374 18.8307 8.15702 18.8118C8.30257 18.7679 8.38801 18.6705 8.37851 18.5135C8.36902 18.3565 8.2741 18.2685 8.12222 18.2434C8.04311 18.2308 7.96085 18.234 7.87858 18.234C6.07186 18.234 4.26197 18.234 2.45524 18.234C2.37298 18.234 2.27489 18.256 2.21477 18.2183C2.12301 18.1586 2.00594 18.0612 1.99961 17.9733C1.99644 17.8854 2.10086 17.7755 2.18629 17.7032C2.23059 17.6655 2.32868 17.6812 2.40462 17.6812C4.21767 17.6812 6.03389 17.6812 7.84694 17.6812C7.93553 17.6812 8.02413 17.6875 8.11273 17.675C8.27726 17.6561 8.37219 17.5556 8.37851 17.3923C8.38484 17.2259 8.28359 17.1285 8.12855 17.0971C8.05577 17.0814 7.97983 17.0877 7.90389 17.0877C6.83758 17.0877 5.77126 17.0877 4.70178 17.0877H4.70811Z" fill="#152744"/>
<path d="M21.643 12.0063C22.048 12.1319 22.1619 12.2607 22.1366 12.6532C22.1112 13.0772 22.2188 13.4541 22.4118 13.8309C22.8991 14.7857 23.3674 15.7529 23.8199 16.7265C23.9275 16.9558 23.9907 17.229 23.9907 17.4834C24.0066 19.2232 24.0002 20.9631 23.9971 22.703C23.9971 23.4944 23.5035 23.9937 22.7029 23.9969C21.1525 24 19.6052 24.0031 18.0548 23.9969C17.2733 23.9969 16.7828 23.5038 16.7828 22.7281C16.7828 20.96 16.7765 19.195 16.7892 17.4269C16.7892 17.2007 16.8493 16.9558 16.9474 16.7485C17.4441 15.6839 17.9599 14.6286 18.482 13.5766C18.5864 13.363 18.6433 13.1526 18.6275 12.917C18.618 12.7757 18.6212 12.6344 18.6339 12.4931C18.6528 12.2701 18.7762 12.1099 18.9946 12.0534C19.118 12.022 19.1433 11.9655 19.1401 11.8555C19.1338 11.7079 19.1338 11.5572 19.1433 11.4096C19.1591 11.1646 19.3268 10.9856 19.5736 10.9825C20.1178 10.973 20.6621 10.973 21.2031 10.9825C21.4594 10.9856 21.6303 11.1803 21.6398 11.4504C21.6461 11.6326 21.6398 11.8147 21.6398 12.0063H21.643ZM17.3397 20.068C17.3397 20.938 17.3397 21.8079 17.3397 22.6778C17.3397 23.196 17.5929 23.4473 18.1181 23.4473C19.6337 23.4473 21.1493 23.4473 22.6618 23.4473C23.1902 23.4473 23.4402 23.2023 23.4402 22.681C23.4402 20.9411 23.4402 19.2013 23.437 17.4614C23.437 17.3044 23.4022 17.1348 23.3358 16.9935C22.8232 15.9163 22.2948 14.8422 21.779 13.7681C21.7221 13.6456 21.6493 13.6048 21.5132 13.6048C20.7665 13.6111 20.0197 13.6111 19.2698 13.6048C19.137 13.6048 19.061 13.6425 19.0009 13.765C18.4883 14.8359 17.9631 15.9006 17.4536 16.9746C17.3809 17.1285 17.346 17.3107 17.3429 17.4802C17.3334 18.3439 17.3366 19.2075 17.3366 20.068H17.3397ZM21.586 12.5936H19.2097V13.0427H21.586V12.5936ZM19.7033 12.0188C20.1431 12.0188 20.5608 12.0188 20.9785 12.0157C21.0165 12.0157 21.0734 11.9623 21.0829 11.9246C21.1652 11.6231 21.0861 11.5226 20.7823 11.5226C20.6621 11.5226 20.5387 11.5226 20.4184 11.5226C20.1843 11.5226 19.9501 11.5226 19.7065 11.5226V12.0188H19.7033Z" fill="#152744"/>
<path d="M15.3874 12.5998C15.3937 14.6161 13.742 16.2586 11.7107 16.2586C9.68244 16.2586 8.03392 14.6318 8.02443 12.6281C8.0181 10.6087 9.66346 8.95996 11.6917 8.95682C13.7294 8.95368 15.3811 10.5805 15.3874 12.5967V12.5998ZM8.60347 12.2136C8.74269 12.1759 8.83445 12.1539 8.92305 12.1288C9.44513 11.9906 9.97354 11.9152 10.5146 11.9498C11.0778 11.9843 11.5651 12.1665 11.9575 12.5998C12.0967 12.7537 12.3213 12.8699 12.527 12.9202C13.1472 13.0678 13.7547 12.9327 14.3464 12.7412C14.9666 12.5402 14.8748 12.6501 14.7735 12.0377C14.5489 10.6998 13.3244 9.61319 11.9954 9.52526C10.4893 9.4279 9.16985 10.2884 8.73636 11.6577C8.68257 11.8273 8.6541 12.0031 8.60347 12.2136ZM14.7672 13.1903C14.6406 13.228 14.5615 13.2594 14.4761 13.2751C14.0047 13.363 13.5332 13.4823 13.0586 13.52C12.4637 13.564 11.9068 13.4227 11.4987 12.9422C11.2898 12.6972 11.0145 12.581 10.7045 12.5276C10.0432 12.4177 9.41033 12.5716 8.7775 12.738C8.61296 12.782 8.58765 12.8605 8.6098 13.0144C8.76168 14.2078 9.65713 15.2536 10.8247 15.5865C12.0239 15.9288 13.3434 15.5205 14.1154 14.5752C14.435 14.1827 14.6565 13.743 14.7672 13.1934V13.1903Z" fill="#152744"/>
<path d="M17.7571 12.6313C17.7191 15.5959 15.5738 18.0707 12.6027 18.5355C11.8148 18.6579 11.0301 18.6203 10.2581 18.4255C9.9986 18.3596 9.90051 18.2465 9.94164 18.0644C9.98278 17.8885 10.1347 17.8226 10.391 17.8854C11.2864 18.1052 12.185 18.1146 13.071 17.8697C15.0581 17.3169 16.4028 16.0639 16.9692 14.0979C17.5387 12.1225 17.0736 10.3292 15.6371 8.8469C13.7386 6.89034 10.8181 6.62654 8.56208 8.15598C7.89128 8.61136 7.35654 9.19864 6.95153 9.90212C6.9104 9.97121 6.87243 10.0434 6.82813 10.1125C6.72055 10.2821 6.58133 10.3324 6.43578 10.2539C6.28706 10.1753 6.24593 10.012 6.34718 9.83617C6.47691 9.60691 6.60664 9.37451 6.76168 9.1641C7.9957 7.49647 9.66636 6.62968 11.7484 6.63282C14.691 6.63282 17.197 8.78723 17.6685 11.6702C17.7191 11.9874 17.7286 12.3141 17.7571 12.6344V12.6313Z" fill="#152744"/>
<path d="M7.10672 12.603C7.10672 12.9799 7.10988 13.3567 7.10672 13.7367C7.10355 14.145 6.90105 14.3428 6.48971 14.346C6.11634 14.346 5.74297 14.3491 5.3696 14.346C4.98358 14.3428 4.77475 14.1419 4.76842 13.7587C4.76209 12.9893 4.76209 12.223 4.76842 11.4536C4.77158 11.0735 4.98674 10.8757 5.37593 10.8726C5.75563 10.8726 6.13533 10.8694 6.51819 10.8726C6.88839 10.8757 7.10039 11.083 7.10672 11.4504C7.11305 11.8336 7.10672 12.2198 7.10672 12.603ZM6.54666 13.7901V11.4253C6.18595 11.4253 5.84739 11.4347 5.51199 11.4221C5.34746 11.4159 5.30632 11.4787 5.30949 11.6326C5.32214 12.2795 5.32531 12.9233 5.33164 13.5703C5.33164 13.6425 5.33164 13.7147 5.33164 13.7901H6.54983H6.54666Z" fill="#152744"/>
<path d="M12.8968 21.3337C13.8207 21.3337 14.7447 21.3337 15.6686 21.3337C15.9723 21.3337 16.1052 21.4122 16.1116 21.6006C16.1179 21.7985 15.9818 21.8864 15.6654 21.8864C13.8302 21.8864 11.9982 21.8864 10.163 21.8864C10.0807 21.8864 9.99845 21.8864 9.91934 21.8801C9.75797 21.8613 9.65039 21.7765 9.65039 21.6069C9.65039 21.4373 9.75797 21.3525 9.92251 21.3368C9.96364 21.3337 10.0048 21.3368 10.0459 21.3368C10.9951 21.3368 11.9476 21.3368 12.8968 21.3368V21.3337Z" fill="#152744"/>
<path d="M6.67295 15.0181C6.71409 15.0495 6.80585 15.0997 6.85964 15.1751C6.98937 15.3572 7.10011 15.5488 7.21719 15.7404C7.30578 15.8848 7.30262 16.0262 7.15707 16.1329C7.0305 16.2272 6.85647 16.1895 6.75522 16.0356C6.62233 15.8409 6.4926 15.6399 6.38185 15.4326C6.27111 15.2285 6.404 15.0086 6.67612 15.0181H6.67295Z" fill="#152744"/>
<path d="M14.5962 2.39623C14.6532 2.40251 14.7481 2.38367 14.7956 2.42449C14.8778 2.4873 14.9823 2.58466 14.9854 2.66946C14.9854 2.75425 14.8968 2.89557 14.8146 2.9207C14.6722 2.96467 14.5076 2.95524 14.3558 2.9364C14.2134 2.91756 14.1153 2.79822 14.1564 2.66003C14.1849 2.56268 14.2893 2.48102 14.3811 2.41507C14.4254 2.38053 14.5108 2.40251 14.5962 2.39623Z" fill="#152744"/>
<path d="M18.7062 2.39938C18.7664 2.40252 18.8297 2.39938 18.8866 2.41195C19.029 2.44021 19.1176 2.52501 19.1208 2.67261C19.1208 2.82022 19.0416 2.92071 18.8993 2.9427C18.7822 2.96154 18.6556 2.96468 18.5354 2.95212C18.374 2.93642 18.2664 2.8422 18.2696 2.67575C18.2696 2.5093 18.3803 2.42451 18.5417 2.40566C18.5955 2.39938 18.6493 2.40566 18.7031 2.40566C18.7031 2.40566 18.7031 2.40252 18.7031 2.39938H18.7062Z" fill="#152744"/>
<path d="M12.5174 2.9678C12.4351 2.95838 12.337 2.97094 12.2801 2.93012C12.201 2.8673 12.1029 2.76367 12.106 2.67573C12.106 2.59094 12.2041 2.45589 12.2864 2.43391C12.4288 2.39308 12.5996 2.39308 12.742 2.43391C12.8243 2.45589 12.9255 2.59094 12.9255 2.67573C12.9255 2.76053 12.8306 2.8673 12.7515 2.93012C12.6977 2.97408 12.5965 2.95838 12.5174 2.9678Z" fill="#152744"/>
<path d="M16.634 2.40565C16.6878 2.40565 16.7416 2.39937 16.7953 2.40565C16.9567 2.42449 17.0643 2.50929 17.0611 2.67888C17.0611 2.84533 16.9535 2.9364 16.7922 2.9521C16.6909 2.96153 16.5897 2.96467 16.4884 2.9521C16.3207 2.93326 16.2068 2.84847 16.2131 2.66632C16.2195 2.49673 16.3302 2.41821 16.4916 2.40251C16.539 2.39623 16.5865 2.40251 16.634 2.40251V2.40565Z" fill="#152744"/>
<path d="M6.9103 1.62367C7.49883 1.62995 7.97661 2.10732 7.96712 2.68518C7.96079 3.26303 7.47035 3.74354 6.89447 3.73726C6.31227 3.73097 5.83132 3.24733 5.83449 2.67261C5.83765 2.09475 6.32493 1.62053 6.9103 1.62367ZM7.40707 2.67575C7.40707 2.39625 7.18558 2.17641 6.9008 2.17955C6.62552 2.17955 6.4072 2.38996 6.40403 2.66319C6.3977 2.9427 6.61919 3.16882 6.89764 3.17196C7.17925 3.17196 7.40707 2.95526 7.40707 2.67575Z" fill="#152744"/>
<path d="M4.93296 2.68518C4.92979 3.26303 4.44252 3.74354 3.86348 3.73726C3.28128 3.73411 2.80349 3.25047 2.80666 2.67261C2.80982 2.09161 3.29077 1.62053 3.87614 1.62367C4.46467 1.62681 4.93612 2.10103 4.93296 2.68518ZM4.37291 2.67575C4.37291 2.39311 4.15458 2.17641 3.86981 2.17955C3.58503 2.17955 3.36987 2.39939 3.3762 2.68518C3.37937 2.9584 3.59453 3.17196 3.86981 3.17196C4.15458 3.17196 4.37607 2.95526 4.37607 2.67575H4.37291Z" fill="#152744"/>
<path d="M20.399 18.4475C20.8799 18.4475 21.3641 18.4475 21.845 18.4475C22.3354 18.4507 22.6329 18.7427 22.6329 19.2295C22.636 20.0932 22.636 20.9537 22.6329 21.8173C22.6329 22.2947 22.3386 22.5868 21.8577 22.5899C20.8736 22.593 19.8896 22.593 18.9055 22.5899C18.4341 22.5899 18.1335 22.2853 18.1303 21.811C18.1271 20.9474 18.1271 20.0869 18.1303 19.2232C18.1303 18.7522 18.4341 18.4538 18.9087 18.4475C19.4055 18.4412 19.8991 18.4475 20.3958 18.4475H20.399ZM20.3768 22.0403C20.8451 22.0403 21.3134 22.0403 21.7817 22.0403C22.0348 22.0403 22.0855 21.9932 22.0855 21.7514C22.0855 20.9286 22.0855 20.1057 22.0855 19.2829C22.0855 19.0599 22.0317 19.0034 21.8134 19.0034C20.861 19.0034 19.9117 19.0034 18.9593 19.0034C18.7853 19.0034 18.6967 19.0694 18.6998 19.2578C18.703 20.0994 18.703 20.9443 18.6998 21.7859C18.6998 21.9806 18.7853 22.0497 18.972 22.0466C19.4403 22.0403 19.9085 22.0466 20.3768 22.0466V22.0403Z" fill="#152744"/>
<path d="M20.1142 15.7812C20.1142 15.4169 20.111 15.0526 20.1142 14.6883C20.1174 14.3617 20.2756 14.2078 20.6046 14.1952C21.3292 14.167 21.3356 14.1733 21.652 14.8265C21.9051 15.3541 22.1646 15.8817 22.4177 16.4125C22.6645 16.9275 22.3829 17.3766 21.807 17.3798C21.4147 17.3798 21.0191 17.3798 20.6268 17.3798C20.2819 17.3798 20.1205 17.2164 20.1174 16.871C20.1142 16.5067 20.1174 16.1424 20.1174 15.7781L20.1142 15.7812ZM20.6806 14.7794V16.8333C21.0413 16.8333 21.3925 16.8333 21.7437 16.8333C21.9684 16.8333 21.9905 16.7988 21.8924 16.6009C21.633 16.0607 21.3609 15.5268 21.1141 14.9804C21.0191 14.77 20.8989 14.7103 20.6774 14.7794H20.6806Z" fill="#152744"/>
</g>
<defs>
<clipPath id="clip0_399_5232">
<rect width="24" height="24" fill="white"/>
</clipPath>
</defs>
</svg>
