<svg width="25" height="24" viewBox="0 0 25 24" fill="none" xmlns="http://www.w3.org/2000/svg">
<g clip-path="url(#clip0_226_1459)">
<path d="M0.00948049 13.1655H1.54782V12.8966C1.54782 9.41878 1.54782 5.941 1.54782 2.46322C1.54782 1.57608 1.87814 0.868252 2.62843 0.372774C3.00122 0.122676 3.4212 0.00470487 3.86477 0.00470487C5.55411 0.00470487 7.24346 -0.00945164 8.9328 0.00470487C10.2258 0.0188614 11.2073 1.00982 11.2309 2.30278C11.2403 2.82657 11.2356 3.35036 11.2309 3.87887C11.2309 4.011 11.2781 4.06762 11.396 4.11009C12.7503 4.63388 13.5809 5.61068 13.8781 7.02633C13.9206 7.23396 13.9159 7.45575 13.9489 7.66809C13.9584 7.73416 14.0008 7.8191 14.0575 7.85213C14.5482 8.13998 14.7936 8.58355 14.7087 9.06487C14.6143 9.61697 14.2509 9.95673 13.6564 10.0511C13.6328 10.0511 13.6044 10.0605 13.562 10.07V11.5894H12.8022V10.07H12.0189V10.8156H11.2497V10.0653H10.4711V10.8108H9.70197V10.07H8.91864V11.5847H8.14947V10.0653H7.36143V10.8108H6.59226V10.1455C6.29497 9.98976 6.00712 9.90482 5.80421 9.72551C5.21436 9.197 5.33705 8.28154 6.026 7.89932C6.16756 7.8191 6.20531 7.73888 6.21475 7.58787C6.33744 5.89853 7.18683 4.7377 8.7582 4.11009C8.87617 4.0629 8.92808 4.011 8.92336 3.87887C8.91392 3.50136 8.92336 3.12386 8.92336 2.74635C8.92336 2.4585 8.77236 2.3075 8.48923 2.3075C7.09717 2.3075 5.70512 2.3075 4.31306 2.3075C4.00634 2.3075 3.86949 2.45378 3.86949 2.77938C3.86949 4.09594 3.86949 5.41721 3.86949 6.73377C3.86949 8.79118 3.86949 10.8533 3.86949 12.9107C3.86949 12.9862 3.86949 13.057 3.86949 13.1467H8.14004V12.4058H8.90921V13.1514H9.69725V11.6272H10.4617V13.1467H12.7975V12.4011H13.5667V13.1561H24.0425C24.0425 13.2458 24.0425 13.3213 24.0425 13.392C24.0425 15.4825 24.0425 17.5777 24.0425 19.6681C24.0425 21.7066 22.7401 23.3865 20.7771 23.8679C20.4279 23.9528 20.0598 23.9858 19.6965 23.9858C14.5765 23.9953 9.45659 23.9905 4.33665 23.9858C2.29812 23.9858 0.637086 22.707 0.13217 20.7298C0.0472312 20.3995 0.0141993 20.0503 0.0141993 19.7106C0.00476165 17.5824 0.00948049 15.4589 0.00948049 13.3307C0.00948049 13.2788 0.00948049 13.2269 0.0189182 13.1467L0.00948049 13.1655ZM0.764494 17.0303C0.764494 17.3417 0.764494 17.6296 0.764494 17.9174C0.778651 18.7055 0.726744 19.4982 0.82112 20.2721C1.02403 21.9426 2.48215 23.2119 4.16206 23.2308C6.12037 23.2497 8.07869 23.2355 10.037 23.2355C13.293 23.2355 16.549 23.245 19.805 23.2355C21.735 23.2308 23.2639 21.6783 23.2781 19.7483C23.2781 18.9131 23.2781 18.0778 23.2781 17.2473C23.2781 17.1813 23.2733 17.1152 23.2686 17.0303H22.5136V16.2658H23.2639V13.9489H0.773932V16.2705H21.6973V17.0303H0.764494ZM13.1892 7.7436C13.1514 6.5922 12.6654 5.72393 11.7264 5.11049C10.7024 4.44513 9.3339 4.47344 8.33823 5.16711C7.4558 5.78528 6.99808 6.63467 6.96033 7.74831H11.6178C11.6178 7.94179 11.6037 8.10695 11.6178 8.27211C11.6367 8.46086 11.5612 8.50805 11.3819 8.50805C10.0842 8.50333 8.78652 8.50805 7.48884 8.50805C7.17739 8.50805 6.87067 8.50333 6.55923 8.51277C6.33744 8.5222 6.18172 8.70152 6.18172 8.90915C6.18172 9.11678 6.34688 9.28194 6.57338 9.29137C6.61585 9.29137 6.6536 9.29137 6.69607 9.29137C8.95168 9.29137 11.2026 9.29137 13.4582 9.29137C13.5006 9.29137 13.5384 9.29137 13.5809 9.29137C13.7932 9.27722 13.9536 9.1215 13.9631 8.91859C13.9725 8.71096 13.8168 8.53164 13.5997 8.51277C13.4818 8.50333 13.3591 8.50805 13.2364 8.50805C12.9674 8.50805 12.7031 8.50805 12.4295 8.50805V7.7436H13.1892ZM10.4711 3.87415C10.4711 3.37867 10.4711 2.89735 10.4711 2.41131C10.4711 1.41564 9.82466 0.764437 8.83842 0.759719C7.20571 0.755 5.56827 0.755 3.93555 0.759719C2.97291 0.759719 2.31699 1.42979 2.31699 2.38772C2.31699 5.89853 2.31699 9.40934 2.31699 12.9249V13.1467H3.10976C3.10976 13.0617 3.10976 12.9957 3.10976 12.9296C3.10976 10.6032 3.10976 8.27211 3.10976 5.94572C3.10976 4.86982 3.10504 3.79393 3.10976 2.71804C3.11447 2.06212 3.59108 1.55248 4.2234 1.54776C5.67208 1.53833 7.11605 1.53833 8.56473 1.54776C9.09796 1.54776 9.55097 1.93471 9.65006 2.46322C9.69253 2.70388 9.68309 2.9587 9.68781 3.20408C9.69253 3.42114 9.68781 3.64293 9.68781 3.86943H10.4759L10.4711 3.87415Z" fill="#152744"/>
<path d="M6.60156 11.6367H7.34242V12.3681H6.60156V11.6367Z" fill="#152744"/>
<path d="M11.9907 12.3681H11.2593V11.632H11.9907V12.3681Z" fill="#152744"/>
</g>
<defs>
<clipPath id="clip0_226_1459">
<rect width="24.0378" height="24" fill="white"/>
</clipPath>
</defs>
</svg>
