<svg width="28" height="24" viewBox="0 0 28 24" fill="none" xmlns="http://www.w3.org/2000/svg">
<g clip-path="url(#clip0_427_3362)">
<path d="M4.69442 3.43191C4.18478 3.46932 3.67514 3.51607 3.16082 3.55348C3.09536 3.55815 3.03458 3.53945 2.95509 3.5301C2.97847 3.26826 2.85223 3.01578 3.1842 2.83811C3.81073 2.50614 4.06321 1.78609 3.87151 1.08942C3.69851 0.453536 3.10003 0 2.45012 0C1.77216 0.00467563 1.19238 0.48159 1.02873 1.15956C0.865084 1.84687 1.14562 2.52484 1.7628 2.86616C1.91242 2.95032 1.96853 3.03448 1.96386 3.21216C1.95918 6.16715 1.95918 9.11747 1.96386 12.0725C1.96386 12.2314 1.92178 12.3203 1.78618 12.4138C0.645329 13.218 0.0374978 14.3448 9.27551e-05 15.7849C-0.0186098 16.4021 0.416224 16.8416 1.01003 16.851C1.15965 16.851 1.30927 16.851 1.45889 16.851V17.8562C1.29524 17.8656 1.1503 17.8749 1.01003 17.8796V21.9661H2.07607C2.22569 22.5786 2.37999 23.1677 2.5109 23.7662C2.55299 23.9532 2.6278 24.0047 2.80547 24C3.88086 23.9906 4.95626 23.9906 6.03165 24C6.22803 24 6.31219 23.9486 6.35895 23.7382C6.48519 23.1444 6.64416 22.5552 6.78443 21.9708C6.84521 21.9661 6.87794 21.9567 6.91067 21.9567C11.4694 21.9567 16.0281 21.9567 20.5869 21.9567C20.7365 21.9567 20.7973 22.0082 20.83 22.1531C20.9563 22.6955 21.1012 23.2332 21.2181 23.7802C21.2555 23.9579 21.335 24.0047 21.494 24.0047C22.5881 24 23.6775 24 24.7716 24.0047C24.9352 24.0047 25.01 23.9579 25.0474 23.7802C25.183 23.1771 25.3373 22.5786 25.4916 21.9521H26.553V17.8843C26.3893 17.8749 26.2491 17.8703 26.1088 17.8609V16.8556C26.2491 16.8556 26.366 16.8556 26.4875 16.8556C27.1748 16.8556 27.5956 16.4068 27.5582 15.6961C27.4928 14.3214 26.9083 13.2367 25.8189 12.4559C25.6506 12.3343 25.5898 12.2221 25.5898 12.0117C25.5945 9.13618 25.5992 6.26534 25.5898 3.38983C25.5898 3.11397 25.6459 2.955 25.8937 2.80538C26.4782 2.4547 26.712 1.74401 26.5109 1.07539C26.3286 0.439509 25.7394 0 25.0989 0C24.4443 0 23.8551 0.462887 23.6868 1.10345C23.5092 1.78609 23.7663 2.46406 24.3414 2.82876C24.6407 3.01578 24.6827 3.15137 24.5565 3.57218C24.0188 3.52542 23.4764 3.47399 22.934 3.44126C22.7143 3.42724 21.868 3.3571 21.6389 3.29164C20.7178 3.04851 19.8154 2.85213 18.9411 2.56224C17.9592 2.23963 17.0007 1.83752 16.0328 1.46347C14.4104 0.832262 12.8066 0.939801 11.2076 1.57101C10.2117 1.96376 9.21576 2.35652 8.20115 2.69316C7.54656 2.91292 6.85924 3.02981 6.18595 3.19345C6.10646 3.21216 6.0223 3.22151 5.91944 3.24021M24.6173 1.53828C24.6126 1.26242 24.8277 1.02864 25.0989 1.02396C25.3701 1.01929 25.5945 1.24372 25.5992 1.51958C25.5992 1.79544 25.3841 2.02922 25.1176 2.0339C24.8557 2.03857 24.6266 1.80947 24.6173 1.53361V1.53828ZM2.96912 4.59147C3.37122 4.56341 3.778 4.54471 4.18478 4.50731C6.56467 4.28755 8.85573 3.69375 11.058 2.72589C11.8996 2.35652 12.7739 2.06663 13.6997 2.04325C14.6769 2.01987 15.584 2.34717 16.477 2.70719C17.6132 3.1654 18.7494 3.62361 19.9416 3.9135C21.2929 4.24079 22.6535 4.46523 24.0375 4.54471C24.2011 4.55406 24.3601 4.56809 24.5238 4.58212C24.5471 4.58212 24.5705 4.60082 24.6032 4.61017V11.82C24.117 11.7826 23.6401 11.7405 23.1351 11.7031V11.1794C23.1351 10.2022 23.1351 9.22969 23.1351 8.25248C23.1351 7.13033 22.1532 6.48977 21.1994 7.01344C20.8394 7.20982 20.5401 7.24722 20.152 7.0976C19.1561 6.70953 18.1415 6.7329 17.1503 7.13501C16.8464 7.26125 16.6032 7.24255 16.3414 7.06955C16.0422 6.87785 15.7196 6.77499 15.3642 6.83577C14.7283 6.94798 14.2841 7.48568 14.2795 8.1543C14.2748 9.24372 14.2795 10.3378 14.2795 11.4272V11.7078H13.2929V11.4272C13.2929 10.3612 13.2929 9.29982 13.2929 8.23378C13.2929 7.11631 12.3017 6.47575 11.3525 7.00877C10.9878 7.20982 10.6886 7.2332 10.3052 7.08358C9.31394 6.70018 8.30868 6.72355 7.3268 7.12098C7.00886 7.2519 6.7517 7.2332 6.47116 7.05085C6.18127 6.86382 5.86333 6.77031 5.51733 6.83577C4.88612 6.95266 4.44194 7.49036 4.43726 8.15897C4.43259 9.23904 4.43726 10.3238 4.43726 11.4039V11.6937C3.9323 11.7358 3.46473 11.7732 2.97847 11.8106V4.59147H2.96912ZM22.1485 11.6423C22.1485 11.6657 22.1345 11.6891 22.1252 11.7265H15.2567V11.4693C15.2567 10.422 15.2567 9.37931 15.2567 8.33197C15.2567 7.88311 15.4717 7.72881 15.8364 7.9626C16.3788 8.31327 16.8744 8.41146 17.5056 8.10754C18.4969 7.62595 19.5068 7.8457 20.47 8.31794C20.629 8.39743 20.7459 8.39743 20.8955 8.30859C21.148 8.16365 21.4098 8.02805 21.6716 7.90649C21.9288 7.78492 22.1485 7.91584 22.1485 8.20573C22.1532 9.35126 22.1485 10.4921 22.1485 11.6376V11.6423ZM12.3063 11.7265H5.41447C5.41447 11.5301 5.41447 11.3477 5.41447 11.1654C5.41447 10.2162 5.41447 9.2671 5.41447 8.31794C5.41447 7.88779 5.61085 7.76622 5.98957 7.95792C6.26543 8.09819 6.53194 8.33664 6.81716 8.36002C7.09302 8.3834 7.38759 8.19638 7.66812 8.08884C8.67806 7.69608 9.65059 7.85038 10.5904 8.31327C10.7727 8.4021 10.913 8.4021 11.086 8.29924C11.3291 8.1543 11.5863 8.02805 11.8388 7.90649C12.0679 7.79895 12.297 7.92519 12.3017 8.17767C12.311 9.35593 12.3017 10.5295 12.3017 11.7265H12.3063ZM1.96853 1.51958C1.96853 1.24372 2.19764 1.01929 2.46882 1.02396C2.74001 1.02864 2.95509 1.26242 2.95041 1.53828C2.94574 1.81414 2.71663 2.04325 2.45012 2.03857C2.18361 2.0339 1.96386 1.79544 1.96853 1.51958ZM5.54071 22.8545C5.52669 22.9106 5.41915 22.9667 5.35369 22.9667C4.74118 22.976 4.124 22.976 3.51149 22.9667C3.44136 22.9667 3.33382 22.8966 3.31511 22.8311C3.23095 22.5552 3.17484 22.27 3.10471 21.9661H5.76514C5.69033 22.2747 5.62955 22.5646 5.55006 22.8498L5.54071 22.8545ZM24.2479 22.8545C24.2339 22.9059 24.1404 22.962 24.0843 22.9667C23.453 22.976 22.8218 22.976 22.1906 22.9667C22.1345 22.9667 22.041 22.9059 22.0223 22.8545C21.9381 22.5693 21.8774 22.2747 21.8025 21.9661H24.463C24.3882 22.2747 24.3274 22.5693 24.2479 22.8545ZM25.5805 20.9141H1.97788V18.8989H23.1164V17.8656H2.48285C2.48285 17.2437 2.42674 16.6406 2.49688 16.0608C2.59039 15.2893 3.2216 14.8077 4.01178 14.8077C9.73007 14.8077 15.453 14.8077 21.1713 14.8077C21.9662 14.8077 22.761 14.8077 23.5512 14.8077C24.477 14.8077 25.0942 15.4483 25.1035 16.4068C25.1035 16.8837 25.1035 17.3606 25.1035 17.8609H24.1404V18.8802H25.5805V20.9141ZM25.9545 15.5371C25.6319 14.4664 24.7014 13.7884 23.584 13.7838C20.7412 13.7838 17.8984 13.7838 15.0556 13.7838C11.418 13.7838 7.78034 13.7838 4.1427 13.7838C2.8195 13.7838 2.01061 14.3729 1.56175 15.654C1.53837 15.7288 1.43551 15.7943 1.35602 15.8177C1.25316 15.8457 1.14095 15.8223 0.953921 15.8223C1.02406 15.467 1.05678 15.135 1.15497 14.8264C1.56175 13.578 2.66988 12.7645 3.97438 12.7598C5.56877 12.7504 7.16783 12.7598 8.76222 12.7598C13.681 12.7598 18.5997 12.7598 23.5138 12.7598C25.1035 12.7598 26.3005 13.8071 26.553 15.4155C26.5717 15.5371 26.5717 15.6587 26.581 15.813C26.4828 15.813 26.4267 15.813 26.366 15.8223C26.1415 15.8551 26.0293 15.7896 25.9545 15.5324V15.5371Z" fill="#152744"/>
</g>
<defs>
<clipPath id="clip0_427_3362">
<rect width="27.5628" height="24" fill="white"/>
</clipPath>
</defs>
</svg>
