<svg width="21" height="24" viewBox="0 0 21 24" fill="none" xmlns="http://www.w3.org/2000/svg">
<g clip-path="url(#clip0_226_1450)">
<path d="M15.1379 21.6872H4.64695C4.64695 21.9608 4.65123 22.2259 4.64695 22.4909C4.62558 23.3203 3.95012 23.9829 3.12932 23.9957C2.28286 24.0086 1.59031 23.3502 1.56038 22.5037C1.55183 22.2686 1.55183 22.0335 1.56038 21.7984C1.56038 21.6872 1.53901 21.6231 1.41931 21.5974C0.662629 21.4179 0 20.6698 0 19.648C0.00855005 13.7784 0 7.91307 0.00427503 2.04774C0.00427503 1.06021 0.538653 0.316352 1.41931 0.0769505C1.61596 0.0256502 1.82971 0 2.03491 0C7.4129 0 12.7866 0 18.1603 0C19.3402 0 20.161 0.829355 20.161 2.01354C20.161 7.90025 20.161 13.787 20.161 19.6779C20.161 20.7382 19.4898 21.5034 18.4425 21.6616C18.3783 21.6701 18.3099 21.6787 18.2202 21.6915C18.2202 21.9565 18.2244 22.2173 18.2202 22.4781C18.1902 23.5426 17.1685 24.2522 16.1639 23.906C15.5696 23.705 15.1635 23.145 15.1421 22.4909C15.1336 22.2301 15.1421 21.9694 15.1421 21.6829L15.1379 21.6872ZM19.3915 6.96829H0.78233V17.0232H19.3915V6.97257V6.96829ZM19.3872 6.18169C19.3958 6.13894 19.4001 6.12184 19.4001 6.10046C19.4001 4.69398 19.4043 3.2875 19.4001 1.88101C19.4001 1.46633 19.1906 1.14998 18.8486 0.927681C18.6135 0.77378 18.3484 0.752405 18.0748 0.752405C16.647 0.752405 15.2234 0.752405 13.7955 0.752405C9.86676 0.752405 5.93801 0.752405 2.00926 0.752405C1.25258 0.752405 0.77378 1.23548 0.77378 1.99216C0.77378 3.31315 0.77378 4.62985 0.77378 5.95084C0.77378 6.02351 0.78233 6.09619 0.786605 6.17741H19.383L19.3872 6.18169ZM19.4043 17.814H0.778055C0.77378 17.8867 0.76523 17.9423 0.76523 18.0021C0.76523 18.5793 0.76523 19.1607 0.76523 19.7378C0.769505 20.4047 1.27823 20.9134 1.94514 20.9134C7.36587 20.9134 12.7909 20.9134 18.2116 20.9134C18.7716 20.9134 19.2248 20.5629 19.353 20.0157C19.3958 19.8404 19.3915 19.6566 19.3915 19.477C19.3958 18.9255 19.3915 18.3783 19.3915 17.814H19.4043ZM2.31706 21.6872C2.31706 21.9651 2.31279 22.2216 2.31706 22.4738C2.32561 22.8586 2.62487 23.1877 2.99252 23.2348C3.37727 23.2818 3.7663 23.0595 3.83897 22.6833C3.89882 22.3627 3.87745 22.0249 3.89455 21.6872H2.31706ZM15.8988 21.6872C15.8988 21.9736 15.886 22.2472 15.8988 22.5166C15.9202 22.897 16.2451 23.2091 16.617 23.2305C17.0232 23.2519 17.3951 22.9825 17.4421 22.5935C17.4763 22.2985 17.4507 21.995 17.4507 21.6872H15.8988Z" fill="#152744"/>
<path d="M17.4379 15.4713H2.72754V8.53723H17.4379V15.4713ZM3.48849 14.7018H16.6684V9.30246H3.49277V14.7018H3.48849Z" fill="#152744"/>
<path d="M10.0846 1.16284C11.3671 1.16284 12.4102 2.21023 12.4059 3.48846C12.3974 4.75814 11.3585 5.78842 10.0846 5.78842C8.80634 5.78842 7.75469 4.73677 7.76324 3.46281C7.77179 2.19313 8.81489 1.15857 10.0846 1.15857V1.16284ZM9.69127 1.99647C9.00299 2.129 8.51136 2.79163 8.53274 3.55258C8.54984 4.21094 9.08849 4.86929 9.69127 4.95052V2.00075V1.99647ZM10.4779 4.95052C11.1362 4.86929 11.6621 4.15964 11.6407 3.39441C11.6236 2.73605 11.0507 2.05205 10.4779 2.0093V4.95052Z" fill="#152744"/>
<path d="M13.9752 3.46271C13.9837 2.40251 14.8515 1.54323 15.9117 1.5475C16.9762 1.55178 17.8398 2.43243 17.8355 3.50546C17.8312 4.54429 16.9463 5.4164 15.9032 5.41213C14.8302 5.40785 13.9666 4.53574 13.9752 3.46699V3.46271ZM16.3521 2.42388C16.0357 2.20586 15.4714 2.28281 15.1166 2.61198C14.7318 2.96681 14.6207 3.53111 14.8515 3.93297C15.3517 3.43279 15.8562 2.92406 16.3521 2.42388ZM15.4372 4.52292C15.8348 4.7495 16.3863 4.65117 16.7368 4.29207C17.0917 3.92442 17.1814 3.38149 16.9549 3.01384C16.4547 3.51401 15.9502 4.01419 15.4372 4.51864V4.52292Z" fill="#152744"/>
<path d="M4.26667 1.54761C5.3226 1.54761 6.19043 2.41544 6.19043 3.47565C6.19043 4.53158 5.31832 5.41223 4.26667 5.40796C3.20218 5.40796 2.33435 4.5444 2.33008 3.48847C2.33008 2.41544 3.19363 1.54333 4.26239 1.54333L4.26667 1.54761ZM5.30977 3.95445C5.5449 3.51412 5.4252 2.94127 5.03617 2.59927C4.67279 2.28291 4.11276 2.21024 3.80069 2.43682C4.30087 2.93699 4.80104 3.44145 5.30977 3.95445ZM4.74119 4.51875C4.24102 3.99293 3.75366 3.47565 3.24493 2.94127C2.98416 3.46282 3.09103 3.98865 3.48434 4.34775C3.83489 4.66838 4.36927 4.74533 4.74119 4.51875Z" fill="#152744"/>
<path d="M14.3385 18.9939V19.7249H5.83545V18.9939H14.3385Z" fill="#152744"/>
<path d="M5.82666 13.9195V13.1842H10.0632V13.9195H5.82666Z" fill="#152744"/>
<path d="M4.28369 13.9238V13.1842H5.019V13.9238H4.28369Z" fill="#152744"/>
</g>
<defs>
<clipPath id="clip0_226_1450">
<rect width="20.161" height="24" fill="white"/>
</clipPath>
</defs>
</svg>
