<svg width="29" height="24" viewBox="0 0 29 24" fill="none" xmlns="http://www.w3.org/2000/svg">
<g clip-path="url(#clip0_226_1465)">
<path d="M19.9483 23.9778C19.8062 23.1247 19.664 22.2939 19.5351 21.4631C19.5085 21.2854 19.4418 21.2277 19.2597 21.2277C17.0472 21.2321 14.8347 21.2277 12.6177 21.2277C11.5425 21.2277 10.4674 21.2277 9.39223 21.2232C9.19675 21.2232 9.13455 21.2854 9.10345 21.4765C8.97461 22.3073 8.83244 23.1336 8.69471 23.9778H4.22526C4.14529 23.4979 4.06532 23.0181 3.98535 22.5339C3.92315 22.1562 3.86539 21.7741 3.78987 21.3965C3.77654 21.3299 3.68324 21.241 3.6166 21.2277C2.74136 21.0811 2.31041 20.5835 2.31041 19.6993C2.31041 18.4154 2.31041 17.1314 2.31041 15.8474C2.31041 15.6475 2.26598 15.5409 2.0705 15.4476C0.55995 14.7456 -0.133127 13.0707 0.0223713 11.6401C0.191198 10.0363 1.47072 8.65899 3.04792 8.38354C3.10123 8.37465 3.15454 8.35688 3.23007 8.33467C3.23007 7.94815 3.21674 7.56607 3.23007 7.17954C3.25673 6.42871 3.22119 5.66455 3.34559 4.92704C3.82541 2.12364 6.24673 0.0577348 9.09457 0.0177496C11.587 -0.0177928 14.0838 0.00886402 16.5762 0.00886402C17.5137 0.00886402 18.4555 -0.00890717 19.393 0.00886402C21.7965 0.0621776 23.5825 1.15511 24.7421 3.25655C25.2175 4.1229 25.413 5.06921 25.4174 6.05551C25.4174 6.74415 25.4219 7.43722 25.4174 8.12586C25.4174 8.29913 25.4707 8.35244 25.6351 8.39243C27.1457 8.72564 28.1497 9.65418 28.5229 11.1336C28.9139 12.6975 28.4341 14.0481 27.1812 15.0877C26.9946 15.2432 26.768 15.3632 26.5459 15.4698C26.3904 15.5409 26.3371 15.6297 26.3415 15.7941C26.346 17.0914 26.3415 18.3932 26.3415 19.6905C26.3415 20.5924 25.915 21.0766 25.022 21.2321C24.9554 21.2454 24.8709 21.3565 24.8576 21.432C24.7155 22.2184 24.5822 23.0092 24.4578 23.8001C24.4356 23.9333 24.3956 23.9911 24.249 23.9911C22.8628 23.9867 21.4722 23.9911 20.0861 23.9911C20.0461 23.9911 20.0105 23.9822 19.9572 23.9733L19.9483 23.9778ZM4.14529 8.29468C4.5718 8.44574 4.95832 8.58791 5.35373 8.71675C5.40704 8.73452 5.4959 8.71231 5.54477 8.67232C5.85577 8.40576 6.21119 8.31246 6.61549 8.31246C8.05939 8.31246 9.5033 8.31246 10.9472 8.31246C11.9069 8.31246 12.4755 8.87669 12.4755 9.83634C12.4755 11.2802 12.4755 12.7242 12.4755 14.1681C12.4755 14.3635 12.4444 14.559 12.4267 14.7634H16.243C16.2208 14.6035 16.1853 14.4657 16.1853 14.3236C16.1853 12.7686 16.1764 11.2136 16.1853 9.65418C16.1897 8.92112 16.7939 8.32134 17.527 8.3169C19.0731 8.30357 20.6236 8.31246 22.1697 8.3169C22.5074 8.3169 22.8184 8.42353 23.0716 8.65455C23.1738 8.74785 23.2538 8.73008 23.3737 8.68565C23.6714 8.57458 23.9735 8.46795 24.2845 8.39243C24.4444 8.35244 24.5066 8.30801 24.5066 8.1303C24.4978 7.38391 24.5066 6.63752 24.5022 5.89113C24.48 3.21657 22.2453 0.941852 19.5618 0.919638C16.3141 0.892981 13.0664 0.906309 9.81874 0.919638C9.25895 0.919638 8.69471 0.941852 8.14381 1.03959C6.16676 1.39057 4.4163 3.24322 4.20749 5.23804C4.11863 6.07773 4.15862 6.93519 4.14529 7.78376C4.14529 7.96592 4.14529 8.14807 4.14529 8.29024V8.29468ZM21.2545 20.308V17.5357H20.3571V16.6205H21.2545V15.7097H7.39297V16.6249H19.3885V17.5401H7.38853V20.3036H21.2501L21.2545 20.308ZM6.4511 20.3258C6.45999 20.2325 6.46887 20.1747 6.46887 20.1125C6.46887 17.4024 6.47776 14.6923 6.46443 11.9822C6.45999 10.8626 5.91797 10.0274 4.93166 9.52534C3.95869 9.03219 2.97683 9.10772 2.09272 9.76081C1.11974 10.4805 0.728776 11.4668 0.977573 12.6575C1.2086 13.7771 1.86169 14.5457 3.00349 14.83C3.18564 14.8745 3.22563 14.9544 3.22119 15.1233C3.21674 16.6649 3.22119 18.2021 3.22119 19.7438C3.22119 20.1614 3.39001 20.3258 3.80319 20.3302C4.5407 20.3302 5.2782 20.3302 6.01571 20.3302C6.15788 20.3302 6.30005 20.3302 6.4511 20.3302V20.3258ZM22.1919 20.3125C22.2897 20.3169 22.3652 20.3258 22.4452 20.3258C23.2138 20.3258 23.9868 20.3258 24.7554 20.3258C25.2975 20.3258 25.4307 20.1925 25.4352 19.6416C25.4352 18.1355 25.4352 16.6249 25.4352 15.1188C25.4352 14.9456 25.4707 14.8523 25.6573 14.8256C25.8039 14.8034 25.9505 14.7501 26.0927 14.6879C27.0568 14.2569 27.5366 13.475 27.7188 12.462C28.0431 10.636 26.3149 8.91668 24.4933 9.26322C23.0938 9.52978 22.1919 10.6316 22.1875 12.1022C22.1831 14.7545 22.1875 17.4113 22.1875 20.0637C22.1875 20.1436 22.1964 20.2192 22.2008 20.3125H22.1919ZM6.21119 9.27654C6.26006 9.34318 6.27339 9.36984 6.2956 9.39206C7.04199 10.1518 7.38853 11.067 7.37965 12.1333C7.37076 12.933 7.37965 13.7371 7.3752 14.5368C7.3752 14.7234 7.41963 14.7856 7.61511 14.7856C8.74359 14.7767 9.8765 14.7856 11.005 14.7812C11.3782 14.7812 11.5514 14.6035 11.5514 14.2391C11.5514 12.7464 11.5514 11.258 11.5514 9.76525C11.5514 9.40983 11.3737 9.22323 11.0227 9.22323C9.52108 9.22323 8.02385 9.22323 6.52219 9.22323C6.42889 9.22323 6.33115 9.25433 6.20675 9.27654H6.21119ZM22.4319 9.27654C22.3075 9.25433 22.2142 9.22323 22.1164 9.22323C20.6147 9.22323 19.1175 9.22323 17.6159 9.22323C17.2649 9.22323 17.0872 9.40538 17.0872 9.76525C17.0872 11.258 17.0872 12.7464 17.0872 14.2391C17.0872 14.6079 17.2649 14.7856 17.6336 14.7856C18.7621 14.7856 19.895 14.7856 21.0235 14.7901C21.219 14.7901 21.2678 14.7279 21.2634 14.5413C21.2545 13.6927 21.259 12.8397 21.2634 11.9911C21.2634 11.2047 21.4944 10.4894 21.952 9.85411C22.0853 9.66751 22.2453 9.49868 22.423 9.28099L22.4319 9.27654ZM4.68287 21.241C4.77617 21.7964 4.87391 22.325 4.94944 22.8537C4.97609 23.0314 5.03829 23.0936 5.22489 23.0936C5.97572 23.0848 6.731 23.0892 7.48183 23.0936C7.92167 23.0936 7.92611 23.0936 8.00164 22.6716C8.08161 22.2006 8.15269 21.7341 8.23266 21.2454H4.68731L4.68287 21.241ZM23.9557 21.2499H20.4148C20.5081 21.8274 20.5925 22.3828 20.6992 22.9337C20.7125 22.9959 20.8236 23.0803 20.8858 23.0803C21.7521 23.0892 22.6184 23.0892 23.4848 23.0803C23.5514 23.0803 23.6625 22.9959 23.6758 22.9337C23.778 22.3828 23.8624 21.8274 23.9602 21.2499H23.9557Z" fill="#152744"/>
<path d="M3.23877 12.4354H4.12289V11.5602H3.23877V12.4354Z" fill="white"/>
<path d="M3.23877 12.4354V11.5602H4.12289V12.4354H3.23877Z" fill="#152744"/>
<path d="M25.4041 11.5646V12.4398H24.52V11.5646H25.4041Z" fill="#152744"/>
</g>
<defs>
<clipPath id="clip0_226_1465">
<rect width="28.6516" height="24" fill="white"/>
</clipPath>
</defs>
</svg>
