<svg width="26" height="24" viewBox="0 0 26 24" fill="none" xmlns="http://www.w3.org/2000/svg">
<g clip-path="url(#clip0_212_4475)">
<path d="M12.4149 15.211V14.4016C12.3291 14.4016 12.2473 14.3894 12.1656 14.3894C11.2499 14.3894 10.3301 14.3894 9.41441 14.3894C8.92386 14.3894 8.82575 14.2953 8.82167 13.8089C8.82167 13.7476 8.81349 13.6863 8.8094 13.6086H3.20491C3.20082 13.674 3.19264 13.7394 3.19264 13.8048C3.19264 17.0179 3.19264 20.2269 3.19264 23.44C3.19264 23.5217 3.19264 23.6076 3.17629 23.6893C3.13541 23.8774 2.96372 24.0041 2.77976 23.9959C2.59581 23.9877 2.44047 23.8447 2.41594 23.6566C2.40368 23.5749 2.40777 23.489 2.40777 23.4073C2.40777 20.2228 2.40777 17.0383 2.40777 13.8539C2.40777 13.6454 2.3628 13.5759 2.14614 13.5881C1.71691 13.6045 1.60654 13.4778 1.60654 13.0485C1.60654 12.7092 1.60654 12.37 1.60654 11.998C1.24681 11.998 0.911599 11.998 0.572305 11.998C0.114461 11.9939 0 11.8794 0 11.4134C0 11.0046 0 10.5917 0 10.1829C0 9.72509 0.110373 9.61063 0.560041 9.61063C2.6326 9.61063 4.70516 9.61063 6.77363 9.61063C7.3909 9.61063 8.01226 9.61063 8.62953 9.61063C8.77261 9.61063 8.82984 9.56975 8.82167 9.42258C8.8094 9.22228 8.82167 9.02197 8.82167 8.78896C8.42923 8.78896 8.05723 8.8094 7.68523 8.78079C7.46449 8.76443 7.22739 8.71947 7.03117 8.62136C6.63464 8.42105 6.42207 8.06949 6.42207 7.62391C6.4139 5.4696 6.4139 3.31528 6.42207 1.15687C6.42207 0.486459 6.96168 0.00408789 7.66888 0C9.19775 0 10.7266 0 12.2555 0C14.1318 0 16.0082 0 17.8845 0C18.7348 0 19.2213 0.482371 19.2213 1.32856C19.2213 3.37251 19.2213 5.41645 19.2213 7.4604C19.2213 8.30659 18.7348 8.78896 17.8845 8.78896C17.537 8.78896 17.1896 8.78896 16.8135 8.78896C16.8135 9.03832 16.8053 9.27542 16.8217 9.50843C16.8217 9.54522 16.9239 9.60245 16.9811 9.60654C17.3408 9.61472 17.7046 9.61063 18.0644 9.61063C20.3986 9.61063 22.7368 9.61063 25.071 9.61063C25.5125 9.61063 25.6311 9.72509 25.6311 10.1625C25.6311 10.6162 25.6311 11.0659 25.6311 11.5197C25.6311 11.8426 25.4798 11.9939 25.161 11.998C24.793 11.998 24.4251 11.998 24.0245 11.998C24.0245 12.3495 24.0245 12.6888 24.0245 13.0281C24.0245 13.4819 23.9182 13.6045 23.4604 13.5881C23.2642 13.5841 23.2192 13.6495 23.2192 13.8334C23.2233 17.0097 23.2192 20.186 23.2192 23.3664C23.2192 23.4359 23.2192 23.5054 23.2192 23.5749C23.2069 23.8283 23.0475 24 22.8268 24C22.606 24 22.4425 23.8242 22.4384 23.5708C22.4384 22.6265 22.4384 21.6781 22.4384 20.7338C22.4384 18.42 22.4384 16.1022 22.4384 13.7885C22.4384 13.7353 22.4343 13.6781 22.4302 13.6086H16.8258C16.8217 13.7067 16.8135 13.8048 16.8135 13.8988C16.8094 14.2586 16.6786 14.3935 16.3229 14.3935C15.3827 14.3935 14.4466 14.3935 13.5064 14.3935C13.4165 14.3935 13.3306 14.3935 13.2243 14.3935V15.2151C13.302 15.2151 13.3837 15.2151 13.4614 15.2151C14.4057 15.2151 15.3541 15.2151 16.2984 15.2151C16.6949 15.2151 16.838 15.3746 16.8012 15.7711C16.7113 16.7971 15.8978 17.5616 14.8636 17.5943C14.3975 17.6065 13.9315 17.5943 13.4655 17.5984C13.3919 17.5984 13.3143 17.5984 13.2243 17.5984C13.2202 17.6842 13.2121 17.7496 13.2121 17.8191C13.2121 19.0373 13.2121 20.2514 13.208 21.4696C13.208 21.6495 13.2611 21.719 13.4369 21.7557C14.4262 21.9683 15.4154 22.1891 16.4047 22.4139C16.7276 22.4875 16.8094 22.5856 16.8094 22.9167C16.8094 23.1375 16.8135 23.3623 16.8094 23.583C16.8012 23.8406 16.6336 24.0082 16.4129 24C16.1962 23.9959 16.0491 23.8324 16.0327 23.583C16.0041 23.117 16.0041 23.117 15.5585 23.0148C14.6919 22.8227 13.8252 22.6306 12.9545 22.4425C12.8769 22.4262 12.7869 22.418 12.7092 22.4343C11.7322 22.6469 10.7593 22.8717 9.78232 23.0802C9.63516 23.1129 9.5861 23.1742 9.59836 23.3173C9.60654 23.4195 9.60654 23.5258 9.59836 23.628C9.57792 23.8447 9.41441 23.9959 9.21819 24C9.02197 24 8.8421 23.8528 8.83393 23.6362C8.81758 23.35 8.82167 23.068 8.83393 22.7818C8.8421 22.5611 8.99336 22.4589 9.19775 22.4139C10.0317 22.2299 10.8656 22.046 11.6995 21.8579C11.9039 21.813 12.1083 21.7721 12.3086 21.719C12.3577 21.7067 12.4231 21.6331 12.4231 21.5881C12.4313 20.2678 12.4272 18.9474 12.4272 17.5943C12.3291 17.5943 12.2514 17.5943 12.1696 17.5943C11.6014 17.582 11.025 17.6106 10.465 17.5452C9.5534 17.4389 8.82167 16.556 8.82984 15.6403C8.82984 15.3541 8.98518 15.211 9.29995 15.211C10.2524 15.211 11.2049 15.211 12.1574 15.211C12.2391 15.211 12.3209 15.211 12.4231 15.211H12.4149ZM7.20286 6.40572C7.83648 6.40572 8.4374 6.40981 9.04241 6.40163C9.13643 6.40163 9.25498 6.3444 9.32039 6.27491C9.70056 5.87021 10.1625 5.62494 10.7144 5.61676C12.1124 5.60041 13.5064 5.6045 14.9044 5.61676C15.4645 5.62085 15.9346 5.86203 16.3189 6.27491C16.3843 6.3444 16.5028 6.39755 16.5968 6.40163C17.1405 6.4139 17.6801 6.40572 18.2238 6.40572C18.2892 6.40572 18.3546 6.40163 18.4364 6.39755V6.16454C18.4364 4.54573 18.4364 2.92693 18.4364 1.30404C18.4364 0.915687 18.2974 0.784875 17.905 0.780787C14.512 0.780787 11.1231 0.780787 7.7302 0.780787C7.33776 0.780787 7.20286 0.915687 7.20286 1.30404C7.20286 2.92284 7.20286 4.54165 7.20286 6.16454V6.40572ZM9.61472 13.6004C9.70056 13.6045 9.7537 13.6127 9.81094 13.6127C11.8263 13.6127 13.8416 13.6127 15.8569 13.6127C16.0123 13.6127 16.0409 13.5554 16.0409 13.4165C16.0368 12.6316 16.0409 11.8467 16.0409 11.0618C16.0409 9.90904 16.0491 8.75217 16.0368 7.59939C16.0286 6.92488 15.5217 6.39755 14.8758 6.39346C13.5064 6.38528 12.1369 6.38937 10.7675 6.39346C10.4691 6.39346 10.2115 6.50792 9.99898 6.71231C9.70874 6.9862 9.60245 7.32959 9.60654 7.72611C9.61063 9.60245 9.60654 11.4788 9.60654 13.3551C9.60654 13.4287 9.61472 13.5064 9.6188 13.5963L9.61472 13.6004ZM8.82167 11.1967C8.82167 11.0087 8.8094 10.8288 8.82167 10.653C8.8421 10.4405 8.76852 10.3832 8.55595 10.3873C6.05008 10.3955 3.54011 10.3914 1.03424 10.3914C0.952478 10.3914 0.874808 10.4037 0.797138 10.4078V11.2008H8.82167V11.1967ZM24.838 10.3873C24.7317 10.3873 24.6295 10.3873 24.5273 10.3873C22.8677 10.3873 21.208 10.3873 19.5483 10.3873C18.7062 10.3873 17.8682 10.3873 17.0261 10.3873C16.9607 10.3873 16.838 10.4241 16.8339 10.4486C16.8176 10.698 16.8258 10.9474 16.8258 11.1886H24.838V10.3832V10.3873ZM8.80531 12.002H2.40368V12.7951H8.80531V12.002ZM23.2356 12.0102H16.8298V12.791H23.2356V12.0102ZM15.9346 16.0082H9.68012C9.83137 16.3965 10.0807 16.6704 10.4609 16.744C10.8043 16.8094 11.164 16.8012 11.5156 16.8053C12.6275 16.8135 13.7353 16.8135 14.8472 16.8053C15.3664 16.8053 15.8242 16.4619 15.9346 16.0082ZM7.20695 7.20286C7.20695 7.36229 7.19468 7.50536 7.20695 7.64844C7.2233 7.83648 7.34185 7.97956 7.52172 7.98774C7.94686 8.00818 8.37609 7.99591 8.82575 7.99591V7.20286H7.20695ZM16.8298 8.00409C17.255 8.00409 17.6597 8.00818 18.0603 8.00409C18.2361 8.00409 18.3792 7.8978 18.4119 7.7302C18.4446 7.5626 18.42 7.37864 18.42 7.21512H16.7971C16.8094 7.48493 16.8217 7.73429 16.8339 8.00818L16.8298 8.00409Z" fill="#152744"/>
</g>
<defs>
<clipPath id="clip0_212_4475">
<rect width="25.6392" height="24" fill="white"/>
</clipPath>
</defs>
</svg>
